<svg width="310" height="222" viewBox="0 0 310 222" fill="none" xmlns="http://www.w3.org/2000/svg">
<rect x="1" y="1" width="308" height="220" rx="26.2295" fill="#C1DEFF" fill-opacity="0.1"/>
<rect x="1" y="1" width="308" height="220" rx="26.2295" stroke="url(#paint0_linear_667_10)" stroke-opacity="0.1" stroke-width="1.96721"/>
<rect x="25" y="114" width="123" height="83" rx="7.86885" fill="white"/>
<rect opacity="0.4" x="148" y="114" width="80" height="83" rx="7.86885" fill="#C1DEFF"/>
<rect opacity="0.2" x="228" y="114" width="57" height="83" rx="7.86885" fill="#C1DEFF"/>
<path d="M26.4382 29.9091H28.8352L33.0028 40.0852H33.1562L37.3239 29.9091H39.7209V43H37.8416V33.527H37.7202L33.8594 42.9808H32.2997L28.4389 33.5206H28.3175V43H26.4382V29.9091ZM45.2963 43.2173C44.6742 43.2173 44.1117 43.1023 43.6088 42.8722C43.106 42.6378 42.7076 42.299 42.4135 41.8558C42.1238 41.4126 41.9789 40.8693 41.9789 40.2259C41.9789 39.6719 42.0854 39.2159 42.2985 38.858C42.5115 38.5 42.7992 38.2166 43.1614 38.0078C43.5236 37.799 43.9284 37.6413 44.3759 37.5348C44.8233 37.4283 45.2793 37.3473 45.7438 37.2919C46.3319 37.2237 46.8091 37.1683 47.1756 37.1257C47.5421 37.0788 47.8084 37.0043 47.9746 36.902C48.1408 36.7997 48.2239 36.6335 48.2239 36.4034V36.3587C48.2239 35.8004 48.0662 35.3679 47.7509 35.0611C47.4398 34.7543 46.9753 34.6009 46.3574 34.6009C45.714 34.6009 45.2069 34.7436 44.8361 35.0291C44.4696 35.3104 44.2161 35.6236 44.0755 35.9688L42.2793 35.5597C42.4924 34.9631 42.8034 34.4815 43.2125 34.1151C43.6259 33.7443 44.101 33.4759 44.638 33.3097C45.1749 33.1392 45.7395 33.054 46.3319 33.054C46.7239 33.054 47.1394 33.1009 47.5783 33.1946C48.0215 33.2841 48.4348 33.4503 48.8184 33.6932C49.2061 33.9361 49.5236 34.2834 49.7708 34.7351C50.0179 35.1825 50.1415 35.7642 50.1415 36.4801V43H48.275V41.6577H48.1983C48.0748 41.9048 47.8894 42.1477 47.6422 42.3864C47.3951 42.625 47.0776 42.8232 46.6898 42.9808C46.302 43.1385 45.8375 43.2173 45.2963 43.2173ZM45.7118 41.6832C46.2402 41.6832 46.6919 41.5788 47.0669 41.37C47.4462 41.1612 47.7338 40.8885 47.9299 40.5518C48.1301 40.2109 48.2303 39.8466 48.2303 39.4588V38.1932C48.1621 38.2614 48.03 38.3253 47.834 38.3849C47.6422 38.4403 47.4228 38.4893 47.1756 38.532C46.9284 38.5703 46.6877 38.6065 46.4533 38.6406C46.2189 38.6705 46.0229 38.696 45.8652 38.7173C45.4945 38.7642 45.1557 38.843 44.8489 38.9538C44.5463 39.0646 44.3034 39.2244 44.1202 39.4332C43.9412 39.6378 43.8517 39.9105 43.8517 40.2514C43.8517 40.7244 44.0265 41.0824 44.3759 41.3253C44.7253 41.5639 45.1706 41.6832 45.7118 41.6832ZM54.1957 33.1818L56.3626 37.0043L58.5487 33.1818H60.6389L57.5771 38.0909L60.6644 43H58.5742L56.3626 39.331L54.1573 43H52.0607L55.1161 38.0909L52.0991 33.1818H54.1957ZM62.6012 43V33.1818H64.5124V43H62.6012ZM63.5664 31.6669C63.234 31.6669 62.9485 31.5561 62.7099 31.3345C62.4755 31.1087 62.3583 30.8402 62.3583 30.5291C62.3583 30.2138 62.4755 29.9453 62.7099 29.7237C62.9485 29.4979 63.234 29.3849 63.5664 29.3849C63.8988 29.3849 64.1822 29.4979 64.4165 29.7237C64.6552 29.9453 64.7745 30.2138 64.7745 30.5291C64.7745 30.8402 64.6552 31.1087 64.4165 31.3345C64.1822 31.5561 63.8988 31.6669 63.5664 31.6669ZM67.0836 43V33.1818H68.9181V34.7798H69.0396C69.2441 34.2386 69.5787 33.8168 70.0431 33.5142C70.5076 33.2074 71.0637 33.054 71.7115 33.054C72.3677 33.054 72.9174 33.2074 73.3606 33.5142C73.8081 33.821 74.1383 34.2429 74.3514 34.7798H74.4537C74.688 34.2557 75.0609 33.8381 75.5723 33.527C76.0836 33.2116 76.693 33.054 77.4004 33.054C78.291 33.054 79.0176 33.3331 79.5801 33.8913C80.1468 34.4496 80.4302 35.2912 80.4302 36.4162V43H78.519V36.5952C78.519 35.9304 78.3379 35.4489 77.9757 35.1506C77.6135 34.8523 77.1809 34.7031 76.6781 34.7031C76.0559 34.7031 75.5723 34.8949 75.2271 35.2784C74.8819 35.6577 74.7093 36.1456 74.7093 36.7422V43H72.8045V36.4737C72.8045 35.9411 72.6383 35.5128 72.3059 35.1889C71.9735 34.8651 71.541 34.7031 71.0083 34.7031C70.6461 34.7031 70.3116 34.799 70.0048 34.9908C69.7022 35.1783 69.4572 35.4403 69.2697 35.777C69.0865 36.1136 68.9949 36.5036 68.9949 36.9467V43H67.0836ZM89.2113 38.9283V33.1818H91.1289V43H89.2496V41.2997H89.1474C88.9215 41.8239 88.5593 42.2607 88.0607 42.6101C87.5664 42.9553 86.9506 43.1278 86.2134 43.1278C85.5827 43.1278 85.0245 42.9893 84.5387 42.7124C84.0572 42.4311 83.6779 42.0156 83.4009 41.4659C83.1282 40.9162 82.9918 40.2365 82.9918 39.4268V33.1818H84.9031V39.1967C84.9031 39.8658 85.0884 40.3984 85.4592 40.7947C85.8299 41.1911 86.3114 41.3892 86.9038 41.3892C87.2617 41.3892 87.6175 41.2997 87.9712 41.1207C88.3292 40.9418 88.6254 40.6712 88.8597 40.3089C89.0984 39.9467 89.2156 39.4865 89.2113 38.9283ZM93.6969 43V33.1818H95.5314V34.7798H95.6529C95.8574 34.2386 96.1919 33.8168 96.6564 33.5142C97.1209 33.2074 97.677 33.054 98.3248 33.054C98.981 33.054 99.5307 33.2074 99.9739 33.5142C100.421 33.821 100.752 34.2429 100.965 34.7798H101.067C101.301 34.2557 101.674 33.8381 102.186 33.527C102.697 33.2116 103.306 33.054 104.014 33.054C104.904 33.054 105.631 33.3331 106.193 33.8913C106.76 34.4496 107.044 35.2912 107.044 36.4162V43L105.132 43V36.5952C105.132 35.9304 104.951 35.4489 104.589 35.1506C104.227 34.8523 103.794 34.7031 103.291 34.7031C102.669 34.7031 102.186 34.8949 101.84 35.2784C101.495 35.6577 101.323 36.1456 101.323 36.7422V43H99.4178V36.4737C99.4178 35.9411 99.2516 35.5128 98.9192 35.1889C98.5868 34.8651 98.1543 34.7031 97.6216 34.7031C97.2594 34.7031 96.9249 34.799 96.6181 34.9908C96.3155 35.1783 96.0705 35.4403 95.883 35.777C95.6998 36.1136 95.6081 36.5036 95.6081 36.9467V43H93.6969ZM114.522 43V29.9091H119.188C120.203 29.9091 121.044 30.0838 121.713 30.4332C122.387 30.7827 122.889 31.2663 123.222 31.8842C123.554 32.4979 123.72 33.2074 123.72 34.0128C123.72 34.8139 123.552 35.5192 123.215 36.1286C122.883 36.7337 122.38 37.2045 121.707 37.5412C121.038 37.8778 120.196 38.0462 119.182 38.0462H115.647V36.3459H119.003C119.642 36.3459 120.162 36.2543 120.563 36.071C120.968 35.8878 121.264 35.6214 121.451 35.272C121.639 34.9226 121.732 34.5028 121.732 34.0128C121.732 33.5185 121.637 33.0902 121.445 32.728C121.257 32.3658 120.961 32.0888 120.556 31.897C120.156 31.701 119.629 31.603 118.977 31.603H116.497V43H114.522ZM120.985 37.0937L124.219 43H121.969L118.798 37.0937H120.985ZM137.495 36.4545C137.495 37.8523 137.24 39.054 136.728 40.0597C136.217 41.0611 135.516 41.8324 134.625 42.3736C133.739 42.9105 132.731 43.179 131.602 43.179C130.468 43.179 129.456 42.9105 128.566 42.3736C127.679 41.8324 126.98 41.0589 126.469 40.0533C125.958 39.0476 125.702 37.848 125.702 36.4545C125.702 35.0568 125.958 33.8572 126.469 32.8558C126.98 31.8501 127.679 31.0788 128.566 30.5419C129.456 30.0007 130.468 29.7301 131.602 29.7301C132.731 29.7301 133.739 30.0007 134.625 30.5419C135.516 31.0788 136.217 31.8501 136.728 32.8558C137.24 33.8572 137.495 35.0568 137.495 36.4545ZM135.539 36.4545C135.539 35.3892 135.367 34.4922 135.021 33.7635C134.681 33.0305 134.212 32.4766 133.615 32.1016C133.023 31.7223 132.352 31.5327 131.602 31.5327C130.847 31.5327 130.174 31.7223 129.582 32.1016C128.99 32.4766 128.521 33.0305 128.176 33.7635C127.835 34.4922 127.664 35.3892 127.664 36.4545C127.664 37.5199 127.835 38.419 128.176 39.152C128.521 39.8807 128.99 40.4347 129.582 40.8139C130.174 41.1889 130.847 41.3764 131.602 41.3764C132.352 41.3764 133.023 41.1889 133.615 40.8139C134.212 40.4347 134.681 39.8807 135.021 39.152C135.367 38.419 135.539 37.5199 135.539 36.4545ZM141.933 29.9091V43H139.958V29.9091H141.933Z" fill="white"/>
<path opacity="0.5" d="M29.3153 98.1392C28.6326 98.1392 28.0294 98.0182 27.5057 97.7763C26.9853 97.531 26.5793 97.1946 26.2876 96.767C25.996 96.3362 25.8518 95.8456 25.8551 95.2955C25.8518 94.8646 25.9363 94.4669 26.1087 94.1023C26.281 93.7344 26.5163 93.4278 26.8146 93.1825C27.1162 92.9339 27.4527 92.7765 27.8239 92.7102V92.6506C27.3366 92.5246 26.9489 92.2512 26.6605 91.8303C26.3722 91.406 26.2296 90.9238 26.233 90.3835C26.2296 89.8665 26.3606 89.4041 26.6257 88.9964C26.8909 88.5888 27.2554 88.2673 27.7195 88.032C28.1868 87.7966 28.7188 87.679 29.3153 87.679C29.9053 87.679 30.4323 87.7966 30.8963 88.032C31.3603 88.2673 31.7249 88.5888 31.9901 88.9964C32.2585 89.4041 32.3944 89.8665 32.3977 90.3835C32.3944 90.9238 32.2469 91.406 31.9553 91.8303C31.6669 92.2512 31.2841 92.5246 30.8068 92.6506V92.7102C31.1747 92.7765 31.5062 92.9339 31.8011 93.1825C32.0961 93.4278 32.3314 93.7344 32.5071 94.1023C32.6828 94.4669 32.7723 94.8646 32.7756 95.2955C32.7723 95.8456 32.6231 96.3362 32.3281 96.767C32.0365 97.1946 31.6304 97.531 31.1101 97.7763C30.593 98.0182 29.9948 98.1392 29.3153 98.1392ZM29.3153 97.0455C29.776 97.0455 30.1738 96.9709 30.5085 96.8217C30.8433 96.6726 31.1018 96.4621 31.2841 96.1903C31.4664 95.9186 31.5592 95.6004 31.5625 95.2358C31.5592 94.8513 31.4598 94.5116 31.2642 94.2166C31.0687 93.9216 30.8018 93.6896 30.4638 93.5206C30.129 93.3516 29.7462 93.267 29.3153 93.267C28.8812 93.267 28.4934 93.3516 28.152 93.5206C27.8139 93.6896 27.5471 93.9216 27.3516 94.2166C27.1593 94.5116 27.0649 94.8513 27.0682 95.2358C27.0649 95.6004 27.1527 95.9186 27.3317 96.1903C27.514 96.4621 27.7741 96.6726 28.1122 96.8217C28.4503 96.9709 28.8513 97.0455 29.3153 97.0455ZM29.3153 92.2131C29.6799 92.2131 30.0031 92.1402 30.2848 91.9943C30.5698 91.8485 30.7936 91.6446 30.956 91.3828C31.1184 91.121 31.2012 90.8144 31.2045 90.4631C31.2012 90.1184 31.12 89.8184 30.9609 89.5632C30.8018 89.3047 30.5814 89.1058 30.2997 88.9666C30.018 88.8241 29.6899 88.7528 29.3153 88.7528C28.9342 88.7528 28.6011 88.8241 28.3161 88.9666C28.031 89.1058 27.8106 89.3047 27.6548 89.5632C27.4991 89.8184 27.4228 90.1184 27.4261 90.4631C27.4228 90.8144 27.5007 91.121 27.6598 91.3828C27.8222 91.6446 28.0459 91.8485 28.331 91.9943C28.616 92.1402 28.9441 92.2131 29.3153 92.2131ZM38.002 98.1392C37.2529 98.1392 36.6149 97.9354 36.0879 97.5277C35.5609 97.1167 35.1582 96.5218 34.8798 95.7429C34.6014 94.9607 34.4622 94.0161 34.4622 92.9091C34.4622 91.8087 34.6014 90.8691 34.8798 90.0902C35.1615 89.308 35.5659 88.7114 36.0929 88.3004C36.6232 87.8861 37.2595 87.679 38.002 87.679C38.7444 87.679 39.3791 87.8861 39.9061 88.3004C40.4364 88.7114 40.8407 89.308 41.1191 90.0902C41.4009 90.8691 41.5417 91.8087 41.5417 92.9091C41.5417 94.0161 41.4025 94.9607 41.1241 95.7429C40.8457 96.5218 40.443 97.1167 39.916 97.5277C39.389 97.9354 38.751 98.1392 38.002 98.1392ZM38.002 97.0455C38.7444 97.0455 39.3211 96.6875 39.7321 95.9716C40.1431 95.2557 40.3485 94.2348 40.3485 92.9091C40.3485 92.0275 40.2541 91.2768 40.0652 90.657C39.8796 90.0372 39.6111 89.5649 39.2598 89.2401C38.9118 88.9152 38.4925 88.7528 38.002 88.7528C37.2662 88.7528 36.6911 89.1158 36.2768 89.8416C35.8625 90.5642 35.6554 91.5866 35.6554 92.9091C35.6554 93.7907 35.7482 94.5398 35.9338 95.1562C36.1194 95.7727 36.3862 96.2417 36.7342 96.5632C37.0855 96.8847 37.5081 97.0455 38.002 97.0455ZM46.752 98.1392C46.0029 98.1392 45.3649 97.9354 44.8379 97.5277C44.3109 97.1167 43.9082 96.5218 43.6298 95.7429C43.3514 94.9607 43.2122 94.0161 43.2122 92.9091C43.2122 91.8087 43.3514 90.8691 43.6298 90.0902C43.9115 89.308 44.3159 88.7114 44.8429 88.3004C45.3732 87.8861 46.0095 87.679 46.752 87.679C47.4944 87.679 48.1291 87.8861 48.6561 88.3004C49.1864 88.7114 49.5907 89.308 49.8691 90.0902C50.1509 90.8691 50.2917 91.8087 50.2917 92.9091C50.2917 94.0161 50.1525 94.9607 49.8741 95.7429C49.5957 96.5218 49.193 97.1167 48.666 97.5277C48.139 97.9354 47.501 98.1392 46.752 98.1392ZM46.752 97.0455C47.4944 97.0455 48.0711 96.6875 48.4821 95.9716C48.8931 95.2557 49.0985 94.2348 49.0985 92.9091C49.0985 92.0275 49.0041 91.2768 48.8152 90.657C48.6296 90.0372 48.3611 89.5649 48.0098 89.2401C47.6618 88.9152 47.2425 88.7528 46.752 88.7528C46.0162 88.7528 45.4411 89.1158 45.0268 89.8416C44.6125 90.5642 44.4054 91.5866 44.4054 92.9091C44.4054 93.7907 44.4982 94.5398 44.6838 95.1562C44.8694 95.7727 45.1362 96.2417 45.4842 96.5632C45.8355 96.8847 46.2581 97.0455 46.752 97.0455ZM57.3713 96.0909V95.554C57.3713 95.1828 57.4475 94.843 57.6 94.5348C57.7557 94.2232 57.9811 93.9747 58.2761 93.7891C58.5744 93.6001 58.9357 93.5057 59.3599 93.5057C59.7908 93.5057 60.152 93.6001 60.4437 93.7891C60.7354 93.9747 60.9558 94.2232 61.1049 94.5348C61.2541 94.843 61.3287 95.1828 61.3287 95.554V96.0909C61.3287 96.4621 61.2524 96.8035 61.1 97.1151C60.9508 97.4233 60.7288 97.6719 60.4338 97.8608C60.1421 98.0464 59.7842 98.1392 59.3599 98.1392C58.929 98.1392 58.5661 98.0464 58.2711 97.8608C57.9761 97.6719 57.7524 97.4233 57.6 97.1151C57.4475 96.8035 57.3713 96.4621 57.3713 96.0909ZM58.3855 95.554V96.0909C58.3855 96.3991 58.4584 96.6759 58.6042 96.9212C58.7501 97.1631 59.002 97.2841 59.3599 97.2841C59.7079 97.2841 59.9532 97.1631 60.0957 96.9212C60.2415 96.6759 60.3145 96.3991 60.3145 96.0909V95.554C60.3145 95.2457 60.2449 94.9706 60.1056 94.7287C59.9664 94.4834 59.7179 94.3608 59.3599 94.3608C59.0119 94.3608 58.7617 94.4834 58.6092 94.7287C58.4601 94.9706 58.3855 95.2457 58.3855 95.554ZM52.3002 90.2642V89.7273C52.3002 89.3561 52.3765 89.0163 52.5289 88.7081C52.6847 88.3965 52.9101 88.148 53.2051 87.9624C53.5034 87.7734 53.8646 87.679 54.2889 87.679C54.7198 87.679 55.081 87.7734 55.3727 87.9624C55.6644 88.148 55.8848 88.3965 56.0339 88.7081C56.1831 89.0163 56.2576 89.3561 56.2576 89.7273V90.2642C56.2576 90.6354 56.1814 90.9768 56.0289 91.2884C55.8798 91.5966 55.6577 91.8452 55.3627 92.0341C55.0711 92.2197 54.7131 92.3125 54.2889 92.3125C53.858 92.3125 53.4951 92.2197 53.2001 92.0341C52.9051 91.8452 52.6814 91.5966 52.5289 91.2884C52.3765 90.9768 52.3002 90.6354 52.3002 90.2642ZM53.3145 89.7273V90.2642C53.3145 90.5724 53.3874 90.8492 53.5332 91.0945C53.679 91.3364 53.9309 91.4574 54.2889 91.4574C54.6369 91.4574 54.8822 91.3364 55.0247 91.0945C55.1705 90.8492 55.2434 90.5724 55.2434 90.2642V89.7273C55.2434 89.419 55.1738 89.1439 55.0346 88.902C54.8954 88.6567 54.6468 88.5341 54.2889 88.5341C53.9409 88.5341 53.6906 88.6567 53.5382 88.902C53.389 89.1439 53.3145 89.419 53.3145 89.7273ZM52.6781 98L59.6781 87.8182H60.8116L53.8116 98H52.6781Z" fill="white"/>
<path opacity="0.5" d="M152.435 98.1392C152.017 98.1326 151.599 98.053 151.182 97.9006C150.764 97.7481 150.383 97.4912 150.038 97.13C149.694 96.7654 149.417 96.2732 149.208 95.6534C148.999 95.0303 148.895 94.2481 148.895 93.3068C148.895 92.4053 148.979 91.6065 149.148 90.9105C149.317 90.2112 149.563 89.6229 149.884 89.1456C150.206 88.665 150.594 88.3004 151.048 88.0518C151.505 87.8033 152.02 87.679 152.594 87.679C153.164 87.679 153.671 87.7933 154.115 88.022C154.563 88.2474 154.927 88.5623 155.209 88.9666C155.491 89.371 155.673 89.8366 155.756 90.3636H154.543C154.43 89.9062 154.211 89.5268 153.886 89.2251C153.562 88.9235 153.131 88.7727 152.594 88.7727C151.805 88.7727 151.183 89.1158 150.729 89.8018C150.279 90.4879 150.052 91.4508 150.048 92.6903H150.128C150.313 92.4086 150.534 92.1683 150.789 91.9695C151.048 91.7673 151.333 91.6115 151.644 91.5021C151.956 91.3928 152.286 91.3381 152.634 91.3381C153.217 91.3381 153.75 91.4839 154.234 91.7756C154.718 92.0639 155.106 92.4633 155.398 92.9737C155.689 93.4808 155.835 94.0625 155.835 94.7188C155.835 95.3485 155.694 95.9252 155.413 96.4489C155.131 96.9692 154.735 97.3835 154.224 97.6918C153.717 97.9967 153.121 98.1458 152.435 98.1392ZM152.435 97.0455C152.852 97.0455 153.227 96.9411 153.558 96.7322C153.893 96.5234 154.156 96.2434 154.349 95.892C154.544 95.5407 154.642 95.1496 154.642 94.7188C154.642 94.2978 154.548 93.915 154.359 93.5703C154.173 93.2223 153.916 92.9455 153.588 92.7401C153.263 92.5346 152.892 92.4318 152.474 92.4318C152.16 92.4318 151.866 92.4948 151.594 92.6207C151.323 92.7434 151.084 92.9124 150.879 93.1278C150.676 93.3433 150.517 93.5902 150.401 93.8686C150.285 94.1437 150.227 94.4337 150.227 94.7386C150.227 95.143 150.322 95.5208 150.511 95.8722C150.703 96.2235 150.965 96.5069 151.296 96.7223C151.631 96.9377 152.01 97.0455 152.435 97.0455ZM161.111 98.1392C160.362 98.1392 159.724 97.9354 159.197 97.5277C158.67 97.1167 158.268 96.5218 157.989 95.7429C157.711 94.9607 157.572 94.0161 157.572 92.9091C157.572 91.8087 157.711 90.8691 157.989 90.0902C158.271 89.308 158.675 88.7114 159.202 88.3004C159.733 87.8861 160.369 87.679 161.111 87.679C161.854 87.679 162.488 87.8861 163.015 88.3004C163.546 88.7114 163.95 89.308 164.229 90.0902C164.51 90.8691 164.651 91.8087 164.651 92.9091C164.651 94.0161 164.512 94.9607 164.233 95.7429C163.955 96.5218 163.552 97.1167 163.025 97.5277C162.498 97.9354 161.86 98.1392 161.111 98.1392ZM161.111 97.0455C161.854 97.0455 162.43 96.6875 162.841 95.9716C163.252 95.2557 163.458 94.2348 163.458 92.9091C163.458 92.0275 163.363 91.2768 163.175 90.657C162.989 90.0372 162.72 89.5649 162.369 89.2401C162.021 88.9152 161.602 88.7528 161.111 88.7528C160.376 88.7528 159.8 89.1158 159.386 89.8416C158.972 90.5642 158.765 91.5866 158.765 92.9091C158.765 93.7907 158.858 94.5398 159.043 95.1562C159.229 95.7727 159.496 96.2417 159.844 96.5632C160.195 96.8847 160.617 97.0455 161.111 97.0455ZM169.861 98.1392C169.112 98.1392 168.474 97.9354 167.947 97.5277C167.42 97.1167 167.018 96.5218 166.739 95.7429C166.461 94.9607 166.322 94.0161 166.322 92.9091C166.322 91.8087 166.461 90.8691 166.739 90.0902C167.021 89.308 167.425 88.7114 167.952 88.3004C168.483 87.8861 169.119 87.679 169.861 87.679C170.604 87.679 171.238 87.8861 171.765 88.3004C172.296 88.7114 172.7 89.308 172.979 90.0902C173.26 90.8691 173.401 91.8087 173.401 92.9091C173.401 94.0161 173.262 94.9607 172.983 95.7429C172.705 96.5218 172.302 97.1167 171.775 97.5277C171.248 97.9354 170.61 98.1392 169.861 98.1392ZM169.861 97.0455C170.604 97.0455 171.18 96.6875 171.591 95.9716C172.002 95.2557 172.208 94.2348 172.208 92.9091C172.208 92.0275 172.113 91.2768 171.925 90.657C171.739 90.0372 171.47 89.5649 171.119 89.2401C170.771 88.9152 170.352 88.7528 169.861 88.7528C169.126 88.7528 168.55 89.1158 168.136 89.8416C167.722 90.5642 167.515 91.5866 167.515 92.9091C167.515 93.7907 167.608 94.5398 167.793 95.1562C167.979 95.7727 168.246 96.2417 168.594 96.5632C168.945 96.8847 169.367 97.0455 169.861 97.0455ZM180.481 96.0909V95.554C180.481 95.1828 180.557 94.843 180.709 94.5348C180.865 94.2232 181.09 93.9747 181.385 93.7891C181.684 93.6001 182.045 93.5057 182.469 93.5057C182.9 93.5057 183.261 93.6001 183.553 93.7891C183.845 93.9747 184.065 94.2232 184.214 94.5348C184.363 94.843 184.438 95.1828 184.438 95.554V96.0909C184.438 96.4621 184.362 96.8035 184.209 97.1151C184.06 97.4233 183.838 97.6719 183.543 97.8608C183.251 98.0464 182.894 98.1392 182.469 98.1392C182.038 98.1392 181.675 98.0464 181.381 97.8608C181.086 97.6719 180.862 97.4233 180.709 97.1151C180.557 96.8035 180.481 96.4621 180.481 96.0909ZM181.495 95.554V96.0909C181.495 96.3991 181.568 96.6759 181.714 96.9212C181.859 97.1631 182.111 97.2841 182.469 97.2841C182.817 97.2841 183.063 97.1631 183.205 96.9212C183.351 96.6759 183.424 96.3991 183.424 96.0909V95.554C183.424 95.2457 183.354 94.9706 183.215 94.7287C183.076 94.4834 182.827 94.3608 182.469 94.3608C182.121 94.3608 181.871 94.4834 181.719 94.7287C181.569 94.9706 181.495 95.2457 181.495 95.554ZM175.41 90.2642V89.7273C175.41 89.3561 175.486 89.0163 175.638 88.7081C175.794 88.3965 176.019 88.148 176.314 87.9624C176.613 87.7734 176.974 87.679 177.398 87.679C177.829 87.679 178.19 87.7734 178.482 87.9624C178.774 88.148 178.994 88.3965 179.143 88.7081C179.292 89.0163 179.367 89.3561 179.367 89.7273V90.2642C179.367 90.6354 179.291 90.9768 179.138 91.2884C178.989 91.5966 178.767 91.8452 178.472 92.0341C178.18 92.2197 177.823 92.3125 177.398 92.3125C176.967 92.3125 176.604 92.2197 176.309 92.0341C176.015 91.8452 175.791 91.5966 175.638 91.2884C175.486 90.9768 175.41 90.6354 175.41 90.2642ZM176.424 89.7273V90.2642C176.424 90.5724 176.497 90.8492 176.643 91.0945C176.788 91.3364 177.04 91.4574 177.398 91.4574C177.746 91.4574 177.992 91.3364 178.134 91.0945C178.28 90.8492 178.353 90.5724 178.353 90.2642V89.7273C178.353 89.419 178.283 89.1439 178.144 88.902C178.005 88.6567 177.756 88.5341 177.398 88.5341C177.05 88.5341 176.8 88.6567 176.648 88.902C176.498 89.1439 176.424 89.419 176.424 89.7273ZM175.787 98L182.787 87.8182H183.921L176.921 98H175.787Z" fill="white"/>
<path opacity="0.5" d="M228.815 95.9119V94.8977L233.29 87.8182H234.026V89.3892H233.528L230.148 94.7386V94.8182H236.173V95.9119H228.815ZM233.608 98V95.6037V95.1314V87.8182H234.781V98H233.608ZM241.357 98.1392C240.608 98.1392 239.97 97.9354 239.443 97.5277C238.916 97.1167 238.514 96.5218 238.235 95.7429C237.957 94.9607 237.818 94.0161 237.818 92.9091C237.818 91.8087 237.957 90.8691 238.235 90.0902C238.517 89.308 238.921 88.7114 239.448 88.3004C239.979 87.8861 240.615 87.679 241.357 87.679C242.1 87.679 242.735 87.8861 243.262 88.3004C243.792 88.7114 244.196 89.308 244.475 90.0902C244.756 90.8691 244.897 91.8087 244.897 92.9091C244.897 94.0161 244.758 94.9607 244.48 95.7429C244.201 96.5218 243.798 97.1167 243.271 97.5277C242.744 97.9354 242.106 98.1392 241.357 98.1392ZM241.357 97.0455C242.1 97.0455 242.677 96.6875 243.088 95.9716C243.499 95.2557 243.704 94.2348 243.704 92.9091C243.704 92.0275 243.61 91.2768 243.421 90.657C243.235 90.0372 242.967 89.5649 242.615 89.2401C242.267 88.9152 241.848 88.7528 241.357 88.7528C240.622 88.7528 240.047 89.1158 239.632 89.8416C239.218 90.5642 239.011 91.5866 239.011 92.9091C239.011 93.7907 239.104 94.5398 239.289 95.1562C239.475 95.7727 239.742 96.2417 240.09 96.5632C240.441 96.8847 240.864 97.0455 241.357 97.0455ZM250.107 98.1392C249.358 98.1392 248.72 97.9354 248.193 97.5277C247.666 97.1167 247.264 96.5218 246.985 95.7429C246.707 94.9607 246.568 94.0161 246.568 92.9091C246.568 91.8087 246.707 90.8691 246.985 90.0902C247.267 89.308 247.671 88.7114 248.198 88.3004C248.729 87.8861 249.365 87.679 250.107 87.679C250.85 87.679 251.485 87.8861 252.012 88.3004C252.542 88.7114 252.946 89.308 253.225 90.0902C253.506 90.8691 253.647 91.8087 253.647 92.9091C253.647 94.0161 253.508 94.9607 253.23 95.7429C252.951 96.5218 252.548 97.1167 252.021 97.5277C251.494 97.9354 250.856 98.1392 250.107 98.1392ZM250.107 97.0455C250.85 97.0455 251.427 96.6875 251.838 95.9716C252.249 95.2557 252.454 94.2348 252.454 92.9091C252.454 92.0275 252.36 91.2768 252.171 90.657C251.985 90.0372 251.717 89.5649 251.365 89.2401C251.017 88.9152 250.598 88.7528 250.107 88.7528C249.372 88.7528 248.797 89.1158 248.382 89.8416C247.968 90.5642 247.761 91.5866 247.761 92.9091C247.761 93.7907 247.854 94.5398 248.039 95.1562C248.225 95.7727 248.492 96.2417 248.84 96.5632C249.191 96.8847 249.614 97.0455 250.107 97.0455ZM260.727 96.0909V95.554C260.727 95.1828 260.803 94.843 260.955 94.5348C261.111 94.2232 261.337 93.9747 261.632 93.7891C261.93 93.6001 262.291 93.5057 262.715 93.5057C263.146 93.5057 263.508 93.6001 263.799 93.7891C264.091 93.9747 264.311 94.2232 264.46 94.5348C264.61 94.843 264.684 95.1828 264.684 95.554V96.0909C264.684 96.4621 264.608 96.8035 264.455 97.1151C264.306 97.4233 264.084 97.6719 263.789 97.8608C263.498 98.0464 263.14 98.1392 262.715 98.1392C262.285 98.1392 261.922 98.0464 261.627 97.8608C261.332 97.6719 261.108 97.4233 260.955 97.1151C260.803 96.8035 260.727 96.4621 260.727 96.0909ZM261.741 95.554V96.0909C261.741 96.3991 261.814 96.6759 261.96 96.9212C262.106 97.1631 262.357 97.2841 262.715 97.2841C263.063 97.2841 263.309 97.1631 263.451 96.9212C263.597 96.6759 263.67 96.3991 263.67 96.0909V95.554C263.67 95.2457 263.6 94.9706 263.461 94.7287C263.322 94.4834 263.073 94.3608 262.715 94.3608C262.367 94.3608 262.117 94.4834 261.965 94.7287C261.816 94.9706 261.741 95.2457 261.741 95.554ZM255.656 90.2642V89.7273C255.656 89.3561 255.732 89.0163 255.884 88.7081C256.04 88.3965 256.266 88.148 256.561 87.9624C256.859 87.7734 257.22 87.679 257.644 87.679C258.075 87.679 258.436 87.7734 258.728 87.9624C259.02 88.148 259.24 88.3965 259.389 88.7081C259.539 89.0163 259.613 89.3561 259.613 89.7273V90.2642C259.613 90.6354 259.537 90.9768 259.384 91.2884C259.235 91.5966 259.013 91.8452 258.718 92.0341C258.427 92.2197 258.069 92.3125 257.644 92.3125C257.213 92.3125 256.851 92.2197 256.556 92.0341C256.261 91.8452 256.037 91.5966 255.884 91.2884C255.732 90.9768 255.656 90.6354 255.656 90.2642ZM256.67 89.7273V90.2642C256.67 90.5724 256.743 90.8492 256.889 91.0945C257.035 91.3364 257.286 91.4574 257.644 91.4574C257.992 91.4574 258.238 91.3364 258.38 91.0945C258.526 90.8492 258.599 90.5724 258.599 90.2642V89.7273C258.599 89.419 258.529 89.1439 258.39 88.902C258.251 88.6567 258.002 88.5341 257.644 88.5341C257.296 88.5341 257.046 88.6567 256.894 88.902C256.744 89.1439 256.67 89.419 256.67 89.7273ZM256.034 98L263.034 87.8182H264.167L257.167 98H256.034Z" fill="white"/>
<defs>
<linearGradient id="paint0_linear_667_10" x1="35.2585" y1="6.49999" x2="308.811" y2="172.335" gradientUnits="userSpaceOnUse">
<stop stop-color="#CCC4EA" stop-opacity="0.4"/>
<stop offset="1" stop-color="#DFD8FA" stop-opacity="0.67"/>
</linearGradient>
</defs>
</svg>
