<svg width="310" height="222" viewBox="0 0 310 222" fill="none" xmlns="http://www.w3.org/2000/svg">
<rect x="1" y="1" width="308" height="220" rx="26.2295" fill="#C1DEFF" fill-opacity="0.1"/>
<rect x="1" y="1" width="308" height="220" rx="26.2295" stroke="url(#paint0_linear_667_20)" stroke-opacity="0.1" stroke-width="1.96721"/>
<path opacity="0.5" d="M44.8716 150H32V172H274V99H262.602C262.202 99 261.803 99.0457 261.414 99.1364L219.651 108.849C219.219 108.949 218.801 109.104 218.408 109.31L176.698 131.135C176.235 131.377 175.739 131.549 175.225 131.644L134.1 139.295C133.375 139.43 132.629 139.411 131.912 139.238L93.2462 129.921C92.1143 129.648 90.9239 129.76 89.8624 130.238L47.0277 149.537C46.3503 149.842 45.6146 150 44.8716 150Z" fill="url(#paint1_linear_667_20)"/>
<path d="M33.5 149H45.3703C46.1149 149 46.851 148.841 47.5295 148.535L89.118 129.753C90.1971 129.265 91.4094 129.157 92.5577 129.446L131.388 139.22C132.121 139.404 132.885 139.428 133.628 139.29L174.725 131.644C175.239 131.549 175.735 131.377 176.198 131.135L217.901 109.313C218.299 109.105 218.721 108.949 219.158 108.849L261.42 99.1334C261.805 99.0447 262.2 99 262.595 99H272.684" stroke="#A6D0FF" stroke-width="2.62295" stroke-linecap="square"/>
<path d="M47 144.459V172" stroke="url(#paint2_linear_667_20)" stroke-width="1.31148" stroke-dasharray="3.93 3.93"/>
<path d="M89.8 114.295L89.8 172" stroke="url(#paint3_linear_667_20)" stroke-width="1.31148" stroke-dasharray="3.93 3.93"/>
<path d="M132.6 123.475L132.6 172" stroke="url(#paint4_linear_667_20)" stroke-width="1.31148" stroke-dasharray="3.93 3.93"/>
<path d="M175.4 111.672L175.4 172" stroke="url(#paint5_linear_667_20)" stroke-width="1.31148" stroke-dasharray="3.93 3.93"/>
<path d="M218.2 98.5574L218.2 172" stroke="url(#paint6_linear_667_20)" stroke-width="1.31148" stroke-dasharray="3.93 3.93"/>
<path d="M261 99L261 172" stroke="url(#paint7_linear_667_20)" stroke-width="1.31148" stroke-dasharray="3.93 3.93"/>
<path d="M41.0859 181.818H42.3189V189.097C42.3189 189.746 42.1995 190.298 41.9609 190.752C41.7223 191.206 41.3859 191.551 40.9517 191.786C40.5175 192.022 40.0054 192.139 39.4155 192.139C38.8586 192.139 38.3631 192.038 37.929 191.836C37.4948 191.63 37.1534 191.339 36.9048 190.961C36.6562 190.583 36.5319 190.134 36.5319 189.614H37.745C37.745 189.902 37.8163 190.154 37.9588 190.369C38.1046 190.581 38.3035 190.747 38.5554 190.866C38.8073 190.986 39.094 191.045 39.4155 191.045C39.7701 191.045 40.0717 190.971 40.3203 190.822C40.5689 190.673 40.7578 190.454 40.887 190.165C41.0196 189.874 41.0859 189.518 41.0859 189.097V181.818ZM46.8778 192.179C46.3939 192.179 45.9548 192.088 45.5603 191.906C45.1659 191.72 44.8527 191.453 44.6207 191.105C44.3887 190.754 44.2727 190.33 44.2727 189.832C44.2727 189.395 44.3589 189.04 44.5312 188.768C44.7036 188.493 44.9339 188.278 45.2223 188.122C45.5106 187.966 45.8288 187.85 46.1768 187.774C46.5281 187.695 46.8811 187.632 47.2358 187.585C47.6998 187.526 48.076 187.481 48.3643 187.451C48.656 187.418 48.8681 187.363 49.0007 187.287C49.1366 187.211 49.2045 187.078 49.2045 186.889V186.849C49.2045 186.359 49.0703 185.978 48.8018 185.706C48.5367 185.434 48.134 185.298 47.5937 185.298C47.0336 185.298 46.5944 185.421 46.2763 185.666C45.9581 185.911 45.7344 186.173 45.6051 186.452L44.4915 186.054C44.6903 185.59 44.9555 185.229 45.2869 184.97C45.6217 184.708 45.9862 184.526 46.3807 184.423C46.7784 184.317 47.1695 184.264 47.554 184.264C47.7992 184.264 48.0809 184.294 48.3991 184.354C48.7206 184.41 49.0305 184.528 49.3288 184.707C49.6304 184.886 49.8807 185.156 50.0795 185.517C50.2784 185.878 50.3778 186.362 50.3778 186.969V192H49.2045V190.966H49.1449C49.0653 191.132 48.9327 191.309 48.7471 191.498C48.5615 191.687 48.3146 191.848 48.0064 191.98C47.6981 192.113 47.3219 192.179 46.8778 192.179ZM47.0568 191.125C47.5208 191.125 47.9119 191.034 48.2301 190.852C48.5516 190.669 48.7935 190.434 48.9559 190.146C49.1217 189.857 49.2045 189.554 49.2045 189.236V188.162C49.1548 188.222 49.0454 188.276 48.8764 188.326C48.7107 188.372 48.5184 188.414 48.2997 188.45C48.0843 188.483 47.8738 188.513 47.6683 188.54C47.4661 188.563 47.3021 188.583 47.1761 188.599C46.8712 188.639 46.5861 188.704 46.321 188.793C46.0592 188.879 45.847 189.01 45.6846 189.186C45.5255 189.358 45.446 189.594 45.446 189.892C45.446 190.3 45.5968 190.608 45.8984 190.817C46.2033 191.022 46.5895 191.125 47.0568 191.125ZM53.6926 187.406V192H52.5193V184.364H53.6529V185.557H53.7523C53.9313 185.169 54.203 184.857 54.5676 184.622C54.9322 184.384 55.4029 184.264 55.9796 184.264C56.4966 184.264 56.949 184.37 57.3368 184.582C57.7246 184.791 58.0262 185.109 58.2416 185.537C58.4571 185.961 58.5648 186.498 58.5648 187.148V192H57.3915V187.227C57.3915 186.627 57.2357 186.16 56.9242 185.825C56.6126 185.487 56.185 185.318 55.6415 185.318C55.267 185.318 54.9322 185.399 54.6372 185.562C54.3456 185.724 54.1152 185.961 53.9462 186.273C53.7771 186.584 53.6926 186.962 53.6926 187.406Z" fill="#919EAB"/>
<path d="M78.86 192V181.818H84.9651V182.912H80.093V186.352H84.5077V187.446H80.093V192H78.86ZM89.5589 192.159C88.8231 192.159 88.1884 191.997 87.6547 191.672C87.1244 191.344 86.7151 190.886 86.4268 190.3C86.1417 189.71 85.9992 189.024 85.9992 188.241C85.9992 187.459 86.1417 186.77 86.4268 186.173C86.7151 185.573 87.1162 185.106 87.6299 184.771C88.1469 184.433 88.7502 184.264 89.4395 184.264C89.8373 184.264 90.23 184.33 90.6178 184.463C91.0056 184.596 91.3586 184.811 91.6768 185.109C91.9949 185.404 92.2485 185.795 92.4374 186.283C92.6263 186.77 92.7208 187.37 92.7208 188.082V188.58H86.8344V187.565H91.5276C91.5276 187.134 91.4414 186.75 91.2691 186.412C91.1001 186.074 90.8581 185.807 90.5432 185.612C90.2317 185.416 89.8638 185.318 89.4395 185.318C88.9722 185.318 88.5679 185.434 88.2265 185.666C87.8884 185.895 87.6282 186.193 87.4459 186.561C87.2636 186.929 87.1725 187.323 87.1725 187.744V188.42C87.1725 188.997 87.2719 189.486 87.4708 189.887C87.673 190.285 87.953 190.588 88.311 190.797C88.6689 191.002 89.0849 191.105 89.5589 191.105C89.8671 191.105 90.1455 191.062 90.3941 190.976C90.646 190.886 90.8631 190.754 91.0454 190.578C91.2277 190.399 91.3685 190.177 91.468 189.912L92.6015 190.23C92.4822 190.615 92.2816 190.953 91.9999 191.244C91.7182 191.533 91.3702 191.758 90.9559 191.92C90.5416 192.08 90.0759 192.159 89.5589 192.159ZM94.6647 192V181.818H95.838V185.577H95.9374C96.0236 185.444 96.1429 185.275 96.2954 185.07C96.4511 184.861 96.6732 184.675 96.9616 184.513C97.2532 184.347 97.6476 184.264 98.1448 184.264C98.7878 184.264 99.3546 184.425 99.8451 184.746C100.336 185.068 100.718 185.524 100.994 186.114C101.269 186.704 101.406 187.4 101.406 188.202C101.406 189.01 101.269 189.711 100.994 190.305C100.718 190.895 100.337 191.352 99.8501 191.677C99.3628 191.998 98.8011 192.159 98.1647 192.159C97.6742 192.159 97.2814 192.078 96.9864 191.915C96.6914 191.75 96.4644 191.562 96.3053 191.354C96.1462 191.142 96.0236 190.966 95.9374 190.827H95.7982V192H94.6647ZM95.8181 188.182C95.8181 188.759 95.9026 189.267 96.0716 189.708C96.2407 190.146 96.4876 190.489 96.8124 190.737C97.1372 190.982 97.535 191.105 98.0056 191.105C98.4961 191.105 98.9055 190.976 99.2336 190.717C99.565 190.455 99.8136 190.104 99.9793 189.663C100.148 189.219 100.233 188.725 100.233 188.182C100.233 187.645 100.15 187.161 99.9843 186.73C99.8219 186.296 99.575 185.953 99.2435 185.701C98.9154 185.446 98.5028 185.318 98.0056 185.318C97.5283 185.318 97.1273 185.439 96.8025 185.681C96.4777 185.92 96.2324 186.254 96.0667 186.685C95.901 187.113 95.8181 187.612 95.8181 188.182Z" fill="#919EAB"/>
<path d="M120.416 181.818H121.887L125.347 190.27H125.467L128.927 181.818H130.399V192H129.245V184.264H129.146L125.964 192H124.85L121.668 184.264H121.569V192H120.416V181.818ZM134.959 192.179C134.475 192.179 134.036 192.088 133.641 191.906C133.247 191.72 132.934 191.453 132.702 191.105C132.47 190.754 132.354 190.33 132.354 189.832C132.354 189.395 132.44 189.04 132.612 188.768C132.785 188.493 133.015 188.278 133.303 188.122C133.592 187.966 133.91 187.85 134.258 187.774C134.609 187.695 134.962 187.632 135.317 187.585C135.781 187.526 136.157 187.481 136.445 187.451C136.737 187.418 136.949 187.363 137.082 187.287C137.218 187.211 137.285 187.078 137.285 186.889V186.849C137.285 186.359 137.151 185.978 136.883 185.706C136.618 185.434 136.215 185.298 135.675 185.298C135.115 185.298 134.675 185.421 134.357 185.666C134.039 185.911 133.815 186.173 133.686 186.452L132.572 186.054C132.771 185.59 133.036 185.229 133.368 184.97C133.703 184.708 134.067 184.526 134.462 184.423C134.859 184.317 135.25 184.264 135.635 184.264C135.88 184.264 136.162 184.294 136.48 184.354C136.802 184.41 137.111 184.528 137.41 184.707C137.711 184.886 137.962 185.156 138.16 185.517C138.359 185.878 138.459 186.362 138.459 186.969V192H137.285V190.966H137.226C137.146 191.132 137.014 191.309 136.828 191.498C136.642 191.687 136.396 191.848 136.087 191.98C135.779 192.113 135.403 192.179 134.959 192.179ZM135.138 191.125C135.602 191.125 135.993 191.034 136.311 190.852C136.633 190.669 136.874 190.434 137.037 190.146C137.203 189.857 137.285 189.554 137.285 189.236V188.162C137.236 188.222 137.126 188.276 136.957 188.326C136.792 188.372 136.599 188.414 136.381 188.45C136.165 188.483 135.955 188.513 135.749 188.54C135.547 188.563 135.383 188.583 135.257 188.599C134.952 188.639 134.667 188.704 134.402 188.793C134.14 188.879 133.928 189.01 133.766 189.186C133.606 189.358 133.527 189.594 133.527 189.892C133.527 190.3 133.678 190.608 133.979 190.817C134.284 191.022 134.67 191.125 135.138 191.125ZM140.6 192V184.364H141.734V185.517H141.813C141.953 185.139 142.204 184.833 142.569 184.597C142.934 184.362 143.345 184.244 143.802 184.244C143.888 184.244 143.996 184.246 144.125 184.249C144.254 184.253 144.352 184.258 144.418 184.264V185.457C144.379 185.447 144.288 185.433 144.145 185.413C144.006 185.389 143.858 185.378 143.703 185.378C143.331 185.378 143 185.456 142.708 185.612C142.42 185.764 142.191 185.976 142.022 186.248C141.856 186.516 141.774 186.823 141.774 187.168V192H140.6Z" fill="#919EAB"/>
<path d="M164.091 192H162.798L166.537 181.818H167.81L171.548 192H170.256L167.213 183.429H167.134L164.091 192ZM164.568 188.023H169.778V189.116H164.568V188.023ZM172.975 194.864V184.364H174.109V185.577H174.248C174.334 185.444 174.453 185.275 174.606 185.07C174.762 184.861 174.984 184.675 175.272 184.513C175.564 184.347 175.958 184.264 176.455 184.264C177.098 184.264 177.665 184.425 178.156 184.746C178.646 185.068 179.029 185.524 179.304 186.114C179.579 186.704 179.717 187.4 179.717 188.202C179.717 189.01 179.579 189.711 179.304 190.305C179.029 190.895 178.648 191.352 178.161 191.677C177.673 191.998 177.112 192.159 176.475 192.159C175.985 192.159 175.592 192.078 175.297 191.915C175.002 191.75 174.775 191.562 174.616 191.354C174.457 191.142 174.334 190.966 174.248 190.827H174.148V194.864H172.975ZM174.129 188.182C174.129 188.759 174.213 189.267 174.382 189.708C174.551 190.146 174.798 190.489 175.123 190.737C175.448 190.982 175.845 191.105 176.316 191.105C176.807 191.105 177.216 190.976 177.544 190.717C177.876 190.455 178.124 190.104 178.29 189.663C178.459 189.219 178.543 188.725 178.543 188.182C178.543 187.645 178.461 187.161 178.295 186.73C178.132 186.296 177.885 185.953 177.554 185.701C177.226 185.446 176.813 185.318 176.316 185.318C175.839 185.318 175.438 185.439 175.113 185.681C174.788 185.92 174.543 186.254 174.377 186.685C174.211 187.113 174.129 187.612 174.129 188.182ZM181.506 192V184.364H182.64V185.517H182.72C182.859 185.139 183.111 184.833 183.475 184.597C183.84 184.362 184.251 184.244 184.708 184.244C184.794 184.244 184.902 184.246 185.031 184.249C185.161 184.253 185.258 184.258 185.325 184.264V185.457C185.285 185.447 185.194 185.433 185.051 185.413C184.912 185.389 184.764 185.378 184.609 185.378C184.238 185.378 183.906 185.456 183.614 185.612C183.326 185.764 183.097 185.976 182.928 186.248C182.763 186.516 182.68 186.823 182.68 187.168V192H181.506Z" fill="#919EAB"/>
<path d="M203.424 181.818H204.896L208.356 190.27H208.475L211.936 181.818H213.407V192H212.254V184.264H212.154L208.973 192H207.859L204.677 184.264H204.578V192H203.424V181.818ZM217.967 192.179C217.484 192.179 217.044 192.088 216.65 191.906C216.256 191.72 215.942 191.453 215.71 191.105C215.478 190.754 215.362 190.33 215.362 189.832C215.362 189.395 215.449 189.04 215.621 188.768C215.793 188.493 216.024 188.278 216.312 188.122C216.6 187.966 216.918 187.85 217.266 187.774C217.618 187.695 217.971 187.632 218.325 187.585C218.789 187.526 219.166 187.481 219.454 187.451C219.746 187.418 219.958 187.363 220.09 187.287C220.226 187.211 220.294 187.078 220.294 186.889V186.849C220.294 186.359 220.16 185.978 219.891 185.706C219.626 185.434 219.224 185.298 218.683 185.298C218.123 185.298 217.684 185.421 217.366 185.666C217.048 185.911 216.824 186.173 216.695 186.452L215.581 186.054C215.78 185.59 216.045 185.229 216.377 184.97C216.711 184.708 217.076 184.526 217.47 184.423C217.868 184.317 218.259 184.264 218.644 184.264C218.889 184.264 219.171 184.294 219.489 184.354C219.81 184.41 220.12 184.528 220.418 184.707C220.72 184.886 220.97 185.156 221.169 185.517C221.368 185.878 221.467 186.362 221.467 186.969V192H220.294V190.966H220.234C220.155 191.132 220.022 191.309 219.837 191.498C219.651 191.687 219.404 191.848 219.096 191.98C218.788 192.113 218.412 192.179 217.967 192.179ZM218.146 191.125C218.61 191.125 219.002 191.034 219.32 190.852C219.641 190.669 219.883 190.434 220.046 190.146C220.211 189.857 220.294 189.554 220.294 189.236V188.162C220.244 188.222 220.135 188.276 219.966 188.326C219.8 188.372 219.608 188.414 219.389 188.45C219.174 188.483 218.963 188.513 218.758 188.54C218.556 188.563 218.392 188.583 218.266 188.599C217.961 188.639 217.676 188.704 217.411 188.793C217.149 188.879 216.937 189.01 216.774 189.186C216.615 189.358 216.536 189.594 216.536 189.892C216.536 190.3 216.686 190.608 216.988 190.817C217.293 191.022 217.679 191.125 218.146 191.125ZM224.091 194.864C223.892 194.864 223.715 194.847 223.559 194.814C223.403 194.784 223.296 194.754 223.236 194.724L223.534 193.69C223.819 193.763 224.071 193.79 224.29 193.77C224.509 193.75 224.703 193.652 224.872 193.477C225.044 193.304 225.202 193.024 225.344 192.636L225.563 192.04L222.739 184.364H224.012L226.12 190.449H226.199L228.307 184.364H229.58L226.338 193.114C226.193 193.508 226.012 193.835 225.796 194.093C225.581 194.355 225.331 194.549 225.046 194.675C224.764 194.801 224.446 194.864 224.091 194.864Z" fill="#919EAB"/>
<path d="M251.373 181.818H252.606V189.097C252.606 189.746 252.486 190.298 252.248 190.752C252.009 191.206 251.673 191.551 251.239 191.786C250.804 192.022 250.292 192.139 249.702 192.139C249.145 192.139 248.65 192.038 248.216 191.836C247.782 191.63 247.44 191.339 247.192 190.961C246.943 190.583 246.819 190.134 246.819 189.614H248.032C248.032 189.902 248.103 190.154 248.246 190.369C248.391 190.581 248.59 190.747 248.842 190.866C249.094 190.986 249.381 191.045 249.702 191.045C250.057 191.045 250.359 190.971 250.607 190.822C250.856 190.673 251.045 190.454 251.174 190.165C251.306 189.874 251.373 189.518 251.373 189.097V181.818ZM259.73 188.878V184.364H260.903V192H259.73V190.707H259.65C259.471 191.095 259.193 191.425 258.815 191.697C258.437 191.965 257.96 192.099 257.383 192.099C256.906 192.099 256.482 191.995 256.111 191.786C255.739 191.574 255.448 191.256 255.236 190.832C255.024 190.404 254.917 189.866 254.917 189.216V184.364H256.091V189.136C256.091 189.693 256.247 190.137 256.558 190.469C256.873 190.8 257.274 190.966 257.761 190.966C258.053 190.966 258.35 190.891 258.651 190.742C258.956 190.593 259.211 190.364 259.417 190.056C259.626 189.748 259.73 189.355 259.73 188.878ZM264.226 187.406V192H263.052V184.364H264.186V185.557H264.285C264.464 185.169 264.736 184.857 265.101 184.622C265.465 184.384 265.936 184.264 266.512 184.264C267.03 184.264 267.482 184.37 267.87 184.582C268.258 184.791 268.559 185.109 268.775 185.537C268.99 185.961 269.098 186.498 269.098 187.148V192H267.924V187.227C267.924 186.627 267.769 186.16 267.457 185.825C267.146 185.487 266.718 185.318 266.174 185.318C265.8 185.318 265.465 185.399 265.17 185.562C264.878 185.724 264.648 185.961 264.479 186.273C264.31 186.584 264.226 186.962 264.226 187.406Z" fill="#919EAB"/>
<rect x="25" y="25" width="52" height="52" rx="15.7377" fill="white" fill-opacity="0.2"/>
<path d="M44.2564 55.4951C44.2564 57.9785 46.2696 59.9916 48.7529 59.9916H53.2494C55.7328 59.9916 57.7459 57.9785 57.7459 55.4951C57.7459 53.0118 55.7328 50.9986 53.2494 50.9986H48.7529C46.2696 50.9986 44.2564 48.9855 44.2564 46.5021C44.2564 44.0188 46.2696 42.0057 48.7529 42.0057H53.2494C55.7328 42.0057 57.7459 44.0188 57.7459 46.5021M51.0012 39.7574V62.2399" stroke="white" stroke-width="1.96721" stroke-linecap="round" stroke-linejoin="round"/>
<path d="M96.1511 44.4091V57.5H94.1759V44.4091H96.1511ZM98.8741 57.5V47.6818H100.709V49.2798H100.83C101.035 48.7386 101.369 48.3168 101.834 48.0142C102.298 47.7074 102.854 47.554 103.502 47.554C104.158 47.554 104.708 47.7074 105.151 48.0142C105.598 48.321 105.929 48.7429 106.142 49.2798H106.244C106.478 48.7557 106.851 48.3381 107.363 48.027C107.874 47.7116 108.483 47.554 109.191 47.554C110.081 47.554 110.808 47.8331 111.371 48.3913C111.937 48.9496 112.221 49.7912 112.221 50.9162V57.5H110.309V51.0952C110.309 50.4304 110.128 49.9489 109.766 49.6506C109.404 49.3523 108.971 49.2031 108.469 49.2031C107.846 49.2031 107.363 49.3949 107.018 49.7784C106.672 50.1577 106.5 50.6456 106.5 51.2422V57.5H104.595V50.9737C104.595 50.4411 104.429 50.0128 104.096 49.6889C103.764 49.3651 103.331 49.2031 102.799 49.2031C102.437 49.2031 102.102 49.299 101.795 49.4908C101.493 49.6783 101.248 49.9403 101.06 50.277C100.877 50.6136 100.785 51.0036 100.785 51.4467V57.5H98.8741ZM114.782 61.1818V47.6818H116.649V49.2734H116.809C116.919 49.0689 117.079 48.8324 117.288 48.5639C117.497 48.2955 117.787 48.0611 118.157 47.8608C118.528 47.6562 119.018 47.554 119.627 47.554C120.42 47.554 121.127 47.7543 121.75 48.1548C122.372 48.5554 122.86 49.1328 123.213 49.8871C123.571 50.6413 123.75 51.549 123.75 52.6101C123.75 53.6712 123.573 54.581 123.22 55.3395C122.866 56.0937 122.38 56.6754 121.762 57.0845C121.144 57.4893 120.439 57.6918 119.647 57.6918C119.05 57.6918 118.562 57.5916 118.183 57.3913C117.808 57.1911 117.514 56.9567 117.301 56.6882C117.088 56.4197 116.924 56.1811 116.809 55.9723H116.693V61.1818H114.782ZM116.655 52.5909C116.655 53.2812 116.755 53.8864 116.956 54.4062C117.156 54.9261 117.446 55.3331 117.825 55.6271C118.204 55.9169 118.669 56.0618 119.218 56.0618C119.789 56.0618 120.267 55.9105 120.65 55.608C121.034 55.3011 121.323 54.8857 121.519 54.3615C121.72 53.8374 121.82 53.2472 121.82 52.5909C121.82 51.9432 121.722 51.3615 121.526 50.8459C121.334 50.3303 121.044 49.9233 120.657 49.625C120.273 49.3267 119.794 49.1776 119.218 49.1776C118.664 49.1776 118.196 49.3203 117.812 49.6058C117.433 49.8913 117.145 50.2898 116.949 50.8011C116.753 51.3125 116.655 51.9091 116.655 52.5909ZM125.892 57.5V47.6818H127.739V49.2415H127.841C128.02 48.7131 128.336 48.2976 128.787 47.995C129.243 47.6882 129.759 47.5348 130.334 47.5348C130.453 47.5348 130.594 47.5391 130.756 47.5476C130.922 47.5561 131.052 47.5668 131.146 47.5795V49.4077C131.069 49.3864 130.933 49.3629 130.737 49.3374C130.541 49.3075 130.345 49.2926 130.149 49.2926C129.697 49.2926 129.294 49.3885 128.941 49.5803C128.591 49.7678 128.314 50.0298 128.11 50.3665C127.905 50.6989 127.803 51.0781 127.803 51.5043V57.5H125.892ZM136.584 57.6982C135.663 57.6982 134.86 57.4872 134.174 57.0653C133.488 56.6435 132.955 56.0533 132.576 55.2947C132.197 54.5362 132.007 53.6499 132.007 52.6357C132.007 51.6172 132.197 50.7266 132.576 49.9638C132.955 49.201 133.488 48.6087 134.174 48.1868C134.86 47.7649 135.663 47.554 136.584 47.554C137.504 47.554 138.308 47.7649 138.994 48.1868C139.68 48.6087 140.212 49.201 140.592 49.9638C140.971 50.7266 141.161 51.6172 141.161 52.6357C141.161 53.6499 140.971 54.5362 140.592 55.2947C140.212 56.0533 139.68 56.6435 138.994 57.0653C138.308 57.4872 137.504 57.6982 136.584 57.6982ZM136.59 56.0938C137.187 56.0938 137.681 55.9361 138.073 55.6207C138.465 55.3054 138.755 54.8857 138.943 54.3615C139.134 53.8374 139.23 53.2599 139.23 52.6293C139.23 52.0028 139.134 51.4276 138.943 50.9034C138.755 50.375 138.465 49.951 138.073 49.6314C137.681 49.3118 137.187 49.152 136.59 49.152C135.989 49.152 135.491 49.3118 135.095 49.6314C134.703 49.951 134.411 50.375 134.219 50.9034C134.031 51.4276 133.938 52.0028 133.938 52.6293C133.938 53.2599 134.031 53.8374 134.219 54.3615C134.411 54.8857 134.703 55.3054 135.095 55.6207C135.491 55.9361 135.989 56.0938 136.59 56.0938ZM151.359 47.6818L147.799 57.5H145.753L142.187 47.6818H144.238L146.725 55.2372H146.827L149.307 47.6818H151.359ZM157.053 57.6982C156.086 57.6982 155.252 57.4915 154.554 57.0781C153.859 56.6605 153.322 56.0746 152.943 55.3203C152.568 54.5618 152.38 53.6733 152.38 52.6548C152.38 51.6491 152.568 50.7628 152.943 49.9957C153.322 49.2287 153.85 48.63 154.528 48.1996C155.21 47.7692 156.007 47.554 156.919 47.554C157.473 47.554 158.01 47.6456 158.529 47.8288C159.049 48.0121 159.516 48.2997 159.929 48.6918C160.343 49.0838 160.669 49.593 160.907 50.2195C161.146 50.8416 161.265 51.598 161.265 52.4886V53.1662L153.461 53.1662V51.7344H159.392C159.392 51.2315 159.29 50.7862 159.086 50.3984C158.881 50.0064 158.593 49.6974 158.223 49.4716C157.856 49.2457 157.426 49.1328 156.931 49.1328C156.394 49.1328 155.926 49.2649 155.525 49.5291C155.129 49.7891 154.822 50.13 154.605 50.5518C154.392 50.9695 154.285 51.4233 154.285 51.9134V53.032C154.285 53.6882 154.4 54.2464 154.63 54.7067C154.865 55.1669 155.191 55.5185 155.608 55.7614C156.026 56 156.514 56.1193 157.072 56.1193C157.434 56.1193 157.765 56.0682 158.063 55.9659C158.361 55.8594 158.619 55.7017 158.836 55.4929C159.054 55.2841 159.22 55.0263 159.335 54.7195L161.144 55.0455C160.999 55.5781 160.739 56.0447 160.364 56.4453C159.993 56.8416 159.527 57.1506 158.964 57.3722C158.406 57.5895 157.769 57.6982 157.053 57.6982ZM167.061 57.6918C166.269 57.6918 165.561 57.4893 164.939 57.0845C164.321 56.6754 163.835 56.0937 163.482 55.3395C163.132 54.581 162.958 53.6712 162.958 52.6101C162.958 51.549 163.134 50.6413 163.488 49.8871C163.846 49.1328 164.336 48.5554 164.958 48.1548C165.58 47.7543 166.286 47.554 167.074 47.554C167.683 47.554 168.173 47.6562 168.544 47.8608C168.919 48.0611 169.209 48.2955 169.413 48.5639C169.622 48.8324 169.784 49.0689 169.899 49.2734H170.014V44.4091H171.926V57.5H170.059V55.9723H169.899C169.784 56.1811 169.618 56.4197 169.401 56.6882C169.188 56.9567 168.894 57.1911 168.519 57.3913C168.144 57.5916 167.658 57.6918 167.061 57.6918ZM167.483 56.0618C168.033 56.0618 168.497 55.9169 168.877 55.6271C169.26 55.3331 169.55 54.9261 169.746 54.4062C169.946 53.8864 170.046 53.2812 170.046 52.5909C170.046 51.9091 169.948 51.3125 169.752 50.8011C169.556 50.2898 169.269 49.8913 168.889 49.6058C168.51 49.3203 168.041 49.1776 167.483 49.1776C166.908 49.1776 166.428 49.3267 166.045 49.625C165.661 49.9233 165.372 50.3303 165.176 50.8459C164.984 51.3615 164.888 51.9432 164.888 52.5909C164.888 53.2472 164.986 53.8374 165.182 54.3615C165.378 54.8857 165.668 55.3011 166.051 55.608C166.439 55.9105 166.916 56.0618 167.483 56.0618ZM190.443 48.6662H188.449C188.372 48.2401 188.23 47.8651 188.021 47.5412C187.812 47.2173 187.556 46.9425 187.254 46.7166C186.951 46.4908 186.612 46.3203 186.237 46.2053C185.867 46.0902 185.472 46.0327 185.055 46.0327C184.301 46.0327 183.625 46.2223 183.029 46.6016C182.436 46.9808 181.967 47.5369 181.622 48.2699C181.281 49.0028 181.111 49.8977 181.111 50.9545C181.111 52.0199 181.281 52.919 181.622 53.652C181.967 54.3849 182.438 54.9389 183.035 55.3139C183.632 55.6889 184.303 55.8764 185.048 55.8764C185.462 55.8764 185.854 55.821 186.225 55.7102C186.6 55.5952 186.938 55.4268 187.241 55.2053C187.543 54.9837 187.799 54.7131 188.008 54.3935C188.221 54.0696 188.368 53.6989 188.449 53.2812L190.443 53.2876C190.337 53.9311 190.13 54.5234 189.823 55.0646C189.521 55.6016 189.131 56.0661 188.654 56.4581C188.181 56.8459 187.639 57.1463 187.03 57.3594C186.421 57.5724 185.756 57.679 185.036 57.679C183.902 57.679 182.892 57.4105 182.006 56.8736C181.119 56.3324 180.421 55.5589 179.909 54.5533C179.402 53.5476 179.149 52.348 179.149 50.9545C179.149 49.5568 179.404 48.3572 179.916 47.3558C180.427 46.3501 181.126 45.5788 182.012 45.0419C182.899 44.5007 183.906 44.2301 185.036 44.2301C185.73 44.2301 186.378 44.3303 186.979 44.5305C187.584 44.7266 188.127 45.0163 188.609 45.3999C189.09 45.7791 189.489 46.2436 189.804 46.7933C190.119 47.3388 190.333 47.9631 190.443 48.6662ZM195.511 57.7173C194.888 57.7173 194.326 57.6023 193.823 57.3722C193.32 57.1378 192.922 56.799 192.628 56.3558C192.338 55.9126 192.193 55.3693 192.193 54.7259C192.193 54.1719 192.3 53.7159 192.513 53.358C192.726 53 193.013 52.7166 193.376 52.5078C193.738 52.299 194.143 52.1413 194.59 52.0348C195.038 51.9283 195.494 51.8473 195.958 51.7919C196.546 51.7237 197.023 51.6683 197.39 51.6257C197.756 51.5788 198.023 51.5043 198.189 51.402C198.355 51.2997 198.438 51.1335 198.438 50.9034V50.8587C198.438 50.3004 198.28 49.8679 197.965 49.5611C197.654 49.2543 197.19 49.1009 196.572 49.1009C195.928 49.1009 195.421 49.2436 195.05 49.5291C194.684 49.8104 194.43 50.1236 194.29 50.4687L192.494 50.0597C192.707 49.4631 193.018 48.9815 193.427 48.6151C193.84 48.2443 194.315 47.9759 194.852 47.8097C195.389 47.6392 195.954 47.554 196.546 47.554C196.938 47.554 197.354 47.6009 197.793 47.6946C198.236 47.7841 198.649 47.9503 199.033 48.1932C199.42 48.4361 199.738 48.7834 199.985 49.2351C200.232 49.6825 200.356 50.2642 200.356 50.9801V57.5H198.489V56.1577H198.413C198.289 56.4048 198.104 56.6477 197.856 56.8864C197.609 57.125 197.292 57.3232 196.904 57.4808C196.516 57.6385 196.052 57.7173 195.511 57.7173ZM195.926 56.1832C196.454 56.1832 196.906 56.0788 197.281 55.87C197.66 55.6612 197.948 55.3885 198.144 55.0518C198.344 54.7109 198.445 54.3466 198.445 53.9588V52.6932C198.376 52.7614 198.244 52.8253 198.048 52.8849C197.856 52.9403 197.637 52.9893 197.39 53.032C197.143 53.0703 196.902 53.1065 196.668 53.1406C196.433 53.1705 196.237 53.196 196.079 53.2173C195.709 53.2642 195.37 53.343 195.063 53.4538C194.761 53.5646 194.518 53.7244 194.334 53.9332C194.155 54.1378 194.066 54.4105 194.066 54.7514C194.066 55.2244 194.241 55.5824 194.59 55.8253C194.94 56.0639 195.385 56.1832 195.926 56.1832ZM210.259 50.0788L208.526 50.3857C208.454 50.1641 208.339 49.9531 208.181 49.7528C208.028 49.5526 207.819 49.3885 207.555 49.2607C207.291 49.1328 206.96 49.0689 206.564 49.0689C206.023 49.0689 205.571 49.1903 205.209 49.4332C204.847 49.6719 204.666 49.9808 204.666 50.3601C204.666 50.6882 204.787 50.9524 205.03 51.1527C205.273 51.353 205.665 51.517 206.206 51.6449L207.766 52.0028C208.669 52.2116 209.342 52.5334 209.786 52.968C210.229 53.4027 210.45 53.9673 210.45 54.6619C210.45 55.25 210.28 55.7741 209.939 56.2344C209.602 56.6903 209.132 57.0483 208.526 57.3082C207.926 57.5682 207.229 57.6982 206.436 57.6982C205.337 57.6982 204.44 57.4638 203.745 56.995C203.051 56.522 202.624 55.8509 202.467 54.9815L204.314 54.7003C204.429 55.1818 204.666 55.5462 205.024 55.7933C205.382 56.0362 205.848 56.1577 206.423 56.1577C207.05 56.1577 207.551 56.0277 207.926 55.7678C208.301 55.5036 208.488 55.1818 208.488 54.8026C208.488 54.4957 208.373 54.2379 208.143 54.0291C207.917 53.8203 207.57 53.6626 207.101 53.5561L205.439 53.1918C204.523 52.983 203.845 52.6506 203.406 52.1946C202.972 51.7386 202.754 51.1612 202.754 50.4624C202.754 49.8828 202.916 49.3757 203.24 48.9411C203.564 48.5064 204.011 48.1676 204.583 47.9247C205.154 47.6776 205.808 47.554 206.545 47.554C207.606 47.554 208.441 47.7841 209.051 48.2443C209.66 48.7003 210.063 49.3118 210.259 50.0788ZM214.463 51.6705V57.5H212.552V44.4091H214.437V49.2798H214.559C214.789 48.7514 215.141 48.3317 215.614 48.0206C216.087 47.7095 216.704 47.554 217.467 47.554C218.141 47.554 218.729 47.6925 219.231 47.9695C219.739 48.2464 220.131 48.6598 220.408 49.2095C220.689 49.755 220.829 50.4368 220.829 51.255V57.5H218.918V51.4851C218.918 50.7649 218.733 50.2067 218.362 49.8104C217.991 49.4098 217.476 49.2095 216.815 49.2095C216.364 49.2095 215.959 49.3054 215.601 49.4972C215.247 49.6889 214.968 49.9702 214.763 50.3409C214.563 50.7074 214.463 51.1506 214.463 51.6705ZM228.297 57.5V44.4091H236.415V46.1094H230.272V50.098H235.833V51.7919H230.272V57.5L228.297 57.5ZM240.602 44.4091V57.5H238.69V44.4091H240.602ZM247.309 57.6982C246.388 57.6982 245.585 57.4872 244.899 57.0653C244.213 56.6435 243.68 56.0533 243.301 55.2947C242.921 54.5362 242.732 53.6499 242.732 52.6357C242.732 51.6172 242.921 50.7266 243.301 49.9638C243.68 49.201 244.213 48.6087 244.899 48.1868C245.585 47.7649 246.388 47.554 247.309 47.554C248.229 47.554 249.032 47.7649 249.718 48.1868C250.404 48.6087 250.937 49.201 251.316 49.9638C251.696 50.7266 251.885 51.6172 251.885 52.6357C251.885 53.6499 251.696 54.5362 251.316 55.2947C250.937 56.0533 250.404 56.6435 249.718 57.0653C249.032 57.4872 248.229 57.6982 247.309 57.6982ZM247.315 56.0937C247.912 56.0937 248.406 55.9361 248.798 55.6207C249.19 55.3054 249.48 54.8857 249.667 54.3615C249.859 53.8374 249.955 53.2599 249.955 52.6293C249.955 52.0028 249.859 51.4276 249.667 50.9034C249.48 50.375 249.19 49.951 248.798 49.6314C248.406 49.3118 247.912 49.152 247.315 49.152C246.714 49.152 246.216 49.3118 245.819 49.6314C245.427 49.951 245.135 50.375 244.943 50.9034C244.756 51.4276 244.662 52.0028 244.662 52.6293C244.662 53.2599 244.756 53.8374 244.943 54.3615C245.135 54.8857 245.427 55.3054 245.819 55.6207C246.216 55.9361 246.714 56.0937 247.315 56.0937ZM255.848 57.5L252.959 47.6818H254.934L256.858 54.892H256.954L258.885 47.6818H260.86L262.777 54.8601H262.873L264.784 47.6818H266.76L263.877 57.5H261.927L259.933 50.4112H259.786L257.792 57.5H255.848Z" fill="white"/>
<defs>
<linearGradient id="paint0_linear_667_20" x1="35.2585" y1="6.49999" x2="308.811" y2="172.335" gradientUnits="userSpaceOnUse">
<stop stop-color="#CCC4EA" stop-opacity="0.4"/>
<stop offset="1" stop-color="#DFD8FA" stop-opacity="0.67"/>
</linearGradient>
<linearGradient id="paint1_linear_667_20" x1="248.941" y1="131.076" x2="-38.8" y2="137.056" gradientUnits="userSpaceOnUse">
<stop offset="0.0803187" stop-color="#A6D0FF"/>
<stop offset="1" stop-color="#31179E"/>
</linearGradient>
<linearGradient id="paint2_linear_667_20" x1="47.5" y1="144.459" x2="47.5" y2="172" gradientUnits="userSpaceOnUse">
<stop stop-color="#A6D0FF" stop-opacity="0"/>
<stop offset="1" stop-color="#919EAB" stop-opacity="0.3"/>
</linearGradient>
<linearGradient id="paint3_linear_667_20" x1="90.3" y1="114.295" x2="90.3" y2="172" gradientUnits="userSpaceOnUse">
<stop stop-color="#A6D0FF" stop-opacity="0"/>
<stop offset="1" stop-color="#919EAB" stop-opacity="0.3"/>
</linearGradient>
<linearGradient id="paint4_linear_667_20" x1="133.1" y1="123.475" x2="133.1" y2="172" gradientUnits="userSpaceOnUse">
<stop stop-color="#A6D0FF" stop-opacity="0"/>
<stop offset="1" stop-color="#919EAB" stop-opacity="0.3"/>
</linearGradient>
<linearGradient id="paint5_linear_667_20" x1="175.9" y1="111.672" x2="175.9" y2="172" gradientUnits="userSpaceOnUse">
<stop stop-color="#A6D0FF" stop-opacity="0"/>
<stop offset="1" stop-color="#919EAB" stop-opacity="0.3"/>
</linearGradient>
<linearGradient id="paint6_linear_667_20" x1="218.7" y1="98.5574" x2="218.7" y2="172" gradientUnits="userSpaceOnUse">
<stop stop-color="#A6D0FF" stop-opacity="0"/>
<stop offset="1" stop-color="#919EAB" stop-opacity="0.3"/>
</linearGradient>
<linearGradient id="paint7_linear_667_20" x1="261.5" y1="99" x2="261.5" y2="172" gradientUnits="userSpaceOnUse">
<stop stop-color="#A6D0FF" stop-opacity="0"/>
<stop offset="1" stop-color="#919EAB" stop-opacity="0.3"/>
</linearGradient>
</defs>
</svg>
