<svg width="308" height="220" viewBox="0 0 308 220" fill="none" xmlns="http://www.w3.org/2000/svg">
<path d="M0 24C0 10.7452 10.7452 0 24 0H284C297.255 0 308 10.7452 308 24V196C308 209.255 297.255 220 284 220H24C10.7452 220 0 209.255 0 196V24Z" fill="white" fill-opacity="0.1"/>
<path d="M25.4382 42V28.9091H33.6456V30.6094H27.4134V34.598H33.2173V36.2919H27.4134V40.2997H33.7223V42H25.4382ZM36.1305 42V32.1818H37.965V33.7798H38.0865C38.291 33.2386 38.6255 32.8168 39.09 32.5142C39.5545 32.2074 40.1106 32.054 40.7583 32.054C41.4146 32.054 41.9643 32.2074 42.4075 32.5142C42.8549 32.821 43.1852 33.2429 43.3983 33.7798H43.5005C43.7349 33.2557 44.1078 32.8381 44.6191 32.527C45.1305 32.2116 45.7399 32.054 46.4473 32.054C47.3379 32.054 48.0645 32.3331 48.627 32.8913C49.1937 33.4496 49.4771 34.2912 49.4771 35.4162V42H47.5659V35.5952C47.5659 34.9304 47.3848 34.4489 47.0226 34.1506C46.6603 33.8523 46.2278 33.7031 45.725 33.7031C45.1028 33.7031 44.6191 33.8949 44.274 34.2784C43.9288 34.6577 43.7562 35.1456 43.7562 35.7422V42H41.8514V35.4737C41.8514 34.9411 41.6852 34.5128 41.3528 34.1889C41.0204 33.8651 40.5879 33.7031 40.0552 33.7031C39.693 33.7031 39.3585 33.799 39.0517 33.9908C38.7491 34.1783 38.5041 34.4403 38.3166 34.777C38.1333 35.1136 38.0417 35.5036 38.0417 35.9467V42H36.1305ZM52.0387 45.6818V32.1818H53.9052V33.7734H54.065C54.1758 33.5689 54.3356 33.3324 54.5444 33.0639C54.7532 32.7955 55.043 32.5611 55.4137 32.3608C55.7844 32.1562 56.2745 32.054 56.8839 32.054C57.6765 32.054 58.3839 32.2543 59.006 32.6548C59.6282 33.0554 60.1161 33.6328 60.4698 34.3871C60.8278 35.1413 61.0067 36.049 61.0067 37.1101C61.0067 38.1712 60.8299 39.081 60.4762 39.8395C60.1225 40.5937 59.6367 41.1754 59.0188 41.5845C58.4009 41.9893 57.6957 42.1918 56.9031 42.1918C56.3065 42.1918 55.8185 42.0916 55.4393 41.8913C55.0643 41.6911 54.7702 41.4567 54.5572 41.1882C54.3441 40.9197 54.18 40.6811 54.065 40.4723H53.9499V45.6818H52.0387ZM53.9116 37.0909C53.9116 37.7812 54.0117 38.3864 54.212 38.9062C54.4123 39.4261 54.7021 39.8331 55.0813 40.1271C55.4606 40.4169 55.9251 40.5618 56.4748 40.5618C57.0458 40.5618 57.5231 40.4105 57.9066 40.108C58.2901 39.8011 58.5799 39.3857 58.7759 38.8615C58.9762 38.3374 59.0763 37.7472 59.0763 37.0909C59.0763 36.4432 58.9783 35.8615 58.7823 35.3459C58.5906 34.8303 58.3008 34.4233 57.913 34.125C57.5295 33.8267 57.0501 33.6776 56.4748 33.6776C55.9208 33.6776 55.4521 33.8203 55.0685 34.1058C54.6893 34.3913 54.4016 34.7898 54.2056 35.3011C54.0096 35.8125 53.9116 36.4091 53.9116 37.0909ZM65.0593 28.9091V42H63.1481V28.9091H65.0593ZM71.7662 42.1982C70.8457 42.1982 70.0424 41.9872 69.3564 41.5653C68.6703 41.1435 68.1376 40.5533 67.7583 39.7947C67.3791 39.0362 67.1895 38.1499 67.1895 37.1357C67.1895 36.1172 67.3791 35.2266 67.7583 34.4638C68.1376 33.701 68.6703 33.1087 69.3564 32.6868C70.0424 32.2649 70.8457 32.054 71.7662 32.054C72.6866 32.054 73.4899 32.2649 74.176 32.6868C74.862 33.1087 75.3947 33.701 75.774 34.4638C76.1532 35.2266 76.3429 36.1172 76.3429 37.1357C76.3429 38.1499 76.1532 39.0362 75.774 39.7947C75.3947 40.5533 74.862 41.1435 74.176 41.5653C73.4899 41.9872 72.6866 42.1982 71.7662 42.1982ZM71.7726 40.5938C72.3691 40.5938 72.8635 40.4361 73.2555 40.1207C73.6475 39.8054 73.9373 39.3857 74.1248 38.8615C74.3166 38.3374 74.4125 37.7599 74.4125 37.1293C74.4125 36.5028 74.3166 35.9276 74.1248 35.4034C73.9373 34.875 73.6475 34.451 73.2555 34.1314C72.8635 33.8118 72.3691 33.652 71.7726 33.652C71.1717 33.652 70.6731 33.8118 70.2768 34.1314C69.8848 34.451 69.5929 34.875 69.4011 35.4034C69.2136 35.9276 69.1199 36.5028 69.1199 37.1293C69.1199 37.7599 69.2136 38.3374 69.4011 38.8615C69.5929 39.3857 69.8848 39.8054 70.2768 40.1207C70.6731 40.4361 71.1717 40.5938 71.7726 40.5938ZM79.3503 45.6818C79.0648 45.6818 78.8049 45.6584 78.5705 45.6115C78.3361 45.5689 78.1614 45.522 78.0463 45.4709L78.5066 43.9048C78.856 43.9986 79.1671 44.0391 79.4398 44.0263C79.7125 44.0135 79.9533 43.9112 80.1621 43.7195C80.3752 43.5277 80.5627 43.2145 80.7246 42.7798L80.9611 42.1278L77.3688 32.1818H79.4142L81.9007 39.8011H82.003L84.4895 32.1818H86.5414L82.4952 43.3104C82.3077 43.8217 82.0691 44.2543 81.7793 44.608C81.4895 44.9659 81.1444 45.2344 80.7438 45.4134C80.3432 45.5923 79.8787 45.6818 79.3503 45.6818ZM92.2351 42.1982C91.2678 42.1982 90.4347 41.9915 89.7358 41.5781C89.0412 41.1605 88.5043 40.5746 88.125 39.8203C87.75 39.0618 87.5625 38.1733 87.5625 37.1548C87.5625 36.1491 87.75 35.2628 88.125 34.4957C88.5043 33.7287 89.0327 33.13 89.7102 32.6996C90.392 32.2692 91.1889 32.054 92.1009 32.054C92.6548 32.054 93.1918 32.1456 93.7116 32.3288C94.2315 32.5121 94.6982 32.7997 95.1115 33.1918C95.5249 33.5838 95.8509 34.093 96.0895 34.7195C96.3281 35.3416 96.4474 36.098 96.4474 36.9886V37.6662H88.6428V36.2344H94.5746C94.5746 35.7315 94.4723 35.2862 94.2678 34.8984C94.0632 34.5064 93.7756 34.1974 93.4048 33.9716C93.0384 33.7457 92.608 33.6328 92.1136 33.6328C91.5767 33.6328 91.108 33.7649 90.7074 34.0291C90.3111 34.2891 90.0043 34.63 89.7869 35.0518C89.5739 35.4695 89.4673 35.9233 89.4673 36.4134V37.532C89.4673 38.1882 89.5824 38.7464 89.8125 39.2067C90.0469 39.6669 90.3729 40.0185 90.7905 40.2614C91.2081 40.5 91.696 40.6193 92.2543 40.6193C92.6165 40.6193 92.9467 40.5682 93.245 40.4659C93.5433 40.3594 93.8011 40.2017 94.0185 39.9929C94.2358 39.7841 94.402 39.5263 94.517 39.2195L96.326 39.5455C96.1811 40.0781 95.9212 40.5447 95.5462 40.9453C95.1754 41.3416 94.7088 41.6506 94.1463 41.8722C93.5881 42.0895 92.951 42.1982 92.2351 42.1982ZM102.8 42.1982C101.832 42.1982 100.999 41.9915 100.3 41.5781C99.6056 41.1605 99.0687 40.5746 98.6895 39.8203C98.3145 39.0618 98.127 38.1733 98.127 37.1548C98.127 36.1491 98.3145 35.2628 98.6895 34.4957C99.0687 33.7287 99.5971 33.13 100.275 32.6996C100.956 32.2692 101.753 32.054 102.665 32.054C103.219 32.054 103.756 32.1456 104.276 32.3288C104.796 32.5121 105.263 32.7997 105.676 33.1918C106.089 33.5838 106.415 34.093 106.654 34.7195C106.893 35.3416 107.012 36.098 107.012 36.9886V37.6662H99.2072V36.2344H105.139C105.139 35.7315 105.037 35.2862 104.832 34.8984C104.628 34.5064 104.34 34.1974 103.969 33.9716C103.603 33.7457 103.172 33.6328 102.678 33.6328C102.141 33.6328 101.672 33.7649 101.272 34.0291C100.876 34.2891 100.569 34.63 100.351 35.0518C100.138 35.4695 100.032 35.9233 100.032 36.4134V37.532C100.032 38.1882 100.147 38.7464 100.377 39.2067C100.611 39.6669 100.937 40.0185 101.355 40.2614C101.773 40.5 102.26 40.6193 102.819 40.6193C103.181 40.6193 103.511 40.5682 103.809 40.4659C104.108 40.3594 104.366 40.2017 104.583 39.9929C104.8 39.7841 104.966 39.5263 105.081 39.2195L106.89 39.5455C106.746 40.0781 106.486 40.5447 106.111 40.9453C105.74 41.3416 105.273 41.6506 104.711 41.8722C104.153 42.0895 103.515 42.1982 102.8 42.1982ZM118.287 42H114.05V28.9091H118.422C119.704 28.9091 120.806 29.1712 121.726 29.6953C122.647 30.2152 123.352 30.9631 123.842 31.9389C124.336 32.9105 124.584 34.076 124.584 35.4354C124.584 36.799 124.334 37.9709 123.836 38.951C123.341 39.9311 122.626 40.6854 121.688 41.2138C120.751 41.7379 119.617 42 118.287 42ZM116.025 40.2741H118.179C119.176 40.2741 120.005 40.0866 120.665 39.7116C121.326 39.3324 121.82 38.7848 122.148 38.0689C122.476 37.3487 122.64 36.4709 122.64 35.4354C122.64 34.4084 122.476 33.5369 122.148 32.821C121.824 32.1051 121.341 31.5618 120.697 31.1911C120.054 30.8203 119.255 30.6349 118.3 30.6349H116.025V40.2741ZM129.744 42.2173C129.121 42.2173 128.559 42.1023 128.056 41.8722C127.553 41.6378 127.155 41.299 126.861 40.8558C126.571 40.4126 126.426 39.8693 126.426 39.2259C126.426 38.6719 126.533 38.2159 126.746 37.858C126.959 37.5 127.246 37.2166 127.609 37.0078C127.971 36.799 128.376 36.6413 128.823 36.5348C129.271 36.4283 129.727 36.3473 130.191 36.2919C130.779 36.2237 131.256 36.1683 131.623 36.1257C131.989 36.0788 132.256 36.0043 132.422 35.902C132.588 35.7997 132.671 35.6335 132.671 35.4034V35.3587C132.671 34.8004 132.513 34.3679 132.198 34.0611C131.887 33.7543 131.423 33.6009 130.805 33.6009C130.161 33.6009 129.654 33.7436 129.283 34.0291C128.917 34.3104 128.663 34.6236 128.523 34.9688L126.727 34.5597C126.94 33.9631 127.251 33.4815 127.66 33.1151C128.073 32.7443 128.548 32.4759 129.085 32.3097C129.622 32.1392 130.187 32.054 130.779 32.054C131.171 32.054 131.587 32.1009 132.026 32.1946C132.469 32.2841 132.882 32.4503 133.266 32.6932C133.653 32.9361 133.971 33.2834 134.218 33.7351C134.465 34.1825 134.589 34.7642 134.589 35.4801V42H132.722V40.6577H132.646C132.522 40.9048 132.337 41.1477 132.089 41.3864C131.842 41.625 131.525 41.8232 131.137 41.9808C130.749 42.1385 130.285 42.2173 129.744 42.2173ZM130.159 40.6832C130.688 40.6832 131.139 40.5788 131.514 40.37C131.893 40.1612 132.181 39.8885 132.377 39.5518C132.577 39.2109 132.678 38.8466 132.678 38.4588V37.1932C132.609 37.2614 132.477 37.3253 132.281 37.3849C132.089 37.4403 131.87 37.4893 131.623 37.532C131.376 37.5703 131.135 37.6065 130.901 37.6406C130.666 37.6705 130.47 37.696 130.312 37.7173C129.942 37.7642 129.603 37.843 129.296 37.9538C128.994 38.0646 128.751 38.2244 128.567 38.4332C128.388 38.6378 128.299 38.9105 128.299 39.2514C128.299 39.7244 128.474 40.0824 128.823 40.3253C129.173 40.5639 129.618 40.6832 130.159 40.6832ZM141.718 32.1818V33.7159H136.355V32.1818H141.718ZM137.793 29.8295H139.704V39.1172C139.704 39.4879 139.759 39.767 139.87 39.9545C139.981 40.1378 140.124 40.2635 140.298 40.3317C140.477 40.3956 140.671 40.4276 140.88 40.4276C141.034 40.4276 141.168 40.4169 141.283 40.3956C141.398 40.3743 141.487 40.3572 141.551 40.3445L141.896 41.9233C141.786 41.9659 141.628 42.0085 141.423 42.0511C141.219 42.098 140.963 42.1236 140.656 42.1278C140.154 42.1364 139.685 42.0469 139.25 41.8594C138.816 41.6719 138.464 41.3821 138.195 40.9901C137.927 40.598 137.793 40.1058 137.793 39.5135V29.8295ZM146.689 42.2173C146.067 42.2173 145.504 42.1023 145.001 41.8722C144.499 41.6378 144.1 41.299 143.806 40.8558C143.516 40.4126 143.371 39.8693 143.371 39.2259C143.371 38.6719 143.478 38.2159 143.691 37.858C143.904 37.5 144.192 37.2166 144.554 37.0078C144.916 36.799 145.321 36.6413 145.768 36.5348C146.216 36.4283 146.672 36.3473 147.136 36.2919C147.724 36.2237 148.202 36.1683 148.568 36.1257C148.935 36.0788 149.201 36.0043 149.367 35.902C149.533 35.7997 149.616 35.6335 149.616 35.4034V35.3587C149.616 34.8004 149.459 34.3679 149.143 34.0611C148.832 33.7543 148.368 33.6009 147.75 33.6009C147.107 33.6009 146.599 33.7436 146.229 34.0291C145.862 34.3104 145.609 34.6236 145.468 34.9688L143.672 34.5597C143.885 33.9631 144.196 33.4815 144.605 33.1151C145.018 32.7443 145.494 32.4759 146.031 32.3097C146.567 32.1392 147.132 32.054 147.724 32.054C148.116 32.054 148.532 32.1009 148.971 32.1946C149.414 32.2841 149.827 32.4503 150.211 32.6932C150.599 32.9361 150.916 33.2834 151.163 33.7351C151.411 34.1825 151.534 34.7642 151.534 35.4801V42H149.668V40.6577H149.591C149.467 40.9048 149.282 41.1477 149.035 41.3864C148.788 41.625 148.47 41.8232 148.082 41.9808C147.695 42.1385 147.23 42.2173 146.689 42.2173ZM147.104 40.6832C147.633 40.6832 148.085 40.5788 148.46 40.37C148.839 40.1612 149.126 39.8885 149.322 39.5518C149.523 39.2109 149.623 38.8466 149.623 38.4588V37.1932C149.555 37.2614 149.423 37.3253 149.227 37.3849C149.035 37.4403 148.815 37.4893 148.568 37.532C148.321 37.5703 148.08 37.6065 147.846 37.6406C147.612 37.6705 147.415 37.696 147.258 37.7173C146.887 37.7642 146.548 37.843 146.241 37.9538C145.939 38.0646 145.696 38.2244 145.513 38.4332C145.334 38.6378 145.244 38.9105 145.244 39.2514C145.244 39.7244 145.419 40.0824 145.768 40.3253C146.118 40.5639 146.563 40.6832 147.104 40.6832Z" fill="white"/>
<path d="M269.656 39.8441L278.344 31.1559M278.344 31.1559H269.836M278.344 31.1559V39.6643" stroke="white" stroke-width="1.5" stroke-linecap="round" stroke-linejoin="round"/>
<path opacity="0.5" d="M33.4261 64H32.1932C32.1203 63.6454 31.9927 63.3338 31.8104 63.0653C31.6314 62.7969 31.4126 62.5715 31.1541 62.3892C30.8989 62.2036 30.6155 62.0644 30.304 61.9716C29.9924 61.8788 29.6676 61.8324 29.3295 61.8324C28.7131 61.8324 28.1546 61.9882 27.6541 62.2997C27.157 62.6113 26.7609 63.0703 26.4659 63.6768C26.1742 64.2834 26.0284 65.0275 26.0284 65.9091C26.0284 66.7907 26.1742 67.5348 26.4659 68.1413C26.7609 68.7479 27.157 69.2069 27.6541 69.5185C28.1546 69.83 28.7131 69.9858 29.3295 69.9858C29.6676 69.9858 29.9924 69.9394 30.304 69.8466C30.6155 69.7538 30.8989 69.6162 31.1541 69.4339C31.4126 69.2483 31.6314 69.0213 31.8104 68.7528C31.9927 68.4811 32.1203 68.1695 32.1932 67.8182H33.4261C33.3333 68.3385 33.1643 68.8042 32.919 69.2152C32.6738 69.6262 32.3688 69.9759 32.0043 70.2642C31.6397 70.5492 31.2304 70.7663 30.7763 70.9155C30.3255 71.0646 29.8433 71.1392 29.3295 71.1392C28.4612 71.1392 27.6889 70.9271 27.0128 70.5028C26.3366 70.0786 25.8047 69.4754 25.4169 68.6932C25.0291 67.911 24.8352 66.983 24.8352 65.9091C24.8352 64.8352 25.0291 63.9072 25.4169 63.125C25.8047 62.3428 26.3366 61.7396 27.0128 61.3153C27.6889 60.8911 28.4612 60.679 29.3295 60.679C29.8433 60.679 30.3255 60.7536 30.7763 60.9027C31.2304 61.0518 31.6397 61.2706 32.0043 61.5589C32.3688 61.844 32.6738 62.192 32.919 62.603C33.1643 63.0107 33.3333 63.4763 33.4261 64ZM38.4611 71.1591C37.7253 71.1591 37.0906 70.9967 36.557 70.6719C36.0267 70.3438 35.6174 69.8864 35.329 69.2997C35.044 68.7098 34.9015 68.0237 34.9015 67.2415C34.9015 66.4593 35.044 65.7699 35.329 65.1733C35.6174 64.5734 36.0184 64.1061 36.5321 63.7713C37.0492 63.4332 37.6524 63.2642 38.3418 63.2642C38.7395 63.2642 39.1323 63.3305 39.5201 63.4631C39.9078 63.5956 40.2608 63.8111 40.579 64.1094C40.8972 64.4044 41.1507 64.7955 41.3397 65.2827C41.5286 65.7699 41.623 66.3698 41.623 67.0824V67.5795H35.7367V66.5653H40.4299C40.4299 66.1345 40.3437 65.75 40.1713 65.4119C40.0023 65.0739 39.7604 64.8071 39.4455 64.6115C39.1339 64.416 38.766 64.3182 38.3418 64.3182C37.8745 64.3182 37.4701 64.4342 37.1287 64.6662C36.7907 64.8949 36.5305 65.1932 36.3482 65.5611C36.1659 65.929 36.0748 66.3234 36.0748 66.7443V67.4205C36.0748 67.9972 36.1742 68.486 36.373 68.8871C36.5752 69.2848 36.8553 69.5881 37.2132 69.7969C37.5712 70.0024 37.9872 70.1051 38.4611 70.1051C38.7694 70.1051 39.0478 70.062 39.2963 69.9759C39.5482 69.8864 39.7653 69.7538 39.9476 69.5781C40.1299 69.3991 40.2708 69.1771 40.3702 68.9119L41.5037 69.2301C41.3844 69.6146 41.1839 69.9527 40.9022 70.2443C40.6204 70.5327 40.2724 70.758 39.8581 70.9205C39.4438 71.0795 38.9782 71.1591 38.4611 71.1591ZM43.4078 71V63.3636H44.5414V64.517H44.6209C44.7601 64.1392 45.012 63.8326 45.3766 63.5973C45.7412 63.362 46.1522 63.2443 46.6096 63.2443C46.6957 63.2443 46.8034 63.246 46.9327 63.2493C47.062 63.2526 47.1597 63.2576 47.226 63.2642V64.4574C47.1863 64.4474 47.0951 64.4325 46.9526 64.4126C46.8134 64.3894 46.6659 64.3778 46.5101 64.3778C46.1389 64.3778 45.8075 64.4557 45.5158 64.6115C45.2275 64.764 44.9988 64.9761 44.8297 65.2479C44.664 65.5163 44.5811 65.8229 44.5811 66.1676V71H43.4078ZM52.4164 63.3636V64.358H48.459V63.3636H52.4164ZM49.6124 61.5341H50.7857V68.8125C50.7857 69.1439 50.8337 69.3925 50.9299 69.5582C51.0293 69.7206 51.1552 69.83 51.3077 69.8864C51.4635 69.9394 51.6275 69.9659 51.7999 69.9659C51.9292 69.9659 52.0352 69.9593 52.1181 69.946C52.2009 69.9295 52.2672 69.9162 52.3169 69.9062L52.5556 70.9602C52.476 70.9901 52.365 71.0199 52.2225 71.0497C52.08 71.0829 51.8993 71.0994 51.6806 71.0994C51.3491 71.0994 51.0243 71.0282 50.7061 70.8857C50.3913 70.7431 50.1294 70.526 49.9206 70.2344C49.7151 69.9427 49.6124 69.5748 49.6124 69.1307V61.5341ZM54.1813 71V63.3636H55.3546V71H54.1813ZM54.7779 62.0909C54.5492 62.0909 54.352 62.013 54.1863 61.8572C54.0239 61.7015 53.9426 61.5142 53.9426 61.2955C53.9426 61.0767 54.0239 60.8894 54.1863 60.7337C54.352 60.5779 54.5492 60.5 54.7779 60.5C55.0066 60.5 55.2021 60.5779 55.3645 60.7337C55.5302 60.8894 55.6131 61.0767 55.6131 61.2955C55.6131 61.5142 55.5302 61.7015 55.3645 61.8572C55.2021 62.013 55.0066 62.0909 54.7779 62.0909ZM60.9041 63.3636V64.358H56.7876V63.3636H60.9041ZM58.0206 71V62.3097C58.0206 61.8722 58.1233 61.5076 58.3288 61.2159C58.5343 60.9242 58.8011 60.7055 59.1293 60.5597C59.4574 60.4138 59.8037 60.3409 60.1683 60.3409C60.4567 60.3409 60.692 60.3641 60.8743 60.4105C61.0566 60.4569 61.1925 60.5 61.282 60.5398L60.9439 61.554C60.8842 61.5341 60.8014 61.5092 60.6953 61.4794C60.5926 61.4496 60.4567 61.4347 60.2876 61.4347C59.8999 61.4347 59.6198 61.5324 59.4474 61.728C59.2784 61.9235 59.1939 62.2102 59.1939 62.5881V71H58.0206ZM62.5485 71V63.3636H63.7218V71H62.5485ZM63.1451 62.0909C62.9164 62.0909 62.7192 62.013 62.5534 61.8572C62.391 61.7015 62.3098 61.5142 62.3098 61.2955C62.3098 61.0767 62.391 60.8894 62.5534 60.7337C62.7192 60.5779 62.9164 60.5 63.1451 60.5C63.3738 60.5 63.5693 60.5779 63.7317 60.7337C63.8974 60.8894 63.9803 61.0767 63.9803 61.2955C63.9803 61.5142 63.8974 61.7015 63.7317 61.8572C63.5693 62.013 63.3738 62.0909 63.1451 62.0909ZM69.0724 71.1591C68.3366 71.1591 67.7019 70.9967 67.1683 70.6719C66.638 70.3438 66.2287 69.8864 65.9403 69.2997C65.6553 68.7098 65.5128 68.0237 65.5128 67.2415C65.5128 66.4593 65.6553 65.7699 65.9403 65.1733C66.2287 64.5734 66.6297 64.1061 67.1435 63.7713C67.6605 63.4332 68.2637 63.2642 68.9531 63.2642C69.3509 63.2642 69.7436 63.3305 70.1314 63.4631C70.5192 63.5956 70.8722 63.8111 71.1903 64.1094C71.5085 64.4044 71.7621 64.7955 71.951 65.2827C72.1399 65.7699 72.2344 66.3698 72.2344 67.0824V67.5795H66.348V66.5653H71.0412C71.0412 66.1345 70.955 65.75 70.7827 65.4119C70.6136 65.0739 70.3717 64.8071 70.0568 64.6115C69.7453 64.416 69.3774 64.3182 68.9531 64.3182C68.4858 64.3182 68.0814 64.4342 67.7401 64.6662C67.402 64.8949 67.1418 65.1932 66.9595 65.5611C66.7772 65.929 66.6861 66.3234 66.6861 66.7443V67.4205C66.6861 67.9972 66.7855 68.486 66.9844 68.8871C67.1866 69.2848 67.4666 69.5881 67.8246 69.7969C68.1825 70.0024 68.5985 70.1051 69.0724 70.1051C69.3807 70.1051 69.6591 70.062 69.9077 69.9759C70.1596 69.8864 70.3767 69.7538 70.5589 69.5781C70.7412 69.3991 70.8821 69.1771 70.9815 68.9119L72.1151 69.2301C71.9957 69.6146 71.7952 69.9527 71.5135 70.2443C71.2318 70.5327 70.8838 70.758 70.4695 70.9205C70.0552 71.0795 69.5895 71.1591 69.0724 71.1591ZM76.9027 71.1591C76.2663 71.1591 75.7045 70.9983 75.2173 70.6768C74.7301 70.352 74.349 69.8946 74.0739 69.3047C73.7988 68.7114 73.6612 68.0104 73.6612 67.2017C73.6612 66.3996 73.7988 65.7036 74.0739 65.1136C74.349 64.5237 74.7318 64.0679 75.2223 63.7464C75.7128 63.425 76.2796 63.2642 76.9226 63.2642C77.4197 63.2642 77.8125 63.3471 78.1009 63.5128C78.3925 63.6752 78.6146 63.8608 78.767 64.0696C78.9228 64.2751 79.0438 64.4441 79.13 64.5767H79.2294V60.8182H80.4027V71H79.2692V69.8267H79.13C79.0438 69.9659 78.9212 70.1416 78.7621 70.3537C78.603 70.5625 78.3759 70.7498 78.081 70.9155C77.786 71.0779 77.3932 71.1591 76.9027 71.1591ZM77.0618 70.1051C77.5324 70.1051 77.9302 69.9825 78.255 69.7372C78.5798 69.4886 78.8267 69.1456 78.9957 68.7081C79.1648 68.2673 79.2493 67.7585 79.2493 67.1818C79.2493 66.6117 79.1664 66.1129 79.0007 65.6854C78.835 65.2545 78.5897 64.9197 78.2649 64.6811C77.9401 64.4392 77.5391 64.3182 77.0618 64.3182C76.5646 64.3182 76.1503 64.4458 75.8189 64.701C75.4908 64.9529 75.2438 65.2959 75.0781 65.7301C74.9157 66.161 74.8345 66.6449 74.8345 67.1818C74.8345 67.7254 74.9174 68.2192 75.0831 68.6634C75.2521 69.1042 75.5007 69.4555 75.8288 69.7173C76.1603 69.9759 76.5713 70.1051 77.0618 70.1051Z" fill="white"/>
<path d="M25.2784 147V135.364H27.0341V140.42H32.8352V135.364H34.5966V147H32.8352V141.926H27.0341V147H25.2784ZM40.6932 147.176C39.875 147.176 39.161 146.989 38.5511 146.614C37.9413 146.239 37.4678 145.714 37.1307 145.04C36.7936 144.366 36.625 143.578 36.625 142.676C36.625 141.771 36.7936 140.979 37.1307 140.301C37.4678 139.623 37.9413 139.097 38.5511 138.722C39.161 138.347 39.875 138.159 40.6932 138.159C41.5114 138.159 42.2254 138.347 42.8352 138.722C43.4451 139.097 43.9186 139.623 44.2557 140.301C44.5928 140.979 44.7614 141.771 44.7614 142.676C44.7614 143.578 44.5928 144.366 44.2557 145.04C43.9186 145.714 43.4451 146.239 42.8352 146.614C42.2254 146.989 41.5114 147.176 40.6932 147.176ZM40.6989 145.75C41.2292 145.75 41.6686 145.61 42.017 145.33C42.3655 145.049 42.6231 144.676 42.7898 144.21C42.9602 143.744 43.0455 143.231 43.0455 142.67C43.0455 142.114 42.9602 141.602 42.7898 141.136C42.6231 140.667 42.3655 140.29 42.017 140.006C41.6686 139.722 41.2292 139.58 40.6989 139.58C40.1648 139.58 39.7216 139.722 39.3693 140.006C39.0208 140.29 38.7614 140.667 38.5909 141.136C38.4242 141.602 38.3409 142.114 38.3409 142.67C38.3409 143.231 38.4242 143.744 38.5909 144.21C38.7614 144.676 39.0208 145.049 39.3693 145.33C39.7216 145.61 40.1648 145.75 40.6989 145.75ZM52.1861 143.381V138.273H53.8906V147H52.2202V145.489H52.1293C51.9285 145.955 51.6065 146.343 51.1634 146.653C50.724 146.96 50.1766 147.114 49.5213 147.114C48.9607 147.114 48.4645 146.991 48.0327 146.744C47.6046 146.494 47.2675 146.125 47.0213 145.636C46.7789 145.148 46.6577 144.544 46.6577 143.824V138.273H48.3565V143.619C48.3565 144.214 48.5213 144.687 48.8509 145.04C49.1804 145.392 49.6084 145.568 50.1349 145.568C50.4531 145.568 50.7694 145.489 51.0838 145.33C51.402 145.17 51.6652 144.93 51.8736 144.608C52.0857 144.286 52.1899 143.877 52.1861 143.381ZM56.1733 147V138.273H57.8153V139.659H57.9062C58.0653 139.189 58.3456 138.82 58.7472 138.551C59.1525 138.278 59.6108 138.142 60.1222 138.142C60.2282 138.142 60.3532 138.146 60.4972 138.153C60.6449 138.161 60.7604 138.17 60.8438 138.182V139.807C60.7756 139.788 60.6544 139.767 60.4801 139.744C60.3059 139.718 60.1316 139.705 59.9574 139.705C59.5559 139.705 59.1979 139.79 58.8835 139.96C58.5729 140.127 58.3267 140.36 58.1449 140.659C57.9631 140.955 57.8722 141.292 57.8722 141.67V147H56.1733ZM68.8537 140.403L67.3139 140.676C67.2495 140.479 67.1473 140.292 67.0071 140.114C66.8707 139.936 66.6851 139.79 66.4503 139.676C66.2154 139.562 65.9219 139.506 65.5696 139.506C65.0885 139.506 64.687 139.614 64.3651 139.83C64.0431 140.042 63.8821 140.316 63.8821 140.653C63.8821 140.945 63.9901 141.18 64.206 141.358C64.4219 141.536 64.7704 141.682 65.2514 141.795L66.6378 142.114C67.4408 142.299 68.0393 142.585 68.4332 142.972C68.8272 143.358 69.0241 143.86 69.0241 144.477C69.0241 145 68.8726 145.466 68.5696 145.875C68.2704 146.28 67.8518 146.598 67.3139 146.83C66.7798 147.061 66.1605 147.176 65.456 147.176C64.4787 147.176 63.6813 146.968 63.0639 146.551C62.4465 146.131 62.0677 145.534 61.9276 144.761L63.5696 144.511C63.6719 144.939 63.8821 145.263 64.2003 145.483C64.5185 145.699 64.9332 145.807 65.4446 145.807C66.0014 145.807 66.4465 145.691 66.7798 145.46C67.1132 145.225 67.2798 144.939 67.2798 144.602C67.2798 144.33 67.1776 144.1 66.973 143.915C66.7723 143.729 66.4635 143.589 66.0469 143.494L64.5696 143.17C63.7552 142.985 63.1529 142.689 62.7628 142.284C62.3764 141.879 62.1832 141.366 62.1832 140.744C62.1832 140.229 62.3272 139.778 62.6151 139.392C62.9029 139.006 63.3007 138.705 63.8082 138.489C64.3158 138.269 64.8973 138.159 65.5526 138.159C66.4957 138.159 67.2382 138.364 67.7798 138.773C68.3215 139.178 68.6795 139.722 68.8537 140.403ZM78.5128 147.165C77.7325 147.165 77.0601 147.023 76.4957 146.739C75.9351 146.455 75.5033 146.068 75.2003 145.58C74.8973 145.087 74.7457 144.53 74.7457 143.909C74.7457 143.436 74.8442 143.015 75.0412 142.648C75.2382 142.277 75.5128 141.934 75.8651 141.619C76.2173 141.305 76.6245 140.989 77.0866 140.67L78.9616 139.347C79.2798 139.138 79.5279 138.919 79.706 138.688C79.884 138.453 79.973 138.163 79.973 137.818C79.973 137.545 79.8556 137.284 79.6207 137.034C79.3859 136.784 79.0715 136.659 78.6776 136.659C78.4048 136.659 78.1643 136.725 77.956 136.858C77.7514 136.991 77.5904 137.161 77.473 137.369C77.3594 137.574 77.3026 137.79 77.3026 138.017C77.3026 138.282 77.3745 138.549 77.5185 138.818C77.6662 139.087 77.8556 139.366 78.0866 139.653C78.3177 139.937 78.5601 140.233 78.8139 140.54L84.2173 147H82.2969L77.8253 141.744C77.4503 141.301 77.1018 140.884 76.7798 140.494C76.4579 140.1 76.1965 139.703 75.9957 139.301C75.7988 138.896 75.7003 138.458 75.7003 137.989C75.7003 137.455 75.8215 136.981 76.0639 136.568C76.3101 136.152 76.6529 135.826 77.0923 135.591C77.5317 135.356 78.0469 135.239 78.6378 135.239C79.2363 135.239 79.7495 135.356 80.1776 135.591C80.6094 135.822 80.9408 136.131 81.1719 136.517C81.4067 136.9 81.5241 137.318 81.5241 137.773C81.5241 138.326 81.3859 138.814 81.1094 139.239C80.8366 139.659 80.4598 140.045 79.9787 140.398L77.6435 142.119C77.1889 142.453 76.8726 142.782 76.6946 143.108C76.5204 143.43 76.4332 143.682 76.4332 143.864C76.4332 144.197 76.5185 144.506 76.6889 144.79C76.8632 145.074 77.1056 145.301 77.4162 145.472C77.7306 145.642 78.098 145.727 78.5185 145.727C78.9503 145.727 79.3707 145.634 79.7798 145.449C80.1927 145.259 80.5658 144.989 80.8991 144.636C81.2363 144.284 81.5033 143.862 81.7003 143.369C81.8973 142.877 81.9957 142.326 81.9957 141.716H83.5298C83.5298 142.466 83.4446 143.1 83.2741 143.619C83.1037 144.134 82.8973 144.555 82.6548 144.881C82.4162 145.203 82.1908 145.455 81.9787 145.636C81.9105 145.697 81.8461 145.758 81.7855 145.818C81.7249 145.879 81.6605 145.939 81.5923 146C81.1984 146.398 80.7211 146.691 80.1605 146.881C79.6037 147.07 79.0545 147.165 78.5128 147.165ZM92.1974 147L88.9702 135.364H90.8168L93.0838 144.375H93.1918L95.5497 135.364H97.3793L99.7372 144.381H99.8452L102.107 135.364H103.959L100.726 147H98.9588L96.5099 138.284H96.419L93.9702 147H92.1974ZM107.104 147.193C106.551 147.193 106.051 147.091 105.604 146.886C105.157 146.678 104.803 146.377 104.541 145.983C104.284 145.589 104.155 145.106 104.155 144.534C104.155 144.042 104.25 143.636 104.439 143.318C104.628 143 104.884 142.748 105.206 142.562C105.528 142.377 105.888 142.237 106.286 142.142C106.683 142.047 107.089 141.975 107.501 141.926C108.024 141.866 108.448 141.816 108.774 141.778C109.1 141.737 109.337 141.67 109.484 141.58C109.632 141.489 109.706 141.341 109.706 141.136V141.097C109.706 140.6 109.566 140.216 109.286 139.943C109.009 139.67 108.596 139.534 108.047 139.534C107.475 139.534 107.024 139.661 106.695 139.915C106.369 140.165 106.143 140.443 106.018 140.75L104.422 140.386C104.611 139.856 104.888 139.428 105.251 139.102C105.619 138.773 106.041 138.534 106.518 138.386C106.996 138.235 107.498 138.159 108.024 138.159C108.373 138.159 108.742 138.201 109.132 138.284C109.526 138.364 109.893 138.511 110.234 138.727C110.579 138.943 110.861 139.252 111.081 139.653C111.301 140.051 111.411 140.568 111.411 141.205V147H109.751V145.807H109.683C109.573 146.027 109.409 146.242 109.189 146.455C108.969 146.667 108.687 146.843 108.342 146.983C107.998 147.123 107.585 147.193 107.104 147.193ZM107.473 145.83C107.943 145.83 108.344 145.737 108.678 145.551C109.015 145.366 109.27 145.123 109.445 144.824C109.623 144.521 109.712 144.197 109.712 143.852V142.727C109.651 142.788 109.534 142.845 109.359 142.898C109.189 142.947 108.994 142.991 108.774 143.028C108.554 143.062 108.34 143.095 108.132 143.125C107.924 143.152 107.75 143.174 107.609 143.193C107.28 143.235 106.979 143.305 106.706 143.403C106.437 143.502 106.221 143.644 106.058 143.83C105.899 144.011 105.82 144.254 105.82 144.557C105.82 144.977 105.975 145.295 106.286 145.511C106.596 145.723 106.992 145.83 107.473 145.83ZM117.332 150.455C116.639 150.455 116.043 150.364 115.543 150.182C115.046 150 114.641 149.759 114.327 149.46C114.012 149.161 113.777 148.833 113.622 148.477L115.082 147.875C115.185 148.042 115.321 148.218 115.491 148.403C115.666 148.593 115.901 148.754 116.196 148.886C116.495 149.019 116.88 149.085 117.349 149.085C117.993 149.085 118.526 148.928 118.946 148.614C119.366 148.303 119.577 147.807 119.577 147.125V145.409H119.469C119.366 145.595 119.219 145.801 119.026 146.028C118.836 146.256 118.575 146.453 118.241 146.619C117.908 146.786 117.474 146.869 116.94 146.869C116.251 146.869 115.63 146.708 115.077 146.386C114.527 146.061 114.092 145.581 113.77 144.949C113.452 144.312 113.293 143.53 113.293 142.602C113.293 141.674 113.45 140.879 113.764 140.216C114.082 139.553 114.518 139.045 115.071 138.693C115.624 138.337 116.251 138.159 116.952 138.159C117.493 138.159 117.931 138.25 118.264 138.432C118.598 138.61 118.857 138.818 119.043 139.057C119.232 139.295 119.378 139.506 119.48 139.688H119.605V138.273H121.27V147.193C121.27 147.943 121.096 148.559 120.747 149.04C120.399 149.521 119.927 149.877 119.332 150.108C118.741 150.339 118.075 150.455 117.332 150.455ZM117.315 145.46C117.804 145.46 118.217 145.347 118.554 145.119C118.895 144.888 119.152 144.559 119.327 144.131C119.505 143.699 119.594 143.182 119.594 142.58C119.594 141.992 119.507 141.475 119.332 141.028C119.158 140.581 118.902 140.233 118.565 139.983C118.228 139.729 117.812 139.602 117.315 139.602C116.804 139.602 116.378 139.735 116.037 140C115.696 140.261 115.438 140.617 115.264 141.068C115.094 141.519 115.009 142.023 115.009 142.58C115.009 143.152 115.096 143.653 115.27 144.085C115.444 144.517 115.702 144.854 116.043 145.097C116.387 145.339 116.812 145.46 117.315 145.46ZM127.31 147.176C126.45 147.176 125.709 146.992 125.088 146.625C124.471 146.254 123.993 145.733 123.656 145.062C123.323 144.388 123.156 143.598 123.156 142.693C123.156 141.799 123.323 141.011 123.656 140.33C123.993 139.648 124.463 139.116 125.065 138.733C125.671 138.35 126.38 138.159 127.19 138.159C127.683 138.159 128.16 138.241 128.622 138.403C129.084 138.566 129.499 138.822 129.866 139.17C130.234 139.519 130.524 139.972 130.736 140.528C130.948 141.081 131.054 141.754 131.054 142.545V143.148H124.116V141.875H129.389C129.389 141.428 129.298 141.032 129.116 140.688C128.935 140.339 128.679 140.064 128.349 139.864C128.024 139.663 127.641 139.562 127.202 139.562C126.724 139.562 126.308 139.68 125.952 139.915C125.599 140.146 125.327 140.449 125.134 140.824C124.944 141.195 124.849 141.598 124.849 142.034V143.028C124.849 143.612 124.952 144.108 125.156 144.517C125.365 144.926 125.654 145.239 126.026 145.455C126.397 145.667 126.83 145.773 127.327 145.773C127.649 145.773 127.942 145.727 128.207 145.636C128.473 145.542 128.702 145.402 128.895 145.216C129.088 145.03 129.236 144.801 129.338 144.528L130.946 144.818C130.817 145.292 130.586 145.706 130.253 146.062C129.923 146.415 129.509 146.689 129.009 146.886C128.512 147.08 127.946 147.176 127.31 147.176ZM139.479 140.403L137.939 140.676C137.875 140.479 137.772 140.292 137.632 140.114C137.496 139.936 137.31 139.79 137.075 139.676C136.84 139.562 136.547 139.506 136.195 139.506C135.714 139.506 135.312 139.614 134.99 139.83C134.668 140.042 134.507 140.316 134.507 140.653C134.507 140.945 134.615 141.18 134.831 141.358C135.047 141.536 135.395 141.682 135.876 141.795L137.263 142.114C138.066 142.299 138.664 142.585 139.058 142.972C139.452 143.358 139.649 143.86 139.649 144.477C139.649 145 139.498 145.466 139.195 145.875C138.895 146.28 138.477 146.598 137.939 146.83C137.405 147.061 136.786 147.176 136.081 147.176C135.104 147.176 134.306 146.968 133.689 146.551C133.071 146.131 132.693 145.534 132.553 144.761L134.195 144.511C134.297 144.939 134.507 145.263 134.825 145.483C135.143 145.699 135.558 145.807 136.07 145.807C136.626 145.807 137.071 145.691 137.405 145.46C137.738 145.225 137.905 144.939 137.905 144.602C137.905 144.33 137.803 144.1 137.598 143.915C137.397 143.729 137.089 143.589 136.672 143.494L135.195 143.17C134.38 142.985 133.778 142.689 133.388 142.284C133.001 141.879 132.808 141.366 132.808 140.744C132.808 140.229 132.952 139.778 133.24 139.392C133.528 139.006 133.926 138.705 134.433 138.489C134.941 138.269 135.522 138.159 136.178 138.159C137.121 138.159 137.863 138.364 138.405 138.773C138.946 139.178 139.304 139.722 139.479 140.403Z" fill="white"/>
<path d="M265.667 139.333H282.333V137.833C282.333 136.9 282.333 136.433 282.152 136.077C281.992 135.763 281.737 135.508 281.423 135.348C281.067 135.167 280.6 135.167 279.667 135.167H268.333C267.4 135.167 266.933 135.167 266.577 135.348C266.263 135.508 266.008 135.763 265.848 136.077C265.667 136.433 265.667 136.9 265.667 137.833V144.167C265.667 145.1 265.667 145.567 265.848 145.923C266.008 146.237 266.263 146.492 266.577 146.652C266.933 146.833 267.4 146.833 268.333 146.833H273.167M276.083 148.5L277.771 148.163C277.918 148.133 277.992 148.118 278.06 148.091C278.121 148.068 278.179 148.037 278.233 147.999C278.293 147.957 278.346 147.904 278.452 147.798L281.917 144.333C282.377 143.873 282.377 143.127 281.917 142.667C281.456 142.206 280.71 142.206 280.25 142.667L276.785 146.131C276.679 146.237 276.626 146.29 276.584 146.351C276.547 146.404 276.516 146.462 276.492 146.523C276.465 146.592 276.45 146.665 276.421 146.813L276.083 148.5Z" stroke="white" stroke-width="1.5" stroke-linecap="round" stroke-linejoin="round"/>
<g clip-path="url(#clip0_667_48)">
<rect x="24" y="166" width="260" height="30" rx="8" fill="white"/>
<rect x="24" y="166" width="108" height="24" fill="white"/>
<rect x="132" y="166" width="54" height="30" fill="#A6D0FF"/>
<rect x="186" y="166" width="2" height="30" fill="#A6D0FF"/>
<rect x="190" y="166" width="2" height="30" fill="#A6D0FF"/>
<rect x="194" y="166" width="2" height="30" fill="#A6D0FF"/>
<rect x="198" y="166" width="2" height="30" fill="#A6D0FF"/>
<rect x="202" y="166" width="2" height="30" fill="#A6D0FF"/>
<rect x="206" y="166" width="2" height="30" fill="#A6D0FF"/>
<rect x="210" y="166" width="2" height="30" fill="#A6D0FF"/>
<rect x="214" y="166" width="2" height="30" fill="#A6D0FF"/>
<rect x="218" y="166" width="2" height="30" fill="#A6D0FF"/>
<rect x="222" y="166" width="2" height="30" fill="#A6D0FF"/>
<rect x="226" y="166" width="2" height="30" fill="#A6D0FF"/>
<rect x="230" y="166" width="2" height="30" fill="#A6D0FF"/>
<rect x="234" y="166" width="2" height="30" fill="#A6D0FF"/>
<rect x="238" y="166" width="2" height="30" fill="#A6D0FF"/>
<rect x="262" y="166" width="2" height="30" fill="#A6D0FF"/>
<rect x="242" y="166" width="2" height="30" fill="#A6D0FF"/>
<rect x="266" y="166" width="2" height="30" fill="#A6D0FF"/>
<rect x="246" y="166" width="2" height="30" fill="#A6D0FF"/>
<rect x="270" y="166" width="2" height="30" fill="#A6D0FF"/>
<rect x="250" y="166" width="2" height="30" fill="#A6D0FF"/>
<rect x="274" y="166" width="2" height="30" fill="#A6D0FF"/>
<rect x="254" y="166" width="2" height="30" fill="#A6D0FF"/>
<rect x="278" y="166" width="2" height="30" fill="#A6D0FF"/>
<rect x="258" y="166" width="2" height="30" fill="#A6D0FF"/>
<rect x="282" y="166" width="2" height="30" fill="#A6D0FF"/>
</g>
<defs>
<clipPath id="clip0_667_48">
<rect x="24" y="166" width="260" height="30" rx="8" fill="white"/>
</clipPath>
</defs>
</svg>
