<svg width="310" height="222" viewBox="0 0 310 222" fill="none" xmlns="http://www.w3.org/2000/svg">
<rect x="1" y="1" width="308" height="220" rx="26.2295" fill="#C1DEFF" fill-opacity="0.1"/>
<rect x="1" y="1" width="308" height="220" rx="26.2295" stroke="url(#paint0_linear_667_87)" stroke-opacity="0.1" stroke-width="1.96721"/>
<path d="M28.5568 42.5004L25.3295 30.864H27.1761L29.4432 39.8754H29.5511L31.9091 30.864H33.7386L36.0966 39.8811H36.2045L38.4659 30.864H40.3182L37.0852 42.5004H35.3182L32.8693 33.7845H32.7784L30.3295 42.5004H28.5568ZM44.5994 42.6765C43.7813 42.6765 43.0672 42.489 42.4574 42.114C41.8475 41.739 41.3741 41.2144 41.0369 40.5402C40.6998 39.8659 40.5312 39.0781 40.5312 38.1765C40.5312 37.2712 40.6998 36.4796 41.0369 35.8015C41.3741 35.1235 41.8475 34.597 42.4574 34.222C43.0672 33.847 43.7813 33.6595 44.5994 33.6595C45.4176 33.6595 46.1316 33.847 46.7415 34.222C47.3513 34.597 47.8248 35.1235 48.1619 35.8015C48.4991 36.4796 48.6676 37.2712 48.6676 38.1765C48.6676 39.0781 48.4991 39.8659 48.1619 40.5402C47.8248 41.2144 47.3513 41.739 46.7415 42.114C46.1316 42.489 45.4176 42.6765 44.5994 42.6765ZM44.6051 41.2504C45.1354 41.2504 45.5748 41.1102 45.9233 40.8299C46.2718 40.5496 46.5294 40.1765 46.696 39.7106C46.8665 39.2447 46.9517 38.7315 46.9517 38.1709C46.9517 37.614 46.8665 37.1027 46.696 36.6368C46.5294 36.1671 46.2718 35.7902 45.9233 35.5061C45.5748 35.222 45.1354 35.0799 44.6051 35.0799C44.071 35.0799 43.6278 35.222 43.2756 35.5061C42.9271 35.7902 42.6676 36.1671 42.4972 36.6368C42.3305 37.1027 42.2472 37.614 42.2472 38.1709C42.2472 38.7315 42.3305 39.2447 42.4972 39.7106C42.6676 40.1765 42.9271 40.5496 43.2756 40.8299C43.6278 41.1102 44.071 41.2504 44.6051 41.2504ZM50.5639 42.5004V33.7731H52.206V35.1595H52.2969C52.456 34.6898 52.7363 34.3205 53.1378 34.0515C53.5431 33.7788 54.0014 33.6424 54.5128 33.6424C54.6188 33.6424 54.7438 33.6462 54.8878 33.6538C55.0355 33.6614 55.151 33.6709 55.2344 33.6822V35.3072C55.1662 35.2883 55.045 35.2674 54.8707 35.2447C54.6965 35.2182 54.5223 35.2049 54.348 35.2049C53.9465 35.2049 53.5885 35.2902 53.2741 35.4606C52.9635 35.6273 52.7173 35.8602 52.5355 36.1595C52.3537 36.4549 52.2628 36.7921 52.2628 37.1709V42.5004H50.5639ZM58.267 39.5402L58.2557 37.4663H58.5511L62.0284 33.7731H64.0625L60.0966 37.9777H59.8295L58.267 39.5402ZM56.7045 42.5004V30.864H58.4034V42.5004H56.7045ZM62.2159 42.5004L59.0909 38.3527L60.2614 37.1652L64.3011 42.5004H62.2159ZM80.0895 36.6822C80.0895 37.9246 79.8622 38.9928 79.4077 39.8868C78.9531 40.7769 78.33 41.4625 77.5384 41.9436C76.7505 42.4209 75.8546 42.6595 74.8509 42.6595C73.8433 42.6595 72.9437 42.4209 72.152 41.9436C71.3641 41.4625 70.7429 40.775 70.2884 39.8811C69.8338 38.9871 69.6065 37.9209 69.6065 36.6822C69.6065 35.4398 69.8338 34.3735 70.2884 33.4834C70.7429 32.5894 71.3641 31.9038 72.152 31.4265C72.9437 30.9455 73.8433 30.7049 74.8509 30.7049C75.8546 30.7049 76.7505 30.9455 77.5384 31.4265C78.33 31.9038 78.9531 32.5894 79.4077 33.4834C79.8622 34.3735 80.0895 35.4398 80.0895 36.6822ZM78.3509 36.6822C78.3509 35.7352 78.1974 34.9379 77.8906 34.2902C77.5876 33.6387 77.1709 33.1462 76.6406 32.8129C76.1141 32.4758 75.5175 32.3072 74.8509 32.3072C74.1804 32.3072 73.5819 32.4758 73.0554 32.8129C72.5289 33.1462 72.1122 33.6387 71.8054 34.2902C71.5024 34.9379 71.3509 35.7352 71.3509 36.6822C71.3509 37.6292 71.5024 38.4284 71.8054 39.0799C72.1122 39.7277 72.5289 40.2201 73.0554 40.5572C73.5819 40.8906 74.1804 41.0572 74.8509 41.0572C75.5175 41.0572 76.1141 40.8906 76.6406 40.5572C77.1709 40.2201 77.5876 39.7277 77.8906 39.0799C78.1974 38.4284 78.3509 37.6292 78.3509 36.6822ZM82.142 45.7731V33.7731H83.8011V35.1879H83.9432C84.0417 35.0061 84.1837 34.7959 84.3693 34.5572C84.5549 34.3186 84.8125 34.1102 85.142 33.9322C85.4716 33.7504 85.9072 33.6595 86.4489 33.6595C87.1534 33.6595 87.7822 33.8375 88.3352 34.1936C88.8883 34.5496 89.322 35.0629 89.6364 35.7334C89.9545 36.4038 90.1136 37.2106 90.1136 38.1538C90.1136 39.097 89.9564 39.9057 89.642 40.5799C89.3277 41.2504 88.8958 41.7674 88.3466 42.1311C87.7973 42.4909 87.1705 42.6709 86.4659 42.6709C85.9356 42.6709 85.5019 42.5818 85.1648 42.4038C84.8314 42.2258 84.5701 42.0174 84.3807 41.7788C84.1913 41.5402 84.0455 41.3281 83.9432 41.1424H83.8409V45.7731H82.142ZM83.8068 38.1368C83.8068 38.7504 83.8958 39.2883 84.0739 39.7504C84.2519 40.2125 84.5095 40.5743 84.8466 40.8356C85.1837 41.0932 85.5966 41.222 86.0852 41.222C86.5928 41.222 87.017 41.0875 87.358 40.8186C87.6989 40.5459 87.9564 40.1765 88.1307 39.7106C88.3087 39.2447 88.3977 38.7201 88.3977 38.1368C88.3977 37.561 88.3106 37.044 88.1364 36.5856C87.9659 36.1273 87.7083 35.7656 87.3636 35.5004C87.0227 35.2352 86.5966 35.1027 86.0852 35.1027C85.5928 35.1027 85.1761 35.2296 84.8352 35.4834C84.4981 35.7371 84.2424 36.0913 84.0682 36.5459C83.8939 37.0004 83.8068 37.5307 83.8068 38.1368ZM92.017 45.7731V33.7731H93.6761V35.1879H93.8182C93.9167 35.0061 94.0587 34.7959 94.2443 34.5572C94.4299 34.3186 94.6875 34.1102 95.017 33.9322C95.3466 33.7504 95.7822 33.6595 96.3239 33.6595C97.0284 33.6595 97.6572 33.8375 98.2102 34.1936C98.7633 34.5496 99.197 35.0629 99.5114 35.7334C99.8295 36.4038 99.9886 37.2106 99.9886 38.1538C99.9886 39.097 99.8314 39.9057 99.517 40.5799C99.2027 41.2504 98.7708 41.7674 98.2216 42.1311C97.6723 42.4909 97.0455 42.6709 96.3409 42.6709C95.8106 42.6709 95.3769 42.5818 95.0398 42.4038C94.7064 42.2258 94.4451 42.0174 94.2557 41.7788C94.0663 41.5402 93.9205 41.3281 93.8182 41.1424H93.7159V45.7731H92.017ZM93.6818 38.1368C93.6818 38.7504 93.7708 39.2883 93.9489 39.7504C94.1269 40.2125 94.3845 40.5743 94.7216 40.8356C95.0587 41.0932 95.4716 41.222 95.9602 41.222C96.4678 41.222 96.892 41.0875 97.233 40.8186C97.5739 40.5459 97.8314 40.1765 98.0057 39.7106C98.1837 39.2447 98.2727 38.7201 98.2727 38.1368C98.2727 37.561 98.1856 37.044 98.0114 36.5856C97.8409 36.1273 97.5833 35.7656 97.2386 35.5004C96.8977 35.2352 96.4716 35.1027 95.9602 35.1027C95.4678 35.1027 95.0511 35.2296 94.7102 35.4834C94.3731 35.7371 94.1174 36.0913 93.9432 36.5459C93.7689 37.0004 93.6818 37.5307 93.6818 38.1368ZM105.568 42.6765C104.75 42.6765 104.036 42.489 103.426 42.114C102.816 41.739 102.343 41.2144 102.006 40.5402C101.669 39.8659 101.5 39.0781 101.5 38.1765C101.5 37.2712 101.669 36.4796 102.006 35.8015C102.343 35.1235 102.816 34.597 103.426 34.222C104.036 33.847 104.75 33.6595 105.568 33.6595C106.386 33.6595 107.1 33.847 107.71 34.222C108.32 34.597 108.794 35.1235 109.131 35.8015C109.468 36.4796 109.636 37.2712 109.636 38.1765C109.636 39.0781 109.468 39.8659 109.131 40.5402C108.794 41.2144 108.32 41.739 107.71 42.114C107.1 42.489 106.386 42.6765 105.568 42.6765ZM105.574 41.2504C106.104 41.2504 106.544 41.1102 106.892 40.8299C107.241 40.5496 107.498 40.1765 107.665 39.7106C107.835 39.2447 107.92 38.7315 107.92 38.1709C107.92 37.614 107.835 37.1027 107.665 36.6368C107.498 36.1671 107.241 35.7902 106.892 35.5061C106.544 35.222 106.104 35.0799 105.574 35.0799C105.04 35.0799 104.597 35.222 104.244 35.5061C103.896 35.7902 103.636 36.1671 103.466 36.6368C103.299 37.1027 103.216 37.614 103.216 38.1709C103.216 38.7315 103.299 39.2447 103.466 39.7106C103.636 40.1765 103.896 40.5496 104.244 40.8299C104.597 41.1102 105.04 41.2504 105.574 41.2504ZM111.533 42.5004V33.7731H113.175V35.1595H113.266C113.425 34.6898 113.705 34.3205 114.107 34.0515C114.512 33.7788 114.97 33.6424 115.482 33.6424C115.588 33.6424 115.713 33.6462 115.857 33.6538C116.004 33.6614 116.12 33.6709 116.203 33.6822V35.3072C116.135 35.2883 116.014 35.2674 115.839 35.2447C115.665 35.2182 115.491 35.2049 115.317 35.2049C114.915 35.2049 114.557 35.2902 114.243 35.4606C113.932 35.6273 113.686 35.8602 113.504 36.1595C113.322 36.4549 113.232 36.7921 113.232 37.1709V42.5004H111.533ZM122.263 33.7731V35.1368H117.496V33.7731H122.263ZM118.774 31.6822H120.473V39.9379C120.473 40.2674 120.522 40.5156 120.621 40.6822C120.719 40.8451 120.846 40.9568 121.001 41.0174C121.161 41.0743 121.333 41.1027 121.518 41.1027C121.655 41.1027 121.774 41.0932 121.876 41.0743C121.979 41.0553 122.058 41.0402 122.115 41.0288L122.422 42.4322C122.323 42.4701 122.183 42.508 122.001 42.5459C121.82 42.5875 121.592 42.6102 121.32 42.614C120.873 42.6216 120.456 42.5421 120.07 42.3754C119.683 42.2087 119.371 41.9512 119.132 41.6027C118.893 41.2542 118.774 40.8167 118.774 40.2902V31.6822ZM129.67 38.8811V33.7731H131.375V42.5004H129.705V40.989H129.614C129.413 41.4549 129.091 41.8432 128.648 42.1538C128.208 42.4606 127.661 42.614 127.006 42.614C126.445 42.614 125.949 42.4909 125.517 42.2447C125.089 41.9947 124.752 41.6254 124.506 41.1368C124.263 40.6481 124.142 40.044 124.142 39.3243V33.7731H125.841V39.1197C125.841 39.7144 126.006 40.1879 126.335 40.5402C126.665 40.8924 127.093 41.0686 127.619 41.0686C127.938 41.0686 128.254 40.989 128.568 40.8299C128.886 40.6709 129.15 40.4303 129.358 40.1084C129.57 39.7864 129.674 39.3773 129.67 38.8811ZM135.357 37.3186V42.5004H133.658V33.7731H135.288V35.1936H135.396C135.597 34.7315 135.911 34.3602 136.339 34.0799C136.771 33.7996 137.315 33.6595 137.97 33.6595C138.565 33.6595 139.086 33.7845 139.533 34.0345C139.98 34.2807 140.326 34.6481 140.572 35.1368C140.819 35.6254 140.942 36.2296 140.942 36.9493V42.5004H139.243V37.1538C139.243 36.5212 139.078 36.0269 138.749 35.6709C138.419 35.311 137.966 35.1311 137.391 35.1311C136.997 35.1311 136.646 35.2163 136.339 35.3868C136.036 35.5572 135.796 35.8072 135.618 36.1368C135.444 36.4625 135.357 36.8565 135.357 37.3186ZM143.22 42.5004V33.7731H144.919V42.5004H143.22ZM144.078 32.4265C143.783 32.4265 143.529 32.3281 143.317 32.1311C143.108 31.9303 143.004 31.6917 143.004 31.4152C143.004 31.1349 143.108 30.8962 143.317 30.6993C143.529 30.4985 143.783 30.3981 144.078 30.3981C144.374 30.3981 144.625 30.4985 144.834 30.6993C145.046 30.8962 145.152 31.1349 145.152 31.4152C145.152 31.6917 145.046 31.9303 144.834 32.1311C144.625 32.3281 144.374 32.4265 144.078 32.4265ZM151.278 33.7731V35.1368H146.511V33.7731H151.278ZM147.79 31.6822H149.489V39.9379C149.489 40.2674 149.538 40.5156 149.636 40.6822C149.735 40.8451 149.862 40.9568 150.017 41.0174C150.176 41.0743 150.348 41.1027 150.534 41.1027C150.67 41.1027 150.79 41.0932 150.892 41.0743C150.994 41.0553 151.074 41.0402 151.131 41.0288L151.438 42.4322C151.339 42.4701 151.199 42.508 151.017 42.5459C150.835 42.5875 150.608 42.6102 150.335 42.614C149.888 42.6216 149.472 42.5421 149.085 42.3754C148.699 42.2087 148.386 41.9512 148.148 41.6027C147.909 41.2542 147.79 40.8167 147.79 40.2902V31.6822ZM154.232 45.7731C153.978 45.7731 153.747 45.7523 153.538 45.7106C153.33 45.6727 153.175 45.6311 153.072 45.5856L153.482 44.1936C153.792 44.2769 154.069 44.3129 154.311 44.3015C154.554 44.2902 154.768 44.1993 154.953 44.0288C155.143 43.8584 155.309 43.5799 155.453 43.1936L155.663 42.614L152.47 33.7731H154.288L156.499 40.5459H156.589L158.8 33.7731H160.624L157.027 43.6652C156.86 44.1197 156.648 44.5042 156.391 44.8186C156.133 45.1368 155.826 45.3754 155.47 45.5345C155.114 45.6936 154.701 45.7731 154.232 45.7731ZM166.017 32.3754V30.864H175.023V32.3754H171.392V42.5004H169.642V32.3754H166.017ZM178.229 42.6936C177.676 42.6936 177.176 42.5913 176.729 42.3868C176.282 42.1784 175.928 41.8773 175.666 41.4834C175.409 41.0894 175.28 40.6065 175.28 40.0345C175.28 39.5421 175.375 39.1368 175.564 38.8186C175.753 38.5004 176.009 38.2485 176.331 38.0629C176.653 37.8773 177.013 37.7371 177.411 37.6424C177.808 37.5477 178.214 37.4758 178.626 37.4265C179.149 37.3659 179.573 37.3167 179.899 37.2788C180.225 37.2371 180.462 37.1709 180.609 37.0799C180.757 36.989 180.831 36.8413 180.831 36.6368V36.597C180.831 36.1008 180.691 35.7163 180.411 35.4436C180.134 35.1709 179.721 35.0345 179.172 35.0345C178.6 35.0345 178.149 35.1614 177.82 35.4152C177.494 35.6652 177.268 35.9436 177.143 36.2504L175.547 35.8868C175.736 35.3565 176.013 34.9284 176.376 34.6027C176.744 34.2731 177.166 34.0345 177.643 33.8868C178.121 33.7352 178.623 33.6595 179.149 33.6595C179.498 33.6595 179.867 33.7012 180.257 33.7845C180.651 33.864 181.018 34.0118 181.359 34.2277C181.704 34.4436 181.986 34.7523 182.206 35.1538C182.426 35.5515 182.536 36.0686 182.536 36.7049V42.5004H180.876V41.3072H180.808C180.698 41.5269 180.534 41.7428 180.314 41.9549C180.094 42.1671 179.812 42.3432 179.467 42.4834C179.123 42.6235 178.71 42.6936 178.229 42.6936ZM178.598 41.3299C179.068 41.3299 179.469 41.2371 179.803 41.0515C180.14 40.8659 180.395 40.6235 180.57 40.3243C180.748 40.0212 180.837 39.6974 180.837 39.3527V38.2277C180.776 38.2883 180.659 38.3451 180.484 38.3981C180.314 38.4474 180.119 38.4909 179.899 38.5288C179.679 38.5629 179.465 38.5951 179.257 38.6254C179.049 38.6519 178.875 38.6746 178.734 38.6936C178.405 38.7352 178.104 38.8053 177.831 38.9038C177.562 39.0023 177.346 39.1443 177.183 39.3299C177.024 39.5118 176.945 39.7542 176.945 40.0572C176.945 40.4777 177.1 40.7959 177.411 41.0118C177.721 41.2239 178.117 41.3299 178.598 41.3299ZM186.139 33.7731L188.065 37.1709L190.009 33.7731H191.866L189.145 38.1368L191.889 42.5004H190.031L188.065 39.239L186.105 42.5004H184.241L186.957 38.1368L184.276 33.7731H186.139ZM207.646 34.6481H205.874C205.805 34.2693 205.679 33.936 205.493 33.6481C205.307 33.3602 205.08 33.1159 204.811 32.9152C204.542 32.7144 204.241 32.5629 203.908 32.4606C203.578 32.3584 203.228 32.3072 202.857 32.3072C202.186 32.3072 201.586 32.4758 201.055 32.8129C200.529 33.15 200.112 33.6443 199.805 34.2959C199.502 34.9474 199.351 35.7428 199.351 36.6822C199.351 37.6292 199.502 38.4284 199.805 39.0799C200.112 39.7315 200.531 40.2239 201.061 40.5572C201.591 40.8906 202.188 41.0572 202.851 41.0572C203.218 41.0572 203.567 41.008 203.896 40.9095C204.23 40.8072 204.531 40.6576 204.8 40.4606C205.069 40.2637 205.296 40.0231 205.482 39.739C205.671 39.4512 205.802 39.1216 205.874 38.7504L207.646 38.7561C207.552 39.3281 207.368 39.8546 207.095 40.3356C206.826 40.8129 206.48 41.2258 206.055 41.5743C205.635 41.919 205.154 42.186 204.612 42.3754C204.071 42.5648 203.48 42.6595 202.839 42.6595C201.832 42.6595 200.934 42.4209 200.146 41.9436C199.358 41.4625 198.737 40.775 198.283 39.8811C197.832 38.9871 197.607 37.9209 197.607 36.6822C197.607 35.4398 197.834 34.3735 198.288 33.4834C198.743 32.5894 199.364 31.9038 200.152 31.4265C200.94 30.9455 201.836 30.7049 202.839 30.7049C203.457 30.7049 204.033 30.794 204.567 30.972C205.105 31.1462 205.588 31.4038 206.016 31.7447C206.444 32.0818 206.798 32.4947 207.078 32.9834C207.358 33.4682 207.548 34.0231 207.646 34.6481ZM209.611 42.5004V33.7731H211.253V35.1595H211.344C211.503 34.6898 211.783 34.3205 212.185 34.0515C212.59 33.7788 213.048 33.6424 213.56 33.6424C213.666 33.6424 213.791 33.6462 213.935 33.6538C214.082 33.6614 214.198 33.6709 214.281 33.6822V35.3072C214.213 35.2883 214.092 35.2674 213.918 35.2447C213.743 35.2182 213.569 35.2049 213.395 35.2049C212.993 35.2049 212.635 35.2902 212.321 35.4606C212.01 35.6273 211.764 35.8602 211.582 36.1595C211.401 36.4549 211.31 36.7921 211.31 37.1709V42.5004H209.611ZM219.2 42.6765C218.34 42.6765 217.6 42.4928 216.979 42.1254C216.361 41.7542 215.884 41.2334 215.547 40.5629C215.214 39.8887 215.047 39.0989 215.047 38.1936C215.047 37.2996 215.214 36.5118 215.547 35.8299C215.884 35.1481 216.354 34.6159 216.956 34.2334C217.562 33.8508 218.27 33.6595 219.081 33.6595C219.573 33.6595 220.051 33.7409 220.513 33.9038C220.975 34.0667 221.39 34.3224 221.757 34.6709C222.125 35.0193 222.414 35.472 222.626 36.0288C222.839 36.5818 222.945 37.2542 222.945 38.0459V38.6481H216.007V37.3754H221.28C221.28 36.9284 221.189 36.5326 221.007 36.1879C220.825 35.8394 220.57 35.5648 220.24 35.364C219.914 35.1633 219.532 35.0629 219.092 35.0629C218.615 35.0629 218.198 35.1803 217.842 35.4152C217.49 35.6462 217.217 35.9493 217.024 36.3243C216.835 36.6955 216.74 37.0989 216.74 37.5345V38.5288C216.74 39.1121 216.842 39.6084 217.047 40.0174C217.255 40.4265 217.545 40.739 217.916 40.9549C218.287 41.1671 218.721 41.2731 219.217 41.2731C219.539 41.2731 219.833 41.2277 220.098 41.1368C220.363 41.0421 220.592 40.9019 220.786 40.7163C220.979 40.5307 221.126 40.3015 221.229 40.0288L222.837 40.3186C222.708 40.7921 222.477 41.2068 222.143 41.5629C221.814 41.9152 221.399 42.1898 220.899 42.3868C220.403 42.5799 219.837 42.6765 219.2 42.6765ZM228.097 42.6709C227.392 42.6709 226.763 42.4909 226.21 42.1311C225.661 41.7674 225.229 41.2504 224.915 40.5799C224.604 39.9057 224.449 39.097 224.449 38.1538C224.449 37.2106 224.606 36.4038 224.92 35.7334C225.239 35.0629 225.674 34.5496 226.227 34.1936C226.78 33.8375 227.407 33.6595 228.108 33.6595C228.65 33.6595 229.085 33.7504 229.415 33.9322C229.748 34.1102 230.006 34.3186 230.188 34.5572C230.373 34.7959 230.517 35.0061 230.619 35.1879H230.722V30.864H232.42V42.5004H230.761V41.1424H230.619C230.517 41.3281 230.369 41.5402 230.176 41.7788C229.987 42.0174 229.725 42.2258 229.392 42.4038C229.059 42.5818 228.627 42.6709 228.097 42.6709ZM228.472 41.222C228.96 41.222 229.373 41.0932 229.71 40.8356C230.051 40.5743 230.309 40.2125 230.483 39.7504C230.661 39.2883 230.75 38.7504 230.75 38.1368C230.75 37.5307 230.663 37.0004 230.489 36.5459C230.314 36.0913 230.059 35.7371 229.722 35.4834C229.384 35.2296 228.968 35.1027 228.472 35.1027C227.96 35.1027 227.534 35.2352 227.193 35.5004C226.852 35.7656 226.595 36.1273 226.42 36.5856C226.25 37.044 226.165 37.561 226.165 38.1368C226.165 38.7201 226.252 39.2447 226.426 39.7106C226.6 40.1765 226.858 40.5459 227.199 40.8186C227.544 41.0875 227.968 41.222 228.472 41.222ZM234.845 42.5004V33.7731H236.544V42.5004H234.845ZM235.703 32.4265C235.408 32.4265 235.154 32.3281 234.942 32.1311C234.733 31.9303 234.629 31.6917 234.629 31.4152C234.629 31.1349 234.733 30.8962 234.942 30.6993C235.154 30.4985 235.408 30.3981 235.703 30.3981C235.999 30.3981 236.25 30.4985 236.459 30.6993C236.671 30.8962 236.777 31.1349 236.777 31.4152C236.777 31.6917 236.671 31.9303 236.459 32.1311C236.25 32.3281 235.999 32.4265 235.703 32.4265ZM242.903 33.7731V35.1368H238.136V33.7731H242.903ZM239.415 31.6822H241.114V39.9379C241.114 40.2674 241.163 40.5156 241.261 40.6822C241.36 40.8451 241.487 40.9568 241.642 41.0174C241.801 41.0743 241.973 41.1027 242.159 41.1027C242.295 41.1027 242.415 41.0932 242.517 41.0743C242.619 41.0553 242.699 41.0402 242.756 41.0288L243.062 42.4322C242.964 42.4701 242.824 42.508 242.642 42.5459C242.46 42.5875 242.233 42.6102 241.96 42.614C241.513 42.6216 241.097 42.5421 240.71 42.3754C240.324 42.2087 240.011 41.9512 239.773 41.6027C239.534 41.2542 239.415 40.8167 239.415 40.2902V31.6822Z" fill="white"/>
<g clip-path="url(#clip0_667_87)">
<path d="M268.529 36.4705C268.236 36.1775 267.761 36.1775 267.468 36.4705C267.175 36.7634 267.175 37.2382 267.468 37.5311L268.529 36.4705ZM272.948 41.9507L272.418 42.4811C272.711 42.774 273.186 42.774 273.479 42.4811L272.948 41.9507ZM284.086 31.8741C284.379 31.5812 284.379 31.1063 284.086 30.8134C283.793 30.5205 283.318 30.5205 283.025 30.8134L284.086 31.8741ZM263.578 36.5207C263.285 36.2278 262.811 36.2278 262.518 36.5207C262.225 36.8136 262.225 37.2885 262.518 37.5814L263.578 36.5207ZM267.468 42.5314C267.76 42.8243 268.235 42.8243 268.528 42.5314C268.821 42.2385 268.821 41.7636 268.528 41.4707L267.468 42.5314ZM279.135 31.9244C279.428 31.6315 279.428 31.1566 279.135 30.8637C278.842 30.5708 278.367 30.5708 278.074 30.8637L279.135 31.9244ZM272.771 36.1672C272.478 36.4601 272.478 36.935 272.771 37.2279C273.064 37.5208 273.539 37.5208 273.832 37.2279L272.771 36.1672ZM267.468 37.5311L272.418 42.4811L273.479 41.4204L268.529 36.4705L267.468 37.5311ZM273.479 42.4811L284.086 31.8741L283.025 30.8134L272.418 41.4204L273.479 42.4811ZM262.518 37.5814L267.468 42.5314L268.528 41.4707L263.578 36.5207L262.518 37.5814ZM278.074 30.8637L272.771 36.1672L273.832 37.2279L279.135 31.9244L278.074 30.8637Z" fill="white"/>
</g>
<line x1="25" y1="73.3445" x2="285" y2="73.3445" stroke="#BDBDBD" stroke-opacity="0.5" stroke-width="1.31148" stroke-dasharray="5.25 5.25"/>
<path d="M26.2784 116.5V104.864H33.5739V106.375H28.0341V109.92H33.1932V111.426H28.0341V114.989H33.642V116.5H26.2784ZM35.7827 116.5V107.773H37.4134V109.193H37.5213C37.7031 108.712 38.0005 108.337 38.4134 108.068C38.8262 107.795 39.3205 107.659 39.8963 107.659C40.4796 107.659 40.9683 107.795 41.3622 108.068C41.7599 108.341 42.0535 108.716 42.2429 109.193H42.3338C42.5421 108.727 42.8736 108.356 43.3281 108.08C43.7827 107.799 44.3243 107.659 44.9531 107.659C45.7448 107.659 46.3906 107.907 46.8906 108.403C47.3944 108.9 47.6463 109.648 47.6463 110.648V116.5H45.9474V110.807C45.9474 110.216 45.7865 109.788 45.4645 109.523C45.1425 109.258 44.758 109.125 44.3111 109.125C43.758 109.125 43.3281 109.295 43.0213 109.636C42.7145 109.973 42.5611 110.407 42.5611 110.938V116.5H40.8679V110.699C40.8679 110.225 40.7202 109.845 40.4247 109.557C40.1293 109.269 39.7448 109.125 39.2713 109.125C38.9493 109.125 38.652 109.21 38.3793 109.381C38.1103 109.547 37.8925 109.78 37.7259 110.08C37.563 110.379 37.4815 110.725 37.4815 111.119V116.5H35.7827ZM49.9233 119.773V107.773H51.5824V109.188H51.7244C51.8229 109.006 51.965 108.795 52.1506 108.557C52.3362 108.318 52.5938 108.11 52.9233 107.932C53.2528 107.75 53.6884 107.659 54.2301 107.659C54.9347 107.659 55.5634 107.837 56.1165 108.193C56.6695 108.549 57.1032 109.062 57.4176 109.733C57.7358 110.403 57.8949 111.21 57.8949 112.153C57.8949 113.097 57.7377 113.905 57.4233 114.58C57.1089 115.25 56.6771 115.767 56.1278 116.131C55.5786 116.491 54.9517 116.67 54.2472 116.67C53.7169 116.67 53.2831 116.581 52.946 116.403C52.6127 116.225 52.3513 116.017 52.1619 115.778C51.9725 115.54 51.8267 115.328 51.7244 115.142H51.6222V119.773H49.9233ZM51.5881 112.136C51.5881 112.75 51.6771 113.288 51.8551 113.75C52.0331 114.212 52.2907 114.574 52.6278 114.835C52.965 115.093 53.3778 115.222 53.8665 115.222C54.3741 115.222 54.7983 115.087 55.1392 114.818C55.4801 114.545 55.7377 114.176 55.9119 113.71C56.09 113.244 56.179 112.72 56.179 112.136C56.179 111.561 56.0919 111.044 55.9176 110.585C55.7472 110.127 55.4896 109.765 55.1449 109.5C54.804 109.235 54.3778 109.102 53.8665 109.102C53.3741 109.102 52.9574 109.229 52.6165 109.483C52.2794 109.737 52.0237 110.091 51.8494 110.545C51.6752 111 51.5881 111.53 51.5881 112.136ZM63.4744 116.676C62.6563 116.676 61.9422 116.489 61.3324 116.114C60.7225 115.739 60.2491 115.214 59.9119 114.54C59.5748 113.866 59.4062 113.078 59.4062 112.176C59.4062 111.271 59.5748 110.479 59.9119 109.801C60.2491 109.123 60.7225 108.597 61.3324 108.222C61.9422 107.847 62.6563 107.659 63.4744 107.659C64.2926 107.659 65.0066 107.847 65.6165 108.222C66.2263 108.597 66.6998 109.123 67.0369 109.801C67.3741 110.479 67.5426 111.271 67.5426 112.176C67.5426 113.078 67.3741 113.866 67.0369 114.54C66.6998 115.214 66.2263 115.739 65.6165 116.114C65.0066 116.489 64.2926 116.676 63.4744 116.676ZM63.4801 115.25C64.0104 115.25 64.4498 115.11 64.7983 114.83C65.1468 114.549 65.4044 114.176 65.571 113.71C65.7415 113.244 65.8267 112.731 65.8267 112.17C65.8267 111.614 65.7415 111.102 65.571 110.636C65.4044 110.167 65.1468 109.79 64.7983 109.506C64.4498 109.222 64.0104 109.08 63.4801 109.08C62.946 109.08 62.5028 109.222 62.1506 109.506C61.8021 109.79 61.5426 110.167 61.3722 110.636C61.2055 111.102 61.1222 111.614 61.1222 112.17C61.1222 112.731 61.2055 113.244 61.3722 113.71C61.5426 114.176 61.8021 114.549 62.1506 114.83C62.5028 115.11 62.946 115.25 63.4801 115.25ZM71.0653 116.5L68.4972 107.773H70.2528L71.9631 114.182H72.0483L73.7642 107.773H75.5199L77.2244 114.153H77.3097L79.0085 107.773H80.7642L78.2017 116.5H76.4688L74.696 110.199H74.5653L72.7926 116.5H71.0653ZM85.8722 116.676C85.0123 116.676 84.2718 116.492 83.6506 116.125C83.0331 115.754 82.5559 115.233 82.2188 114.562C81.8854 113.888 81.7188 113.098 81.7188 112.193C81.7188 111.299 81.8854 110.511 82.2188 109.83C82.5559 109.148 83.0256 108.616 83.6278 108.233C84.2339 107.85 84.9422 107.659 85.7528 107.659C86.2453 107.659 86.7225 107.741 87.1847 107.903C87.6468 108.066 88.0616 108.322 88.429 108.67C88.7964 109.019 89.0862 109.472 89.2983 110.028C89.5104 110.581 89.6165 111.254 89.6165 112.045V112.648H82.679V111.375H87.9517C87.9517 110.928 87.8608 110.532 87.679 110.188C87.4972 109.839 87.2415 109.564 86.9119 109.364C86.5862 109.163 86.2036 109.062 85.7642 109.062C85.2869 109.062 84.8703 109.18 84.5142 109.415C84.1619 109.646 83.8892 109.949 83.696 110.324C83.5066 110.695 83.4119 111.098 83.4119 111.534V112.528C83.4119 113.112 83.5142 113.608 83.7188 114.017C83.9271 114.426 84.2169 114.739 84.5881 114.955C84.9593 115.167 85.393 115.273 85.8892 115.273C86.2112 115.273 86.5047 115.227 86.7699 115.136C87.035 115.042 87.2642 114.902 87.4574 114.716C87.6506 114.53 87.7983 114.301 87.9006 114.028L89.5085 114.318C89.3797 114.792 89.1487 115.206 88.8153 115.562C88.4858 115.915 88.071 116.189 87.571 116.386C87.0748 116.58 86.5085 116.676 85.8722 116.676ZM91.5014 116.5V107.773H93.1435V109.159H93.2344C93.3935 108.689 93.6738 108.32 94.0753 108.051C94.4806 107.778 94.9389 107.642 95.4503 107.642C95.5563 107.642 95.6813 107.646 95.8253 107.653C95.973 107.661 96.0885 107.67 96.1719 107.682V109.307C96.1037 109.288 95.9825 109.267 95.8082 109.244C95.634 109.218 95.4598 109.205 95.2855 109.205C94.884 109.205 94.526 109.29 94.2116 109.46C93.901 109.627 93.6548 109.86 93.473 110.159C93.2912 110.455 93.2003 110.792 93.2003 111.17V116.5H91.5014ZM97.642 116.5V107.773H99.2727V109.193H99.3807C99.5625 108.712 99.8598 108.337 100.273 108.068C100.686 107.795 101.18 107.659 101.756 107.659C102.339 107.659 102.828 107.795 103.222 108.068C103.619 108.341 103.913 108.716 104.102 109.193H104.193C104.402 108.727 104.733 108.356 105.188 108.08C105.642 107.799 106.184 107.659 106.812 107.659C107.604 107.659 108.25 107.907 108.75 108.403C109.254 108.9 109.506 109.648 109.506 110.648V116.5H107.807V110.807C107.807 110.216 107.646 109.788 107.324 109.523C107.002 109.258 106.617 109.125 106.17 109.125C105.617 109.125 105.188 109.295 104.881 109.636C104.574 109.973 104.42 110.407 104.42 110.938V116.5H102.727V110.699C102.727 110.225 102.58 109.845 102.284 109.557C101.989 109.269 101.604 109.125 101.131 109.125C100.809 109.125 100.511 109.21 100.239 109.381C99.9697 109.547 99.7519 109.78 99.5852 110.08C99.4223 110.379 99.3409 110.725 99.3409 111.119V116.5H97.642ZM115.544 116.676C114.684 116.676 113.944 116.492 113.322 116.125C112.705 115.754 112.228 115.233 111.891 114.562C111.557 113.888 111.391 113.098 111.391 112.193C111.391 111.299 111.557 110.511 111.891 109.83C112.228 109.148 112.697 108.616 113.3 108.233C113.906 107.85 114.614 107.659 115.425 107.659C115.917 107.659 116.394 107.741 116.857 107.903C117.319 108.066 117.733 108.322 118.101 108.67C118.468 109.019 118.758 109.472 118.97 110.028C119.182 110.581 119.288 111.254 119.288 112.045V112.648H112.351V111.375H117.624C117.624 110.928 117.533 110.532 117.351 110.188C117.169 109.839 116.913 109.564 116.584 109.364C116.258 109.163 115.875 109.062 115.436 109.062C114.959 109.062 114.542 109.18 114.186 109.415C113.834 109.646 113.561 109.949 113.368 110.324C113.179 110.695 113.084 111.098 113.084 111.534V112.528C113.084 113.112 113.186 113.608 113.391 114.017C113.599 114.426 113.889 114.739 114.26 114.955C114.631 115.167 115.065 115.273 115.561 115.273C115.883 115.273 116.177 115.227 116.442 115.136C116.707 115.042 116.936 114.902 117.129 114.716C117.322 114.53 117.47 114.301 117.572 114.028L119.18 114.318C119.052 114.792 118.821 115.206 118.487 115.562C118.158 115.915 117.743 116.189 117.243 116.386C116.747 116.58 116.18 116.676 115.544 116.676ZM122.872 111.318V116.5H121.173V107.773H122.804V109.193H122.912C123.113 108.731 123.427 108.36 123.855 108.08C124.287 107.799 124.83 107.659 125.486 107.659C126.08 107.659 126.601 107.784 127.048 108.034C127.495 108.28 127.842 108.648 128.088 109.136C128.334 109.625 128.457 110.229 128.457 110.949V116.5H126.759V111.153C126.759 110.521 126.594 110.027 126.264 109.67C125.935 109.311 125.482 109.131 124.906 109.131C124.512 109.131 124.162 109.216 123.855 109.386C123.552 109.557 123.312 109.807 123.134 110.136C122.959 110.462 122.872 110.856 122.872 111.318ZM134.81 107.773V109.136H130.043V107.773H134.81ZM131.321 105.682H133.02V113.938C133.02 114.267 133.069 114.515 133.168 114.682C133.266 114.845 133.393 114.956 133.548 115.017C133.707 115.074 133.88 115.102 134.065 115.102C134.202 115.102 134.321 115.093 134.423 115.074C134.526 115.055 134.605 115.04 134.662 115.028L134.969 116.432C134.87 116.47 134.73 116.508 134.548 116.545C134.366 116.587 134.139 116.61 133.866 116.614C133.42 116.621 133.003 116.542 132.616 116.375C132.23 116.208 131.918 115.951 131.679 115.602C131.44 115.254 131.321 114.816 131.321 114.29V105.682ZM140.759 116.5V115.33L146.878 106.375H140.707V104.864H149.026V106.034L142.906 114.989H149.077V116.5H140.759ZM154.818 116.676C154 116.676 153.286 116.489 152.676 116.114C152.066 115.739 151.593 115.214 151.256 114.54C150.919 113.866 150.75 113.078 150.75 112.176C150.75 111.271 150.919 110.479 151.256 109.801C151.593 109.123 152.066 108.597 152.676 108.222C153.286 107.847 154 107.659 154.818 107.659C155.636 107.659 156.35 107.847 156.96 108.222C157.57 108.597 158.044 109.123 158.381 109.801C158.718 110.479 158.886 111.271 158.886 112.176C158.886 113.078 158.718 113.866 158.381 114.54C158.044 115.214 157.57 115.739 156.96 116.114C156.35 116.489 155.636 116.676 154.818 116.676ZM154.824 115.25C155.354 115.25 155.794 115.11 156.142 114.83C156.491 114.549 156.748 114.176 156.915 113.71C157.085 113.244 157.17 112.731 157.17 112.17C157.17 111.614 157.085 111.102 156.915 110.636C156.748 110.167 156.491 109.79 156.142 109.506C155.794 109.222 155.354 109.08 154.824 109.08C154.29 109.08 153.847 109.222 153.494 109.506C153.146 109.79 152.886 110.167 152.716 110.636C152.549 111.102 152.466 111.614 152.466 112.17C152.466 112.731 152.549 113.244 152.716 113.71C152.886 114.176 153.146 114.549 153.494 114.83C153.847 115.11 154.29 115.25 154.824 115.25ZM162.482 111.318V116.5H160.783V107.773H162.413V109.193H162.521C162.722 108.731 163.036 108.36 163.464 108.08C163.896 107.799 164.44 107.659 165.095 107.659C165.69 107.659 166.211 107.784 166.658 108.034C167.105 108.28 167.451 108.648 167.697 109.136C167.944 109.625 168.067 110.229 168.067 110.949V116.5H166.368V111.153C166.368 110.521 166.203 110.027 165.874 109.67C165.544 109.311 165.091 109.131 164.516 109.131C164.122 109.131 163.771 109.216 163.464 109.386C163.161 109.557 162.921 109.807 162.743 110.136C162.569 110.462 162.482 110.856 162.482 111.318ZM174.107 116.676C173.247 116.676 172.506 116.492 171.885 116.125C171.268 115.754 170.79 115.233 170.453 114.562C170.12 113.888 169.953 113.098 169.953 112.193C169.953 111.299 170.12 110.511 170.453 109.83C170.79 109.148 171.26 108.616 171.862 108.233C172.468 107.85 173.177 107.659 173.987 107.659C174.48 107.659 174.957 107.741 175.419 107.903C175.881 108.066 176.296 108.322 176.663 108.67C177.031 109.019 177.321 109.472 177.533 110.028C177.745 110.581 177.851 111.254 177.851 112.045V112.648H170.913V111.375H176.186C176.186 110.928 176.095 110.532 175.913 110.188C175.732 109.839 175.476 109.564 175.146 109.364C174.821 109.163 174.438 109.062 173.999 109.062C173.521 109.062 173.105 109.18 172.749 109.415C172.396 109.646 172.124 109.949 171.93 110.324C171.741 110.695 171.646 111.098 171.646 111.534V112.528C171.646 113.112 171.749 113.608 171.953 114.017C172.161 114.426 172.451 114.739 172.822 114.955C173.194 115.167 173.627 115.273 174.124 115.273C174.446 115.273 174.739 115.227 175.004 115.136C175.269 115.042 175.499 114.902 175.692 114.716C175.885 114.53 176.033 114.301 176.135 114.028L177.743 114.318C177.614 114.792 177.383 115.206 177.05 115.562C176.72 115.915 176.305 116.189 175.805 116.386C175.309 116.58 174.743 116.676 174.107 116.676ZM184.464 110.682C184.464 109.258 184.652 107.947 185.027 106.75C185.402 105.553 185.949 104.449 186.669 103.438H188.226C187.946 103.812 187.684 104.273 187.442 104.818C187.199 105.364 186.987 105.962 186.805 106.614C186.624 107.261 186.482 107.934 186.379 108.631C186.277 109.324 186.226 110.008 186.226 110.682C186.226 111.583 186.315 112.496 186.493 113.42C186.671 114.345 186.911 115.203 187.214 115.994C187.518 116.786 187.855 117.432 188.226 117.932H186.669C185.949 116.92 185.402 115.816 185.027 114.619C184.652 113.422 184.464 112.11 184.464 110.682ZM190.153 116.5V104.864H197.449V106.375H191.909V109.92H197.068V111.426H191.909V114.989H197.517V116.5H190.153ZM199.493 116.5V115.33L205.612 106.375H199.442V104.864H207.76V106.034L201.641 114.989H207.811V116.5H199.493ZM213.143 110.682C213.143 112.11 212.956 113.422 212.581 114.619C212.206 115.816 211.659 116.92 210.939 117.932H209.382C209.662 117.557 209.924 117.097 210.166 116.551C210.409 116.006 210.621 115.409 210.803 114.761C210.984 114.11 211.126 113.436 211.229 112.739C211.331 112.042 211.382 111.356 211.382 110.682C211.382 109.784 211.293 108.873 211.115 107.949C210.937 107.025 210.696 106.167 210.393 105.375C210.09 104.583 209.753 103.938 209.382 103.438H210.939C211.659 104.449 212.206 105.553 212.581 106.75C212.956 107.947 213.143 109.258 213.143 110.682Z" fill="white"/>
<g clip-path="url(#clip1_667_87)">
<path d="M268.529 110.47C268.236 110.177 267.761 110.177 267.468 110.47C267.175 110.763 267.175 111.238 267.468 111.531L268.529 110.47ZM272.948 115.95L272.418 116.481C272.711 116.774 273.186 116.774 273.479 116.481L272.948 115.95ZM284.086 105.874C284.379 105.581 284.379 105.106 284.086 104.813C283.793 104.52 283.318 104.52 283.025 104.813L284.086 105.874ZM263.578 110.52C263.285 110.227 262.811 110.227 262.518 110.52C262.225 110.813 262.225 111.288 262.518 111.581L263.578 110.52ZM267.468 116.531C267.76 116.824 268.235 116.824 268.528 116.531C268.821 116.238 268.821 115.763 268.528 115.47L267.468 116.531ZM279.135 105.924C279.428 105.631 279.428 105.156 279.135 104.863C278.842 104.57 278.367 104.57 278.074 104.863L279.135 105.924ZM272.771 110.167C272.478 110.46 272.478 110.935 272.771 111.227C273.064 111.52 273.539 111.52 273.832 111.227L272.771 110.167ZM267.468 111.531L272.418 116.481L273.479 115.42L268.529 110.47L267.468 111.531ZM273.479 116.481L284.086 105.874L283.025 104.813L272.418 115.42L273.479 116.481ZM262.518 111.581L267.468 116.531L268.528 115.47L263.578 110.52L262.518 111.581ZM278.074 104.863L272.771 110.167L273.832 111.227L279.135 105.924L278.074 104.863Z" fill="white"/>
</g>
<line x1="25" y1="147.344" x2="285" y2="147.344" stroke="#BDBDBD" stroke-opacity="0.5" stroke-width="1.31148" stroke-dasharray="5.25 5.25"/>
<path d="M26.2784 190.5V178.863H28.0341V188.988H33.3068V190.5H26.2784ZM38.8494 190.676C38.0313 190.676 37.3172 190.488 36.7074 190.113C36.0975 189.738 35.6241 189.214 35.2869 188.539C34.9498 187.865 34.7812 187.077 34.7812 186.176C34.7812 185.27 34.9498 184.479 35.2869 183.801C35.6241 183.123 36.0975 182.596 36.7074 182.221C37.3172 181.846 38.0313 181.659 38.8494 181.659C39.6676 181.659 40.3816 181.846 40.9915 182.221C41.6013 182.596 42.0748 183.123 42.4119 183.801C42.7491 184.479 42.9176 185.27 42.9176 186.176C42.9176 187.077 42.7491 187.865 42.4119 188.539C42.0748 189.214 41.6013 189.738 40.9915 190.113C40.3816 190.488 39.6676 190.676 38.8494 190.676ZM38.8551 189.25C39.3854 189.25 39.8248 189.109 40.1733 188.829C40.5218 188.549 40.7794 188.176 40.946 187.71C41.1165 187.244 41.2017 186.731 41.2017 186.17C41.2017 185.613 41.1165 185.102 40.946 184.636C40.7794 184.166 40.5218 183.789 40.1733 183.505C39.8248 183.221 39.3854 183.079 38.8551 183.079C38.321 183.079 37.8778 183.221 37.5256 183.505C37.1771 183.789 36.9176 184.166 36.7472 184.636C36.5805 185.102 36.4972 185.613 36.4972 186.17C36.4972 186.731 36.5805 187.244 36.7472 187.71C36.9176 188.176 37.1771 188.549 37.5256 188.829C37.8778 189.109 38.321 189.25 38.8551 189.25ZM48.4901 190.676C47.6454 190.676 46.9181 190.484 46.3082 190.102C45.7022 189.716 45.2363 189.183 44.9105 188.505C44.5848 187.827 44.4219 187.051 44.4219 186.176C44.4219 185.289 44.5885 184.507 44.9219 183.829C45.2552 183.147 45.7249 182.615 46.331 182.233C46.937 181.85 47.651 181.659 48.473 181.659C49.1359 181.659 49.7268 181.782 50.2457 182.028C50.7647 182.27 51.1832 182.611 51.5014 183.051C51.8234 183.49 52.0147 184.003 52.0753 184.591H50.4219C50.331 184.181 50.1226 183.829 49.7969 183.534C49.4749 183.238 49.0431 183.091 48.5014 183.091C48.0279 183.091 47.6132 183.216 47.2571 183.466C46.9048 183.712 46.6302 184.064 46.4332 184.522C46.2363 184.977 46.1378 185.515 46.1378 186.136C46.1378 186.772 46.2344 187.322 46.4276 187.784C46.6207 188.246 46.8935 188.604 47.2457 188.858C47.6018 189.111 48.0204 189.238 48.5014 189.238C48.8234 189.238 49.1151 189.18 49.3764 189.062C49.6416 188.941 49.8632 188.769 50.0412 188.545C50.223 188.322 50.3499 188.053 50.4219 187.738H52.0753C52.0147 188.303 51.831 188.806 51.5241 189.25C51.2173 189.693 50.8063 190.041 50.2912 190.295C49.7798 190.549 49.1795 190.676 48.4901 190.676ZM56.4318 190.693C55.8788 190.693 55.3788 190.591 54.9318 190.386C54.4848 190.178 54.1307 189.876 53.8693 189.483C53.6117 189.089 53.483 188.606 53.483 188.034C53.483 187.541 53.5777 187.136 53.767 186.818C53.9564 186.5 54.2121 186.248 54.5341 186.062C54.8561 185.876 55.2159 185.736 55.6136 185.642C56.0114 185.547 56.4167 185.475 56.8295 185.426C57.3523 185.365 57.7765 185.316 58.1023 185.278C58.428 185.236 58.6648 185.17 58.8125 185.079C58.9602 184.988 59.0341 184.841 59.0341 184.636V184.596C59.0341 184.1 58.8939 183.716 58.6136 183.443C58.3371 183.17 57.9242 183.034 57.375 183.034C56.803 183.034 56.3523 183.161 56.0227 183.414C55.697 183.664 55.4716 183.943 55.3466 184.25L53.75 183.886C53.9394 183.356 54.2159 182.928 54.5795 182.602C54.947 182.272 55.3693 182.034 55.8466 181.886C56.3239 181.734 56.8258 181.659 57.3523 181.659C57.7008 181.659 58.0701 181.7 58.4602 181.784C58.8542 181.863 59.2216 182.011 59.5625 182.227C59.9072 182.443 60.1894 182.751 60.4091 183.153C60.6288 183.551 60.7386 184.068 60.7386 184.704V190.5H59.0795V189.306H59.0114C58.9015 189.526 58.7367 189.742 58.517 189.954C58.2973 190.166 58.0152 190.342 57.6705 190.483C57.3258 190.623 56.9129 190.693 56.4318 190.693ZM56.8011 189.329C57.2708 189.329 57.6723 189.236 58.0057 189.051C58.3428 188.865 58.5985 188.623 58.7727 188.323C58.9508 188.02 59.0398 187.697 59.0398 187.352V186.227C58.9792 186.287 58.8617 186.344 58.6875 186.397C58.517 186.447 58.322 186.49 58.1023 186.528C57.8826 186.562 57.6686 186.594 57.4602 186.625C57.2519 186.651 57.0777 186.674 56.9375 186.693C56.608 186.734 56.3068 186.805 56.0341 186.903C55.7652 187.001 55.5492 187.144 55.3864 187.329C55.2273 187.511 55.1477 187.753 55.1477 188.056C55.1477 188.477 55.303 188.795 55.6136 189.011C55.9242 189.223 56.3201 189.329 56.8011 189.329ZM67.0753 181.772V183.136H62.3082V181.772H67.0753ZM63.5866 179.681H65.2855V187.937C65.2855 188.267 65.3348 188.515 65.4332 188.681C65.5317 188.844 65.6586 188.956 65.8139 189.017C65.973 189.073 66.1454 189.102 66.331 189.102C66.4673 189.102 66.5866 189.092 66.6889 189.073C66.7912 189.055 66.8707 189.039 66.9276 189.028L67.2344 190.431C67.1359 190.469 66.9957 190.507 66.8139 190.545C66.6321 190.587 66.4048 190.609 66.1321 190.613C65.6851 190.621 65.2685 190.541 64.8821 190.375C64.4957 190.208 64.1832 189.95 63.9446 189.602C63.706 189.253 63.5866 188.816 63.5866 188.289V179.681ZM68.9545 190.5V181.772H70.6534V190.5H68.9545ZM69.8125 180.426C69.517 180.426 69.2633 180.327 69.0511 180.13C68.8428 179.93 68.7386 179.691 68.7386 179.414C68.7386 179.134 68.8428 178.895 69.0511 178.698C69.2633 178.498 69.517 178.397 69.8125 178.397C70.108 178.397 70.3598 178.498 70.5682 178.698C70.7803 178.895 70.8864 179.134 70.8864 179.414C70.8864 179.691 70.7803 179.93 70.5682 180.13C70.3598 180.327 70.108 180.426 69.8125 180.426ZM76.6151 190.676C75.7969 190.676 75.0829 190.488 74.473 190.113C73.8632 189.738 73.3897 189.214 73.0526 188.539C72.7154 187.865 72.5469 187.077 72.5469 186.176C72.5469 185.27 72.7154 184.479 73.0526 183.801C73.3897 183.123 73.8632 182.596 74.473 182.221C75.0829 181.846 75.7969 181.659 76.6151 181.659C77.4332 181.659 78.1473 181.846 78.7571 182.221C79.367 182.596 79.8404 183.123 80.1776 183.801C80.5147 184.479 80.6832 185.27 80.6832 186.176C80.6832 187.077 80.5147 187.865 80.1776 188.539C79.8404 189.214 79.367 189.738 78.7571 190.113C78.1473 190.488 77.4332 190.676 76.6151 190.676ZM76.6207 189.25C77.151 189.25 77.5904 189.109 77.9389 188.829C78.2874 188.549 78.545 188.176 78.7116 187.71C78.8821 187.244 78.9673 186.731 78.9673 186.17C78.9673 185.613 78.8821 185.102 78.7116 184.636C78.545 184.166 78.2874 183.789 77.9389 183.505C77.5904 183.221 77.151 183.079 76.6207 183.079C76.0866 183.079 75.6435 183.221 75.2912 183.505C74.9427 183.789 74.6832 184.166 74.5128 184.636C74.3461 185.102 74.2628 185.613 74.2628 186.17C74.2628 186.731 74.3461 187.244 74.5128 187.71C74.6832 188.176 74.9427 188.549 75.2912 188.829C75.6435 189.109 76.0866 189.25 76.6207 189.25ZM84.2784 185.318V190.5H82.5795V181.772H84.2102V183.193H84.3182C84.5189 182.731 84.8333 182.359 85.2614 182.079C85.6932 181.799 86.2367 181.659 86.892 181.659C87.4867 181.659 88.0076 181.784 88.4545 182.034C88.9015 182.28 89.2481 182.647 89.4943 183.136C89.7405 183.625 89.8636 184.229 89.8636 184.948V190.5H88.1648V185.153C88.1648 184.52 88 184.026 87.6705 183.67C87.3409 183.31 86.8883 183.13 86.3125 183.13C85.9186 183.13 85.5682 183.216 85.2614 183.386C84.9583 183.556 84.7178 183.806 84.5398 184.136C84.3655 184.462 84.2784 184.856 84.2784 185.318ZM97.2841 184.846V186.318H92.125V184.846H97.2841ZM99.6847 190.5V178.863H101.384V183.187H101.486C101.584 183.005 101.726 182.795 101.912 182.556C102.098 182.318 102.355 182.109 102.685 181.931C103.014 181.75 103.45 181.659 103.991 181.659C104.696 181.659 105.325 181.837 105.878 182.193C106.431 182.549 106.865 183.062 107.179 183.733C107.497 184.403 107.656 185.21 107.656 186.153C107.656 187.096 107.499 187.905 107.185 188.579C106.87 189.25 106.438 189.767 105.889 190.13C105.34 190.49 104.713 190.67 104.009 190.67C103.478 190.67 103.045 190.581 102.707 190.403C102.374 190.225 102.113 190.017 101.923 189.778C101.734 189.539 101.588 189.327 101.486 189.142H101.344V190.5H99.6847ZM101.349 186.136C101.349 186.75 101.438 187.287 101.616 187.75C101.795 188.212 102.052 188.573 102.389 188.835C102.726 189.092 103.139 189.221 103.628 189.221C104.135 189.221 104.56 189.087 104.901 188.818C105.241 188.545 105.499 188.176 105.673 187.71C105.851 187.244 105.94 186.719 105.94 186.136C105.94 185.56 105.853 185.043 105.679 184.585C105.509 184.126 105.251 183.765 104.906 183.5C104.565 183.234 104.139 183.102 103.628 183.102C103.135 183.102 102.719 183.229 102.378 183.483C102.041 183.736 101.785 184.091 101.611 184.545C101.437 185 101.349 185.53 101.349 186.136ZM112.104 190.693C111.551 190.693 111.051 190.591 110.604 190.386C110.157 190.178 109.803 189.876 109.541 189.483C109.284 189.089 109.155 188.606 109.155 188.034C109.155 187.541 109.25 187.136 109.439 186.818C109.628 186.5 109.884 186.248 110.206 186.062C110.528 185.876 110.888 185.736 111.286 185.642C111.683 185.547 112.089 185.475 112.501 185.426C113.024 185.365 113.448 185.316 113.774 185.278C114.1 185.236 114.337 185.17 114.484 185.079C114.632 184.988 114.706 184.841 114.706 184.636V184.596C114.706 184.1 114.566 183.716 114.286 183.443C114.009 183.17 113.596 183.034 113.047 183.034C112.475 183.034 112.024 183.161 111.695 183.414C111.369 183.664 111.143 183.943 111.018 184.25L109.422 183.886C109.611 183.356 109.888 182.928 110.251 182.602C110.619 182.272 111.041 182.034 111.518 181.886C111.996 181.734 112.498 181.659 113.024 181.659C113.373 181.659 113.742 181.7 114.132 181.784C114.526 181.863 114.893 182.011 115.234 182.227C115.579 182.443 115.861 182.751 116.081 183.153C116.301 183.551 116.411 184.068 116.411 184.704V190.5H114.751V189.306H114.683C114.573 189.526 114.409 189.742 114.189 189.954C113.969 190.166 113.687 190.342 113.342 190.483C112.998 190.623 112.585 190.693 112.104 190.693ZM112.473 189.329C112.943 189.329 113.344 189.236 113.678 189.051C114.015 188.865 114.27 188.623 114.445 188.323C114.623 188.02 114.712 187.697 114.712 187.352V186.227C114.651 186.287 114.534 186.344 114.359 186.397C114.189 186.447 113.994 186.49 113.774 186.528C113.554 186.562 113.34 186.594 113.132 186.625C112.924 186.651 112.75 186.674 112.609 186.693C112.28 186.734 111.979 186.805 111.706 186.903C111.437 187.001 111.221 187.144 111.058 187.329C110.899 187.511 110.82 187.753 110.82 188.056C110.82 188.477 110.975 188.795 111.286 189.011C111.596 189.223 111.992 189.329 112.473 189.329ZM125.213 183.903L123.673 184.176C123.609 183.979 123.507 183.791 123.366 183.613C123.23 183.435 123.045 183.289 122.81 183.176C122.575 183.062 122.281 183.005 121.929 183.005C121.448 183.005 121.046 183.113 120.724 183.329C120.402 183.541 120.241 183.816 120.241 184.153C120.241 184.445 120.349 184.68 120.565 184.858C120.781 185.036 121.13 185.181 121.611 185.295L122.997 185.613C123.8 185.799 124.399 186.085 124.793 186.471C125.187 186.858 125.384 187.359 125.384 187.977C125.384 188.5 125.232 188.966 124.929 189.375C124.63 189.78 124.211 190.098 123.673 190.329C123.139 190.56 122.52 190.676 121.815 190.676C120.838 190.676 120.041 190.467 119.423 190.051C118.806 189.63 118.427 189.034 118.287 188.261L119.929 188.011C120.031 188.439 120.241 188.763 120.56 188.983C120.878 189.198 121.293 189.306 121.804 189.306C122.361 189.306 122.806 189.191 123.139 188.96C123.473 188.725 123.639 188.439 123.639 188.102C123.639 187.829 123.537 187.6 123.332 187.414C123.132 187.229 122.823 187.089 122.406 186.994L120.929 186.67C120.115 186.484 119.512 186.189 119.122 185.784C118.736 185.378 118.543 184.865 118.543 184.244C118.543 183.729 118.687 183.278 118.974 182.892C119.262 182.505 119.66 182.204 120.168 181.988C120.675 181.769 121.257 181.659 121.912 181.659C122.855 181.659 123.598 181.863 124.139 182.272C124.681 182.678 125.039 183.221 125.213 183.903ZM131.013 190.676C130.153 190.676 129.412 190.492 128.791 190.125C128.174 189.753 127.696 189.233 127.359 188.562C127.026 187.888 126.859 187.098 126.859 186.193C126.859 185.299 127.026 184.511 127.359 183.829C127.696 183.147 128.166 182.615 128.768 182.233C129.375 181.85 130.083 181.659 130.893 181.659C131.386 181.659 131.863 181.74 132.325 181.903C132.787 182.066 133.202 182.322 133.57 182.67C133.937 183.019 134.227 183.471 134.439 184.028C134.651 184.581 134.757 185.253 134.757 186.045V186.647H127.82V185.375H133.092C133.092 184.928 133.001 184.532 132.82 184.187C132.638 183.839 132.382 183.564 132.053 183.363C131.727 183.162 131.344 183.062 130.905 183.062C130.428 183.062 130.011 183.18 129.655 183.414C129.303 183.645 129.03 183.948 128.837 184.323C128.647 184.695 128.553 185.098 128.553 185.534V186.528C128.553 187.111 128.655 187.608 128.859 188.017C129.068 188.426 129.357 188.738 129.729 188.954C130.1 189.166 130.534 189.272 131.03 189.272C131.352 189.272 131.645 189.227 131.911 189.136C132.176 189.041 132.405 188.901 132.598 188.716C132.791 188.53 132.939 188.301 133.041 188.028L134.649 188.318C134.52 188.791 134.289 189.206 133.956 189.562C133.626 189.914 133.212 190.189 132.712 190.386C132.215 190.579 131.649 190.676 131.013 190.676ZM139.909 190.67C139.205 190.67 138.576 190.49 138.023 190.13C137.473 189.767 137.042 189.25 136.727 188.579C136.417 187.905 136.261 187.096 136.261 186.153C136.261 185.21 136.419 184.403 136.733 183.733C137.051 183.062 137.487 182.549 138.04 182.193C138.593 181.837 139.22 181.659 139.92 181.659C140.462 181.659 140.898 181.75 141.227 181.931C141.561 182.109 141.818 182.318 142 182.556C142.186 182.795 142.33 183.005 142.432 183.187H142.534V178.863H144.233V190.5H142.574V189.142H142.432C142.33 189.327 142.182 189.539 141.989 189.778C141.799 190.017 141.538 190.225 141.205 190.403C140.871 190.581 140.439 190.67 139.909 190.67ZM140.284 189.221C140.773 189.221 141.186 189.092 141.523 188.835C141.864 188.573 142.121 188.212 142.295 187.75C142.473 187.287 142.562 186.75 142.562 186.136C142.562 185.53 142.475 185 142.301 184.545C142.127 184.091 141.871 183.736 141.534 183.483C141.197 183.229 140.78 183.102 140.284 183.102C139.773 183.102 139.347 183.234 139.006 183.5C138.665 183.765 138.407 184.126 138.233 184.585C138.063 185.043 137.977 185.56 137.977 186.136C137.977 186.719 138.064 187.244 138.239 187.71C138.413 188.176 138.67 188.545 139.011 188.818C139.356 189.087 139.78 189.221 140.284 189.221ZM152.784 178.863V190.5H151.028V178.863H152.784ZM156.903 185.318V190.5H155.205V181.772H156.835V183.193H156.943C157.144 182.731 157.458 182.359 157.886 182.079C158.318 181.799 158.862 181.659 159.517 181.659C160.112 181.659 160.633 181.784 161.08 182.034C161.527 182.28 161.873 182.647 162.119 183.136C162.366 183.625 162.489 184.229 162.489 184.948V190.5H160.79V185.153C160.79 184.52 160.625 184.026 160.295 183.67C159.966 183.31 159.513 183.13 158.938 183.13C158.544 183.13 158.193 183.216 157.886 183.386C157.583 183.556 157.343 183.806 157.165 184.136C156.991 184.462 156.903 184.856 156.903 185.318ZM168.443 190.676C167.598 190.676 166.871 190.484 166.261 190.102C165.655 189.716 165.189 189.183 164.864 188.505C164.538 187.827 164.375 187.051 164.375 186.176C164.375 185.289 164.542 184.507 164.875 183.829C165.208 183.147 165.678 182.615 166.284 182.233C166.89 181.85 167.604 181.659 168.426 181.659C169.089 181.659 169.68 181.782 170.199 182.028C170.718 182.27 171.136 182.611 171.455 183.051C171.777 183.49 171.968 184.003 172.028 184.591H170.375C170.284 184.181 170.076 183.829 169.75 183.534C169.428 183.238 168.996 183.091 168.455 183.091C167.981 183.091 167.566 183.216 167.21 183.466C166.858 183.712 166.583 184.064 166.386 184.522C166.189 184.977 166.091 185.515 166.091 186.136C166.091 186.772 166.188 187.322 166.381 187.784C166.574 188.246 166.847 188.604 167.199 188.858C167.555 189.111 167.973 189.238 168.455 189.238C168.777 189.238 169.068 189.18 169.33 189.062C169.595 188.941 169.816 188.769 169.994 188.545C170.176 188.322 170.303 188.053 170.375 187.738H172.028C171.968 188.303 171.784 188.806 171.477 189.25C171.17 189.693 170.759 190.041 170.244 190.295C169.733 190.549 169.133 190.676 168.443 190.676ZM177.607 190.676C176.747 190.676 176.006 190.492 175.385 190.125C174.768 189.753 174.29 189.233 173.953 188.562C173.62 187.888 173.453 187.098 173.453 186.193C173.453 185.299 173.62 184.511 173.953 183.829C174.29 183.147 174.76 182.615 175.362 182.233C175.968 181.85 176.677 181.659 177.487 181.659C177.98 181.659 178.457 181.74 178.919 181.903C179.381 182.066 179.796 182.322 180.163 182.67C180.531 183.019 180.821 183.471 181.033 184.028C181.245 184.581 181.351 185.253 181.351 186.045V186.647H174.413V185.375H179.686C179.686 184.928 179.595 184.532 179.413 184.187C179.232 183.839 178.976 183.564 178.646 183.363C178.321 183.162 177.938 183.062 177.499 183.062C177.021 183.062 176.605 183.18 176.249 183.414C175.896 183.645 175.624 183.948 175.43 184.323C175.241 184.695 175.146 185.098 175.146 185.534V186.528C175.146 187.111 175.249 187.608 175.453 188.017C175.661 188.426 175.951 188.738 176.322 188.954C176.694 189.166 177.127 189.272 177.624 189.272C177.946 189.272 178.239 189.227 178.504 189.136C178.769 189.041 178.999 188.901 179.192 188.716C179.385 188.53 179.533 188.301 179.635 188.028L181.243 188.318C181.114 188.791 180.883 189.206 180.55 189.562C180.22 189.914 179.805 190.189 179.305 190.386C178.809 190.579 178.243 190.676 177.607 190.676ZM184.935 185.318V190.5H183.236V181.772H184.866V183.193H184.974C185.175 182.731 185.49 182.359 185.918 182.079C186.349 181.799 186.893 181.659 187.548 181.659C188.143 181.659 188.664 181.784 189.111 182.034C189.558 182.28 189.904 182.647 190.151 183.136C190.397 183.625 190.52 184.229 190.52 184.948V190.5H188.821V185.153C188.821 184.52 188.656 184.026 188.327 183.67C187.997 183.31 187.545 183.13 186.969 183.13C186.575 183.13 186.224 183.216 185.918 183.386C185.615 183.556 185.374 183.806 185.196 184.136C185.022 184.462 184.935 184.856 184.935 185.318ZM196.872 181.772V183.136H192.105V181.772H196.872ZM193.384 179.681H195.082V187.937C195.082 188.267 195.132 188.515 195.23 188.681C195.329 188.844 195.455 188.956 195.611 189.017C195.77 189.073 195.942 189.102 196.128 189.102C196.264 189.102 196.384 189.092 196.486 189.073C196.588 189.055 196.668 189.039 196.724 189.028L197.031 190.431C196.933 190.469 196.793 190.507 196.611 190.545C196.429 190.587 196.202 190.609 195.929 190.613C195.482 190.621 195.065 190.541 194.679 190.375C194.293 190.208 193.98 189.95 193.741 189.602C193.503 189.253 193.384 188.816 193.384 188.289V179.681ZM198.751 190.5V181.772H200.45V190.5H198.751ZM199.609 180.426C199.314 180.426 199.06 180.327 198.848 180.13C198.64 179.93 198.536 179.691 198.536 179.414C198.536 179.134 198.64 178.895 198.848 178.698C199.06 178.498 199.314 178.397 199.609 178.397C199.905 178.397 200.157 178.498 200.365 178.698C200.577 178.895 200.683 179.134 200.683 179.414C200.683 179.691 200.577 179.93 200.365 180.13C200.157 180.327 199.905 180.426 199.609 180.426ZM210.202 181.772L207.037 190.5H205.219L202.048 181.772H203.872L206.082 188.488H206.173L208.378 181.772H210.202ZM215.263 190.676C214.403 190.676 213.662 190.492 213.041 190.125C212.424 189.753 211.946 189.233 211.609 188.562C211.276 187.888 211.109 187.098 211.109 186.193C211.109 185.299 211.276 184.511 211.609 183.829C211.946 183.147 212.416 182.615 213.018 182.233C213.625 181.85 214.333 181.659 215.143 181.659C215.636 181.659 216.113 181.74 216.575 181.903C217.037 182.066 217.452 182.322 217.82 182.67C218.187 183.019 218.477 183.471 218.689 184.028C218.901 184.581 219.007 185.253 219.007 186.045V186.647H212.07V185.375H217.342C217.342 184.928 217.251 184.532 217.07 184.187C216.888 183.839 216.632 183.564 216.303 183.363C215.977 183.162 215.594 183.062 215.155 183.062C214.678 183.062 214.261 183.18 213.905 183.414C213.553 183.645 213.28 183.948 213.087 184.323C212.897 184.695 212.803 185.098 212.803 185.534V186.528C212.803 187.111 212.905 187.608 213.109 188.017C213.318 188.426 213.607 188.738 213.979 188.954C214.35 189.166 214.784 189.272 215.28 189.272C215.602 189.272 215.895 189.227 216.161 189.136C216.426 189.041 216.655 188.901 216.848 188.716C217.041 188.53 217.189 188.301 217.291 188.028L218.899 188.318C218.77 188.791 218.539 189.206 218.206 189.562C217.876 189.914 217.462 190.189 216.962 190.386C216.465 190.579 215.899 190.676 215.263 190.676ZM227.432 183.903L225.892 184.176C225.828 183.979 225.725 183.791 225.585 183.613C225.449 183.435 225.263 183.289 225.028 183.176C224.794 183.062 224.5 183.005 224.148 183.005C223.667 183.005 223.265 183.113 222.943 183.329C222.621 183.541 222.46 183.816 222.46 184.153C222.46 184.445 222.568 184.68 222.784 184.858C223 185.036 223.348 185.181 223.83 185.295L225.216 185.613C226.019 185.799 226.617 186.085 227.011 186.471C227.405 186.858 227.602 187.359 227.602 187.977C227.602 188.5 227.451 188.966 227.148 189.375C226.848 189.78 226.43 190.098 225.892 190.329C225.358 190.56 224.739 190.676 224.034 190.676C223.057 190.676 222.259 190.467 221.642 190.051C221.025 189.63 220.646 189.034 220.506 188.261L222.148 188.011C222.25 188.439 222.46 188.763 222.778 188.983C223.097 189.198 223.511 189.306 224.023 189.306C224.58 189.306 225.025 189.191 225.358 188.96C225.691 188.725 225.858 188.439 225.858 188.102C225.858 187.829 225.756 187.6 225.551 187.414C225.35 187.229 225.042 187.089 224.625 186.994L223.148 186.67C222.333 186.484 221.731 186.189 221.341 185.784C220.955 185.378 220.761 184.865 220.761 184.244C220.761 183.729 220.905 183.278 221.193 182.892C221.481 182.505 221.879 182.204 222.386 181.988C222.894 181.769 223.475 181.659 224.131 181.659C225.074 181.659 225.816 181.863 226.358 182.272C226.9 182.678 227.258 183.221 227.432 183.903Z" fill="white"/>
<path d="M268.529 184.47C268.236 184.177 267.761 184.177 267.468 184.47C267.175 184.763 267.175 185.237 267.468 185.53L268.529 184.47ZM272.948 189.95L272.418 190.48C272.711 190.773 273.186 190.773 273.479 190.48L272.948 189.95ZM284.086 179.873C284.379 179.58 284.379 179.106 284.086 178.813C283.793 178.52 283.318 178.52 283.025 178.813L284.086 179.873ZM263.578 184.52C263.286 184.227 262.811 184.227 262.518 184.52C262.225 184.813 262.225 185.288 262.518 185.581L263.578 184.52ZM267.468 190.531C267.761 190.823 268.235 190.823 268.528 190.531C268.821 190.238 268.821 189.763 268.528 189.47L267.468 190.531ZM279.135 179.924C279.428 179.631 279.428 179.156 279.135 178.863C278.842 178.57 278.367 178.57 278.074 178.863L279.135 179.924ZM272.771 184.166C272.478 184.459 272.478 184.934 272.771 185.227C273.064 185.52 273.539 185.52 273.832 185.227L272.771 184.166ZM267.468 185.53L272.418 190.48L273.479 189.42L268.529 184.47L267.468 185.53ZM273.479 190.48L284.086 179.873L283.025 178.813L272.418 189.42L273.479 190.48ZM262.518 185.581L267.468 190.531L268.528 189.47L263.578 184.52L262.518 185.581ZM278.074 178.863L272.771 184.166L273.832 185.227L279.135 179.924L278.074 178.863Z" fill="white"/>
<defs>
<linearGradient id="paint0_linear_667_87" x1="35.2585" y1="6.49999" x2="308.811" y2="172.335" gradientUnits="userSpaceOnUse">
<stop stop-color="#CCC4EA" stop-opacity="0.4"/>
<stop offset="1" stop-color="#DFD8FA" stop-opacity="0.67"/>
</linearGradient>
<clipPath id="clip0_667_87">
<rect width="24.0008" height="24.0008" fill="white" transform="translate(260.999 25)"/>
</clipPath>
<clipPath id="clip1_667_87">
<rect width="24.0008" height="24.0008" fill="white" transform="translate(260.999 98.9996)"/>
</clipPath>
</defs>
</svg>
