<svg width="1024" height="301" viewBox="0 0 1024 301" fill="none" xmlns="http://www.w3.org/2000/svg">
<g clip-path="url(#clip0_675_120)">
<rect width="1024" height="300" transform="translate(0 0.375)" fill="#200093"/>
<path opacity="0.2" d="M-1402.7 -241.625H-1506V-138.325M-1402.7 -241.625V-138.325M-1402.7 -241.625H-1299.41M-1402.7 -138.325H-1506M-1402.7 -138.325V-35.025M-1402.7 -138.325H-1299.41M-1506 -138.325V-35.025M-1402.7 -35.025H-1506M-1402.7 -35.025V68.275M-1402.7 -35.025H-1299.41M-1506 -35.025V68.275M-1402.7 68.275H-1506M-1402.7 68.275V171.575M-1402.7 68.275H-1299.41M-1506 68.275V171.575M-1402.7 171.575H-1506M-1402.7 171.575V274.875M-1402.7 171.575H-1299.41M-1506 171.575V274.875M-1402.7 274.875H-1506M-1402.7 274.875V378.175M-1402.7 274.875H-1299.41M-1506 274.875V378.175M-1402.7 378.175H-1506M-1402.7 378.175V481.475M-1402.7 378.175H-1299.41M-1506 378.175V481.475M-1402.7 481.475H-1506M-1402.7 481.475V584.775M-1402.7 481.475H-1299.41M-1506 481.475V584.775M-1402.7 584.775H-1506M-1402.7 584.775V688.075M-1402.7 584.775H-1299.41M-1506 584.775V688.075M-1402.7 688.075H-1506M-1402.7 688.075V791.375M-1402.7 688.075H-1299.41M-1506 688.075V791.375M-1402.7 791.375H-1506M-1402.7 791.375V894.675M-1402.7 791.375H-1299.41M-1506 791.375V894.675M-1402.7 894.675H-1506M-1402.7 894.675V997.975M-1402.7 894.675H-1299.41M-1506 894.675V997.975M-1402.7 997.975H-1506M-1402.7 997.975V1101.27M-1402.7 997.975H-1299.41M-1506 997.975V1101.27M-1402.7 1101.27H-1506M-1402.7 1101.27V1204.58M-1402.7 1101.27H-1299.41M-1506 1101.27V1204.58M-1402.7 1204.58H-1506M-1402.7 1204.58V1307.87M-1402.7 1204.58H-1299.41M-1506 1204.58V1307.87M-1402.7 1307.87H-1506M-1402.7 1307.87V1411.18M-1402.7 1307.87H-1299.41M-1506 1307.87V1411.18M-1402.7 1411.18H-1506M-1402.7 1411.18V1514.48M-1402.7 1411.18H-1299.41M-1506 1411.18V1514.48M-1402.7 1514.48H-1506M-1402.7 1514.48V1617.78M-1402.7 1514.48H-1299.41M-1506 1514.48V1617.78M-1402.7 1617.78H-1506M-1402.7 1617.78V1721.08M-1402.7 1617.78H-1299.41M-1506 1617.78V1721.08M-1402.7 1721.08H-1506M-1402.7 1721.08V1824.37M-1402.7 1721.08H-1299.41M-1506 1721.08V1824.37H-1402.7M-1402.7 1824.37H-1299.41M-1299.41 -241.625V-138.325M-1299.41 -241.625H-1196.11M-1299.41 -138.325V-35.025M-1299.41 -138.325H-1196.11M-1299.41 -35.025V68.275M-1299.41 -35.025H-1196.11M-1299.41 68.275V171.575M-1299.41 68.275H-1196.11M-1299.41 171.575V274.875M-1299.41 171.575H-1196.11M-1299.41 274.875V378.175M-1299.41 274.875H-1196.11M-1299.41 378.175V481.475M-1299.41 378.175H-1196.11M-1299.41 481.475V584.775M-1299.41 481.475H-1196.11M-1299.41 584.775V688.075M-1299.41 584.775H-1196.11M-1299.41 688.075V791.375M-1299.41 688.075H-1196.11M-1299.41 791.375V894.675M-1299.41 791.375H-1196.11M-1299.41 894.675V997.975M-1299.41 894.675H-1196.11M-1299.41 997.975V1101.27M-1299.41 997.975H-1196.11M-1299.41 1101.27V1204.58M-1299.41 1101.27H-1196.11M-1299.41 1204.58V1307.87M-1299.41 1204.58H-1196.11M-1299.41 1307.87V1411.18M-1299.41 1307.87H-1196.11M-1299.41 1411.18V1514.48M-1299.41 1411.18H-1196.11M-1299.41 1514.48V1617.78M-1299.41 1514.48H-1196.11M-1299.41 1617.78V1721.08M-1299.41 1617.78H-1196.11M-1299.41 1721.08V1824.37M-1299.41 1721.08H-1196.11M-1299.41 1824.37H-1196.11M-1196.11 -241.625V-138.325M-1196.11 -241.625H-1092.82M-1196.11 -138.325V-35.025M-1196.11 -138.325H-1092.82M-1196.11 -35.025V68.275M-1196.11 -35.025H-1092.82M-1196.11 68.275V171.575M-1196.11 68.275H-1092.82M-1196.11 171.575V274.875M-1196.11 171.575H-1092.82M-1196.11 274.875V378.175M-1196.11 274.875H-1092.82M-1196.11 378.175V481.475M-1196.11 378.175H-1092.82M-1196.11 481.475V584.775M-1196.11 481.475H-1092.82M-1196.11 584.775V688.075M-1196.11 584.775H-1092.82M-1196.11 688.075V791.375M-1196.11 688.075H-1092.82M-1196.11 791.375V894.675M-1196.11 791.375H-1092.82M-1196.11 894.675V997.975M-1196.11 894.675H-1092.82M-1196.11 997.975V1101.27M-1196.11 997.975H-1092.82M-1196.11 1101.27V1204.58M-1196.11 1101.27H-1092.82M-1196.11 1204.58V1307.87M-1196.11 1204.58H-1092.82M-1196.11 1307.87V1411.18M-1196.11 1307.87H-1092.82M-1196.11 1411.18V1514.48M-1196.11 1411.18H-1092.82M-1196.11 1514.48V1617.78M-1196.11 1514.48H-1092.82M-1196.11 1617.78V1721.08M-1196.11 1617.78H-1092.82M-1196.11 1721.08V1824.37M-1196.11 1721.08H-1092.82M-1196.11 1824.37H-1092.82M-1092.82 -241.625V-138.325M-1092.82 -241.625H-989.523M-1092.82 -138.325V-35.025M-1092.82 -138.325H-989.523M-1092.82 -35.025V68.275M-1092.82 -35.025H-989.523M-1092.82 68.275V171.575M-1092.82 68.275H-989.523M-1092.82 171.575V274.875M-1092.82 171.575H-989.523M-1092.82 274.875V378.175M-1092.82 274.875H-989.523M-1092.82 378.175V481.475M-1092.82 378.175H-989.523M-1092.82 481.475V584.775M-1092.82 481.475H-989.523M-1092.82 584.775V688.075M-1092.82 584.775H-989.523M-1092.82 688.075V791.375M-1092.82 688.075H-989.523M-1092.82 791.375V894.675M-1092.82 791.375H-989.523M-1092.82 894.675V997.975M-1092.82 894.675H-989.523M-1092.82 997.975V1101.27M-1092.82 997.975H-989.523M-1092.82 1101.27V1204.58M-1092.82 1101.27H-989.523M-1092.82 1204.58V1307.87M-1092.82 1204.58H-989.523M-1092.82 1307.87V1411.18M-1092.82 1307.87H-989.523M-1092.82 1411.18V1514.48M-1092.82 1411.18H-989.523M-1092.82 1514.48V1617.78M-1092.82 1514.48H-989.523M-1092.82 1617.78V1721.08M-1092.82 1617.78H-989.523M-1092.82 1721.08V1824.37M-1092.82 1721.08H-989.523M-1092.82 1824.37H-989.523M-989.523 -241.625V-138.325M-989.523 -241.625H-886.227M-989.523 -138.325V-35.025M-989.523 -138.325H-886.227M-989.523 -35.025V68.275M-989.523 -35.025H-886.227M-989.523 68.275V171.575M-989.523 68.275H-886.227M-989.523 171.575V274.875M-989.523 171.575H-886.227M-989.523 274.875V378.175M-989.523 274.875H-886.227M-989.523 378.175V481.475M-989.523 378.175H-886.227M-989.523 481.475V584.775M-989.523 481.475H-886.227M-989.523 584.775V688.075M-989.523 584.775H-886.227M-989.523 688.075V791.375M-989.523 688.075H-886.227M-989.523 791.375V894.675M-989.523 791.375H-886.227M-989.523 894.675V997.975M-989.523 894.675H-886.227M-989.523 997.975V1101.27M-989.523 997.975H-886.227M-989.523 1101.27V1204.58M-989.523 1101.27H-886.227M-989.523 1204.58V1307.87M-989.523 1204.58H-886.227M-989.523 1307.87V1411.18M-989.523 1307.87H-886.227M-989.523 1411.18V1514.48M-989.523 1411.18H-886.227M-989.523 1514.48V1617.78M-989.523 1514.48H-886.227M-989.523 1617.78V1721.08M-989.523 1617.78H-886.227M-989.523 1721.08V1824.37M-989.523 1721.08H-886.227M-989.523 1824.37H-886.227M-886.227 -241.625V-138.325M-886.227 -241.625H-782.932M-886.227 -138.325V-35.025M-886.227 -138.325H-782.932M-886.227 -35.025V68.275M-886.227 -35.025H-782.932M-886.227 68.275V171.575M-886.227 68.275H-782.932M-886.227 171.575V274.875M-886.227 171.575H-782.932M-886.227 274.875V378.175M-886.227 274.875H-782.932M-886.227 378.175V481.475M-886.227 378.175H-782.932M-886.227 481.475V584.775M-886.227 481.475H-782.932M-886.227 584.775V688.075M-886.227 584.775H-782.932M-886.227 688.075V791.375M-886.227 688.075H-782.932M-886.227 791.375V894.675M-886.227 791.375H-782.932M-886.227 894.675V997.975M-886.227 894.675H-782.932M-886.227 997.975V1101.27M-886.227 997.975H-782.932M-886.227 1101.27V1204.58M-886.227 1101.27H-782.932M-886.227 1204.58V1307.87M-886.227 1204.58H-782.932M-886.227 1307.87V1411.18M-886.227 1307.87H-782.932M-886.227 1411.18V1514.48M-886.227 1411.18H-782.932M-886.227 1514.48V1617.78M-886.227 1514.48H-782.932M-886.227 1617.78V1721.08M-886.227 1617.78H-782.932M-886.227 1721.08V1824.37M-886.227 1721.08H-782.932M-886.227 1824.37H-782.932M-782.932 -241.625V-138.325M-782.932 -241.625H-679.636M-782.932 -138.325V-35.025M-782.932 -138.325H-679.636M-782.932 -35.025V68.275M-782.932 -35.025H-679.636M-782.932 68.275V171.575M-782.932 68.275H-679.636M-782.932 171.575V274.875M-782.932 171.575H-679.636M-782.932 274.875V378.175M-782.932 274.875H-679.636M-782.932 378.175V481.475M-782.932 378.175H-679.636M-782.932 481.475V584.775M-782.932 481.475H-679.636M-782.932 584.775V688.075M-782.932 584.775H-679.636M-782.932 688.075V791.375M-782.932 688.075H-679.636M-782.932 791.375V894.675M-782.932 791.375H-679.636M-782.932 894.675V997.975M-782.932 894.675H-679.636M-782.932 997.975V1101.27M-782.932 997.975H-679.636M-782.932 1101.27V1204.58M-782.932 1101.27H-679.636M-782.932 1204.58V1307.87M-782.932 1204.58H-679.636M-782.932 1307.87V1411.18M-782.932 1307.87H-679.636M-782.932 1411.18V1514.48M-782.932 1411.18H-679.636M-782.932 1514.48V1617.78M-782.932 1514.48H-679.636M-782.932 1617.78V1721.08M-782.932 1617.78H-679.636M-782.932 1721.08V1824.37M-782.932 1721.08H-679.636M-782.932 1824.37H-679.636M-679.636 -241.625V-138.325M-679.636 -241.625H-576.341M-679.636 -138.325V-35.025M-679.636 -138.325H-576.341M-679.636 -35.025V68.275M-679.636 -35.025H-576.341M-679.636 68.275V171.575M-679.636 68.275H-576.341M-679.636 171.575V274.875M-679.636 171.575H-576.341M-679.636 274.875V378.175M-679.636 274.875H-576.341M-679.636 378.175V481.475M-679.636 378.175H-576.341M-679.636 481.475V584.775M-679.636 481.475H-576.341M-679.636 584.775V688.075M-679.636 584.775H-576.341M-679.636 688.075V791.375M-679.636 688.075H-576.341M-679.636 791.375V894.675M-679.636 791.375H-576.341M-679.636 894.675V997.975M-679.636 894.675H-576.341M-679.636 997.975V1101.27M-679.636 997.975H-576.341M-679.636 1101.27V1204.58M-679.636 1101.27H-576.341M-679.636 1204.58V1307.87M-679.636 1204.58H-576.341M-679.636 1307.87V1411.18M-679.636 1307.87H-576.341M-679.636 1411.18V1514.48M-679.636 1411.18H-576.341M-679.636 1514.48V1617.78M-679.636 1514.48H-576.341M-679.636 1617.78V1721.08M-679.636 1617.78H-576.341M-679.636 1721.08V1824.37M-679.636 1721.08H-576.341M-679.636 1824.37H-576.341M-576.341 -241.625V-138.325M-576.341 -241.625H-473.045M-576.341 -138.325V-35.025M-576.341 -138.325H-473.045M-576.341 -35.025V68.275M-576.341 -35.025H-473.045M-576.341 68.275V171.575M-576.341 68.275H-473.045M-576.341 171.575V274.875M-576.341 171.575H-473.045M-576.341 274.875V378.175M-576.341 274.875H-473.045M-576.341 378.175V481.475M-576.341 378.175H-473.045M-576.341 481.475V584.775M-576.341 481.475H-473.045M-576.341 584.775V688.075M-576.341 584.775H-473.045M-576.341 688.075V791.375M-576.341 688.075H-473.045M-576.341 791.375V894.675M-576.341 791.375H-473.045M-576.341 894.675V997.975M-576.341 894.675H-473.045M-576.341 997.975V1101.27M-576.341 997.975H-473.045M-576.341 1101.27V1204.58M-576.341 1101.27H-473.045M-576.341 1204.58V1307.87M-576.341 1204.58H-473.045M-576.341 1307.87V1411.18M-576.341 1307.87H-473.045M-576.341 1411.18V1514.48M-576.341 1411.18H-473.045M-576.341 1514.48V1617.78M-576.341 1514.48H-473.045M-576.341 1617.78V1721.08M-576.341 1617.78H-473.045M-576.341 1721.08V1824.37M-576.341 1721.08H-473.045M-576.341 1824.37H-473.045M-473.045 -241.625V-138.325M-473.045 -241.625H-369.75M-473.045 -138.325V-35.025M-473.045 -138.325H-369.75M-473.045 -35.025V68.275M-473.045 -35.025H-369.75M-473.045 68.275V171.575M-473.045 68.275H-369.75M-473.045 171.575V274.875M-473.045 171.575H-369.75M-473.045 274.875V378.175M-473.045 274.875H-369.75M-473.045 378.175V481.475M-473.045 378.175H-369.75M-473.045 481.475V584.775M-473.045 481.475H-369.75M-473.045 584.775V688.075M-473.045 584.775H-369.75M-473.045 688.075V791.375M-473.045 688.075H-369.75M-473.045 791.375V894.675M-473.045 791.375H-369.75M-473.045 894.675V997.975M-473.045 894.675H-369.75M-473.045 997.975V1101.27M-473.045 997.975H-369.75M-473.045 1101.27V1204.58M-473.045 1101.27H-369.75M-473.045 1204.58V1307.87M-473.045 1204.58H-369.75M-473.045 1307.87V1411.18M-473.045 1307.87H-369.75M-473.045 1411.18V1514.48M-473.045 1411.18H-369.75M-473.045 1514.48V1617.78M-473.045 1514.48H-369.75M-473.045 1617.78V1721.08M-473.045 1617.78H-369.75M-473.045 1721.08V1824.37M-473.045 1721.08H-369.75M-473.045 1824.37H-369.75M-369.75 -241.625V-138.325M-369.75 -241.625H-266.455M-369.75 -138.325V-35.025M-369.75 -138.325H-266.455M-369.75 -35.025V68.275M-369.75 -35.025H-266.455M-369.75 68.275V171.575M-369.75 68.275H-266.455M-369.75 171.575V274.875M-369.75 171.575H-266.455M-369.75 274.875V378.175M-369.75 274.875H-266.455M-369.75 378.175V481.475M-369.75 378.175H-266.455M-369.75 481.475V584.775M-369.75 481.475H-266.455M-369.75 584.775V688.075M-369.75 584.775H-266.455M-369.75 688.075V791.375M-369.75 688.075H-266.455M-369.75 791.375V894.675M-369.75 791.375H-266.455M-369.75 894.675V997.975M-369.75 894.675H-266.455M-369.75 997.975V1101.27M-369.75 997.975H-266.455M-369.75 1101.27V1204.58M-369.75 1101.27H-266.455M-369.75 1204.58V1307.87M-369.75 1204.58H-266.455M-369.75 1307.87V1411.18M-369.75 1307.87H-266.455M-369.75 1411.18V1514.48M-369.75 1411.18H-266.455M-369.75 1514.48V1617.78M-369.75 1514.48H-266.455M-369.75 1617.78V1721.08M-369.75 1617.78H-266.455M-369.75 1721.08V1824.37M-369.75 1721.08H-266.455M-369.75 1824.37H-266.455M-266.455 -241.625V-138.325M-266.455 -241.625H-163.159M-266.455 -138.325V-35.025M-266.455 -138.325H-163.159M-266.455 -35.025V68.275M-266.455 -35.025H-163.159M-266.455 68.275V171.575M-266.455 68.275H-163.159M-266.455 171.575V274.875M-266.455 171.575H-163.159M-266.455 274.875V378.175M-266.455 274.875H-163.159M-266.455 378.175V481.475M-266.455 378.175H-163.159M-266.455 481.475V584.775M-266.455 481.475H-163.159M-266.455 584.775V688.075M-266.455 584.775H-163.159M-266.455 688.075V791.375M-266.455 688.075H-163.159M-266.455 791.375V894.675M-266.455 791.375H-163.159M-266.455 894.675V997.975M-266.455 894.675H-163.159M-266.455 997.975V1101.27M-266.455 997.975H-163.159M-266.455 1101.27V1204.58M-266.455 1101.27H-163.159M-266.455 1204.58V1307.87M-266.455 1204.58H-163.159M-266.455 1307.87V1411.18M-266.455 1307.87H-163.159M-266.455 1411.18V1514.48M-266.455 1411.18H-163.159M-266.455 1514.48V1617.78M-266.455 1514.48H-163.159M-266.455 1617.78V1721.08M-266.455 1617.78H-163.159M-266.455 1721.08V1824.37M-266.455 1721.08H-163.159M-266.455 1824.37H-163.159M-163.159 -241.625V-138.325M-163.159 -241.625H-59.8636M-163.159 -138.325V-35.025M-163.159 -138.325H-59.8636M-163.159 -35.025V68.275M-163.159 -35.025H-59.8636M-163.159 68.275V171.575M-163.159 68.275H-59.8636M-163.159 171.575V274.875M-163.159 171.575H-59.8636M-163.159 274.875V378.175M-163.159 274.875H-59.8636M-163.159 378.175V481.475M-163.159 378.175H-59.8636M-163.159 481.475V584.775M-163.159 481.475H-59.8636M-163.159 584.775V688.075M-163.159 584.775H-59.8636M-163.159 688.075V791.375M-163.159 688.075H-59.8636M-163.159 791.375V894.675M-163.159 791.375H-59.8636M-163.159 894.675V997.975M-163.159 894.675H-59.8636M-163.159 997.975V1101.27M-163.159 997.975H-59.8636M-163.159 1101.27V1204.58M-163.159 1101.27H-59.8636M-163.159 1204.58V1307.87M-163.159 1204.58H-59.8636M-163.159 1307.87V1411.18M-163.159 1307.87H-59.8636M-163.159 1411.18V1514.48M-163.159 1411.18H-59.8636M-163.159 1514.48V1617.78M-163.159 1514.48H-59.8636M-163.159 1617.78V1721.08M-163.159 1617.78H-59.8636M-163.159 1721.08V1824.37M-163.159 1721.08H-59.8636M-163.159 1824.37H-59.8636M-59.8636 -241.625V-138.325M-59.8636 -241.625H43.4318M-59.8636 -138.325V-35.025M-59.8636 -138.325H43.4318M-59.8636 -35.025V68.275M-59.8636 -35.025H43.4318M-59.8636 68.275V171.575M-59.8636 68.275H43.4318M-59.8636 171.575V274.875M-59.8636 171.575H43.4318M-59.8636 274.875V378.175M-59.8636 274.875H43.4318M-59.8636 378.175V481.475M-59.8636 378.175H43.4318M-59.8636 481.475V584.775M-59.8636 481.475H43.4318M-59.8636 584.775V688.075M-59.8636 584.775H43.4318M-59.8636 688.075V791.375M-59.8636 688.075H43.4318M-59.8636 791.375V894.675M-59.8636 791.375H43.4318M-59.8636 894.675V997.975M-59.8636 894.675H43.4318M-59.8636 997.975V1101.27M-59.8636 997.975H43.4318M-59.8636 1101.27V1204.58M-59.8636 1101.27H43.4318M-59.8636 1204.58V1307.87M-59.8636 1204.58H43.4318M-59.8636 1307.87V1411.18M-59.8636 1307.87H43.4318M-59.8636 1411.18V1514.48M-59.8636 1411.18H43.4318M-59.8636 1514.48V1617.78M-59.8636 1514.48H43.4318M-59.8636 1617.78V1721.08M-59.8636 1617.78H43.4318M-59.8636 1721.08V1824.37M-59.8636 1721.08H43.4318M-59.8636 1824.37H43.4318M43.4318 -241.625V-138.325M43.4318 -241.625H146.727M43.4318 -138.325V-35.025M43.4318 -138.325H146.727M43.4318 -35.025V68.275M43.4318 -35.025H146.727M43.4318 68.275V171.575M43.4318 68.275H146.727M43.4318 171.575V274.875M43.4318 171.575H146.727M43.4318 274.875V378.175M43.4318 274.875H146.727M43.4318 378.175V481.475M43.4318 378.175H146.727M43.4318 481.475V584.775M43.4318 481.475H146.727M43.4318 584.775V688.075M43.4318 584.775H146.727M43.4318 688.075V791.375M43.4318 688.075H146.727M43.4318 791.375V894.675M43.4318 791.375H146.727M43.4318 894.675V997.975M43.4318 894.675H146.727M43.4318 997.975V1101.27M43.4318 997.975H146.727M43.4318 1101.27V1204.58M43.4318 1101.27H146.727M43.4318 1204.58V1307.87M43.4318 1204.58H146.727M43.4318 1307.87V1411.18M43.4318 1307.87H146.727M43.4318 1411.18V1514.48M43.4318 1411.18H146.727M43.4318 1514.48V1617.78M43.4318 1514.48H146.727M43.4318 1617.78V1721.08M43.4318 1617.78H146.727M43.4318 1721.08V1824.37M43.4318 1721.08H146.727M43.4318 1824.37H146.727M146.727 -241.625V-138.325M146.727 -241.625H250.023M146.727 -138.325V-35.025M146.727 -138.325H250.023M146.727 -35.025V68.275M146.727 -35.025H250.023M146.727 68.275V171.575M146.727 68.275H250.023M146.727 171.575V274.875M146.727 171.575H250.023M146.727 274.875V378.175M146.727 274.875H250.023M146.727 378.175V481.475M146.727 378.175H250.023M146.727 481.475V584.775M146.727 481.475H250.023M146.727 584.775V688.075M146.727 584.775H250.023M146.727 688.075V791.375M146.727 688.075H250.023M146.727 791.375V894.675M146.727 791.375H250.023M146.727 894.675V997.975M146.727 894.675H250.023M146.727 997.975V1101.27M146.727 997.975H250.023M146.727 1101.27V1204.58M146.727 1101.27H250.023M146.727 1204.58V1307.87M146.727 1204.58H250.023M146.727 1307.87V1411.18M146.727 1307.87H250.023M146.727 1411.18V1514.48M146.727 1411.18H250.023M146.727 1514.48V1617.78M146.727 1514.48H250.023M146.727 1617.78V1721.08M146.727 1617.78H250.023M146.727 1721.08V1824.37M146.727 1721.08H250.023M146.727 1824.37H250.023M250.023 -241.625V-138.325M250.023 -241.625H353.318M250.023 -138.325V-35.025M250.023 -138.325H353.318M250.023 -35.025V68.275M250.023 -35.025H353.318M250.023 68.275V171.575M250.023 68.275H353.318M250.023 171.575V274.875M250.023 171.575H353.318M250.023 274.875V378.175M250.023 274.875H353.318M250.023 378.175V481.475M250.023 378.175H353.318M250.023 481.475V584.775M250.023 481.475H353.318M250.023 584.775V688.075M250.023 584.775H353.318M250.023 688.075V791.375M250.023 688.075H353.318M250.023 791.375V894.675M250.023 791.375H353.318M250.023 894.675V997.975M250.023 894.675H353.318M250.023 997.975V1101.27M250.023 997.975H353.318M250.023 1101.27V1204.58M250.023 1101.27H353.318M250.023 1204.58V1307.87M250.023 1204.58H353.318M250.023 1307.87V1411.18M250.023 1307.87H353.318M250.023 1411.18V1514.48M250.023 1411.18H353.318M250.023 1514.48V1617.78M250.023 1514.48H353.318M250.023 1617.78V1721.08M250.023 1617.78H353.318M250.023 1721.08V1824.37M250.023 1721.08H353.318M250.023 1824.37H353.318M353.318 -241.625V-138.325M353.318 -241.625H456.614M353.318 -138.325V-35.025M353.318 -138.325H456.614M353.318 -35.025V68.275M353.318 -35.025H456.614M353.318 68.275V171.575M353.318 68.275H456.614M353.318 171.575V274.875M353.318 171.575H456.614M353.318 274.875V378.175M353.318 274.875H456.614M353.318 378.175V481.475M353.318 378.175H456.614M353.318 481.475V584.775M353.318 481.475H456.614M353.318 584.775V688.075M353.318 584.775H456.614M353.318 688.075V791.375M353.318 688.075H456.614M353.318 791.375V894.675M353.318 791.375H456.614M353.318 894.675V997.975M353.318 894.675H456.614M353.318 997.975V1101.27M353.318 997.975H456.614M353.318 1101.27V1204.58M353.318 1101.27H456.614M353.318 1204.58V1307.87M353.318 1204.58H456.614M353.318 1307.87V1411.18M353.318 1307.87H456.614M353.318 1411.18V1514.48M353.318 1411.18H456.614M353.318 1514.48V1617.78M353.318 1514.48H456.614M353.318 1617.78V1721.08M353.318 1617.78H456.614M353.318 1721.08V1824.37M353.318 1721.08H456.614M353.318 1824.37H456.614M456.614 -241.625V-138.325M456.614 -241.625H559.909M456.614 -138.325V-35.025M456.614 -138.325H559.909M456.614 -35.025V68.275M456.614 -35.025H559.909M456.614 68.275V171.575M456.614 68.275H559.909M456.614 171.575V274.875M456.614 171.575H559.909M456.614 274.875V378.175M456.614 274.875H559.909M456.614 378.175V481.475M456.614 378.175H559.909M456.614 481.475V584.775M456.614 481.475H559.909M456.614 584.775V688.075M456.614 584.775H559.909M456.614 688.075V791.375M456.614 688.075H559.909M456.614 791.375V894.675M456.614 791.375H559.909M456.614 894.675V997.975M456.614 894.675H559.909M456.614 997.975V1101.27M456.614 997.975H559.909M456.614 1101.27V1204.58M456.614 1101.27H559.909M456.614 1204.58V1307.87M456.614 1204.58H559.909M456.614 1307.87V1411.18M456.614 1307.87H559.909M456.614 1411.18V1514.48M456.614 1411.18H559.909M456.614 1514.48V1617.78M456.614 1514.48H559.909M456.614 1617.78V1721.08M456.614 1617.78H559.909M456.614 1721.08V1824.37M456.614 1721.08H559.909M456.614 1824.37H559.909M559.909 -241.625V-138.325M559.909 -241.625H663.205M559.909 -138.325V-35.025M559.909 -138.325H663.205M559.909 -35.025V68.275M559.909 -35.025H663.205M559.909 68.275V171.575M559.909 68.275H663.205M559.909 171.575V274.875M559.909 171.575H663.205M559.909 274.875V378.175M559.909 274.875H663.205M559.909 378.175V481.475M559.909 378.175H663.205M559.909 481.475V584.775M559.909 481.475H663.205M559.909 584.775V688.075M559.909 584.775H663.205M559.909 688.075V791.375M559.909 688.075H663.205M559.909 791.375V894.675M559.909 791.375H663.205M559.909 894.675V997.975M559.909 894.675H663.205M559.909 997.975V1101.27M559.909 997.975H663.205M559.909 1101.27V1204.58M559.909 1101.27H663.205M559.909 1204.58V1307.87M559.909 1204.58H663.205M559.909 1307.87V1411.18M559.909 1307.87H663.205M559.909 1411.18V1514.48M559.909 1411.18H663.205M559.909 1514.48V1617.78M559.909 1514.48H663.205M559.909 1617.78V1721.08M559.909 1617.78H663.205M559.909 1721.08V1824.37M559.909 1721.08H663.205M559.909 1824.37H663.205M663.205 -241.625V-138.325M663.205 -241.625H766.5M663.205 -138.325V-35.025M663.205 -138.325H766.5M663.205 -35.025V68.275M663.205 -35.025H766.5M663.205 68.275V171.575M663.205 68.275H766.5M663.205 171.575V274.875M663.205 171.575H766.5M663.205 274.875V378.175M663.205 274.875H766.5M663.205 378.175V481.475M663.205 378.175H766.5M663.205 481.475V584.775M663.205 481.475H766.5M663.205 584.775V688.075M663.205 584.775H766.5M663.205 688.075V791.375M663.205 688.075H766.5M663.205 791.375V894.675M663.205 791.375H766.5M663.205 894.675V997.975M663.205 894.675H766.5M663.205 997.975V1101.27M663.205 997.975H766.5M663.205 1101.27V1204.58M663.205 1101.27H766.5M663.205 1204.58V1307.87M663.205 1204.58H766.5M663.205 1307.87V1411.18M663.205 1307.87H766.5M663.205 1411.18V1514.48M663.205 1411.18H766.5M663.205 1514.48V1617.78M663.205 1514.48H766.5M663.205 1617.78V1721.08M663.205 1617.78H766.5M663.205 1721.08V1824.37M663.205 1721.08H766.5M663.205 1824.37H766.5M766.5 -241.625V-138.325M766.5 -241.625H869.795M766.5 -138.325V-35.025M766.5 -138.325H869.795M766.5 -35.025V68.275M766.5 -35.025H869.795M766.5 68.275V171.575M766.5 68.275H869.795M766.5 171.575V274.875M766.5 171.575H869.795M766.5 274.875V378.175M766.5 274.875H869.795M766.5 378.175V481.475M766.5 378.175H869.795M766.5 481.475V584.775M766.5 481.475H869.795M766.5 584.775V688.075M766.5 584.775H869.795M766.5 688.075V791.375M766.5 688.075H869.795M766.5 791.375V894.675M766.5 791.375H869.795M766.5 894.675V997.975M766.5 894.675H869.795M766.5 997.975V1101.27M766.5 997.975H869.795M766.5 1101.27V1204.58M766.5 1101.27H869.795M766.5 1204.58V1307.87M766.5 1204.58H869.795M766.5 1307.87V1411.18M766.5 1307.87H869.795M766.5 1411.18V1514.48M766.5 1411.18H869.795M766.5 1514.48V1617.78M766.5 1514.48H869.795M766.5 1617.78V1721.08M766.5 1617.78H869.795M766.5 1721.08V1824.37M766.5 1721.08H869.795M766.5 1824.37H869.795M869.795 -241.625V-138.325M869.795 -241.625H973.091M869.795 -138.325V-35.025M869.795 -138.325H973.091M869.795 -35.025V68.275M869.795 -35.025H973.091M869.795 68.275V171.575M869.795 68.275H973.091M869.795 171.575V274.875M869.795 171.575H973.091M869.795 274.875V378.175M869.795 274.875H973.091M869.795 378.175V481.475M869.795 378.175H973.091M869.795 481.475V584.775M869.795 481.475H973.091M869.795 584.775V688.075M869.795 584.775H973.091M869.795 688.075V791.375M869.795 688.075H973.091M869.795 791.375V894.675M869.795 791.375H973.091M869.795 894.675V997.975M869.795 894.675H973.091M869.795 997.975V1101.27M869.795 997.975H973.091M869.795 1101.27V1204.58M869.795 1101.27H973.091M869.795 1204.58V1307.87M869.795 1204.58H973.091M869.795 1307.87V1411.18M869.795 1307.87H973.091M869.795 1411.18V1514.48M869.795 1411.18H973.091M869.795 1514.48V1617.78M869.795 1514.48H973.091M869.795 1617.78V1721.08M869.795 1617.78H973.091M869.795 1721.08V1824.37M869.795 1721.08H973.091M869.795 1824.37H973.091M973.091 -241.625V-138.325M973.091 -241.625H1076.39M973.091 -138.325V-35.025M973.091 -138.325H1076.39M973.091 -35.025V68.275M973.091 -35.025H1076.39M973.091 68.275V171.575M973.091 68.275H1076.39M973.091 171.575V274.875M973.091 171.575H1076.39M973.091 274.875V378.175M973.091 274.875H1076.39M973.091 378.175V481.475M973.091 378.175H1076.39M973.091 481.475V584.775M973.091 481.475H1076.39M973.091 584.775V688.075M973.091 584.775H1076.39M973.091 688.075V791.375M973.091 688.075H1076.39M973.091 791.375V894.675M973.091 791.375H1076.39M973.091 894.675V997.975M973.091 894.675H1076.39M973.091 997.975V1101.27M973.091 997.975H1076.39M973.091 1101.27V1204.58M973.091 1101.27H1076.39M973.091 1204.58V1307.87M973.091 1204.58H1076.39M973.091 1307.87V1411.18M973.091 1307.87H1076.39M973.091 1411.18V1514.48M973.091 1411.18H1076.39M973.091 1514.48V1617.78M973.091 1514.48H1076.39M973.091 1617.78V1721.08M973.091 1617.78H1076.39M973.091 1721.08V1824.37M973.091 1721.08H1076.39M973.091 1824.37H1076.39M1076.39 -241.625V-138.325M1076.39 -241.625H1179.68M1076.39 -138.325V-35.025M1076.39 -138.325H1179.68M1076.39 -35.025V68.275M1076.39 -35.025H1179.68M1076.39 68.275V171.575M1076.39 68.275H1179.68M1076.39 171.575V274.875M1076.39 171.575H1179.68M1076.39 274.875V378.175M1076.39 274.875H1179.68M1076.39 378.175V481.475M1076.39 378.175H1179.68M1076.39 481.475V584.775M1076.39 481.475H1179.68M1076.39 584.775V688.075M1076.39 584.775H1179.68M1076.39 688.075V791.375M1076.39 688.075H1179.68M1076.39 791.375V894.675M1076.39 791.375H1179.68M1076.39 894.675V997.975M1076.39 894.675H1179.68M1076.39 997.975V1101.27M1076.39 997.975H1179.68M1076.39 1101.27V1204.58M1076.39 1101.27H1179.68M1076.39 1204.58V1307.87M1076.39 1204.58H1179.68M1076.39 1307.87V1411.18M1076.39 1307.87H1179.68M1076.39 1411.18V1514.48M1076.39 1411.18H1179.68M1076.39 1514.48V1617.78M1076.39 1514.48H1179.68M1076.39 1617.78V1721.08M1076.39 1617.78H1179.68M1076.39 1721.08V1824.37M1076.39 1721.08H1179.68M1076.39 1824.37H1179.68M1179.68 -241.625V-138.325M1179.68 -241.625H1282.98M1179.68 -138.325V-35.025M1179.68 -138.325H1282.98M1179.68 -35.025V68.275M1179.68 -35.025H1282.98M1179.68 68.275V171.575M1179.68 68.275H1282.98M1179.68 171.575V274.875M1179.68 171.575H1282.98M1179.68 274.875V378.175M1179.68 274.875H1282.98M1179.68 378.175V481.475M1179.68 378.175H1282.98M1179.68 481.475V584.775M1179.68 481.475H1282.98M1179.68 584.775V688.075M1179.68 584.775H1282.98M1179.68 688.075V791.375M1179.68 688.075H1282.98M1179.68 791.375V894.675M1179.68 791.375H1282.98M1179.68 894.675V997.975M1179.68 894.675H1282.98M1179.68 997.975V1101.27M1179.68 997.975H1282.98M1179.68 1101.27V1204.58M1179.68 1101.27H1282.98M1179.68 1204.58V1307.87M1179.68 1204.58H1282.98M1179.68 1307.87V1411.18M1179.68 1307.87H1282.98M1179.68 1411.18V1514.48M1179.68 1411.18H1282.98M1179.68 1514.48V1617.78M1179.68 1514.48H1282.98M1179.68 1617.78V1721.08M1179.68 1617.78H1282.98M1179.68 1721.08V1824.37M1179.68 1721.08H1282.98M1179.68 1824.37H1282.98M1282.98 -241.625V-138.325M1282.98 -241.625H1386.27M1282.98 -138.325V-35.025M1282.98 -138.325H1386.27M1282.98 -35.025V68.275M1282.98 -35.025H1386.27M1282.98 68.275V171.575M1282.98 68.275H1386.27M1282.98 171.575V274.875M1282.98 171.575H1386.27M1282.98 274.875V378.175M1282.98 274.875H1386.27M1282.98 378.175V481.475M1282.98 378.175H1386.27M1282.98 481.475V584.775M1282.98 481.475H1386.27M1282.98 584.775V688.075M1282.98 584.775H1386.27M1282.98 688.075V791.375M1282.98 688.075H1386.27M1282.98 791.375V894.675M1282.98 791.375H1386.27M1282.98 894.675V997.975M1282.98 894.675H1386.27M1282.98 997.975V1101.27M1282.98 997.975H1386.27M1282.98 1101.27V1204.58M1282.98 1101.27H1386.27M1282.98 1204.58V1307.87M1282.98 1204.58H1386.27M1282.98 1307.87V1411.18M1282.98 1307.87H1386.27M1282.98 1411.18V1514.48M1282.98 1411.18H1386.27M1282.98 1514.48V1617.78M1282.98 1514.48H1386.27M1282.98 1617.78V1721.08M1282.98 1617.78H1386.27M1282.98 1721.08V1824.37M1282.98 1721.08H1386.27M1282.98 1824.37H1386.27M1386.27 -241.625V-138.325M1386.27 -241.625H1489.57M1386.27 -138.325V-35.025M1386.27 -138.325H1489.57M1386.27 -35.025V68.275M1386.27 -35.025H1489.57M1386.27 68.275V171.575M1386.27 68.275H1489.57M1386.27 171.575V274.875M1386.27 171.575H1489.57M1386.27 274.875V378.175M1386.27 274.875H1489.57M1386.27 378.175V481.475M1386.27 378.175H1489.57M1386.27 481.475V584.775M1386.27 481.475H1489.57M1386.27 584.775V688.075M1386.27 584.775H1489.57M1386.27 688.075V791.375M1386.27 688.075H1489.57M1386.27 791.375V894.675M1386.27 791.375H1489.57M1386.27 894.675V997.975M1386.27 894.675H1489.57M1386.27 997.975V1101.27M1386.27 997.975H1489.57M1386.27 1101.27V1204.58M1386.27 1101.27H1489.57M1386.27 1204.58V1307.87M1386.27 1204.58H1489.57M1386.27 1307.87V1411.18M1386.27 1307.87H1489.57M1386.27 1411.18V1514.48M1386.27 1411.18H1489.57M1386.27 1514.48V1617.78M1386.27 1514.48H1489.57M1386.27 1617.78V1721.08M1386.27 1617.78H1489.57M1386.27 1721.08V1824.37M1386.27 1721.08H1489.57M1386.27 1824.37H1489.57M1489.57 -241.625V-138.325M1489.57 -241.625H1592.86M1489.57 -138.325V-35.025M1489.57 -138.325H1592.86M1489.57 -35.025V68.275M1489.57 -35.025H1592.86M1489.57 68.275V171.575M1489.57 68.275H1592.86M1489.57 171.575V274.875M1489.57 171.575H1592.86M1489.57 274.875V378.175M1489.57 274.875H1592.86M1489.57 378.175V481.475M1489.57 378.175H1592.86M1489.57 481.475V584.775M1489.57 481.475H1592.86M1489.57 584.775V688.075M1489.57 584.775H1592.86M1489.57 688.075V791.375M1489.57 688.075H1592.86M1489.57 791.375V894.675M1489.57 791.375H1592.86M1489.57 894.675V997.975M1489.57 894.675H1592.86M1489.57 997.975V1101.27M1489.57 997.975H1592.86M1489.57 1101.27V1204.58M1489.57 1101.27H1592.86M1489.57 1204.58V1307.87M1489.57 1204.58H1592.86M1489.57 1307.87V1411.18M1489.57 1307.87H1592.86M1489.57 1411.18V1514.48M1489.57 1411.18H1592.86M1489.57 1514.48V1617.78M1489.57 1514.48H1592.86M1489.57 1617.78V1721.08M1489.57 1617.78H1592.86M1489.57 1721.08V1824.37M1489.57 1721.08H1592.86M1489.57 1824.37H1592.86M1592.86 -241.625V-138.325M1592.86 -241.625H1696.16M1592.86 -138.325V-35.025M1592.86 -138.325H1696.16M1592.86 -35.025V68.275M1592.86 -35.025H1696.16M1592.86 68.275V171.575M1592.86 68.275H1696.16M1592.86 171.575V274.875M1592.86 171.575H1696.16M1592.86 274.875V378.175M1592.86 274.875H1696.16M1592.86 378.175V481.475M1592.86 378.175H1696.16M1592.86 481.475V584.775M1592.86 481.475H1696.16M1592.86 584.775V688.075M1592.86 584.775H1696.16M1592.86 688.075V791.375M1592.86 688.075H1696.16M1592.86 791.375V894.675M1592.86 791.375H1696.16M1592.86 894.675V997.975M1592.86 894.675H1696.16M1592.86 997.975V1101.27M1592.86 997.975H1696.16M1592.86 1101.27V1204.58M1592.86 1101.27H1696.16M1592.86 1204.58V1307.87M1592.86 1204.58H1696.16M1592.86 1307.87V1411.18M1592.86 1307.87H1696.16M1592.86 1411.18V1514.48M1592.86 1411.18H1696.16M1592.86 1514.48V1617.78M1592.86 1514.48H1696.16M1592.86 1617.78V1721.08M1592.86 1617.78H1696.16M1592.86 1721.08V1824.37M1592.86 1721.08H1696.16M1592.86 1824.37H1696.16M1696.16 -241.625V-138.325M1696.16 -241.625H1799.45M1696.16 -138.325V-35.025M1696.16 -138.325H1799.45M1696.16 -35.025V68.275M1696.16 -35.025H1799.45M1696.16 68.275V171.575M1696.16 68.275H1799.45M1696.16 171.575V274.875M1696.16 171.575H1799.45M1696.16 274.875V378.175M1696.16 274.875H1799.45M1696.16 378.175V481.475M1696.16 378.175H1799.45M1696.16 481.475V584.775M1696.16 481.475H1799.45M1696.16 584.775V688.075M1696.16 584.775H1799.45M1696.16 688.075V791.375M1696.16 688.075H1799.45M1696.16 791.375V894.675M1696.16 791.375H1799.45M1696.16 894.675V997.975M1696.16 894.675H1799.45M1696.16 997.975V1101.27M1696.16 997.975H1799.45M1696.16 1101.27V1204.58M1696.16 1101.27H1799.45M1696.16 1204.58V1307.87M1696.16 1204.58H1799.45M1696.16 1307.87V1411.18M1696.16 1307.87H1799.45M1696.16 1411.18V1514.48M1696.16 1411.18H1799.45M1696.16 1514.48V1617.78M1696.16 1514.48H1799.45M1696.16 1617.78V1721.08M1696.16 1617.78H1799.45M1696.16 1721.08V1824.37M1696.16 1721.08H1799.45M1696.16 1824.37H1799.45M1799.45 -241.625V-138.325M1799.45 -241.625H1902.75M1799.45 -138.325V-35.025M1799.45 -138.325H1902.75M1799.45 -35.025V68.275M1799.45 -35.025H1902.75M1799.45 68.275V171.575M1799.45 68.275H1902.75M1799.45 171.575V274.875M1799.45 171.575H1902.75M1799.45 274.875V378.175M1799.45 274.875H1902.75M1799.45 378.175V481.475M1799.45 378.175H1902.75M1799.45 481.475V584.775M1799.45 481.475H1902.75M1799.45 584.775V688.075M1799.45 584.775H1902.75M1799.45 688.075V791.375M1799.45 688.075H1902.75M1799.45 791.375V894.675M1799.45 791.375H1902.75M1799.45 894.675V997.975M1799.45 894.675H1902.75M1799.45 997.975V1101.27M1799.45 997.975H1902.75M1799.45 1101.27V1204.58M1799.45 1101.27H1902.75M1799.45 1204.58V1307.87M1799.45 1204.58H1902.75M1799.45 1307.87V1411.18M1799.45 1307.87H1902.75M1799.45 1411.18V1514.48M1799.45 1411.18H1902.75M1799.45 1514.48V1617.78M1799.45 1514.48H1902.75M1799.45 1617.78V1721.08M1799.45 1617.78H1902.75M1799.45 1721.08V1824.37M1799.45 1721.08H1902.75M1799.45 1824.37H1902.75M1902.75 -241.625V-138.325M1902.75 -241.625H2006.05M1902.75 -138.325V-35.025M1902.75 -138.325H2006.05M1902.75 -35.025V68.275M1902.75 -35.025H2006.05M1902.75 68.275V171.575M1902.75 68.275H2006.05M1902.75 171.575V274.875M1902.75 171.575H2006.05M1902.75 274.875V378.175M1902.75 274.875H2006.05M1902.75 378.175V481.475M1902.75 378.175H2006.05M1902.75 481.475V584.775M1902.75 481.475H2006.05M1902.75 584.775V688.075M1902.75 584.775H2006.05M1902.75 688.075V791.375M1902.75 688.075H2006.05M1902.75 791.375V894.675M1902.75 791.375H2006.05M1902.75 894.675V997.975M1902.75 894.675H2006.05M1902.75 997.975V1101.27M1902.75 997.975H2006.05M1902.75 1101.27V1204.58M1902.75 1101.27H2006.05M1902.75 1204.58V1307.87M1902.75 1204.58H2006.05M1902.75 1307.87V1411.18M1902.75 1307.87H2006.05M1902.75 1411.18V1514.48M1902.75 1411.18H2006.05M1902.75 1514.48V1617.78M1902.75 1514.48H2006.05M1902.75 1617.78V1721.08M1902.75 1617.78H2006.05M1902.75 1721.08V1824.37M1902.75 1721.08H2006.05M1902.75 1824.37H2006.05M2006.05 -241.625V-138.325M2006.05 -241.625H2109.34M2006.05 -138.325V-35.025M2006.05 -138.325H2109.34M2006.05 -35.025V68.275M2006.05 -35.025H2109.34M2006.05 68.275V171.575M2006.05 68.275H2109.34M2006.05 171.575V274.875M2006.05 171.575H2109.34M2006.05 274.875V378.175M2006.05 274.875H2109.34M2006.05 378.175V481.475M2006.05 378.175H2109.34M2006.05 481.475V584.775M2006.05 481.475H2109.34M2006.05 584.775V688.075M2006.05 584.775H2109.34M2006.05 688.075V791.375M2006.05 688.075H2109.34M2006.05 791.375V894.675M2006.05 791.375H2109.34M2006.05 894.675V997.975M2006.05 894.675H2109.34M2006.05 997.975V1101.27M2006.05 997.975H2109.34M2006.05 1101.27V1204.58M2006.05 1101.27H2109.34M2006.05 1204.58V1307.87M2006.05 1204.58H2109.34M2006.05 1307.87V1411.18M2006.05 1307.87H2109.34M2006.05 1411.18V1514.48M2006.05 1411.18H2109.34M2006.05 1514.48V1617.78M2006.05 1514.48H2109.34M2006.05 1617.78V1721.08M2006.05 1617.78H2109.34M2006.05 1721.08V1824.37M2006.05 1721.08H2109.34M2006.05 1824.37H2109.34M2109.34 -241.625V-138.325M2109.34 -241.625H2212.64M2109.34 -138.325V-35.025M2109.34 -138.325H2212.64M2109.34 -35.025V68.275M2109.34 -35.025H2212.64M2109.34 68.275V171.575M2109.34 68.275H2212.64M2109.34 171.575V274.875M2109.34 171.575H2212.64M2109.34 274.875V378.175M2109.34 274.875H2212.64M2109.34 378.175V481.475M2109.34 378.175H2212.64M2109.34 481.475V584.775M2109.34 481.475H2212.64M2109.34 584.775V688.075M2109.34 584.775H2212.64M2109.34 688.075V791.375M2109.34 688.075H2212.64M2109.34 791.375V894.675M2109.34 791.375H2212.64M2109.34 894.675V997.975M2109.34 894.675H2212.64M2109.34 997.975V1101.27M2109.34 997.975H2212.64M2109.34 1101.27V1204.58M2109.34 1101.27H2212.64M2109.34 1204.58V1307.87M2109.34 1204.58H2212.64M2109.34 1307.87V1411.18M2109.34 1307.87H2212.64M2109.34 1411.18V1514.48M2109.34 1411.18H2212.64M2109.34 1514.48V1617.78M2109.34 1514.48H2212.64M2109.34 1617.78V1721.08M2109.34 1617.78H2212.64M2109.34 1721.08V1824.37M2109.34 1721.08H2212.64M2109.34 1824.37H2212.64M2212.64 -241.625V-138.325M2212.64 -241.625H2315.93M2212.64 -138.325V-35.025M2212.64 -138.325H2315.93M2212.64 -35.025V68.275M2212.64 -35.025H2315.93M2212.64 68.275V171.575M2212.64 68.275H2315.93M2212.64 171.575V274.875M2212.64 171.575H2315.93M2212.64 274.875V378.175M2212.64 274.875H2315.93M2212.64 378.175V481.475M2212.64 378.175H2315.93M2212.64 481.475V584.775M2212.64 481.475H2315.93M2212.64 584.775V688.075M2212.64 584.775H2315.93M2212.64 688.075V791.375M2212.64 688.075H2315.93M2212.64 791.375V894.675M2212.64 791.375H2315.93M2212.64 894.675V997.975M2212.64 894.675H2315.93M2212.64 997.975V1101.27M2212.64 997.975H2315.93M2212.64 1101.27V1204.58M2212.64 1101.27H2315.93M2212.64 1204.58V1307.87M2212.64 1204.58H2315.93M2212.64 1307.87V1411.18M2212.64 1307.87H2315.93M2212.64 1411.18V1514.48M2212.64 1411.18H2315.93M2212.64 1514.48V1617.78M2212.64 1514.48H2315.93M2212.64 1617.78V1721.08M2212.64 1617.78H2315.93M2212.64 1721.08V1824.37M2212.64 1721.08H2315.93M2212.64 1824.37H2315.93M2315.93 -241.625V-138.325M2315.93 -241.625H2419.23M2315.93 -138.325V-35.025M2315.93 -138.325H2419.23M2315.93 -35.025V68.275M2315.93 -35.025H2419.23M2315.93 68.275V171.575M2315.93 68.275H2419.23M2315.93 171.575V274.875M2315.93 171.575H2419.23M2315.93 274.875V378.175M2315.93 274.875H2419.23M2315.93 378.175V481.475M2315.93 378.175H2419.23M2315.93 481.475V584.775M2315.93 481.475H2419.23M2315.93 584.775V688.075M2315.93 584.775H2419.23M2315.93 688.075V791.375M2315.93 688.075H2419.23M2315.93 791.375V894.675M2315.93 791.375H2419.23M2315.93 894.675V997.975M2315.93 894.675H2419.23M2315.93 997.975V1101.27M2315.93 997.975H2419.23M2315.93 1101.27V1204.58M2315.93 1101.27H2419.23M2315.93 1204.58V1307.87M2315.93 1204.58H2419.23M2315.93 1307.87V1411.18M2315.93 1307.87H2419.23M2315.93 1411.18V1514.48M2315.93 1411.18H2419.23M2315.93 1514.48V1617.78M2315.93 1514.48H2419.23M2315.93 1617.78V1721.08M2315.93 1617.78H2419.23M2315.93 1721.08V1824.37M2315.93 1721.08H2419.23M2315.93 1824.37H2419.23M2419.23 -241.625V-138.325M2419.23 -241.625H2522.52M2419.23 -138.325V-35.025M2419.23 -138.325H2522.52M2419.23 -35.025V68.275M2419.23 -35.025H2522.52M2419.23 68.275V171.575M2419.23 68.275H2522.52M2419.23 171.575V274.875M2419.23 171.575H2522.52M2419.23 274.875V378.175M2419.23 274.875H2522.52M2419.23 378.175V481.475M2419.23 378.175H2522.52M2419.23 481.475V584.775M2419.23 481.475H2522.52M2419.23 584.775V688.075M2419.23 584.775H2522.52M2419.23 688.075V791.375M2419.23 688.075H2522.52M2419.23 791.375V894.675M2419.23 791.375H2522.52M2419.23 894.675V997.975M2419.23 894.675H2522.52M2419.23 997.975V1101.27M2419.23 997.975H2522.52M2419.23 1101.27V1204.58M2419.23 1101.27H2522.52M2419.23 1204.58V1307.87M2419.23 1204.58H2522.52M2419.23 1307.87V1411.18M2419.23 1307.87H2522.52M2419.23 1411.18V1514.48M2419.23 1411.18H2522.52M2419.23 1514.48V1617.78M2419.23 1514.48H2522.52M2419.23 1617.78V1721.08M2419.23 1617.78H2522.52M2419.23 1721.08V1824.37M2419.23 1721.08H2522.52M2419.23 1824.37H2522.52M2522.52 -241.625V-138.325M2522.52 -241.625H2625.82M2522.52 -138.325V-35.025M2522.52 -138.325H2625.82M2522.52 -35.025V68.275M2522.52 -35.025H2625.82M2522.52 68.275V171.575M2522.52 68.275H2625.82M2522.52 171.575V274.875M2522.52 171.575H2625.82M2522.52 274.875V378.175M2522.52 274.875H2625.82M2522.52 378.175V481.475M2522.52 378.175H2625.82M2522.52 481.475V584.775M2522.52 481.475H2625.82M2522.52 584.775V688.075M2522.52 584.775H2625.82M2522.52 688.075V791.375M2522.52 688.075H2625.82M2522.52 791.375V894.675M2522.52 791.375H2625.82M2522.52 894.675V997.975M2522.52 894.675H2625.82M2522.52 997.975V1101.27M2522.52 997.975H2625.82M2522.52 1101.27V1204.58M2522.52 1101.27H2625.82M2522.52 1204.58V1307.87M2522.52 1204.58H2625.82M2522.52 1307.87V1411.18M2522.52 1307.87H2625.82M2522.52 1411.18V1514.48M2522.52 1411.18H2625.82M2522.52 1514.48V1617.78M2522.52 1514.48H2625.82M2522.52 1617.78V1721.08M2522.52 1617.78H2625.82M2522.52 1721.08V1824.37M2522.52 1721.08H2625.82M2522.52 1824.37H2625.82M2625.82 -241.625V-138.325M2625.82 -241.625H2729.11M2625.82 -138.325V-35.025M2625.82 -138.325H2729.11M2625.82 -35.025V68.275M2625.82 -35.025H2729.11M2625.82 68.275V171.575M2625.82 68.275H2729.11M2625.82 171.575V274.875M2625.82 171.575H2729.11M2625.82 274.875V378.175M2625.82 274.875H2729.11M2625.82 378.175V481.475M2625.82 378.175H2729.11M2625.82 481.475V584.775M2625.82 481.475H2729.11M2625.82 584.775V688.075M2625.82 584.775H2729.11M2625.82 688.075V791.375M2625.82 688.075H2729.11M2625.82 791.375V894.675M2625.82 791.375H2729.11M2625.82 894.675V997.975M2625.82 894.675H2729.11M2625.82 997.975V1101.27M2625.82 997.975H2729.11M2625.82 1101.27V1204.58M2625.82 1101.27H2729.11M2625.82 1204.58V1307.87M2625.82 1204.58H2729.11M2625.82 1307.87V1411.18M2625.82 1307.87H2729.11M2625.82 1411.18V1514.48M2625.82 1411.18H2729.11M2625.82 1514.48V1617.78M2625.82 1514.48H2729.11M2625.82 1617.78V1721.08M2625.82 1617.78H2729.11M2625.82 1721.08V1824.37M2625.82 1721.08H2729.11M2625.82 1824.37H2729.11M2729.11 -241.625V-138.325M2729.11 -241.625H2832.41M2729.11 -138.325V-35.025M2729.11 -138.325H2832.41M2729.11 -35.025V68.275M2729.11 -35.025H2832.41M2729.11 68.275V171.575M2729.11 68.275H2832.41M2729.11 171.575V274.875M2729.11 171.575H2832.41M2729.11 274.875V378.175M2729.11 274.875H2832.41M2729.11 378.175V481.475M2729.11 378.175H2832.41M2729.11 481.475V584.775M2729.11 481.475H2832.41M2729.11 584.775V688.075M2729.11 584.775H2832.41M2729.11 688.075V791.375M2729.11 688.075H2832.41M2729.11 791.375V894.675M2729.11 791.375H2832.41M2729.11 894.675V997.975M2729.11 894.675H2832.41M2729.11 997.975V1101.27M2729.11 997.975H2832.41M2729.11 1101.27V1204.58M2729.11 1101.27H2832.41M2729.11 1204.58V1307.87M2729.11 1204.58H2832.41M2729.11 1307.87V1411.18M2729.11 1307.87H2832.41M2729.11 1411.18V1514.48M2729.11 1411.18H2832.41M2729.11 1514.48V1617.78M2729.11 1514.48H2832.41M2729.11 1617.78V1721.08M2729.11 1617.78H2832.41M2729.11 1721.08V1824.37M2729.11 1721.08H2832.41M2729.11 1824.37H2832.41M2832.41 -241.625V-138.325M2832.41 -241.625H2935.7M2832.41 -138.325V-35.025M2832.41 -138.325H2935.7M2832.41 -35.025V68.275M2832.41 -35.025H2935.7M2832.41 68.275V171.575M2832.41 68.275H2935.7M2832.41 171.575V274.875M2832.41 171.575H2935.7M2832.41 274.875V378.175M2832.41 274.875H2935.7M2832.41 378.175V481.475M2832.41 378.175H2935.7M2832.41 481.475V584.775M2832.41 481.475H2935.7M2832.41 584.775V688.075M2832.41 584.775H2935.7M2832.41 688.075V791.375M2832.41 688.075H2935.7M2832.41 791.375V894.675M2832.41 791.375H2935.7M2832.41 894.675V997.975M2832.41 894.675H2935.7M2832.41 997.975V1101.27M2832.41 997.975H2935.7M2832.41 1101.27V1204.58M2832.41 1101.27H2935.7M2832.41 1204.58V1307.87M2832.41 1204.58H2935.7M2832.41 1307.87V1411.18M2832.41 1307.87H2935.7M2832.41 1411.18V1514.48M2832.41 1411.18H2935.7M2832.41 1514.48V1617.78M2832.41 1514.48H2935.7M2832.41 1617.78V1721.08M2832.41 1617.78H2935.7M2832.41 1721.08V1824.37M2832.41 1721.08H2935.7M2832.41 1824.37H2935.7M2935.7 -241.625V-138.325M2935.7 -241.625H3039V-138.325M2935.7 -138.325V-35.025M2935.7 -138.325H3039M2935.7 -35.025V68.275M2935.7 -35.025H3039M2935.7 68.275V171.575M2935.7 68.275H3039M2935.7 171.575V274.875M2935.7 171.575H3039M2935.7 274.875V378.175M2935.7 274.875H3039M2935.7 378.175V481.475M2935.7 378.175H3039M2935.7 481.475V584.775M2935.7 481.475H3039M2935.7 584.775V688.075M2935.7 584.775H3039M2935.7 688.075V791.375M2935.7 688.075H3039M2935.7 791.375V894.675M2935.7 791.375H3039M2935.7 894.675V997.975M2935.7 894.675H3039M2935.7 997.975V1101.27M2935.7 997.975H3039M2935.7 1101.27V1204.58M2935.7 1101.27H3039M2935.7 1204.58V1307.87M2935.7 1204.58H3039M2935.7 1307.87V1411.18M2935.7 1307.87H3039M2935.7 1411.18V1514.48M2935.7 1411.18H3039M2935.7 1514.48V1617.78M2935.7 1514.48H3039M2935.7 1617.78V1721.08M2935.7 1617.78H3039M2935.7 1721.08V1824.37M2935.7 1721.08H3039M2935.7 1824.37H3039V1721.08M3039 -138.325V-35.025M3039 -35.025V68.275M3039 68.275V171.575M3039 171.575V274.875M3039 274.875V378.175M3039 378.175V481.475M3039 481.475V584.775M3039 584.775V688.075M3039 688.075V791.375M3039 791.375V894.675M3039 894.675V997.975M3039 997.975V1101.27M3039 1101.27V1204.58M3039 1204.58V1307.87M3039 1307.87V1411.18M3039 1411.18V1514.48M3039 1514.48V1617.78M3039 1617.78V1721.08" stroke="url(#paint0_radial_675_120)" stroke-width="0.804612"/>
<g opacity="0.25" filter="url(#filter0_f_675_120)">
<rect x="270" y="433.375" width="303" height="369" transform="rotate(180 270 433.375)" fill="#0CBAFF"/>
</g>
<g opacity="0.2" filter="url(#filter1_f_675_120)">
<rect x="-228" y="542.375" width="485" height="365" fill="#84FFD3"/>
</g>
<g filter="url(#filter2_f_675_120)">
<rect width="716" height="326" transform="matrix(1 0 0 -1 -99 340.375)" fill="#200495"/>
</g>
<g filter="url(#filter3_f_675_120)">
<rect x="1152" y="340.375" width="535" height="195" transform="rotate(180 1152 340.375)" fill="#200495"/>
</g>
<g opacity="0.25" filter="url(#filter4_f_675_120)">
<rect x="1275" y="340.375" width="677" height="466" transform="rotate(180 1275 340.375)" fill="#0CBAFF"/>
</g>
</g>
<defs>
<filter id="filter0_f_675_120" x="-433" y="-335.625" width="1103" height="1169" filterUnits="userSpaceOnUse" color-interpolation-filters="sRGB">
<feFlood flood-opacity="0" result="BackgroundImageFix"/>
<feBlend mode="normal" in="SourceGraphic" in2="BackgroundImageFix" result="shape"/>
<feGaussianBlur stdDeviation="200" result="effect1_foregroundBlur_675_120"/>
</filter>
<filter id="filter1_f_675_120" x="-628" y="142.375" width="1285" height="1165" filterUnits="userSpaceOnUse" color-interpolation-filters="sRGB">
<feFlood flood-opacity="0" result="BackgroundImageFix"/>
<feBlend mode="normal" in="SourceGraphic" in2="BackgroundImageFix" result="shape"/>
<feGaussianBlur stdDeviation="200" result="effect1_foregroundBlur_675_120"/>
</filter>
<filter id="filter2_f_675_120" x="-499" y="-385.625" width="1516" height="1126" filterUnits="userSpaceOnUse" color-interpolation-filters="sRGB">
<feFlood flood-opacity="0" result="BackgroundImageFix"/>
<feBlend mode="normal" in="SourceGraphic" in2="BackgroundImageFix" result="shape"/>
<feGaussianBlur stdDeviation="200" result="effect1_foregroundBlur_675_120"/>
</filter>
<filter id="filter3_f_675_120" x="217" y="-254.625" width="1335" height="995" filterUnits="userSpaceOnUse" color-interpolation-filters="sRGB">
<feFlood flood-opacity="0" result="BackgroundImageFix"/>
<feBlend mode="normal" in="SourceGraphic" in2="BackgroundImageFix" result="shape"/>
<feGaussianBlur stdDeviation="200" result="effect1_foregroundBlur_675_120"/>
</filter>
<filter id="filter4_f_675_120" x="198" y="-525.625" width="1477" height="1266" filterUnits="userSpaceOnUse" color-interpolation-filters="sRGB">
<feFlood flood-opacity="0" result="BackgroundImageFix"/>
<feBlend mode="normal" in="SourceGraphic" in2="BackgroundImageFix" result="shape"/>
<feGaussianBlur stdDeviation="200" result="effect1_foregroundBlur_675_120"/>
</filter>
<radialGradient id="paint0_radial_675_120" cx="0" cy="0" r="1" gradientUnits="userSpaceOnUse" gradientTransform="translate(493 -8.62498) rotate(90) scale(398 875.561)">
<stop stop-color="#230394" stop-opacity="0.5"/>
<stop offset="0.368559" stop-color="#E3DFF1" stop-opacity="0.936629"/>
<stop offset="0.622977" stop-color="white"/>
<stop offset="1" stop-color="#230394" stop-opacity="0.5"/>
</radialGradient>
<clipPath id="clip0_675_120">
<rect width="1024" height="300" fill="white" transform="translate(0 0.375)"/>
</clipPath>
</defs>
</svg>
