<svg width="768" height="300" viewBox="0 0 768 300" fill="none" xmlns="http://www.w3.org/2000/svg">
<g clip-path="url(#clip0_675_86)">
<rect width="768" height="300" fill="#200093"/>
<path opacity="0.2" d="M-1530.7 -242H-1634V-138.7M-1530.7 -242V-138.7M-1530.7 -242H-1427.41M-1530.7 -138.7H-1634M-1530.7 -138.7V-35.4M-1530.7 -138.7H-1427.41M-1634 -138.7V-35.4M-1530.7 -35.4H-1634M-1530.7 -35.4V67.9M-1530.7 -35.4H-1427.41M-1634 -35.4V67.9M-1530.7 67.9H-1634M-1530.7 67.9V171.2M-1530.7 67.9H-1427.41M-1634 67.9V171.2M-1530.7 171.2H-1634M-1530.7 171.2V274.5M-1530.7 171.2H-1427.41M-1634 171.2V274.5M-1530.7 274.5H-1634M-1530.7 274.5V377.8M-1530.7 274.5H-1427.41M-1634 274.5V377.8M-1530.7 377.8H-1634M-1530.7 377.8V481.1M-1530.7 377.8H-1427.41M-1634 377.8V481.1M-1530.7 481.1H-1634M-1530.7 481.1V584.4M-1530.7 481.1H-1427.41M-1634 481.1V584.4M-1530.7 584.4H-1634M-1530.7 584.4V687.7M-1530.7 584.4H-1427.41M-1634 584.4V687.7M-1530.7 687.7H-1634M-1530.7 687.7V791M-1530.7 687.7H-1427.41M-1634 687.7V791M-1530.7 791H-1634M-1530.7 791V894.3M-1530.7 791H-1427.41M-1634 791V894.3M-1530.7 894.3H-1634M-1530.7 894.3V997.6M-1530.7 894.3H-1427.41M-1634 894.3V997.6M-1530.7 997.6H-1634M-1530.7 997.6V1100.9M-1530.7 997.6H-1427.41M-1634 997.6V1100.9M-1530.7 1100.9H-1634M-1530.7 1100.9V1204.2M-1530.7 1100.9H-1427.41M-1634 1100.9V1204.2M-1530.7 1204.2H-1634M-1530.7 1204.2V1307.5M-1530.7 1204.2H-1427.41M-1634 1204.2V1307.5M-1530.7 1307.5H-1634M-1530.7 1307.5V1410.8M-1530.7 1307.5H-1427.41M-1634 1307.5V1410.8M-1530.7 1410.8H-1634M-1530.7 1410.8V1514.1M-1530.7 1410.8H-1427.41M-1634 1410.8V1514.1M-1530.7 1514.1H-1634M-1530.7 1514.1V1617.4M-1530.7 1514.1H-1427.41M-1634 1514.1V1617.4M-1530.7 1617.4H-1634M-1530.7 1617.4V1720.7M-1530.7 1617.4H-1427.41M-1634 1617.4V1720.7M-1530.7 1720.7H-1634M-1530.7 1720.7V1824M-1530.7 1720.7H-1427.41M-1634 1720.7V1824H-1530.7M-1530.7 1824H-1427.41M-1427.41 -242V-138.7M-1427.41 -242H-1324.11M-1427.41 -138.7V-35.4M-1427.41 -138.7H-1324.11M-1427.41 -35.4V67.9M-1427.41 -35.4H-1324.11M-1427.41 67.9V171.2M-1427.41 67.9H-1324.11M-1427.41 171.2V274.5M-1427.41 171.2H-1324.11M-1427.41 274.5V377.8M-1427.41 274.5H-1324.11M-1427.41 377.8V481.1M-1427.41 377.8H-1324.11M-1427.41 481.1V584.4M-1427.41 481.1H-1324.11M-1427.41 584.4V687.7M-1427.41 584.4H-1324.11M-1427.41 687.7V791M-1427.41 687.7H-1324.11M-1427.41 791V894.3M-1427.41 791H-1324.11M-1427.41 894.3V997.6M-1427.41 894.3H-1324.11M-1427.41 997.6V1100.9M-1427.41 997.6H-1324.11M-1427.41 1100.9V1204.2M-1427.41 1100.9H-1324.11M-1427.41 1204.2V1307.5M-1427.41 1204.2H-1324.11M-1427.41 1307.5V1410.8M-1427.41 1307.5H-1324.11M-1427.41 1410.8V1514.1M-1427.41 1410.8H-1324.11M-1427.41 1514.1V1617.4M-1427.41 1514.1H-1324.11M-1427.41 1617.4V1720.7M-1427.41 1617.4H-1324.11M-1427.41 1720.7V1824M-1427.41 1720.7H-1324.11M-1427.41 1824H-1324.11M-1324.11 -242V-138.7M-1324.11 -242H-1220.82M-1324.11 -138.7V-35.4M-1324.11 -138.7H-1220.82M-1324.11 -35.4V67.9M-1324.11 -35.4H-1220.82M-1324.11 67.9V171.2M-1324.11 67.9H-1220.82M-1324.11 171.2V274.5M-1324.11 171.2H-1220.82M-1324.11 274.5V377.8M-1324.11 274.5H-1220.82M-1324.11 377.8V481.1M-1324.11 377.8H-1220.82M-1324.11 481.1V584.4M-1324.11 481.1H-1220.82M-1324.11 584.4V687.7M-1324.11 584.4H-1220.82M-1324.11 687.7V791M-1324.11 687.7H-1220.82M-1324.11 791V894.3M-1324.11 791H-1220.82M-1324.11 894.3V997.6M-1324.11 894.3H-1220.82M-1324.11 997.6V1100.9M-1324.11 997.6H-1220.82M-1324.11 1100.9V1204.2M-1324.11 1100.9H-1220.82M-1324.11 1204.2V1307.5M-1324.11 1204.2H-1220.82M-1324.11 1307.5V1410.8M-1324.11 1307.5H-1220.82M-1324.11 1410.8V1514.1M-1324.11 1410.8H-1220.82M-1324.11 1514.1V1617.4M-1324.11 1514.1H-1220.82M-1324.11 1617.4V1720.7M-1324.11 1617.4H-1220.82M-1324.11 1720.7V1824M-1324.11 1720.7H-1220.82M-1324.11 1824H-1220.82M-1220.82 -242V-138.7M-1220.82 -242H-1117.52M-1220.82 -138.7V-35.4M-1220.82 -138.7H-1117.52M-1220.82 -35.4V67.9M-1220.82 -35.4H-1117.52M-1220.82 67.9V171.2M-1220.82 67.9H-1117.52M-1220.82 171.2V274.5M-1220.82 171.2H-1117.52M-1220.82 274.5V377.8M-1220.82 274.5H-1117.52M-1220.82 377.8V481.1M-1220.82 377.8H-1117.52M-1220.82 481.1V584.4M-1220.82 481.1H-1117.52M-1220.82 584.4V687.7M-1220.82 584.4H-1117.52M-1220.82 687.7V791M-1220.82 687.7H-1117.52M-1220.82 791V894.3M-1220.82 791H-1117.52M-1220.82 894.3V997.6M-1220.82 894.3H-1117.52M-1220.82 997.6V1100.9M-1220.82 997.6H-1117.52M-1220.82 1100.9V1204.2M-1220.82 1100.9H-1117.52M-1220.82 1204.2V1307.5M-1220.82 1204.2H-1117.52M-1220.82 1307.5V1410.8M-1220.82 1307.5H-1117.52M-1220.82 1410.8V1514.1M-1220.82 1410.8H-1117.52M-1220.82 1514.1V1617.4M-1220.82 1514.1H-1117.52M-1220.82 1617.4V1720.7M-1220.82 1617.4H-1117.52M-1220.82 1720.7V1824M-1220.82 1720.7H-1117.52M-1220.82 1824H-1117.52M-1117.52 -242V-138.7M-1117.52 -242H-1014.23M-1117.52 -138.7V-35.4M-1117.52 -138.7H-1014.23M-1117.52 -35.4V67.9M-1117.52 -35.4H-1014.23M-1117.52 67.9V171.2M-1117.52 67.9H-1014.23M-1117.52 171.2V274.5M-1117.52 171.2H-1014.23M-1117.52 274.5V377.8M-1117.52 274.5H-1014.23M-1117.52 377.8V481.1M-1117.52 377.8H-1014.23M-1117.52 481.1V584.4M-1117.52 481.1H-1014.23M-1117.52 584.4V687.7M-1117.52 584.4H-1014.23M-1117.52 687.7V791M-1117.52 687.7H-1014.23M-1117.52 791V894.3M-1117.52 791H-1014.23M-1117.52 894.3V997.6M-1117.52 894.3H-1014.23M-1117.52 997.6V1100.9M-1117.52 997.6H-1014.23M-1117.52 1100.9V1204.2M-1117.52 1100.9H-1014.23M-1117.52 1204.2V1307.5M-1117.52 1204.2H-1014.23M-1117.52 1307.5V1410.8M-1117.52 1307.5H-1014.23M-1117.52 1410.8V1514.1M-1117.52 1410.8H-1014.23M-1117.52 1514.1V1617.4M-1117.52 1514.1H-1014.23M-1117.52 1617.4V1720.7M-1117.52 1617.4H-1014.23M-1117.52 1720.7V1824M-1117.52 1720.7H-1014.23M-1117.52 1824H-1014.23M-1014.23 -242V-138.7M-1014.23 -242H-910.932M-1014.23 -138.7V-35.4M-1014.23 -138.7H-910.932M-1014.23 -35.4V67.9M-1014.23 -35.4H-910.932M-1014.23 67.9V171.2M-1014.23 67.9H-910.932M-1014.23 171.2V274.5M-1014.23 171.2H-910.932M-1014.23 274.5V377.8M-1014.23 274.5H-910.932M-1014.23 377.8V481.1M-1014.23 377.8H-910.932M-1014.23 481.1V584.4M-1014.23 481.1H-910.932M-1014.23 584.4V687.7M-1014.23 584.4H-910.932M-1014.23 687.7V791M-1014.23 687.7H-910.932M-1014.23 791V894.3M-1014.23 791H-910.932M-1014.23 894.3V997.6M-1014.23 894.3H-910.932M-1014.23 997.6V1100.9M-1014.23 997.6H-910.932M-1014.23 1100.9V1204.2M-1014.23 1100.9H-910.932M-1014.23 1204.2V1307.5M-1014.23 1204.2H-910.932M-1014.23 1307.5V1410.8M-1014.23 1307.5H-910.932M-1014.23 1410.8V1514.1M-1014.23 1410.8H-910.932M-1014.23 1514.1V1617.4M-1014.23 1514.1H-910.932M-1014.23 1617.4V1720.7M-1014.23 1617.4H-910.932M-1014.23 1720.7V1824M-1014.23 1720.7H-910.932M-1014.23 1824H-910.932M-910.932 -242V-138.7M-910.932 -242H-807.636M-910.932 -138.7V-35.4M-910.932 -138.7H-807.636M-910.932 -35.4V67.9M-910.932 -35.4H-807.636M-910.932 67.9V171.2M-910.932 67.9H-807.636M-910.932 171.2V274.5M-910.932 171.2H-807.636M-910.932 274.5V377.8M-910.932 274.5H-807.636M-910.932 377.8V481.1M-910.932 377.8H-807.636M-910.932 481.1V584.4M-910.932 481.1H-807.636M-910.932 584.4V687.7M-910.932 584.4H-807.636M-910.932 687.7V791M-910.932 687.7H-807.636M-910.932 791V894.3M-910.932 791H-807.636M-910.932 894.3V997.6M-910.932 894.3H-807.636M-910.932 997.6V1100.9M-910.932 997.6H-807.636M-910.932 1100.9V1204.2M-910.932 1100.9H-807.636M-910.932 1204.2V1307.5M-910.932 1204.2H-807.636M-910.932 1307.5V1410.8M-910.932 1307.5H-807.636M-910.932 1410.8V1514.1M-910.932 1410.8H-807.636M-910.932 1514.1V1617.4M-910.932 1514.1H-807.636M-910.932 1617.4V1720.7M-910.932 1617.4H-807.636M-910.932 1720.7V1824M-910.932 1720.7H-807.636M-910.932 1824H-807.636M-807.636 -242V-138.7M-807.636 -242H-704.341M-807.636 -138.7V-35.4M-807.636 -138.7H-704.341M-807.636 -35.4V67.9M-807.636 -35.4H-704.341M-807.636 67.9V171.2M-807.636 67.9H-704.341M-807.636 171.2V274.5M-807.636 171.2H-704.341M-807.636 274.5V377.8M-807.636 274.5H-704.341M-807.636 377.8V481.1M-807.636 377.8H-704.341M-807.636 481.1V584.4M-807.636 481.1H-704.341M-807.636 584.4V687.7M-807.636 584.4H-704.341M-807.636 687.7V791M-807.636 687.7H-704.341M-807.636 791V894.3M-807.636 791H-704.341M-807.636 894.3V997.6M-807.636 894.3H-704.341M-807.636 997.6V1100.9M-807.636 997.6H-704.341M-807.636 1100.9V1204.2M-807.636 1100.9H-704.341M-807.636 1204.2V1307.5M-807.636 1204.2H-704.341M-807.636 1307.5V1410.8M-807.636 1307.5H-704.341M-807.636 1410.8V1514.1M-807.636 1410.8H-704.341M-807.636 1514.1V1617.4M-807.636 1514.1H-704.341M-807.636 1617.4V1720.7M-807.636 1617.4H-704.341M-807.636 1720.7V1824M-807.636 1720.7H-704.341M-807.636 1824H-704.341M-704.341 -242V-138.7M-704.341 -242H-601.045M-704.341 -138.7V-35.4M-704.341 -138.7H-601.045M-704.341 -35.4V67.9M-704.341 -35.4H-601.045M-704.341 67.9V171.2M-704.341 67.9H-601.045M-704.341 171.2V274.5M-704.341 171.2H-601.045M-704.341 274.5V377.8M-704.341 274.5H-601.045M-704.341 377.8V481.1M-704.341 377.8H-601.045M-704.341 481.1V584.4M-704.341 481.1H-601.045M-704.341 584.4V687.7M-704.341 584.4H-601.045M-704.341 687.7V791M-704.341 687.7H-601.045M-704.341 791V894.3M-704.341 791H-601.045M-704.341 894.3V997.6M-704.341 894.3H-601.045M-704.341 997.6V1100.9M-704.341 997.6H-601.045M-704.341 1100.9V1204.2M-704.341 1100.9H-601.045M-704.341 1204.2V1307.5M-704.341 1204.2H-601.045M-704.341 1307.5V1410.8M-704.341 1307.5H-601.045M-704.341 1410.8V1514.1M-704.341 1410.8H-601.045M-704.341 1514.1V1617.4M-704.341 1514.1H-601.045M-704.341 1617.4V1720.7M-704.341 1617.4H-601.045M-704.341 1720.7V1824M-704.341 1720.7H-601.045M-704.341 1824H-601.045M-601.045 -242V-138.7M-601.045 -242H-497.75M-601.045 -138.7V-35.4M-601.045 -138.7H-497.75M-601.045 -35.4V67.9M-601.045 -35.4H-497.75M-601.045 67.9V171.2M-601.045 67.9H-497.75M-601.045 171.2V274.5M-601.045 171.2H-497.75M-601.045 274.5V377.8M-601.045 274.5H-497.75M-601.045 377.8V481.1M-601.045 377.8H-497.75M-601.045 481.1V584.4M-601.045 481.1H-497.75M-601.045 584.4V687.7M-601.045 584.4H-497.75M-601.045 687.7V791M-601.045 687.7H-497.75M-601.045 791V894.3M-601.045 791H-497.75M-601.045 894.3V997.6M-601.045 894.3H-497.75M-601.045 997.6V1100.9M-601.045 997.6H-497.75M-601.045 1100.9V1204.2M-601.045 1100.9H-497.75M-601.045 1204.2V1307.5M-601.045 1204.2H-497.75M-601.045 1307.5V1410.8M-601.045 1307.5H-497.75M-601.045 1410.8V1514.1M-601.045 1410.8H-497.75M-601.045 1514.1V1617.4M-601.045 1514.1H-497.75M-601.045 1617.4V1720.7M-601.045 1617.4H-497.75M-601.045 1720.7V1824M-601.045 1720.7H-497.75M-601.045 1824H-497.75M-497.75 -242V-138.7M-497.75 -242H-394.455M-497.75 -138.7V-35.4M-497.75 -138.7H-394.455M-497.75 -35.4V67.9M-497.75 -35.4H-394.455M-497.75 67.9V171.2M-497.75 67.9H-394.455M-497.75 171.2V274.5M-497.75 171.2H-394.455M-497.75 274.5V377.8M-497.75 274.5H-394.455M-497.75 377.8V481.1M-497.75 377.8H-394.455M-497.75 481.1V584.4M-497.75 481.1H-394.455M-497.75 584.4V687.7M-497.75 584.4H-394.455M-497.75 687.7V791M-497.75 687.7H-394.455M-497.75 791V894.3M-497.75 791H-394.455M-497.75 894.3V997.6M-497.75 894.3H-394.455M-497.75 997.6V1100.9M-497.75 997.6H-394.455M-497.75 1100.9V1204.2M-497.75 1100.9H-394.455M-497.75 1204.2V1307.5M-497.75 1204.2H-394.455M-497.75 1307.5V1410.8M-497.75 1307.5H-394.455M-497.75 1410.8V1514.1M-497.75 1410.8H-394.455M-497.75 1514.1V1617.4M-497.75 1514.1H-394.455M-497.75 1617.4V1720.7M-497.75 1617.4H-394.455M-497.75 1720.7V1824M-497.75 1720.7H-394.455M-497.75 1824H-394.455M-394.455 -242V-138.7M-394.455 -242H-291.159M-394.455 -138.7V-35.4M-394.455 -138.7H-291.159M-394.455 -35.4V67.9M-394.455 -35.4H-291.159M-394.455 67.9V171.2M-394.455 67.9H-291.159M-394.455 171.2V274.5M-394.455 171.2H-291.159M-394.455 274.5V377.8M-394.455 274.5H-291.159M-394.455 377.8V481.1M-394.455 377.8H-291.159M-394.455 481.1V584.4M-394.455 481.1H-291.159M-394.455 584.4V687.7M-394.455 584.4H-291.159M-394.455 687.7V791M-394.455 687.7H-291.159M-394.455 791V894.3M-394.455 791H-291.159M-394.455 894.3V997.6M-394.455 894.3H-291.159M-394.455 997.6V1100.9M-394.455 997.6H-291.159M-394.455 1100.9V1204.2M-394.455 1100.9H-291.159M-394.455 1204.2V1307.5M-394.455 1204.2H-291.159M-394.455 1307.5V1410.8M-394.455 1307.5H-291.159M-394.455 1410.8V1514.1M-394.455 1410.8H-291.159M-394.455 1514.1V1617.4M-394.455 1514.1H-291.159M-394.455 1617.4V1720.7M-394.455 1617.4H-291.159M-394.455 1720.7V1824M-394.455 1720.7H-291.159M-394.455 1824H-291.159M-291.159 -242V-138.7M-291.159 -242H-187.864M-291.159 -138.7V-35.4M-291.159 -138.7H-187.864M-291.159 -35.4V67.9M-291.159 -35.4H-187.864M-291.159 67.9V171.2M-291.159 67.9H-187.864M-291.159 171.2V274.5M-291.159 171.2H-187.864M-291.159 274.5V377.8M-291.159 274.5H-187.864M-291.159 377.8V481.1M-291.159 377.8H-187.864M-291.159 481.1V584.4M-291.159 481.1H-187.864M-291.159 584.4V687.7M-291.159 584.4H-187.864M-291.159 687.7V791M-291.159 687.7H-187.864M-291.159 791V894.3M-291.159 791H-187.864M-291.159 894.3V997.6M-291.159 894.3H-187.864M-291.159 997.6V1100.9M-291.159 997.6H-187.864M-291.159 1100.9V1204.2M-291.159 1100.9H-187.864M-291.159 1204.2V1307.5M-291.159 1204.2H-187.864M-291.159 1307.5V1410.8M-291.159 1307.5H-187.864M-291.159 1410.8V1514.1M-291.159 1410.8H-187.864M-291.159 1514.1V1617.4M-291.159 1514.1H-187.864M-291.159 1617.4V1720.7M-291.159 1617.4H-187.864M-291.159 1720.7V1824M-291.159 1720.7H-187.864M-291.159 1824H-187.864M-187.864 -242V-138.7M-187.864 -242H-84.5682M-187.864 -138.7V-35.4M-187.864 -138.7H-84.5682M-187.864 -35.4V67.9M-187.864 -35.4H-84.5682M-187.864 67.9V171.2M-187.864 67.9H-84.5682M-187.864 171.2V274.5M-187.864 171.2H-84.5682M-187.864 274.5V377.8M-187.864 274.5H-84.5682M-187.864 377.8V481.1M-187.864 377.8H-84.5682M-187.864 481.1V584.4M-187.864 481.1H-84.5682M-187.864 584.4V687.7M-187.864 584.4H-84.5682M-187.864 687.7V791M-187.864 687.7H-84.5682M-187.864 791V894.3M-187.864 791H-84.5682M-187.864 894.3V997.6M-187.864 894.3H-84.5682M-187.864 997.6V1100.9M-187.864 997.6H-84.5682M-187.864 1100.9V1204.2M-187.864 1100.9H-84.5682M-187.864 1204.2V1307.5M-187.864 1204.2H-84.5682M-187.864 1307.5V1410.8M-187.864 1307.5H-84.5682M-187.864 1410.8V1514.1M-187.864 1410.8H-84.5682M-187.864 1514.1V1617.4M-187.864 1514.1H-84.5682M-187.864 1617.4V1720.7M-187.864 1617.4H-84.5682M-187.864 1720.7V1824M-187.864 1720.7H-84.5682M-187.864 1824H-84.5682M-84.5682 -242V-138.7M-84.5682 -242H18.7273M-84.5682 -138.7V-35.4M-84.5682 -138.7H18.7273M-84.5682 -35.4V67.9M-84.5682 -35.4H18.7273M-84.5682 67.9V171.2M-84.5682 67.9H18.7273M-84.5682 171.2V274.5M-84.5682 171.2H18.7273M-84.5682 274.5V377.8M-84.5682 274.5H18.7273M-84.5682 377.8V481.1M-84.5682 377.8H18.7273M-84.5682 481.1V584.4M-84.5682 481.1H18.7273M-84.5682 584.4V687.7M-84.5682 584.4H18.7273M-84.5682 687.7V791M-84.5682 687.7H18.7273M-84.5682 791V894.3M-84.5682 791H18.7273M-84.5682 894.3V997.6M-84.5682 894.3H18.7273M-84.5682 997.6V1100.9M-84.5682 997.6H18.7273M-84.5682 1100.9V1204.2M-84.5682 1100.9H18.7273M-84.5682 1204.2V1307.5M-84.5682 1204.2H18.7273M-84.5682 1307.5V1410.8M-84.5682 1307.5H18.7273M-84.5682 1410.8V1514.1M-84.5682 1410.8H18.7273M-84.5682 1514.1V1617.4M-84.5682 1514.1H18.7273M-84.5682 1617.4V1720.7M-84.5682 1617.4H18.7273M-84.5682 1720.7V1824M-84.5682 1720.7H18.7273M-84.5682 1824H18.7273M18.7273 -242V-138.7M18.7273 -242H122.023M18.7273 -138.7V-35.4M18.7273 -138.7H122.023M18.7273 -35.4V67.9M18.7273 -35.4H122.023M18.7273 67.9V171.2M18.7273 67.9H122.023M18.7273 171.2V274.5M18.7273 171.2H122.023M18.7273 274.5V377.8M18.7273 274.5H122.023M18.7273 377.8V481.1M18.7273 377.8H122.023M18.7273 481.1V584.4M18.7273 481.1H122.023M18.7273 584.4V687.7M18.7273 584.4H122.023M18.7273 687.7V791M18.7273 687.7H122.023M18.7273 791V894.3M18.7273 791H122.023M18.7273 894.3V997.6M18.7273 894.3H122.023M18.7273 997.6V1100.9M18.7273 997.6H122.023M18.7273 1100.9V1204.2M18.7273 1100.9H122.023M18.7273 1204.2V1307.5M18.7273 1204.2H122.023M18.7273 1307.5V1410.8M18.7273 1307.5H122.023M18.7273 1410.8V1514.1M18.7273 1410.8H122.023M18.7273 1514.1V1617.4M18.7273 1514.1H122.023M18.7273 1617.4V1720.7M18.7273 1617.4H122.023M18.7273 1720.7V1824M18.7273 1720.7H122.023M18.7273 1824H122.023M122.023 -242V-138.7M122.023 -242H225.318M122.023 -138.7V-35.4M122.023 -138.7H225.318M122.023 -35.4V67.9M122.023 -35.4H225.318M122.023 67.9V171.2M122.023 67.9H225.318M122.023 171.2V274.5M122.023 171.2H225.318M122.023 274.5V377.8M122.023 274.5H225.318M122.023 377.8V481.1M122.023 377.8H225.318M122.023 481.1V584.4M122.023 481.1H225.318M122.023 584.4V687.7M122.023 584.4H225.318M122.023 687.7V791M122.023 687.7H225.318M122.023 791V894.3M122.023 791H225.318M122.023 894.3V997.6M122.023 894.3H225.318M122.023 997.6V1100.9M122.023 997.6H225.318M122.023 1100.9V1204.2M122.023 1100.9H225.318M122.023 1204.2V1307.5M122.023 1204.2H225.318M122.023 1307.5V1410.8M122.023 1307.5H225.318M122.023 1410.8V1514.1M122.023 1410.8H225.318M122.023 1514.1V1617.4M122.023 1514.1H225.318M122.023 1617.4V1720.7M122.023 1617.4H225.318M122.023 1720.7V1824M122.023 1720.7H225.318M122.023 1824H225.318M225.318 -242V-138.7M225.318 -242H328.614M225.318 -138.7V-35.4M225.318 -138.7H328.614M225.318 -35.4V67.9M225.318 -35.4H328.614M225.318 67.9V171.2M225.318 67.9H328.614M225.318 171.2V274.5M225.318 171.2H328.614M225.318 274.5V377.8M225.318 274.5H328.614M225.318 377.8V481.1M225.318 377.8H328.614M225.318 481.1V584.4M225.318 481.1H328.614M225.318 584.4V687.7M225.318 584.4H328.614M225.318 687.7V791M225.318 687.7H328.614M225.318 791V894.3M225.318 791H328.614M225.318 894.3V997.6M225.318 894.3H328.614M225.318 997.6V1100.9M225.318 997.6H328.614M225.318 1100.9V1204.2M225.318 1100.9H328.614M225.318 1204.2V1307.5M225.318 1204.2H328.614M225.318 1307.5V1410.8M225.318 1307.5H328.614M225.318 1410.8V1514.1M225.318 1410.8H328.614M225.318 1514.1V1617.4M225.318 1514.1H328.614M225.318 1617.4V1720.7M225.318 1617.4H328.614M225.318 1720.7V1824M225.318 1720.7H328.614M225.318 1824H328.614M328.614 -242V-138.7M328.614 -242H431.909M328.614 -138.7V-35.4M328.614 -138.7H431.909M328.614 -35.4V67.9M328.614 -35.4H431.909M328.614 67.9V171.2M328.614 67.9H431.909M328.614 171.2V274.5M328.614 171.2H431.909M328.614 274.5V377.8M328.614 274.5H431.909M328.614 377.8V481.1M328.614 377.8H431.909M328.614 481.1V584.4M328.614 481.1H431.909M328.614 584.4V687.7M328.614 584.4H431.909M328.614 687.7V791M328.614 687.7H431.909M328.614 791V894.3M328.614 791H431.909M328.614 894.3V997.6M328.614 894.3H431.909M328.614 997.6V1100.9M328.614 997.6H431.909M328.614 1100.9V1204.2M328.614 1100.9H431.909M328.614 1204.2V1307.5M328.614 1204.2H431.909M328.614 1307.5V1410.8M328.614 1307.5H431.909M328.614 1410.8V1514.1M328.614 1410.8H431.909M328.614 1514.1V1617.4M328.614 1514.1H431.909M328.614 1617.4V1720.7M328.614 1617.4H431.909M328.614 1720.7V1824M328.614 1720.7H431.909M328.614 1824H431.909M431.909 -242V-138.7M431.909 -242H535.205M431.909 -138.7V-35.4M431.909 -138.7H535.205M431.909 -35.4V67.9M431.909 -35.4H535.205M431.909 67.9V171.2M431.909 67.9H535.205M431.909 171.2V274.5M431.909 171.2H535.205M431.909 274.5V377.8M431.909 274.5H535.205M431.909 377.8V481.1M431.909 377.8H535.205M431.909 481.1V584.4M431.909 481.1H535.205M431.909 584.4V687.7M431.909 584.4H535.205M431.909 687.7V791M431.909 687.7H535.205M431.909 791V894.3M431.909 791H535.205M431.909 894.3V997.6M431.909 894.3H535.205M431.909 997.6V1100.9M431.909 997.6H535.205M431.909 1100.9V1204.2M431.909 1100.9H535.205M431.909 1204.2V1307.5M431.909 1204.2H535.205M431.909 1307.5V1410.8M431.909 1307.5H535.205M431.909 1410.8V1514.1M431.909 1410.8H535.205M431.909 1514.1V1617.4M431.909 1514.1H535.205M431.909 1617.4V1720.7M431.909 1617.4H535.205M431.909 1720.7V1824M431.909 1720.7H535.205M431.909 1824H535.205M535.205 -242V-138.7M535.205 -242H638.5M535.205 -138.7V-35.4M535.205 -138.7H638.5M535.205 -35.4V67.9M535.205 -35.4H638.5M535.205 67.9V171.2M535.205 67.9H638.5M535.205 171.2V274.5M535.205 171.2H638.5M535.205 274.5V377.8M535.205 274.5H638.5M535.205 377.8V481.1M535.205 377.8H638.5M535.205 481.1V584.4M535.205 481.1H638.5M535.205 584.4V687.7M535.205 584.4H638.5M535.205 687.7V791M535.205 687.7H638.5M535.205 791V894.3M535.205 791H638.5M535.205 894.3V997.6M535.205 894.3H638.5M535.205 997.6V1100.9M535.205 997.6H638.5M535.205 1100.9V1204.2M535.205 1100.9H638.5M535.205 1204.2V1307.5M535.205 1204.2H638.5M535.205 1307.5V1410.8M535.205 1307.5H638.5M535.205 1410.8V1514.1M535.205 1410.8H638.5M535.205 1514.1V1617.4M535.205 1514.1H638.5M535.205 1617.4V1720.7M535.205 1617.4H638.5M535.205 1720.7V1824M535.205 1720.7H638.5M535.205 1824H638.5M638.5 -242V-138.7M638.5 -242H741.795M638.5 -138.7V-35.4M638.5 -138.7H741.795M638.5 -35.4V67.9M638.5 -35.4H741.795M638.5 67.9V171.2M638.5 67.9H741.795M638.5 171.2V274.5M638.5 171.2H741.795M638.5 274.5V377.8M638.5 274.5H741.795M638.5 377.8V481.1M638.5 377.8H741.795M638.5 481.1V584.4M638.5 481.1H741.795M638.5 584.4V687.7M638.5 584.4H741.795M638.5 687.7V791M638.5 687.7H741.795M638.5 791V894.3M638.5 791H741.795M638.5 894.3V997.6M638.5 894.3H741.795M638.5 997.6V1100.9M638.5 997.6H741.795M638.5 1100.9V1204.2M638.5 1100.9H741.795M638.5 1204.2V1307.5M638.5 1204.2H741.795M638.5 1307.5V1410.8M638.5 1307.5H741.795M638.5 1410.8V1514.1M638.5 1410.8H741.795M638.5 1514.1V1617.4M638.5 1514.1H741.795M638.5 1617.4V1720.7M638.5 1617.4H741.795M638.5 1720.7V1824M638.5 1720.7H741.795M638.5 1824H741.795M741.795 -242V-138.7M741.795 -242H845.091M741.795 -138.7V-35.4M741.795 -138.7H845.091M741.795 -35.4V67.9M741.795 -35.4H845.091M741.795 67.9V171.2M741.795 67.9H845.091M741.795 171.2V274.5M741.795 171.2H845.091M741.795 274.5V377.8M741.795 274.5H845.091M741.795 377.8V481.1M741.795 377.8H845.091M741.795 481.1V584.4M741.795 481.1H845.091M741.795 584.4V687.7M741.795 584.4H845.091M741.795 687.7V791M741.795 687.7H845.091M741.795 791V894.3M741.795 791H845.091M741.795 894.3V997.6M741.795 894.3H845.091M741.795 997.6V1100.9M741.795 997.6H845.091M741.795 1100.9V1204.2M741.795 1100.9H845.091M741.795 1204.2V1307.5M741.795 1204.2H845.091M741.795 1307.5V1410.8M741.795 1307.5H845.091M741.795 1410.8V1514.1M741.795 1410.8H845.091M741.795 1514.1V1617.4M741.795 1514.1H845.091M741.795 1617.4V1720.7M741.795 1617.4H845.091M741.795 1720.7V1824M741.795 1720.7H845.091M741.795 1824H845.091M845.091 -242V-138.7M845.091 -242H948.386M845.091 -138.7V-35.4M845.091 -138.7H948.386M845.091 -35.4V67.9M845.091 -35.4H948.386M845.091 67.9V171.2M845.091 67.9H948.386M845.091 171.2V274.5M845.091 171.2H948.386M845.091 274.5V377.8M845.091 274.5H948.386M845.091 377.8V481.1M845.091 377.8H948.386M845.091 481.1V584.4M845.091 481.1H948.386M845.091 584.4V687.7M845.091 584.4H948.386M845.091 687.7V791M845.091 687.7H948.386M845.091 791V894.3M845.091 791H948.386M845.091 894.3V997.6M845.091 894.3H948.386M845.091 997.6V1100.9M845.091 997.6H948.386M845.091 1100.9V1204.2M845.091 1100.9H948.386M845.091 1204.2V1307.5M845.091 1204.2H948.386M845.091 1307.5V1410.8M845.091 1307.5H948.386M845.091 1410.8V1514.1M845.091 1410.8H948.386M845.091 1514.1V1617.4M845.091 1514.1H948.386M845.091 1617.4V1720.7M845.091 1617.4H948.386M845.091 1720.7V1824M845.091 1720.7H948.386M845.091 1824H948.386M948.386 -242V-138.7M948.386 -242H1051.68M948.386 -138.7V-35.4M948.386 -138.7H1051.68M948.386 -35.4V67.9M948.386 -35.4H1051.68M948.386 67.9V171.2M948.386 67.9H1051.68M948.386 171.2V274.5M948.386 171.2H1051.68M948.386 274.5V377.8M948.386 274.5H1051.68M948.386 377.8V481.1M948.386 377.8H1051.68M948.386 481.1V584.4M948.386 481.1H1051.68M948.386 584.4V687.7M948.386 584.4H1051.68M948.386 687.7V791M948.386 687.7H1051.68M948.386 791V894.3M948.386 791H1051.68M948.386 894.3V997.6M948.386 894.3H1051.68M948.386 997.6V1100.9M948.386 997.6H1051.68M948.386 1100.9V1204.2M948.386 1100.9H1051.68M948.386 1204.2V1307.5M948.386 1204.2H1051.68M948.386 1307.5V1410.8M948.386 1307.5H1051.68M948.386 1410.8V1514.1M948.386 1410.8H1051.68M948.386 1514.1V1617.4M948.386 1514.1H1051.68M948.386 1617.4V1720.7M948.386 1617.4H1051.68M948.386 1720.7V1824M948.386 1720.7H1051.68M948.386 1824H1051.68M1051.68 -242V-138.7M1051.68 -242H1154.98M1051.68 -138.7V-35.4M1051.68 -138.7H1154.98M1051.68 -35.4V67.9M1051.68 -35.4H1154.98M1051.68 67.9V171.2M1051.68 67.9H1154.98M1051.68 171.2V274.5M1051.68 171.2H1154.98M1051.68 274.5V377.8M1051.68 274.5H1154.98M1051.68 377.8V481.1M1051.68 377.8H1154.98M1051.68 481.1V584.4M1051.68 481.1H1154.98M1051.68 584.4V687.7M1051.68 584.4H1154.98M1051.68 687.7V791M1051.68 687.7H1154.98M1051.68 791V894.3M1051.68 791H1154.98M1051.68 894.3V997.6M1051.68 894.3H1154.98M1051.68 997.6V1100.9M1051.68 997.6H1154.98M1051.68 1100.9V1204.2M1051.68 1100.9H1154.98M1051.68 1204.2V1307.5M1051.68 1204.2H1154.98M1051.68 1307.5V1410.8M1051.68 1307.5H1154.98M1051.68 1410.8V1514.1M1051.68 1410.8H1154.98M1051.68 1514.1V1617.4M1051.68 1514.1H1154.98M1051.68 1617.4V1720.7M1051.68 1617.4H1154.98M1051.68 1720.7V1824M1051.68 1720.7H1154.98M1051.68 1824H1154.98M1154.98 -242V-138.7M1154.98 -242H1258.27M1154.98 -138.7V-35.4M1154.98 -138.7H1258.27M1154.98 -35.4V67.9M1154.98 -35.4H1258.27M1154.98 67.9V171.2M1154.98 67.9H1258.27M1154.98 171.2V274.5M1154.98 171.2H1258.27M1154.98 274.5V377.8M1154.98 274.5H1258.27M1154.98 377.8V481.1M1154.98 377.8H1258.27M1154.98 481.1V584.4M1154.98 481.1H1258.27M1154.98 584.4V687.7M1154.98 584.4H1258.27M1154.98 687.7V791M1154.98 687.7H1258.27M1154.98 791V894.3M1154.98 791H1258.27M1154.98 894.3V997.6M1154.98 894.3H1258.27M1154.98 997.6V1100.9M1154.98 997.6H1258.27M1154.98 1100.9V1204.2M1154.98 1100.9H1258.27M1154.98 1204.2V1307.5M1154.98 1204.2H1258.27M1154.98 1307.5V1410.8M1154.98 1307.5H1258.27M1154.98 1410.8V1514.1M1154.98 1410.8H1258.27M1154.98 1514.1V1617.4M1154.98 1514.1H1258.27M1154.98 1617.4V1720.7M1154.98 1617.4H1258.27M1154.98 1720.7V1824M1154.98 1720.7H1258.27M1154.98 1824H1258.27M1258.27 -242V-138.7M1258.27 -242H1361.57M1258.27 -138.7V-35.4M1258.27 -138.7H1361.57M1258.27 -35.4V67.9M1258.27 -35.4H1361.57M1258.27 67.9V171.2M1258.27 67.9H1361.57M1258.27 171.2V274.5M1258.27 171.2H1361.57M1258.27 274.5V377.8M1258.27 274.5H1361.57M1258.27 377.8V481.1M1258.27 377.8H1361.57M1258.27 481.1V584.4M1258.27 481.1H1361.57M1258.27 584.4V687.7M1258.27 584.4H1361.57M1258.27 687.7V791M1258.27 687.7H1361.57M1258.27 791V894.3M1258.27 791H1361.57M1258.27 894.3V997.6M1258.27 894.3H1361.57M1258.27 997.6V1100.9M1258.27 997.6H1361.57M1258.27 1100.9V1204.2M1258.27 1100.9H1361.57M1258.27 1204.2V1307.5M1258.27 1204.2H1361.57M1258.27 1307.5V1410.8M1258.27 1307.5H1361.57M1258.27 1410.8V1514.1M1258.27 1410.8H1361.57M1258.27 1514.1V1617.4M1258.27 1514.1H1361.57M1258.27 1617.4V1720.7M1258.27 1617.4H1361.57M1258.27 1720.7V1824M1258.27 1720.7H1361.57M1258.27 1824H1361.57M1361.57 -242V-138.7M1361.57 -242H1464.86M1361.57 -138.7V-35.4M1361.57 -138.7H1464.86M1361.57 -35.4V67.9M1361.57 -35.4H1464.86M1361.57 67.9V171.2M1361.57 67.9H1464.86M1361.57 171.2V274.5M1361.57 171.2H1464.86M1361.57 274.5V377.8M1361.57 274.5H1464.86M1361.57 377.8V481.1M1361.57 377.8H1464.86M1361.57 481.1V584.4M1361.57 481.1H1464.86M1361.57 584.4V687.7M1361.57 584.4H1464.86M1361.57 687.7V791M1361.57 687.7H1464.86M1361.57 791V894.3M1361.57 791H1464.86M1361.57 894.3V997.6M1361.57 894.3H1464.86M1361.57 997.6V1100.9M1361.57 997.6H1464.86M1361.57 1100.9V1204.2M1361.57 1100.9H1464.86M1361.57 1204.2V1307.5M1361.57 1204.2H1464.86M1361.57 1307.5V1410.8M1361.57 1307.5H1464.86M1361.57 1410.8V1514.1M1361.57 1410.8H1464.86M1361.57 1514.1V1617.4M1361.57 1514.1H1464.86M1361.57 1617.4V1720.7M1361.57 1617.4H1464.86M1361.57 1720.7V1824M1361.57 1720.7H1464.86M1361.57 1824H1464.86M1464.86 -242V-138.7M1464.86 -242H1568.16M1464.86 -138.7V-35.4M1464.86 -138.7H1568.16M1464.86 -35.4V67.9M1464.86 -35.4H1568.16M1464.86 67.9V171.2M1464.86 67.9H1568.16M1464.86 171.2V274.5M1464.86 171.2H1568.16M1464.86 274.5V377.8M1464.86 274.5H1568.16M1464.86 377.8V481.1M1464.86 377.8H1568.16M1464.86 481.1V584.4M1464.86 481.1H1568.16M1464.86 584.4V687.7M1464.86 584.4H1568.16M1464.86 687.7V791M1464.86 687.7H1568.16M1464.86 791V894.3M1464.86 791H1568.16M1464.86 894.3V997.6M1464.86 894.3H1568.16M1464.86 997.6V1100.9M1464.86 997.6H1568.16M1464.86 1100.9V1204.2M1464.86 1100.9H1568.16M1464.86 1204.2V1307.5M1464.86 1204.2H1568.16M1464.86 1307.5V1410.8M1464.86 1307.5H1568.16M1464.86 1410.8V1514.1M1464.86 1410.8H1568.16M1464.86 1514.1V1617.4M1464.86 1514.1H1568.16M1464.86 1617.4V1720.7M1464.86 1617.4H1568.16M1464.86 1720.7V1824M1464.86 1720.7H1568.16M1464.86 1824H1568.16M1568.16 -242V-138.7M1568.16 -242H1671.45M1568.16 -138.7V-35.4M1568.16 -138.7H1671.45M1568.16 -35.4V67.9M1568.16 -35.4H1671.45M1568.16 67.9V171.2M1568.16 67.9H1671.45M1568.16 171.2V274.5M1568.16 171.2H1671.45M1568.16 274.5V377.8M1568.16 274.5H1671.45M1568.16 377.8V481.1M1568.16 377.8H1671.45M1568.16 481.1V584.4M1568.16 481.1H1671.45M1568.16 584.4V687.7M1568.16 584.4H1671.45M1568.16 687.7V791M1568.16 687.7H1671.45M1568.16 791V894.3M1568.16 791H1671.45M1568.16 894.3V997.6M1568.16 894.3H1671.45M1568.16 997.6V1100.9M1568.16 997.6H1671.45M1568.16 1100.9V1204.2M1568.16 1100.9H1671.45M1568.16 1204.2V1307.5M1568.16 1204.2H1671.45M1568.16 1307.5V1410.8M1568.16 1307.5H1671.45M1568.16 1410.8V1514.1M1568.16 1410.8H1671.45M1568.16 1514.1V1617.4M1568.16 1514.1H1671.45M1568.16 1617.4V1720.7M1568.16 1617.4H1671.45M1568.16 1720.7V1824M1568.16 1720.7H1671.45M1568.16 1824H1671.45M1671.45 -242V-138.7M1671.45 -242H1774.75M1671.45 -138.7V-35.4M1671.45 -138.7H1774.75M1671.45 -35.4V67.9M1671.45 -35.4H1774.75M1671.45 67.9V171.2M1671.45 67.9H1774.75M1671.45 171.2V274.5M1671.45 171.2H1774.75M1671.45 274.5V377.8M1671.45 274.5H1774.75M1671.45 377.8V481.1M1671.45 377.8H1774.75M1671.45 481.1V584.4M1671.45 481.1H1774.75M1671.45 584.4V687.7M1671.45 584.4H1774.75M1671.45 687.7V791M1671.45 687.7H1774.75M1671.45 791V894.3M1671.45 791H1774.75M1671.45 894.3V997.6M1671.45 894.3H1774.75M1671.45 997.6V1100.9M1671.45 997.6H1774.75M1671.45 1100.9V1204.2M1671.45 1100.9H1774.75M1671.45 1204.2V1307.5M1671.45 1204.2H1774.75M1671.45 1307.5V1410.8M1671.45 1307.5H1774.75M1671.45 1410.8V1514.1M1671.45 1410.8H1774.75M1671.45 1514.1V1617.4M1671.45 1514.1H1774.75M1671.45 1617.4V1720.7M1671.45 1617.4H1774.75M1671.45 1720.7V1824M1671.45 1720.7H1774.75M1671.45 1824H1774.75M1774.75 -242V-138.7M1774.75 -242H1878.05M1774.75 -138.7V-35.4M1774.75 -138.7H1878.05M1774.75 -35.4V67.9M1774.75 -35.4H1878.05M1774.75 67.9V171.2M1774.75 67.9H1878.05M1774.75 171.2V274.5M1774.75 171.2H1878.05M1774.75 274.5V377.8M1774.75 274.5H1878.05M1774.75 377.8V481.1M1774.75 377.8H1878.05M1774.75 481.1V584.4M1774.75 481.1H1878.05M1774.75 584.4V687.7M1774.75 584.4H1878.05M1774.75 687.7V791M1774.75 687.7H1878.05M1774.75 791V894.3M1774.75 791H1878.05M1774.75 894.3V997.6M1774.75 894.3H1878.05M1774.75 997.6V1100.9M1774.75 997.6H1878.05M1774.75 1100.9V1204.2M1774.75 1100.9H1878.05M1774.75 1204.2V1307.5M1774.75 1204.2H1878.05M1774.75 1307.5V1410.8M1774.75 1307.5H1878.05M1774.75 1410.8V1514.1M1774.75 1410.8H1878.05M1774.75 1514.1V1617.4M1774.75 1514.1H1878.05M1774.75 1617.4V1720.7M1774.75 1617.4H1878.05M1774.75 1720.7V1824M1774.75 1720.7H1878.05M1774.75 1824H1878.05M1878.05 -242V-138.7M1878.05 -242H1981.34M1878.05 -138.7V-35.4M1878.05 -138.7H1981.34M1878.05 -35.4V67.9M1878.05 -35.4H1981.34M1878.05 67.9V171.2M1878.05 67.9H1981.34M1878.05 171.2V274.5M1878.05 171.2H1981.34M1878.05 274.5V377.8M1878.05 274.5H1981.34M1878.05 377.8V481.1M1878.05 377.8H1981.34M1878.05 481.1V584.4M1878.05 481.1H1981.34M1878.05 584.4V687.7M1878.05 584.4H1981.34M1878.05 687.7V791M1878.05 687.7H1981.34M1878.05 791V894.3M1878.05 791H1981.34M1878.05 894.3V997.6M1878.05 894.3H1981.34M1878.05 997.6V1100.9M1878.05 997.6H1981.34M1878.05 1100.9V1204.2M1878.05 1100.9H1981.34M1878.05 1204.2V1307.5M1878.05 1204.2H1981.34M1878.05 1307.5V1410.8M1878.05 1307.5H1981.34M1878.05 1410.8V1514.1M1878.05 1410.8H1981.34M1878.05 1514.1V1617.4M1878.05 1514.1H1981.34M1878.05 1617.4V1720.7M1878.05 1617.4H1981.34M1878.05 1720.7V1824M1878.05 1720.7H1981.34M1878.05 1824H1981.34M1981.34 -242V-138.7M1981.34 -242H2084.64M1981.34 -138.7V-35.4M1981.34 -138.7H2084.64M1981.34 -35.4V67.9M1981.34 -35.4H2084.64M1981.34 67.9V171.2M1981.34 67.9H2084.64M1981.34 171.2V274.5M1981.34 171.2H2084.64M1981.34 274.5V377.8M1981.34 274.5H2084.64M1981.34 377.8V481.1M1981.34 377.8H2084.64M1981.34 481.1V584.4M1981.34 481.1H2084.64M1981.34 584.4V687.7M1981.34 584.4H2084.64M1981.34 687.7V791M1981.34 687.7H2084.64M1981.34 791V894.3M1981.34 791H2084.64M1981.34 894.3V997.6M1981.34 894.3H2084.64M1981.34 997.6V1100.9M1981.34 997.6H2084.64M1981.34 1100.9V1204.2M1981.34 1100.9H2084.64M1981.34 1204.2V1307.5M1981.34 1204.2H2084.64M1981.34 1307.5V1410.8M1981.34 1307.5H2084.64M1981.34 1410.8V1514.1M1981.34 1410.8H2084.64M1981.34 1514.1V1617.4M1981.34 1514.1H2084.64M1981.34 1617.4V1720.7M1981.34 1617.4H2084.64M1981.34 1720.7V1824M1981.34 1720.7H2084.64M1981.34 1824H2084.64M2084.64 -242V-138.7M2084.64 -242H2187.93M2084.64 -138.7V-35.4M2084.64 -138.7H2187.93M2084.64 -35.4V67.9M2084.64 -35.4H2187.93M2084.64 67.9V171.2M2084.64 67.9H2187.93M2084.64 171.2V274.5M2084.64 171.2H2187.93M2084.64 274.5V377.8M2084.64 274.5H2187.93M2084.64 377.8V481.1M2084.64 377.8H2187.93M2084.64 481.1V584.4M2084.64 481.1H2187.93M2084.64 584.4V687.7M2084.64 584.4H2187.93M2084.64 687.7V791M2084.64 687.7H2187.93M2084.64 791V894.3M2084.64 791H2187.93M2084.64 894.3V997.6M2084.64 894.3H2187.93M2084.64 997.6V1100.9M2084.64 997.6H2187.93M2084.64 1100.9V1204.2M2084.64 1100.9H2187.93M2084.64 1204.2V1307.5M2084.64 1204.2H2187.93M2084.64 1307.5V1410.8M2084.64 1307.5H2187.93M2084.64 1410.8V1514.1M2084.64 1410.8H2187.93M2084.64 1514.1V1617.4M2084.64 1514.1H2187.93M2084.64 1617.4V1720.7M2084.64 1617.4H2187.93M2084.64 1720.7V1824M2084.64 1720.7H2187.93M2084.64 1824H2187.93M2187.93 -242V-138.7M2187.93 -242H2291.23M2187.93 -138.7V-35.4M2187.93 -138.7H2291.23M2187.93 -35.4V67.9M2187.93 -35.4H2291.23M2187.93 67.9V171.2M2187.93 67.9H2291.23M2187.93 171.2V274.5M2187.93 171.2H2291.23M2187.93 274.5V377.8M2187.93 274.5H2291.23M2187.93 377.8V481.1M2187.93 377.8H2291.23M2187.93 481.1V584.4M2187.93 481.1H2291.23M2187.93 584.4V687.7M2187.93 584.4H2291.23M2187.93 687.7V791M2187.93 687.7H2291.23M2187.93 791V894.3M2187.93 791H2291.23M2187.93 894.3V997.6M2187.93 894.3H2291.23M2187.93 997.6V1100.9M2187.93 997.6H2291.23M2187.93 1100.9V1204.2M2187.93 1100.9H2291.23M2187.93 1204.2V1307.5M2187.93 1204.2H2291.23M2187.93 1307.5V1410.8M2187.93 1307.5H2291.23M2187.93 1410.8V1514.1M2187.93 1410.8H2291.23M2187.93 1514.1V1617.4M2187.93 1514.1H2291.23M2187.93 1617.4V1720.7M2187.93 1617.4H2291.23M2187.93 1720.7V1824M2187.93 1720.7H2291.23M2187.93 1824H2291.23M2291.23 -242V-138.7M2291.23 -242H2394.52M2291.23 -138.7V-35.4M2291.23 -138.7H2394.52M2291.23 -35.4V67.9M2291.23 -35.4H2394.52M2291.23 67.9V171.2M2291.23 67.9H2394.52M2291.23 171.2V274.5M2291.23 171.2H2394.52M2291.23 274.5V377.8M2291.23 274.5H2394.52M2291.23 377.8V481.1M2291.23 377.8H2394.52M2291.23 481.1V584.4M2291.23 481.1H2394.52M2291.23 584.4V687.7M2291.23 584.4H2394.52M2291.23 687.7V791M2291.23 687.7H2394.52M2291.23 791V894.3M2291.23 791H2394.52M2291.23 894.3V997.6M2291.23 894.3H2394.52M2291.23 997.6V1100.9M2291.23 997.6H2394.52M2291.23 1100.9V1204.2M2291.23 1100.9H2394.52M2291.23 1204.2V1307.5M2291.23 1204.2H2394.52M2291.23 1307.5V1410.8M2291.23 1307.5H2394.52M2291.23 1410.8V1514.1M2291.23 1410.8H2394.52M2291.23 1514.1V1617.4M2291.23 1514.1H2394.52M2291.23 1617.4V1720.7M2291.23 1617.4H2394.52M2291.23 1720.7V1824M2291.23 1720.7H2394.52M2291.23 1824H2394.52M2394.52 -242V-138.7M2394.52 -242H2497.82M2394.52 -138.7V-35.4M2394.52 -138.7H2497.82M2394.52 -35.4V67.9M2394.52 -35.4H2497.82M2394.52 67.9V171.2M2394.52 67.9H2497.82M2394.52 171.2V274.5M2394.52 171.2H2497.82M2394.52 274.5V377.8M2394.52 274.5H2497.82M2394.52 377.8V481.1M2394.52 377.8H2497.82M2394.52 481.1V584.4M2394.52 481.1H2497.82M2394.52 584.4V687.7M2394.52 584.4H2497.82M2394.52 687.7V791M2394.52 687.7H2497.82M2394.52 791V894.3M2394.52 791H2497.82M2394.52 894.3V997.6M2394.52 894.3H2497.82M2394.52 997.6V1100.9M2394.52 997.6H2497.82M2394.52 1100.9V1204.2M2394.52 1100.9H2497.82M2394.52 1204.2V1307.5M2394.52 1204.2H2497.82M2394.52 1307.5V1410.8M2394.52 1307.5H2497.82M2394.52 1410.8V1514.1M2394.52 1410.8H2497.82M2394.52 1514.1V1617.4M2394.52 1514.1H2497.82M2394.52 1617.4V1720.7M2394.52 1617.4H2497.82M2394.52 1720.7V1824M2394.52 1720.7H2497.82M2394.52 1824H2497.82M2497.82 -242V-138.7M2497.82 -242H2601.11M2497.82 -138.7V-35.4M2497.82 -138.7H2601.11M2497.82 -35.4V67.9M2497.82 -35.4H2601.11M2497.82 67.9V171.2M2497.82 67.9H2601.11M2497.82 171.2V274.5M2497.82 171.2H2601.11M2497.82 274.5V377.8M2497.82 274.5H2601.11M2497.82 377.8V481.1M2497.82 377.8H2601.11M2497.82 481.1V584.4M2497.82 481.1H2601.11M2497.82 584.4V687.7M2497.82 584.4H2601.11M2497.82 687.7V791M2497.82 687.7H2601.11M2497.82 791V894.3M2497.82 791H2601.11M2497.82 894.3V997.6M2497.82 894.3H2601.11M2497.82 997.6V1100.9M2497.82 997.6H2601.11M2497.82 1100.9V1204.2M2497.82 1100.9H2601.11M2497.82 1204.2V1307.5M2497.82 1204.2H2601.11M2497.82 1307.5V1410.8M2497.82 1307.5H2601.11M2497.82 1410.8V1514.1M2497.82 1410.8H2601.11M2497.82 1514.1V1617.4M2497.82 1514.1H2601.11M2497.82 1617.4V1720.7M2497.82 1617.4H2601.11M2497.82 1720.7V1824M2497.82 1720.7H2601.11M2497.82 1824H2601.11M2601.11 -242V-138.7M2601.11 -242H2704.41M2601.11 -138.7V-35.4M2601.11 -138.7H2704.41M2601.11 -35.4V67.9M2601.11 -35.4H2704.41M2601.11 67.9V171.2M2601.11 67.9H2704.41M2601.11 171.2V274.5M2601.11 171.2H2704.41M2601.11 274.5V377.8M2601.11 274.5H2704.41M2601.11 377.8V481.1M2601.11 377.8H2704.41M2601.11 481.1V584.4M2601.11 481.1H2704.41M2601.11 584.4V687.7M2601.11 584.4H2704.41M2601.11 687.7V791M2601.11 687.7H2704.41M2601.11 791V894.3M2601.11 791H2704.41M2601.11 894.3V997.6M2601.11 894.3H2704.41M2601.11 997.6V1100.9M2601.11 997.6H2704.41M2601.11 1100.9V1204.2M2601.11 1100.9H2704.41M2601.11 1204.2V1307.5M2601.11 1204.2H2704.41M2601.11 1307.5V1410.8M2601.11 1307.5H2704.41M2601.11 1410.8V1514.1M2601.11 1410.8H2704.41M2601.11 1514.1V1617.4M2601.11 1514.1H2704.41M2601.11 1617.4V1720.7M2601.11 1617.4H2704.41M2601.11 1720.7V1824M2601.11 1720.7H2704.41M2601.11 1824H2704.41M2704.41 -242V-138.7M2704.41 -242H2807.7M2704.41 -138.7V-35.4M2704.41 -138.7H2807.7M2704.41 -35.4V67.9M2704.41 -35.4H2807.7M2704.41 67.9V171.2M2704.41 67.9H2807.7M2704.41 171.2V274.5M2704.41 171.2H2807.7M2704.41 274.5V377.8M2704.41 274.5H2807.7M2704.41 377.8V481.1M2704.41 377.8H2807.7M2704.41 481.1V584.4M2704.41 481.1H2807.7M2704.41 584.4V687.7M2704.41 584.4H2807.7M2704.41 687.7V791M2704.41 687.7H2807.7M2704.41 791V894.3M2704.41 791H2807.7M2704.41 894.3V997.6M2704.41 894.3H2807.7M2704.41 997.6V1100.9M2704.41 997.6H2807.7M2704.41 1100.9V1204.2M2704.41 1100.9H2807.7M2704.41 1204.2V1307.5M2704.41 1204.2H2807.7M2704.41 1307.5V1410.8M2704.41 1307.5H2807.7M2704.41 1410.8V1514.1M2704.41 1410.8H2807.7M2704.41 1514.1V1617.4M2704.41 1514.1H2807.7M2704.41 1617.4V1720.7M2704.41 1617.4H2807.7M2704.41 1720.7V1824M2704.41 1720.7H2807.7M2704.41 1824H2807.7M2807.7 -242V-138.7M2807.7 -242H2911V-138.7M2807.7 -138.7V-35.4M2807.7 -138.7H2911M2807.7 -35.4V67.9M2807.7 -35.4H2911M2807.7 67.9V171.2M2807.7 67.9H2911M2807.7 171.2V274.5M2807.7 171.2H2911M2807.7 274.5V377.8M2807.7 274.5H2911M2807.7 377.8V481.1M2807.7 377.8H2911M2807.7 481.1V584.4M2807.7 481.1H2911M2807.7 584.4V687.7M2807.7 584.4H2911M2807.7 687.7V791M2807.7 687.7H2911M2807.7 791V894.3M2807.7 791H2911M2807.7 894.3V997.6M2807.7 894.3H2911M2807.7 997.6V1100.9M2807.7 997.6H2911M2807.7 1100.9V1204.2M2807.7 1100.9H2911M2807.7 1204.2V1307.5M2807.7 1204.2H2911M2807.7 1307.5V1410.8M2807.7 1307.5H2911M2807.7 1410.8V1514.1M2807.7 1410.8H2911M2807.7 1514.1V1617.4M2807.7 1514.1H2911M2807.7 1617.4V1720.7M2807.7 1617.4H2911M2807.7 1720.7V1824M2807.7 1720.7H2911M2807.7 1824H2911V1720.7M2911 -138.7V-35.4M2911 -35.4V67.9M2911 67.9V171.2M2911 171.2V274.5M2911 274.5V377.8M2911 377.8V481.1M2911 481.1V584.4M2911 584.4V687.7M2911 687.7V791M2911 791V894.3M2911 894.3V997.6M2911 997.6V1100.9M2911 1100.9V1204.2M2911 1204.2V1307.5M2911 1307.5V1410.8M2911 1410.8V1514.1M2911 1514.1V1617.4M2911 1617.4V1720.7" stroke="url(#paint0_radial_675_86)" stroke-width="0.804612"/>
<g opacity="0.25" filter="url(#filter0_f_675_86)">
<rect x="142" y="433" width="303" height="369" transform="rotate(180 142 433)" fill="#0CBAFF"/>
</g>
<g opacity="0.2" filter="url(#filter1_f_675_86)">
<rect x="-356" y="542" width="485" height="365" fill="#84FFD3"/>
</g>
<g filter="url(#filter2_f_675_86)">
<rect width="716" height="326" transform="matrix(1 0 0 -1 -227 340)" fill="#200495"/>
</g>
<g filter="url(#filter3_f_675_86)">
<rect x="1024" y="340" width="535" height="195" transform="rotate(180 1024 340)" fill="#200495"/>
</g>
<g opacity="0.25" filter="url(#filter4_f_675_86)">
<rect x="1147" y="340" width="677" height="466" transform="rotate(180 1147 340)" fill="#0CBAFF"/>
</g>
</g>
<defs>
<filter id="filter0_f_675_86" x="-561" y="-336" width="1103" height="1169" filterUnits="userSpaceOnUse" color-interpolation-filters="sRGB">
<feFlood flood-opacity="0" result="BackgroundImageFix"/>
<feBlend mode="normal" in="SourceGraphic" in2="BackgroundImageFix" result="shape"/>
<feGaussianBlur stdDeviation="200" result="effect1_foregroundBlur_675_86"/>
</filter>
<filter id="filter1_f_675_86" x="-756" y="142" width="1285" height="1165" filterUnits="userSpaceOnUse" color-interpolation-filters="sRGB">
<feFlood flood-opacity="0" result="BackgroundImageFix"/>
<feBlend mode="normal" in="SourceGraphic" in2="BackgroundImageFix" result="shape"/>
<feGaussianBlur stdDeviation="200" result="effect1_foregroundBlur_675_86"/>
</filter>
<filter id="filter2_f_675_86" x="-627" y="-386" width="1516" height="1126" filterUnits="userSpaceOnUse" color-interpolation-filters="sRGB">
<feFlood flood-opacity="0" result="BackgroundImageFix"/>
<feBlend mode="normal" in="SourceGraphic" in2="BackgroundImageFix" result="shape"/>
<feGaussianBlur stdDeviation="200" result="effect1_foregroundBlur_675_86"/>
</filter>
<filter id="filter3_f_675_86" x="89" y="-255" width="1335" height="995" filterUnits="userSpaceOnUse" color-interpolation-filters="sRGB">
<feFlood flood-opacity="0" result="BackgroundImageFix"/>
<feBlend mode="normal" in="SourceGraphic" in2="BackgroundImageFix" result="shape"/>
<feGaussianBlur stdDeviation="200" result="effect1_foregroundBlur_675_86"/>
</filter>
<filter id="filter4_f_675_86" x="70" y="-526" width="1477" height="1266" filterUnits="userSpaceOnUse" color-interpolation-filters="sRGB">
<feFlood flood-opacity="0" result="BackgroundImageFix"/>
<feBlend mode="normal" in="SourceGraphic" in2="BackgroundImageFix" result="shape"/>
<feGaussianBlur stdDeviation="200" result="effect1_foregroundBlur_675_86"/>
</filter>
<radialGradient id="paint0_radial_675_86" cx="0" cy="0" r="1" gradientUnits="userSpaceOnUse" gradientTransform="translate(365 -8.99998) rotate(90) scale(398 875.561)">
<stop stop-color="#230394" stop-opacity="0.5"/>
<stop offset="0.368559" stop-color="#E3DFF1" stop-opacity="0.936629"/>
<stop offset="0.622977" stop-color="white"/>
<stop offset="1" stop-color="#230394" stop-opacity="0.5"/>
</radialGradient>
<clipPath id="clip0_675_86">
<rect width="768" height="300" fill="white"/>
</clipPath>
</defs>
</svg>
