<svg width="1440" height="400" viewBox="0 0 1440 400" fill="none" xmlns="http://www.w3.org/2000/svg">
<g clip-path="url(#clip0_675_154)">
<rect width="1440" height="400" fill="#200093"/>
<path opacity="0.2" d="M-1194.7 -242H-1298V-138.7M-1194.7 -242V-138.7M-1194.7 -242H-1091.41M-1194.7 -138.7H-1298M-1194.7 -138.7V-35.4M-1194.7 -138.7H-1091.41M-1298 -138.7V-35.4M-1194.7 -35.4H-1298M-1194.7 -35.4V67.9M-1194.7 -35.4H-1091.41M-1298 -35.4V67.9M-1194.7 67.9H-1298M-1194.7 67.9V171.2M-1194.7 67.9H-1091.41M-1298 67.9V171.2M-1194.7 171.2H-1298M-1194.7 171.2V274.5M-1194.7 171.2H-1091.41M-1298 171.2V274.5M-1194.7 274.5H-1298M-1194.7 274.5V377.8M-1194.7 274.5H-1091.41M-1298 274.5V377.8M-1194.7 377.8H-1298M-1194.7 377.8V481.1M-1194.7 377.8H-1091.41M-1298 377.8V481.1M-1194.7 481.1H-1298M-1194.7 481.1V584.4M-1194.7 481.1H-1091.41M-1298 481.1V584.4M-1194.7 584.4H-1298M-1194.7 584.4V687.7M-1194.7 584.4H-1091.41M-1298 584.4V687.7M-1194.7 687.7H-1298M-1194.7 687.7V791M-1194.7 687.7H-1091.41M-1298 687.7V791M-1194.7 791H-1298M-1194.7 791V894.3M-1194.7 791H-1091.41M-1298 791V894.3M-1194.7 894.3H-1298M-1194.7 894.3V997.6M-1194.7 894.3H-1091.41M-1298 894.3V997.6M-1194.7 997.6H-1298M-1194.7 997.6V1100.9M-1194.7 997.6H-1091.41M-1298 997.6V1100.9M-1194.7 1100.9H-1298M-1194.7 1100.9V1204.2M-1194.7 1100.9H-1091.41M-1298 1100.9V1204.2M-1194.7 1204.2H-1298M-1194.7 1204.2V1307.5M-1194.7 1204.2H-1091.41M-1298 1204.2V1307.5M-1194.7 1307.5H-1298M-1194.7 1307.5V1410.8M-1194.7 1307.5H-1091.41M-1298 1307.5V1410.8M-1194.7 1410.8H-1298M-1194.7 1410.8V1514.1M-1194.7 1410.8H-1091.41M-1298 1410.8V1514.1M-1194.7 1514.1H-1298M-1194.7 1514.1V1617.4M-1194.7 1514.1H-1091.41M-1298 1514.1V1617.4M-1194.7 1617.4H-1298M-1194.7 1617.4V1720.7M-1194.7 1617.4H-1091.41M-1298 1617.4V1720.7M-1194.7 1720.7H-1298M-1194.7 1720.7V1824M-1194.7 1720.7H-1091.41M-1298 1720.7V1824H-1194.7M-1194.7 1824H-1091.41M-1091.41 -242V-138.7M-1091.41 -242H-988.114M-1091.41 -138.7V-35.4M-1091.41 -138.7H-988.114M-1091.41 -35.4V67.9M-1091.41 -35.4H-988.114M-1091.41 67.9V171.2M-1091.41 67.9H-988.114M-1091.41 171.2V274.5M-1091.41 171.2H-988.114M-1091.41 274.5V377.8M-1091.41 274.5H-988.114M-1091.41 377.8V481.1M-1091.41 377.8H-988.114M-1091.41 481.1V584.4M-1091.41 481.1H-988.114M-1091.41 584.4V687.7M-1091.41 584.4H-988.114M-1091.41 687.7V791M-1091.41 687.7H-988.114M-1091.41 791V894.3M-1091.41 791H-988.114M-1091.41 894.3V997.6M-1091.41 894.3H-988.114M-1091.41 997.6V1100.9M-1091.41 997.6H-988.114M-1091.41 1100.9V1204.2M-1091.41 1100.9H-988.114M-1091.41 1204.2V1307.5M-1091.41 1204.2H-988.114M-1091.41 1307.5V1410.8M-1091.41 1307.5H-988.114M-1091.41 1410.8V1514.1M-1091.41 1410.8H-988.114M-1091.41 1514.1V1617.4M-1091.41 1514.1H-988.114M-1091.41 1617.4V1720.7M-1091.41 1617.4H-988.114M-1091.41 1720.7V1824M-1091.41 1720.7H-988.114M-1091.41 1824H-988.114M-988.114 -242V-138.7M-988.114 -242H-884.818M-988.114 -138.7V-35.4M-988.114 -138.7H-884.818M-988.114 -35.4V67.9M-988.114 -35.4H-884.818M-988.114 67.9V171.2M-988.114 67.9H-884.818M-988.114 171.2V274.5M-988.114 171.2H-884.818M-988.114 274.5V377.8M-988.114 274.5H-884.818M-988.114 377.8V481.1M-988.114 377.8H-884.818M-988.114 481.1V584.4M-988.114 481.1H-884.818M-988.114 584.4V687.7M-988.114 584.4H-884.818M-988.114 687.7V791M-988.114 687.7H-884.818M-988.114 791V894.3M-988.114 791H-884.818M-988.114 894.3V997.6M-988.114 894.3H-884.818M-988.114 997.6V1100.9M-988.114 997.6H-884.818M-988.114 1100.9V1204.2M-988.114 1100.9H-884.818M-988.114 1204.2V1307.5M-988.114 1204.2H-884.818M-988.114 1307.5V1410.8M-988.114 1307.5H-884.818M-988.114 1410.8V1514.1M-988.114 1410.8H-884.818M-988.114 1514.1V1617.4M-988.114 1514.1H-884.818M-988.114 1617.4V1720.7M-988.114 1617.4H-884.818M-988.114 1720.7V1824M-988.114 1720.7H-884.818M-988.114 1824H-884.818M-884.818 -242V-138.7M-884.818 -242H-781.523M-884.818 -138.7V-35.4M-884.818 -138.7H-781.523M-884.818 -35.4V67.9M-884.818 -35.4H-781.523M-884.818 67.9V171.2M-884.818 67.9H-781.523M-884.818 171.2V274.5M-884.818 171.2H-781.523M-884.818 274.5V377.8M-884.818 274.5H-781.523M-884.818 377.8V481.1M-884.818 377.8H-781.523M-884.818 481.1V584.4M-884.818 481.1H-781.523M-884.818 584.4V687.7M-884.818 584.4H-781.523M-884.818 687.7V791M-884.818 687.7H-781.523M-884.818 791V894.3M-884.818 791H-781.523M-884.818 894.3V997.6M-884.818 894.3H-781.523M-884.818 997.6V1100.9M-884.818 997.6H-781.523M-884.818 1100.9V1204.2M-884.818 1100.9H-781.523M-884.818 1204.2V1307.5M-884.818 1204.2H-781.523M-884.818 1307.5V1410.8M-884.818 1307.5H-781.523M-884.818 1410.8V1514.1M-884.818 1410.8H-781.523M-884.818 1514.1V1617.4M-884.818 1514.1H-781.523M-884.818 1617.4V1720.7M-884.818 1617.4H-781.523M-884.818 1720.7V1824M-884.818 1720.7H-781.523M-884.818 1824H-781.523M-781.523 -242V-138.7M-781.523 -242H-678.227M-781.523 -138.7V-35.4M-781.523 -138.7H-678.227M-781.523 -35.4V67.9M-781.523 -35.4H-678.227M-781.523 67.9V171.2M-781.523 67.9H-678.227M-781.523 171.2V274.5M-781.523 171.2H-678.227M-781.523 274.5V377.8M-781.523 274.5H-678.227M-781.523 377.8V481.1M-781.523 377.8H-678.227M-781.523 481.1V584.4M-781.523 481.1H-678.227M-781.523 584.4V687.7M-781.523 584.4H-678.227M-781.523 687.7V791M-781.523 687.7H-678.227M-781.523 791V894.3M-781.523 791H-678.227M-781.523 894.3V997.6M-781.523 894.3H-678.227M-781.523 997.6V1100.9M-781.523 997.6H-678.227M-781.523 1100.9V1204.2M-781.523 1100.9H-678.227M-781.523 1204.2V1307.5M-781.523 1204.2H-678.227M-781.523 1307.5V1410.8M-781.523 1307.5H-678.227M-781.523 1410.8V1514.1M-781.523 1410.8H-678.227M-781.523 1514.1V1617.4M-781.523 1514.1H-678.227M-781.523 1617.4V1720.7M-781.523 1617.4H-678.227M-781.523 1720.7V1824M-781.523 1720.7H-678.227M-781.523 1824H-678.227M-678.227 -242V-138.7M-678.227 -242H-574.932M-678.227 -138.7V-35.4M-678.227 -138.7H-574.932M-678.227 -35.4V67.9M-678.227 -35.4H-574.932M-678.227 67.9V171.2M-678.227 67.9H-574.932M-678.227 171.2V274.5M-678.227 171.2H-574.932M-678.227 274.5V377.8M-678.227 274.5H-574.932M-678.227 377.8V481.1M-678.227 377.8H-574.932M-678.227 481.1V584.4M-678.227 481.1H-574.932M-678.227 584.4V687.7M-678.227 584.4H-574.932M-678.227 687.7V791M-678.227 687.7H-574.932M-678.227 791V894.3M-678.227 791H-574.932M-678.227 894.3V997.6M-678.227 894.3H-574.932M-678.227 997.6V1100.9M-678.227 997.6H-574.932M-678.227 1100.9V1204.2M-678.227 1100.9H-574.932M-678.227 1204.2V1307.5M-678.227 1204.2H-574.932M-678.227 1307.5V1410.8M-678.227 1307.5H-574.932M-678.227 1410.8V1514.1M-678.227 1410.8H-574.932M-678.227 1514.1V1617.4M-678.227 1514.1H-574.932M-678.227 1617.4V1720.7M-678.227 1617.4H-574.932M-678.227 1720.7V1824M-678.227 1720.7H-574.932M-678.227 1824H-574.932M-574.932 -242V-138.7M-574.932 -242H-471.636M-574.932 -138.7V-35.4M-574.932 -138.7H-471.636M-574.932 -35.4V67.9M-574.932 -35.4H-471.636M-574.932 67.9V171.2M-574.932 67.9H-471.636M-574.932 171.2V274.5M-574.932 171.2H-471.636M-574.932 274.5V377.8M-574.932 274.5H-471.636M-574.932 377.8V481.1M-574.932 377.8H-471.636M-574.932 481.1V584.4M-574.932 481.1H-471.636M-574.932 584.4V687.7M-574.932 584.4H-471.636M-574.932 687.7V791M-574.932 687.7H-471.636M-574.932 791V894.3M-574.932 791H-471.636M-574.932 894.3V997.6M-574.932 894.3H-471.636M-574.932 997.6V1100.9M-574.932 997.6H-471.636M-574.932 1100.9V1204.2M-574.932 1100.9H-471.636M-574.932 1204.2V1307.5M-574.932 1204.2H-471.636M-574.932 1307.5V1410.8M-574.932 1307.5H-471.636M-574.932 1410.8V1514.1M-574.932 1410.8H-471.636M-574.932 1514.1V1617.4M-574.932 1514.1H-471.636M-574.932 1617.4V1720.7M-574.932 1617.4H-471.636M-574.932 1720.7V1824M-574.932 1720.7H-471.636M-574.932 1824H-471.636M-471.636 -242V-138.7M-471.636 -242H-368.341M-471.636 -138.7V-35.4M-471.636 -138.7H-368.341M-471.636 -35.4V67.9M-471.636 -35.4H-368.341M-471.636 67.9V171.2M-471.636 67.9H-368.341M-471.636 171.2V274.5M-471.636 171.2H-368.341M-471.636 274.5V377.8M-471.636 274.5H-368.341M-471.636 377.8V481.1M-471.636 377.8H-368.341M-471.636 481.1V584.4M-471.636 481.1H-368.341M-471.636 584.4V687.7M-471.636 584.4H-368.341M-471.636 687.7V791M-471.636 687.7H-368.341M-471.636 791V894.3M-471.636 791H-368.341M-471.636 894.3V997.6M-471.636 894.3H-368.341M-471.636 997.6V1100.9M-471.636 997.6H-368.341M-471.636 1100.9V1204.2M-471.636 1100.9H-368.341M-471.636 1204.2V1307.5M-471.636 1204.2H-368.341M-471.636 1307.5V1410.8M-471.636 1307.5H-368.341M-471.636 1410.8V1514.1M-471.636 1410.8H-368.341M-471.636 1514.1V1617.4M-471.636 1514.1H-368.341M-471.636 1617.4V1720.7M-471.636 1617.4H-368.341M-471.636 1720.7V1824M-471.636 1720.7H-368.341M-471.636 1824H-368.341M-368.341 -242V-138.7M-368.341 -242H-265.045M-368.341 -138.7V-35.4M-368.341 -138.7H-265.045M-368.341 -35.4V67.9M-368.341 -35.4H-265.045M-368.341 67.9V171.2M-368.341 67.9H-265.045M-368.341 171.2V274.5M-368.341 171.2H-265.045M-368.341 274.5V377.8M-368.341 274.5H-265.045M-368.341 377.8V481.1M-368.341 377.8H-265.045M-368.341 481.1V584.4M-368.341 481.1H-265.045M-368.341 584.4V687.7M-368.341 584.4H-265.045M-368.341 687.7V791M-368.341 687.7H-265.045M-368.341 791V894.3M-368.341 791H-265.045M-368.341 894.3V997.6M-368.341 894.3H-265.045M-368.341 997.6V1100.9M-368.341 997.6H-265.045M-368.341 1100.9V1204.2M-368.341 1100.9H-265.045M-368.341 1204.2V1307.5M-368.341 1204.2H-265.045M-368.341 1307.5V1410.8M-368.341 1307.5H-265.045M-368.341 1410.8V1514.1M-368.341 1410.8H-265.045M-368.341 1514.1V1617.4M-368.341 1514.1H-265.045M-368.341 1617.4V1720.7M-368.341 1617.4H-265.045M-368.341 1720.7V1824M-368.341 1720.7H-265.045M-368.341 1824H-265.045M-265.045 -242V-138.7M-265.045 -242H-161.75M-265.045 -138.7V-35.4M-265.045 -138.7H-161.75M-265.045 -35.4V67.9M-265.045 -35.4H-161.75M-265.045 67.9V171.2M-265.045 67.9H-161.75M-265.045 171.2V274.5M-265.045 171.2H-161.75M-265.045 274.5V377.8M-265.045 274.5H-161.75M-265.045 377.8V481.1M-265.045 377.8H-161.75M-265.045 481.1V584.4M-265.045 481.1H-161.75M-265.045 584.4V687.7M-265.045 584.4H-161.75M-265.045 687.7V791M-265.045 687.7H-161.75M-265.045 791V894.3M-265.045 791H-161.75M-265.045 894.3V997.6M-265.045 894.3H-161.75M-265.045 997.6V1100.9M-265.045 997.6H-161.75M-265.045 1100.9V1204.2M-265.045 1100.9H-161.75M-265.045 1204.2V1307.5M-265.045 1204.2H-161.75M-265.045 1307.5V1410.8M-265.045 1307.5H-161.75M-265.045 1410.8V1514.1M-265.045 1410.8H-161.75M-265.045 1514.1V1617.4M-265.045 1514.1H-161.75M-265.045 1617.4V1720.7M-265.045 1617.4H-161.75M-265.045 1720.7V1824M-265.045 1720.7H-161.75M-265.045 1824H-161.75M-161.75 -242V-138.7M-161.75 -242H-58.4546M-161.75 -138.7V-35.4M-161.75 -138.7H-58.4546M-161.75 -35.4V67.9M-161.75 -35.4H-58.4546M-161.75 67.9V171.2M-161.75 67.9H-58.4546M-161.75 171.2V274.5M-161.75 171.2H-58.4546M-161.75 274.5V377.8M-161.75 274.5H-58.4546M-161.75 377.8V481.1M-161.75 377.8H-58.4546M-161.75 481.1V584.4M-161.75 481.1H-58.4546M-161.75 584.4V687.7M-161.75 584.4H-58.4546M-161.75 687.7V791M-161.75 687.7H-58.4546M-161.75 791V894.3M-161.75 791H-58.4546M-161.75 894.3V997.6M-161.75 894.3H-58.4546M-161.75 997.6V1100.9M-161.75 997.6H-58.4546M-161.75 1100.9V1204.2M-161.75 1100.9H-58.4546M-161.75 1204.2V1307.5M-161.75 1204.2H-58.4546M-161.75 1307.5V1410.8M-161.75 1307.5H-58.4546M-161.75 1410.8V1514.1M-161.75 1410.8H-58.4546M-161.75 1514.1V1617.4M-161.75 1514.1H-58.4546M-161.75 1617.4V1720.7M-161.75 1617.4H-58.4546M-161.75 1720.7V1824M-161.75 1720.7H-58.4546M-161.75 1824H-58.4546M-58.4546 -242V-138.7M-58.4546 -242H44.8409M-58.4546 -138.7V-35.4M-58.4546 -138.7H44.8409M-58.4546 -35.4V67.9M-58.4546 -35.4H44.8409M-58.4546 67.9V171.2M-58.4546 67.9H44.8409M-58.4546 171.2V274.5M-58.4546 171.2H44.8409M-58.4546 274.5V377.8M-58.4546 274.5H44.8409M-58.4546 377.8V481.1M-58.4546 377.8H44.8409M-58.4546 481.1V584.4M-58.4546 481.1H44.8409M-58.4546 584.4V687.7M-58.4546 584.4H44.8409M-58.4546 687.7V791M-58.4546 687.7H44.8409M-58.4546 791V894.3M-58.4546 791H44.8409M-58.4546 894.3V997.6M-58.4546 894.3H44.8409M-58.4546 997.6V1100.9M-58.4546 997.6H44.8409M-58.4546 1100.9V1204.2M-58.4546 1100.9H44.8409M-58.4546 1204.2V1307.5M-58.4546 1204.2H44.8409M-58.4546 1307.5V1410.8M-58.4546 1307.5H44.8409M-58.4546 1410.8V1514.1M-58.4546 1410.8H44.8409M-58.4546 1514.1V1617.4M-58.4546 1514.1H44.8409M-58.4546 1617.4V1720.7M-58.4546 1617.4H44.8409M-58.4546 1720.7V1824M-58.4546 1720.7H44.8409M-58.4546 1824H44.8409M44.8409 -242V-138.7M44.8409 -242H148.136M44.8409 -138.7V-35.4M44.8409 -138.7H148.136M44.8409 -35.4V67.9M44.8409 -35.4H148.136M44.8409 67.9V171.2M44.8409 67.9H148.136M44.8409 171.2V274.5M44.8409 171.2H148.136M44.8409 274.5V377.8M44.8409 274.5H148.136M44.8409 377.8V481.1M44.8409 377.8H148.136M44.8409 481.1V584.4M44.8409 481.1H148.136M44.8409 584.4V687.7M44.8409 584.4H148.136M44.8409 687.7V791M44.8409 687.7H148.136M44.8409 791V894.3M44.8409 791H148.136M44.8409 894.3V997.6M44.8409 894.3H148.136M44.8409 997.6V1100.9M44.8409 997.6H148.136M44.8409 1100.9V1204.2M44.8409 1100.9H148.136M44.8409 1204.2V1307.5M44.8409 1204.2H148.136M44.8409 1307.5V1410.8M44.8409 1307.5H148.136M44.8409 1410.8V1514.1M44.8409 1410.8H148.136M44.8409 1514.1V1617.4M44.8409 1514.1H148.136M44.8409 1617.4V1720.7M44.8409 1617.4H148.136M44.8409 1720.7V1824M44.8409 1720.7H148.136M44.8409 1824H148.136M148.136 -242V-138.7M148.136 -242H251.432M148.136 -138.7V-35.4M148.136 -138.7H251.432M148.136 -35.4V67.9M148.136 -35.4H251.432M148.136 67.9V171.2M148.136 67.9H251.432M148.136 171.2V274.5M148.136 171.2H251.432M148.136 274.5V377.8M148.136 274.5H251.432M148.136 377.8V481.1M148.136 377.8H251.432M148.136 481.1V584.4M148.136 481.1H251.432M148.136 584.4V687.7M148.136 584.4H251.432M148.136 687.7V791M148.136 687.7H251.432M148.136 791V894.3M148.136 791H251.432M148.136 894.3V997.6M148.136 894.3H251.432M148.136 997.6V1100.9M148.136 997.6H251.432M148.136 1100.9V1204.2M148.136 1100.9H251.432M148.136 1204.2V1307.5M148.136 1204.2H251.432M148.136 1307.5V1410.8M148.136 1307.5H251.432M148.136 1410.8V1514.1M148.136 1410.8H251.432M148.136 1514.1V1617.4M148.136 1514.1H251.432M148.136 1617.4V1720.7M148.136 1617.4H251.432M148.136 1720.7V1824M148.136 1720.7H251.432M148.136 1824H251.432M251.432 -242V-138.7M251.432 -242H354.727M251.432 -138.7V-35.4M251.432 -138.7H354.727M251.432 -35.4V67.9M251.432 -35.4H354.727M251.432 67.9V171.2M251.432 67.9H354.727M251.432 171.2V274.5M251.432 171.2H354.727M251.432 274.5V377.8M251.432 274.5H354.727M251.432 377.8V481.1M251.432 377.8H354.727M251.432 481.1V584.4M251.432 481.1H354.727M251.432 584.4V687.7M251.432 584.4H354.727M251.432 687.7V791M251.432 687.7H354.727M251.432 791V894.3M251.432 791H354.727M251.432 894.3V997.6M251.432 894.3H354.727M251.432 997.6V1100.9M251.432 997.6H354.727M251.432 1100.9V1204.2M251.432 1100.9H354.727M251.432 1204.2V1307.5M251.432 1204.2H354.727M251.432 1307.5V1410.8M251.432 1307.5H354.727M251.432 1410.8V1514.1M251.432 1410.8H354.727M251.432 1514.1V1617.4M251.432 1514.1H354.727M251.432 1617.4V1720.7M251.432 1617.4H354.727M251.432 1720.7V1824M251.432 1720.7H354.727M251.432 1824H354.727M354.727 -242V-138.7M354.727 -242H458.023M354.727 -138.7V-35.4M354.727 -138.7H458.023M354.727 -35.4V67.9M354.727 -35.4H458.023M354.727 67.9V171.2M354.727 67.9H458.023M354.727 171.2V274.5M354.727 171.2H458.023M354.727 274.5V377.8M354.727 274.5H458.023M354.727 377.8V481.1M354.727 377.8H458.023M354.727 481.1V584.4M354.727 481.1H458.023M354.727 584.4V687.7M354.727 584.4H458.023M354.727 687.7V791M354.727 687.7H458.023M354.727 791V894.3M354.727 791H458.023M354.727 894.3V997.6M354.727 894.3H458.023M354.727 997.6V1100.9M354.727 997.6H458.023M354.727 1100.9V1204.2M354.727 1100.9H458.023M354.727 1204.2V1307.5M354.727 1204.2H458.023M354.727 1307.5V1410.8M354.727 1307.5H458.023M354.727 1410.8V1514.1M354.727 1410.8H458.023M354.727 1514.1V1617.4M354.727 1514.1H458.023M354.727 1617.4V1720.7M354.727 1617.4H458.023M354.727 1720.7V1824M354.727 1720.7H458.023M354.727 1824H458.023M458.023 -242V-138.7M458.023 -242H561.318M458.023 -138.7V-35.4M458.023 -138.7H561.318M458.023 -35.4V67.9M458.023 -35.4H561.318M458.023 67.9V171.2M458.023 67.9H561.318M458.023 171.2V274.5M458.023 171.2H561.318M458.023 274.5V377.8M458.023 274.5H561.318M458.023 377.8V481.1M458.023 377.8H561.318M458.023 481.1V584.4M458.023 481.1H561.318M458.023 584.4V687.7M458.023 584.4H561.318M458.023 687.7V791M458.023 687.7H561.318M458.023 791V894.3M458.023 791H561.318M458.023 894.3V997.6M458.023 894.3H561.318M458.023 997.6V1100.9M458.023 997.6H561.318M458.023 1100.9V1204.2M458.023 1100.9H561.318M458.023 1204.2V1307.5M458.023 1204.2H561.318M458.023 1307.5V1410.8M458.023 1307.5H561.318M458.023 1410.8V1514.1M458.023 1410.8H561.318M458.023 1514.1V1617.4M458.023 1514.1H561.318M458.023 1617.4V1720.7M458.023 1617.4H561.318M458.023 1720.7V1824M458.023 1720.7H561.318M458.023 1824H561.318M561.318 -242V-138.7M561.318 -242H664.614M561.318 -138.7V-35.4M561.318 -138.7H664.614M561.318 -35.4V67.9M561.318 -35.4H664.614M561.318 67.9V171.2M561.318 67.9H664.614M561.318 171.2V274.5M561.318 171.2H664.614M561.318 274.5V377.8M561.318 274.5H664.614M561.318 377.8V481.1M561.318 377.8H664.614M561.318 481.1V584.4M561.318 481.1H664.614M561.318 584.4V687.7M561.318 584.4H664.614M561.318 687.7V791M561.318 687.7H664.614M561.318 791V894.3M561.318 791H664.614M561.318 894.3V997.6M561.318 894.3H664.614M561.318 997.6V1100.9M561.318 997.6H664.614M561.318 1100.9V1204.2M561.318 1100.9H664.614M561.318 1204.2V1307.5M561.318 1204.2H664.614M561.318 1307.5V1410.8M561.318 1307.5H664.614M561.318 1410.8V1514.1M561.318 1410.8H664.614M561.318 1514.1V1617.4M561.318 1514.1H664.614M561.318 1617.4V1720.7M561.318 1617.4H664.614M561.318 1720.7V1824M561.318 1720.7H664.614M561.318 1824H664.614M664.614 -242V-138.7M664.614 -242H767.909M664.614 -138.7V-35.4M664.614 -138.7H767.909M664.614 -35.4V67.9M664.614 -35.4H767.909M664.614 67.9V171.2M664.614 67.9H767.909M664.614 171.2V274.5M664.614 171.2H767.909M664.614 274.5V377.8M664.614 274.5H767.909M664.614 377.8V481.1M664.614 377.8H767.909M664.614 481.1V584.4M664.614 481.1H767.909M664.614 584.4V687.7M664.614 584.4H767.909M664.614 687.7V791M664.614 687.7H767.909M664.614 791V894.3M664.614 791H767.909M664.614 894.3V997.6M664.614 894.3H767.909M664.614 997.6V1100.9M664.614 997.6H767.909M664.614 1100.9V1204.2M664.614 1100.9H767.909M664.614 1204.2V1307.5M664.614 1204.2H767.909M664.614 1307.5V1410.8M664.614 1307.5H767.909M664.614 1410.8V1514.1M664.614 1410.8H767.909M664.614 1514.1V1617.4M664.614 1514.1H767.909M664.614 1617.4V1720.7M664.614 1617.4H767.909M664.614 1720.7V1824M664.614 1720.7H767.909M664.614 1824H767.909M767.909 -242V-138.7M767.909 -242H871.205M767.909 -138.7V-35.4M767.909 -138.7H871.205M767.909 -35.4V67.9M767.909 -35.4H871.205M767.909 67.9V171.2M767.909 67.9H871.205M767.909 171.2V274.5M767.909 171.2H871.205M767.909 274.5V377.8M767.909 274.5H871.205M767.909 377.8V481.1M767.909 377.8H871.205M767.909 481.1V584.4M767.909 481.1H871.205M767.909 584.4V687.7M767.909 584.4H871.205M767.909 687.7V791M767.909 687.7H871.205M767.909 791V894.3M767.909 791H871.205M767.909 894.3V997.6M767.909 894.3H871.205M767.909 997.6V1100.9M767.909 997.6H871.205M767.909 1100.9V1204.2M767.909 1100.9H871.205M767.909 1204.2V1307.5M767.909 1204.2H871.205M767.909 1307.5V1410.8M767.909 1307.5H871.205M767.909 1410.8V1514.1M767.909 1410.8H871.205M767.909 1514.1V1617.4M767.909 1514.1H871.205M767.909 1617.4V1720.7M767.909 1617.4H871.205M767.909 1720.7V1824M767.909 1720.7H871.205M767.909 1824H871.205M871.205 -242V-138.7M871.205 -242H974.5M871.205 -138.7V-35.4M871.205 -138.7H974.5M871.205 -35.4V67.9M871.205 -35.4H974.5M871.205 67.9V171.2M871.205 67.9H974.5M871.205 171.2V274.5M871.205 171.2H974.5M871.205 274.5V377.8M871.205 274.5H974.5M871.205 377.8V481.1M871.205 377.8H974.5M871.205 481.1V584.4M871.205 481.1H974.5M871.205 584.4V687.7M871.205 584.4H974.5M871.205 687.7V791M871.205 687.7H974.5M871.205 791V894.3M871.205 791H974.5M871.205 894.3V997.6M871.205 894.3H974.5M871.205 997.6V1100.9M871.205 997.6H974.5M871.205 1100.9V1204.2M871.205 1100.9H974.5M871.205 1204.2V1307.5M871.205 1204.2H974.5M871.205 1307.5V1410.8M871.205 1307.5H974.5M871.205 1410.8V1514.1M871.205 1410.8H974.5M871.205 1514.1V1617.4M871.205 1514.1H974.5M871.205 1617.4V1720.7M871.205 1617.4H974.5M871.205 1720.7V1824M871.205 1720.7H974.5M871.205 1824H974.5M974.5 -242V-138.7M974.5 -242H1077.8M974.5 -138.7V-35.4M974.5 -138.7H1077.8M974.5 -35.4V67.9M974.5 -35.4H1077.8M974.5 67.9V171.2M974.5 67.9H1077.8M974.5 171.2V274.5M974.5 171.2H1077.8M974.5 274.5V377.8M974.5 274.5H1077.8M974.5 377.8V481.1M974.5 377.8H1077.8M974.5 481.1V584.4M974.5 481.1H1077.8M974.5 584.4V687.7M974.5 584.4H1077.8M974.5 687.7V791M974.5 687.7H1077.8M974.5 791V894.3M974.5 791H1077.8M974.5 894.3V997.6M974.5 894.3H1077.8M974.5 997.6V1100.9M974.5 997.6H1077.8M974.5 1100.9V1204.2M974.5 1100.9H1077.8M974.5 1204.2V1307.5M974.5 1204.2H1077.8M974.5 1307.5V1410.8M974.5 1307.5H1077.8M974.5 1410.8V1514.1M974.5 1410.8H1077.8M974.5 1514.1V1617.4M974.5 1514.1H1077.8M974.5 1617.4V1720.7M974.5 1617.4H1077.8M974.5 1720.7V1824M974.5 1720.7H1077.8M974.5 1824H1077.8M1077.8 -242V-138.7M1077.8 -242H1181.09M1077.8 -138.7V-35.4M1077.8 -138.7H1181.09M1077.8 -35.4V67.9M1077.8 -35.4H1181.09M1077.8 67.9V171.2M1077.8 67.9H1181.09M1077.8 171.2V274.5M1077.8 171.2H1181.09M1077.8 274.5V377.8M1077.8 274.5H1181.09M1077.8 377.8V481.1M1077.8 377.8H1181.09M1077.8 481.1V584.4M1077.8 481.1H1181.09M1077.8 584.4V687.7M1077.8 584.4H1181.09M1077.8 687.7V791M1077.8 687.7H1181.09M1077.8 791V894.3M1077.8 791H1181.09M1077.8 894.3V997.6M1077.8 894.3H1181.09M1077.8 997.6V1100.9M1077.8 997.6H1181.09M1077.8 1100.9V1204.2M1077.8 1100.9H1181.09M1077.8 1204.2V1307.5M1077.8 1204.2H1181.09M1077.8 1307.5V1410.8M1077.8 1307.5H1181.09M1077.8 1410.8V1514.1M1077.8 1410.8H1181.09M1077.8 1514.1V1617.4M1077.8 1514.1H1181.09M1077.8 1617.4V1720.7M1077.8 1617.4H1181.09M1077.8 1720.7V1824M1077.8 1720.7H1181.09M1077.8 1824H1181.09M1181.09 -242V-138.7M1181.09 -242H1284.39M1181.09 -138.7V-35.4M1181.09 -138.7H1284.39M1181.09 -35.4V67.9M1181.09 -35.4H1284.39M1181.09 67.9V171.2M1181.09 67.9H1284.39M1181.09 171.2V274.5M1181.09 171.2H1284.39M1181.09 274.5V377.8M1181.09 274.5H1284.39M1181.09 377.8V481.1M1181.09 377.8H1284.39M1181.09 481.1V584.4M1181.09 481.1H1284.39M1181.09 584.4V687.7M1181.09 584.4H1284.39M1181.09 687.7V791M1181.09 687.7H1284.39M1181.09 791V894.3M1181.09 791H1284.39M1181.09 894.3V997.6M1181.09 894.3H1284.39M1181.09 997.6V1100.9M1181.09 997.6H1284.39M1181.09 1100.9V1204.2M1181.09 1100.9H1284.39M1181.09 1204.2V1307.5M1181.09 1204.2H1284.39M1181.09 1307.5V1410.8M1181.09 1307.5H1284.39M1181.09 1410.8V1514.1M1181.09 1410.8H1284.39M1181.09 1514.1V1617.4M1181.09 1514.1H1284.39M1181.09 1617.4V1720.7M1181.09 1617.4H1284.39M1181.09 1720.7V1824M1181.09 1720.7H1284.39M1181.09 1824H1284.39M1284.39 -242V-138.7M1284.39 -242H1387.68M1284.39 -138.7V-35.4M1284.39 -138.7H1387.68M1284.39 -35.4V67.9M1284.39 -35.4H1387.68M1284.39 67.9V171.2M1284.39 67.9H1387.68M1284.39 171.2V274.5M1284.39 171.2H1387.68M1284.39 274.5V377.8M1284.39 274.5H1387.68M1284.39 377.8V481.1M1284.39 377.8H1387.68M1284.39 481.1V584.4M1284.39 481.1H1387.68M1284.39 584.4V687.7M1284.39 584.4H1387.68M1284.39 687.7V791M1284.39 687.7H1387.68M1284.39 791V894.3M1284.39 791H1387.68M1284.39 894.3V997.6M1284.39 894.3H1387.68M1284.39 997.6V1100.9M1284.39 997.6H1387.68M1284.39 1100.9V1204.2M1284.39 1100.9H1387.68M1284.39 1204.2V1307.5M1284.39 1204.2H1387.68M1284.39 1307.5V1410.8M1284.39 1307.5H1387.68M1284.39 1410.8V1514.1M1284.39 1410.8H1387.68M1284.39 1514.1V1617.4M1284.39 1514.1H1387.68M1284.39 1617.4V1720.7M1284.39 1617.4H1387.68M1284.39 1720.7V1824M1284.39 1720.7H1387.68M1284.39 1824H1387.68M1387.68 -242V-138.7M1387.68 -242H1490.98M1387.68 -138.7V-35.4M1387.68 -138.7H1490.98M1387.68 -35.4V67.9M1387.68 -35.4H1490.98M1387.68 67.9V171.2M1387.68 67.9H1490.98M1387.68 171.2V274.5M1387.68 171.2H1490.98M1387.68 274.5V377.8M1387.68 274.5H1490.98M1387.68 377.8V481.1M1387.68 377.8H1490.98M1387.68 481.1V584.4M1387.68 481.1H1490.98M1387.68 584.4V687.7M1387.68 584.4H1490.98M1387.68 687.7V791M1387.68 687.7H1490.98M1387.68 791V894.3M1387.68 791H1490.98M1387.68 894.3V997.6M1387.68 894.3H1490.98M1387.68 997.6V1100.9M1387.68 997.6H1490.98M1387.68 1100.9V1204.2M1387.68 1100.9H1490.98M1387.68 1204.2V1307.5M1387.68 1204.2H1490.98M1387.68 1307.5V1410.8M1387.68 1307.5H1490.98M1387.68 1410.8V1514.1M1387.68 1410.8H1490.98M1387.68 1514.1V1617.4M1387.68 1514.1H1490.98M1387.68 1617.4V1720.7M1387.68 1617.4H1490.98M1387.68 1720.7V1824M1387.68 1720.7H1490.98M1387.68 1824H1490.98M1490.98 -242V-138.7M1490.98 -242H1594.27M1490.98 -138.7V-35.4M1490.98 -138.7H1594.27M1490.98 -35.4V67.9M1490.98 -35.4H1594.27M1490.98 67.9V171.2M1490.98 67.9H1594.27M1490.98 171.2V274.5M1490.98 171.2H1594.27M1490.98 274.5V377.8M1490.98 274.5H1594.27M1490.98 377.8V481.1M1490.98 377.8H1594.27M1490.98 481.1V584.4M1490.98 481.1H1594.27M1490.98 584.4V687.7M1490.98 584.4H1594.27M1490.98 687.7V791M1490.98 687.7H1594.27M1490.98 791V894.3M1490.98 791H1594.27M1490.98 894.3V997.6M1490.98 894.3H1594.27M1490.98 997.6V1100.9M1490.98 997.6H1594.27M1490.98 1100.9V1204.2M1490.98 1100.9H1594.27M1490.98 1204.2V1307.5M1490.98 1204.2H1594.27M1490.98 1307.5V1410.8M1490.98 1307.5H1594.27M1490.98 1410.8V1514.1M1490.98 1410.8H1594.27M1490.98 1514.1V1617.4M1490.98 1514.1H1594.27M1490.98 1617.4V1720.7M1490.98 1617.4H1594.27M1490.98 1720.7V1824M1490.98 1720.7H1594.27M1490.98 1824H1594.27M1594.27 -242V-138.7M1594.27 -242H1697.57M1594.27 -138.7V-35.4M1594.27 -138.7H1697.57M1594.27 -35.4V67.9M1594.27 -35.4H1697.57M1594.27 67.9V171.2M1594.27 67.9H1697.57M1594.27 171.2V274.5M1594.27 171.2H1697.57M1594.27 274.5V377.8M1594.27 274.5H1697.57M1594.27 377.8V481.1M1594.27 377.8H1697.57M1594.27 481.1V584.4M1594.27 481.1H1697.57M1594.27 584.4V687.7M1594.27 584.4H1697.57M1594.27 687.7V791M1594.27 687.7H1697.57M1594.27 791V894.3M1594.27 791H1697.57M1594.27 894.3V997.6M1594.27 894.3H1697.57M1594.27 997.6V1100.9M1594.27 997.6H1697.57M1594.27 1100.9V1204.2M1594.27 1100.9H1697.57M1594.27 1204.2V1307.5M1594.27 1204.2H1697.57M1594.27 1307.5V1410.8M1594.27 1307.5H1697.57M1594.27 1410.8V1514.1M1594.27 1410.8H1697.57M1594.27 1514.1V1617.4M1594.27 1514.1H1697.57M1594.27 1617.4V1720.7M1594.27 1617.4H1697.57M1594.27 1720.7V1824M1594.27 1720.7H1697.57M1594.27 1824H1697.57M1697.57 -242V-138.7M1697.57 -242H1800.86M1697.57 -138.7V-35.4M1697.57 -138.7H1800.86M1697.57 -35.4V67.9M1697.57 -35.4H1800.86M1697.57 67.9V171.2M1697.57 67.9H1800.86M1697.57 171.2V274.5M1697.57 171.2H1800.86M1697.57 274.5V377.8M1697.57 274.5H1800.86M1697.57 377.8V481.1M1697.57 377.8H1800.86M1697.57 481.1V584.4M1697.57 481.1H1800.86M1697.57 584.4V687.7M1697.57 584.4H1800.86M1697.57 687.7V791M1697.57 687.7H1800.86M1697.57 791V894.3M1697.57 791H1800.86M1697.57 894.3V997.6M1697.57 894.3H1800.86M1697.57 997.6V1100.9M1697.57 997.6H1800.86M1697.57 1100.9V1204.2M1697.57 1100.9H1800.86M1697.57 1204.2V1307.5M1697.57 1204.2H1800.86M1697.57 1307.5V1410.8M1697.57 1307.5H1800.86M1697.57 1410.8V1514.1M1697.57 1410.8H1800.86M1697.57 1514.1V1617.4M1697.57 1514.1H1800.86M1697.57 1617.4V1720.7M1697.57 1617.4H1800.86M1697.57 1720.7V1824M1697.57 1720.7H1800.86M1697.57 1824H1800.86M1800.86 -242V-138.7M1800.86 -242H1904.16M1800.86 -138.7V-35.4M1800.86 -138.7H1904.16M1800.86 -35.4V67.9M1800.86 -35.4H1904.16M1800.86 67.9V171.2M1800.86 67.9H1904.16M1800.86 171.2V274.5M1800.86 171.2H1904.16M1800.86 274.5V377.8M1800.86 274.5H1904.16M1800.86 377.8V481.1M1800.86 377.8H1904.16M1800.86 481.1V584.4M1800.86 481.1H1904.16M1800.86 584.4V687.7M1800.86 584.4H1904.16M1800.86 687.7V791M1800.86 687.7H1904.16M1800.86 791V894.3M1800.86 791H1904.16M1800.86 894.3V997.6M1800.86 894.3H1904.16M1800.86 997.6V1100.9M1800.86 997.6H1904.16M1800.86 1100.9V1204.2M1800.86 1100.9H1904.16M1800.86 1204.2V1307.5M1800.86 1204.2H1904.16M1800.86 1307.5V1410.8M1800.86 1307.5H1904.16M1800.86 1410.8V1514.1M1800.86 1410.8H1904.16M1800.86 1514.1V1617.4M1800.86 1514.1H1904.16M1800.86 1617.4V1720.7M1800.86 1617.4H1904.16M1800.86 1720.7V1824M1800.86 1720.7H1904.16M1800.86 1824H1904.16M1904.16 -242V-138.7M1904.16 -242H2007.45M1904.16 -138.7V-35.4M1904.16 -138.7H2007.45M1904.16 -35.4V67.9M1904.16 -35.4H2007.45M1904.16 67.9V171.2M1904.16 67.9H2007.45M1904.16 171.2V274.5M1904.16 171.2H2007.45M1904.16 274.5V377.8M1904.16 274.5H2007.45M1904.16 377.8V481.1M1904.16 377.8H2007.45M1904.16 481.1V584.4M1904.16 481.1H2007.45M1904.16 584.4V687.7M1904.16 584.4H2007.45M1904.16 687.7V791M1904.16 687.7H2007.45M1904.16 791V894.3M1904.16 791H2007.45M1904.16 894.3V997.6M1904.16 894.3H2007.45M1904.16 997.6V1100.9M1904.16 997.6H2007.45M1904.16 1100.9V1204.2M1904.16 1100.9H2007.45M1904.16 1204.2V1307.5M1904.16 1204.2H2007.45M1904.16 1307.5V1410.8M1904.16 1307.5H2007.45M1904.16 1410.8V1514.1M1904.16 1410.8H2007.45M1904.16 1514.1V1617.4M1904.16 1514.1H2007.45M1904.16 1617.4V1720.7M1904.16 1617.4H2007.45M1904.16 1720.7V1824M1904.16 1720.7H2007.45M1904.16 1824H2007.45M2007.45 -242V-138.7M2007.45 -242H2110.75M2007.45 -138.7V-35.4M2007.45 -138.7H2110.75M2007.45 -35.4V67.9M2007.45 -35.4H2110.75M2007.45 67.9V171.2M2007.45 67.9H2110.75M2007.45 171.2V274.5M2007.45 171.2H2110.75M2007.45 274.5V377.8M2007.45 274.5H2110.75M2007.45 377.8V481.1M2007.45 377.8H2110.75M2007.45 481.1V584.4M2007.45 481.1H2110.75M2007.45 584.4V687.7M2007.45 584.4H2110.75M2007.45 687.7V791M2007.45 687.7H2110.75M2007.45 791V894.3M2007.45 791H2110.75M2007.45 894.3V997.6M2007.45 894.3H2110.75M2007.45 997.6V1100.9M2007.45 997.6H2110.75M2007.45 1100.9V1204.2M2007.45 1100.9H2110.75M2007.45 1204.2V1307.5M2007.45 1204.2H2110.75M2007.45 1307.5V1410.8M2007.45 1307.5H2110.75M2007.45 1410.8V1514.1M2007.45 1410.8H2110.75M2007.45 1514.1V1617.4M2007.45 1514.1H2110.75M2007.45 1617.4V1720.7M2007.45 1617.4H2110.75M2007.45 1720.7V1824M2007.45 1720.7H2110.75M2007.45 1824H2110.75M2110.75 -242V-138.7M2110.75 -242H2214.05M2110.75 -138.7V-35.4M2110.75 -138.7H2214.05M2110.75 -35.4V67.9M2110.75 -35.4H2214.05M2110.75 67.9V171.2M2110.75 67.9H2214.05M2110.75 171.2V274.5M2110.75 171.2H2214.05M2110.75 274.5V377.8M2110.75 274.5H2214.05M2110.75 377.8V481.1M2110.75 377.8H2214.05M2110.75 481.1V584.4M2110.75 481.1H2214.05M2110.75 584.4V687.7M2110.75 584.4H2214.05M2110.75 687.7V791M2110.75 687.7H2214.05M2110.75 791V894.3M2110.75 791H2214.05M2110.75 894.3V997.6M2110.75 894.3H2214.05M2110.75 997.6V1100.9M2110.75 997.6H2214.05M2110.75 1100.9V1204.2M2110.75 1100.9H2214.05M2110.75 1204.2V1307.5M2110.75 1204.2H2214.05M2110.75 1307.5V1410.8M2110.75 1307.5H2214.05M2110.75 1410.8V1514.1M2110.75 1410.8H2214.05M2110.75 1514.1V1617.4M2110.75 1514.1H2214.05M2110.75 1617.4V1720.7M2110.75 1617.4H2214.05M2110.75 1720.7V1824M2110.75 1720.7H2214.05M2110.75 1824H2214.05M2214.05 -242V-138.7M2214.05 -242H2317.34M2214.05 -138.7V-35.4M2214.05 -138.7H2317.34M2214.05 -35.4V67.9M2214.05 -35.4H2317.34M2214.05 67.9V171.2M2214.05 67.9H2317.34M2214.05 171.2V274.5M2214.05 171.2H2317.34M2214.05 274.5V377.8M2214.05 274.5H2317.34M2214.05 377.8V481.1M2214.05 377.8H2317.34M2214.05 481.1V584.4M2214.05 481.1H2317.34M2214.05 584.4V687.7M2214.05 584.4H2317.34M2214.05 687.7V791M2214.05 687.7H2317.34M2214.05 791V894.3M2214.05 791H2317.34M2214.05 894.3V997.6M2214.05 894.3H2317.34M2214.05 997.6V1100.9M2214.05 997.6H2317.34M2214.05 1100.9V1204.2M2214.05 1100.9H2317.34M2214.05 1204.2V1307.5M2214.05 1204.2H2317.34M2214.05 1307.5V1410.8M2214.05 1307.5H2317.34M2214.05 1410.8V1514.1M2214.05 1410.8H2317.34M2214.05 1514.1V1617.4M2214.05 1514.1H2317.34M2214.05 1617.4V1720.7M2214.05 1617.4H2317.34M2214.05 1720.7V1824M2214.05 1720.7H2317.34M2214.05 1824H2317.34M2317.34 -242V-138.7M2317.34 -242H2420.64M2317.34 -138.7V-35.4M2317.34 -138.7H2420.64M2317.34 -35.4V67.9M2317.34 -35.4H2420.64M2317.34 67.9V171.2M2317.34 67.9H2420.64M2317.34 171.2V274.5M2317.34 171.2H2420.64M2317.34 274.5V377.8M2317.34 274.5H2420.64M2317.34 377.8V481.1M2317.34 377.8H2420.64M2317.34 481.1V584.4M2317.34 481.1H2420.64M2317.34 584.4V687.7M2317.34 584.4H2420.64M2317.34 687.7V791M2317.34 687.7H2420.64M2317.34 791V894.3M2317.34 791H2420.64M2317.34 894.3V997.6M2317.34 894.3H2420.64M2317.34 997.6V1100.9M2317.34 997.6H2420.64M2317.34 1100.9V1204.2M2317.34 1100.9H2420.64M2317.34 1204.2V1307.5M2317.34 1204.2H2420.64M2317.34 1307.5V1410.8M2317.34 1307.5H2420.64M2317.34 1410.8V1514.1M2317.34 1410.8H2420.64M2317.34 1514.1V1617.4M2317.34 1514.1H2420.64M2317.34 1617.4V1720.7M2317.34 1617.4H2420.64M2317.34 1720.7V1824M2317.34 1720.7H2420.64M2317.34 1824H2420.64M2420.64 -242V-138.7M2420.64 -242H2523.93M2420.64 -138.7V-35.4M2420.64 -138.7H2523.93M2420.64 -35.4V67.9M2420.64 -35.4H2523.93M2420.64 67.9V171.2M2420.64 67.9H2523.93M2420.64 171.2V274.5M2420.64 171.2H2523.93M2420.64 274.5V377.8M2420.64 274.5H2523.93M2420.64 377.8V481.1M2420.64 377.8H2523.93M2420.64 481.1V584.4M2420.64 481.1H2523.93M2420.64 584.4V687.7M2420.64 584.4H2523.93M2420.64 687.7V791M2420.64 687.7H2523.93M2420.64 791V894.3M2420.64 791H2523.93M2420.64 894.3V997.6M2420.64 894.3H2523.93M2420.64 997.6V1100.9M2420.64 997.6H2523.93M2420.64 1100.9V1204.2M2420.64 1100.9H2523.93M2420.64 1204.2V1307.5M2420.64 1204.2H2523.93M2420.64 1307.5V1410.8M2420.64 1307.5H2523.93M2420.64 1410.8V1514.1M2420.64 1410.8H2523.93M2420.64 1514.1V1617.4M2420.64 1514.1H2523.93M2420.64 1617.4V1720.7M2420.64 1617.4H2523.93M2420.64 1720.7V1824M2420.64 1720.7H2523.93M2420.64 1824H2523.93M2523.93 -242V-138.7M2523.93 -242H2627.23M2523.93 -138.7V-35.4M2523.93 -138.7H2627.23M2523.93 -35.4V67.9M2523.93 -35.4H2627.23M2523.93 67.9V171.2M2523.93 67.9H2627.23M2523.93 171.2V274.5M2523.93 171.2H2627.23M2523.93 274.5V377.8M2523.93 274.5H2627.23M2523.93 377.8V481.1M2523.93 377.8H2627.23M2523.93 481.1V584.4M2523.93 481.1H2627.23M2523.93 584.4V687.7M2523.93 584.4H2627.23M2523.93 687.7V791M2523.93 687.7H2627.23M2523.93 791V894.3M2523.93 791H2627.23M2523.93 894.3V997.6M2523.93 894.3H2627.23M2523.93 997.6V1100.9M2523.93 997.6H2627.23M2523.93 1100.9V1204.2M2523.93 1100.9H2627.23M2523.93 1204.2V1307.5M2523.93 1204.2H2627.23M2523.93 1307.5V1410.8M2523.93 1307.5H2627.23M2523.93 1410.8V1514.1M2523.93 1410.8H2627.23M2523.93 1514.1V1617.4M2523.93 1514.1H2627.23M2523.93 1617.4V1720.7M2523.93 1617.4H2627.23M2523.93 1720.7V1824M2523.93 1720.7H2627.23M2523.93 1824H2627.23M2627.23 -242V-138.7M2627.23 -242H2730.52M2627.23 -138.7V-35.4M2627.23 -138.7H2730.52M2627.23 -35.4V67.9M2627.23 -35.4H2730.52M2627.23 67.9V171.2M2627.23 67.9H2730.52M2627.23 171.2V274.5M2627.23 171.2H2730.52M2627.23 274.5V377.8M2627.23 274.5H2730.52M2627.23 377.8V481.1M2627.23 377.8H2730.52M2627.23 481.1V584.4M2627.23 481.1H2730.52M2627.23 584.4V687.7M2627.23 584.4H2730.52M2627.23 687.7V791M2627.23 687.7H2730.52M2627.23 791V894.3M2627.23 791H2730.52M2627.23 894.3V997.6M2627.23 894.3H2730.52M2627.23 997.6V1100.9M2627.23 997.6H2730.52M2627.23 1100.9V1204.2M2627.23 1100.9H2730.52M2627.23 1204.2V1307.5M2627.23 1204.2H2730.52M2627.23 1307.5V1410.8M2627.23 1307.5H2730.52M2627.23 1410.8V1514.1M2627.23 1410.8H2730.52M2627.23 1514.1V1617.4M2627.23 1514.1H2730.52M2627.23 1617.4V1720.7M2627.23 1617.4H2730.52M2627.23 1720.7V1824M2627.23 1720.7H2730.52M2627.23 1824H2730.52M2730.52 -242V-138.7M2730.52 -242H2833.82M2730.52 -138.7V-35.4M2730.52 -138.7H2833.82M2730.52 -35.4V67.9M2730.52 -35.4H2833.82M2730.52 67.9V171.2M2730.52 67.9H2833.82M2730.52 171.2V274.5M2730.52 171.2H2833.82M2730.52 274.5V377.8M2730.52 274.5H2833.82M2730.52 377.8V481.1M2730.52 377.8H2833.82M2730.52 481.1V584.4M2730.52 481.1H2833.82M2730.52 584.4V687.7M2730.52 584.4H2833.82M2730.52 687.7V791M2730.52 687.7H2833.82M2730.52 791V894.3M2730.52 791H2833.82M2730.52 894.3V997.6M2730.52 894.3H2833.82M2730.52 997.6V1100.9M2730.52 997.6H2833.82M2730.52 1100.9V1204.2M2730.52 1100.9H2833.82M2730.52 1204.2V1307.5M2730.52 1204.2H2833.82M2730.52 1307.5V1410.8M2730.52 1307.5H2833.82M2730.52 1410.8V1514.1M2730.52 1410.8H2833.82M2730.52 1514.1V1617.4M2730.52 1514.1H2833.82M2730.52 1617.4V1720.7M2730.52 1617.4H2833.82M2730.52 1720.7V1824M2730.52 1720.7H2833.82M2730.52 1824H2833.82M2833.82 -242V-138.7M2833.82 -242H2937.11M2833.82 -138.7V-35.4M2833.82 -138.7H2937.11M2833.82 -35.4V67.9M2833.82 -35.4H2937.11M2833.82 67.9V171.2M2833.82 67.9H2937.11M2833.82 171.2V274.5M2833.82 171.2H2937.11M2833.82 274.5V377.8M2833.82 274.5H2937.11M2833.82 377.8V481.1M2833.82 377.8H2937.11M2833.82 481.1V584.4M2833.82 481.1H2937.11M2833.82 584.4V687.7M2833.82 584.4H2937.11M2833.82 687.7V791M2833.82 687.7H2937.11M2833.82 791V894.3M2833.82 791H2937.11M2833.82 894.3V997.6M2833.82 894.3H2937.11M2833.82 997.6V1100.9M2833.82 997.6H2937.11M2833.82 1100.9V1204.2M2833.82 1100.9H2937.11M2833.82 1204.2V1307.5M2833.82 1204.2H2937.11M2833.82 1307.5V1410.8M2833.82 1307.5H2937.11M2833.82 1410.8V1514.1M2833.82 1410.8H2937.11M2833.82 1514.1V1617.4M2833.82 1514.1H2937.11M2833.82 1617.4V1720.7M2833.82 1617.4H2937.11M2833.82 1720.7V1824M2833.82 1720.7H2937.11M2833.82 1824H2937.11M2937.11 -242V-138.7M2937.11 -242H3040.41M2937.11 -138.7V-35.4M2937.11 -138.7H3040.41M2937.11 -35.4V67.9M2937.11 -35.4H3040.41M2937.11 67.9V171.2M2937.11 67.9H3040.41M2937.11 171.2V274.5M2937.11 171.2H3040.41M2937.11 274.5V377.8M2937.11 274.5H3040.41M2937.11 377.8V481.1M2937.11 377.8H3040.41M2937.11 481.1V584.4M2937.11 481.1H3040.41M2937.11 584.4V687.7M2937.11 584.4H3040.41M2937.11 687.7V791M2937.11 687.7H3040.41M2937.11 791V894.3M2937.11 791H3040.41M2937.11 894.3V997.6M2937.11 894.3H3040.41M2937.11 997.6V1100.9M2937.11 997.6H3040.41M2937.11 1100.9V1204.2M2937.11 1100.9H3040.41M2937.11 1204.2V1307.5M2937.11 1204.2H3040.41M2937.11 1307.5V1410.8M2937.11 1307.5H3040.41M2937.11 1410.8V1514.1M2937.11 1410.8H3040.41M2937.11 1514.1V1617.4M2937.11 1514.1H3040.41M2937.11 1617.4V1720.7M2937.11 1617.4H3040.41M2937.11 1720.7V1824M2937.11 1720.7H3040.41M2937.11 1824H3040.41M3040.41 -242V-138.7M3040.41 -242H3143.7M3040.41 -138.7V-35.4M3040.41 -138.7H3143.7M3040.41 -35.4V67.9M3040.41 -35.4H3143.7M3040.41 67.9V171.2M3040.41 67.9H3143.7M3040.41 171.2V274.5M3040.41 171.2H3143.7M3040.41 274.5V377.8M3040.41 274.5H3143.7M3040.41 377.8V481.1M3040.41 377.8H3143.7M3040.41 481.1V584.4M3040.41 481.1H3143.7M3040.41 584.4V687.7M3040.41 584.4H3143.7M3040.41 687.7V791M3040.41 687.7H3143.7M3040.41 791V894.3M3040.41 791H3143.7M3040.41 894.3V997.6M3040.41 894.3H3143.7M3040.41 997.6V1100.9M3040.41 997.6H3143.7M3040.41 1100.9V1204.2M3040.41 1100.9H3143.7M3040.41 1204.2V1307.5M3040.41 1204.2H3143.7M3040.41 1307.5V1410.8M3040.41 1307.5H3143.7M3040.41 1410.8V1514.1M3040.41 1410.8H3143.7M3040.41 1514.1V1617.4M3040.41 1514.1H3143.7M3040.41 1617.4V1720.7M3040.41 1617.4H3143.7M3040.41 1720.7V1824M3040.41 1720.7H3143.7M3040.41 1824H3143.7M3143.7 -242V-138.7M3143.7 -242H3247V-138.7M3143.7 -138.7V-35.4M3143.7 -138.7H3247M3143.7 -35.4V67.9M3143.7 -35.4H3247M3143.7 67.9V171.2M3143.7 67.9H3247M3143.7 171.2V274.5M3143.7 171.2H3247M3143.7 274.5V377.8M3143.7 274.5H3247M3143.7 377.8V481.1M3143.7 377.8H3247M3143.7 481.1V584.4M3143.7 481.1H3247M3143.7 584.4V687.7M3143.7 584.4H3247M3143.7 687.7V791M3143.7 687.7H3247M3143.7 791V894.3M3143.7 791H3247M3143.7 894.3V997.6M3143.7 894.3H3247M3143.7 997.6V1100.9M3143.7 997.6H3247M3143.7 1100.9V1204.2M3143.7 1100.9H3247M3143.7 1204.2V1307.5M3143.7 1204.2H3247M3143.7 1307.5V1410.8M3143.7 1307.5H3247M3143.7 1410.8V1514.1M3143.7 1410.8H3247M3143.7 1514.1V1617.4M3143.7 1514.1H3247M3143.7 1617.4V1720.7M3143.7 1617.4H3247M3143.7 1720.7V1824M3143.7 1720.7H3247M3143.7 1824H3247V1720.7M3247 -138.7V-35.4M3247 -35.4V67.9M3247 67.9V171.2M3247 171.2V274.5M3247 274.5V377.8M3247 377.8V481.1M3247 481.1V584.4M3247 584.4V687.7M3247 687.7V791M3247 791V894.3M3247 894.3V997.6M3247 997.6V1100.9M3247 1100.9V1204.2M3247 1204.2V1307.5M3247 1307.5V1410.8M3247 1410.8V1514.1M3247 1514.1V1617.4M3247 1617.4V1720.7" stroke="url(#paint0_radial_675_154)" stroke-width="0.804612"/>
<g opacity="0.25" filter="url(#filter0_f_675_154)">
<rect x="478" y="433" width="303" height="369" transform="rotate(180 478 433)" fill="#0CBAFF"/>
</g>
<g opacity="0.2" filter="url(#filter1_f_675_154)">
<rect x="-20" y="542" width="485" height="365" fill="#84FFD3"/>
</g>
<g filter="url(#filter2_f_675_154)">
<rect width="716" height="326" transform="matrix(1 0 0 -1 109 340)" fill="#200495"/>
</g>
<g filter="url(#filter3_f_675_154)">
<rect x="1360" y="340" width="535" height="195" transform="rotate(180 1360 340)" fill="#200495"/>
</g>
<g opacity="0.25" filter="url(#filter4_f_675_154)">
<rect x="1483" y="340" width="677" height="466" transform="rotate(180 1483 340)" fill="#0CBAFF"/>
</g>
</g>
<defs>
<filter id="filter0_f_675_154" x="-225" y="-336" width="1103" height="1169" filterUnits="userSpaceOnUse" color-interpolation-filters="sRGB">
<feFlood flood-opacity="0" result="BackgroundImageFix"/>
<feBlend mode="normal" in="SourceGraphic" in2="BackgroundImageFix" result="shape"/>
<feGaussianBlur stdDeviation="200" result="effect1_foregroundBlur_675_154"/>
</filter>
<filter id="filter1_f_675_154" x="-420" y="142" width="1285" height="1165" filterUnits="userSpaceOnUse" color-interpolation-filters="sRGB">
<feFlood flood-opacity="0" result="BackgroundImageFix"/>
<feBlend mode="normal" in="SourceGraphic" in2="BackgroundImageFix" result="shape"/>
<feGaussianBlur stdDeviation="200" result="effect1_foregroundBlur_675_154"/>
</filter>
<filter id="filter2_f_675_154" x="-291" y="-386" width="1516" height="1126" filterUnits="userSpaceOnUse" color-interpolation-filters="sRGB">
<feFlood flood-opacity="0" result="BackgroundImageFix"/>
<feBlend mode="normal" in="SourceGraphic" in2="BackgroundImageFix" result="shape"/>
<feGaussianBlur stdDeviation="200" result="effect1_foregroundBlur_675_154"/>
</filter>
<filter id="filter3_f_675_154" x="425" y="-255" width="1335" height="995" filterUnits="userSpaceOnUse" color-interpolation-filters="sRGB">
<feFlood flood-opacity="0" result="BackgroundImageFix"/>
<feBlend mode="normal" in="SourceGraphic" in2="BackgroundImageFix" result="shape"/>
<feGaussianBlur stdDeviation="200" result="effect1_foregroundBlur_675_154"/>
</filter>
<filter id="filter4_f_675_154" x="406" y="-526" width="1477" height="1266" filterUnits="userSpaceOnUse" color-interpolation-filters="sRGB">
<feFlood flood-opacity="0" result="BackgroundImageFix"/>
<feBlend mode="normal" in="SourceGraphic" in2="BackgroundImageFix" result="shape"/>
<feGaussianBlur stdDeviation="200" result="effect1_foregroundBlur_675_154"/>
</filter>
<radialGradient id="paint0_radial_675_154" cx="0" cy="0" r="1" gradientUnits="userSpaceOnUse" gradientTransform="translate(701 -8.99998) rotate(90) scale(398 875.561)">
<stop stop-color="#230394" stop-opacity="0.5"/>
<stop offset="0.368559" stop-color="#E3DFF1" stop-opacity="0.936629"/>
<stop offset="0.622977" stop-color="white"/>
<stop offset="1" stop-color="#230394" stop-opacity="0.5"/>
</radialGradient>
<clipPath id="clip0_675_154">
<rect width="1440" height="400" fill="white"/>
</clipPath>
</defs>
</svg>
