<svg width="375" height="300" viewBox="0 0 375 300" fill="none" xmlns="http://www.w3.org/2000/svg">
<g clip-path="url(#clip0_675_69)">
<rect width="375" height="300" fill="#200093"/>
<path opacity="0.2" d="M-1726.7 -242H-1830V-138.7M-1726.7 -242V-138.7M-1726.7 -242H-1623.41M-1726.7 -138.7H-1830M-1726.7 -138.7V-35.4M-1726.7 -138.7H-1623.41M-1830 -138.7V-35.4M-1726.7 -35.4H-1830M-1726.7 -35.4V67.9M-1726.7 -35.4H-1623.41M-1830 -35.4V67.9M-1726.7 67.9H-1830M-1726.7 67.9V171.2M-1726.7 67.9H-1623.41M-1830 67.9V171.2M-1726.7 171.2H-1830M-1726.7 171.2V274.5M-1726.7 171.2H-1623.41M-1830 171.2V274.5M-1726.7 274.5H-1830M-1726.7 274.5V377.8M-1726.7 274.5H-1623.41M-1830 274.5V377.8M-1726.7 377.8H-1830M-1726.7 377.8V481.1M-1726.7 377.8H-1623.41M-1830 377.8V481.1M-1726.7 481.1H-1830M-1726.7 481.1V584.4M-1726.7 481.1H-1623.41M-1830 481.1V584.4M-1726.7 584.4H-1830M-1726.7 584.4V687.7M-1726.7 584.4H-1623.41M-1830 584.4V687.7M-1726.7 687.7H-1830M-1726.7 687.7V791M-1726.7 687.7H-1623.41M-1830 687.7V791M-1726.7 791H-1830M-1726.7 791V894.3M-1726.7 791H-1623.41M-1830 791V894.3M-1726.7 894.3H-1830M-1726.7 894.3V997.6M-1726.7 894.3H-1623.41M-1830 894.3V997.6M-1726.7 997.6H-1830M-1726.7 997.6V1100.9M-1726.7 997.6H-1623.41M-1830 997.6V1100.9M-1726.7 1100.9H-1830M-1726.7 1100.9V1204.2M-1726.7 1100.9H-1623.41M-1830 1100.9V1204.2M-1726.7 1204.2H-1830M-1726.7 1204.2V1307.5M-1726.7 1204.2H-1623.41M-1830 1204.2V1307.5M-1726.7 1307.5H-1830M-1726.7 1307.5V1410.8M-1726.7 1307.5H-1623.41M-1830 1307.5V1410.8M-1726.7 1410.8H-1830M-1726.7 1410.8V1514.1M-1726.7 1410.8H-1623.41M-1830 1410.8V1514.1M-1726.7 1514.1H-1830M-1726.7 1514.1V1617.4M-1726.7 1514.1H-1623.41M-1830 1514.1V1617.4M-1726.7 1617.4H-1830M-1726.7 1617.4V1720.7M-1726.7 1617.4H-1623.41M-1830 1617.4V1720.7M-1726.7 1720.7H-1830M-1726.7 1720.7V1824M-1726.7 1720.7H-1623.41M-1830 1720.7V1824H-1726.7M-1726.7 1824H-1623.41M-1623.41 -242V-138.7M-1623.41 -242H-1520.11M-1623.41 -138.7V-35.4M-1623.41 -138.7H-1520.11M-1623.41 -35.4V67.9M-1623.41 -35.4H-1520.11M-1623.41 67.9V171.2M-1623.41 67.9H-1520.11M-1623.41 171.2V274.5M-1623.41 171.2H-1520.11M-1623.41 274.5V377.8M-1623.41 274.5H-1520.11M-1623.41 377.8V481.1M-1623.41 377.8H-1520.11M-1623.41 481.1V584.4M-1623.41 481.1H-1520.11M-1623.41 584.4V687.7M-1623.41 584.4H-1520.11M-1623.41 687.7V791M-1623.41 687.7H-1520.11M-1623.41 791V894.3M-1623.41 791H-1520.11M-1623.41 894.3V997.6M-1623.41 894.3H-1520.11M-1623.41 997.6V1100.9M-1623.41 997.6H-1520.11M-1623.41 1100.9V1204.2M-1623.41 1100.9H-1520.11M-1623.41 1204.2V1307.5M-1623.41 1204.2H-1520.11M-1623.41 1307.5V1410.8M-1623.41 1307.5H-1520.11M-1623.41 1410.8V1514.1M-1623.41 1410.8H-1520.11M-1623.41 1514.1V1617.4M-1623.41 1514.1H-1520.11M-1623.41 1617.4V1720.7M-1623.41 1617.4H-1520.11M-1623.41 1720.7V1824M-1623.41 1720.7H-1520.11M-1623.41 1824H-1520.11M-1520.11 -242V-138.7M-1520.11 -242H-1416.82M-1520.11 -138.7V-35.4M-1520.11 -138.7H-1416.82M-1520.11 -35.4V67.9M-1520.11 -35.4H-1416.82M-1520.11 67.9V171.2M-1520.11 67.9H-1416.82M-1520.11 171.2V274.5M-1520.11 171.2H-1416.82M-1520.11 274.5V377.8M-1520.11 274.5H-1416.82M-1520.11 377.8V481.1M-1520.11 377.8H-1416.82M-1520.11 481.1V584.4M-1520.11 481.1H-1416.82M-1520.11 584.4V687.7M-1520.11 584.4H-1416.82M-1520.11 687.7V791M-1520.11 687.7H-1416.82M-1520.11 791V894.3M-1520.11 791H-1416.82M-1520.11 894.3V997.6M-1520.11 894.3H-1416.82M-1520.11 997.6V1100.9M-1520.11 997.6H-1416.82M-1520.11 1100.9V1204.2M-1520.11 1100.9H-1416.82M-1520.11 1204.2V1307.5M-1520.11 1204.2H-1416.82M-1520.11 1307.5V1410.8M-1520.11 1307.5H-1416.82M-1520.11 1410.8V1514.1M-1520.11 1410.8H-1416.82M-1520.11 1514.1V1617.4M-1520.11 1514.1H-1416.82M-1520.11 1617.4V1720.7M-1520.11 1617.4H-1416.82M-1520.11 1720.7V1824M-1520.11 1720.7H-1416.82M-1520.11 1824H-1416.82M-1416.82 -242V-138.7M-1416.82 -242H-1313.52M-1416.82 -138.7V-35.4M-1416.82 -138.7H-1313.52M-1416.82 -35.4V67.9M-1416.82 -35.4H-1313.52M-1416.82 67.9V171.2M-1416.82 67.9H-1313.52M-1416.82 171.2V274.5M-1416.82 171.2H-1313.52M-1416.82 274.5V377.8M-1416.82 274.5H-1313.52M-1416.82 377.8V481.1M-1416.82 377.8H-1313.52M-1416.82 481.1V584.4M-1416.82 481.1H-1313.52M-1416.82 584.4V687.7M-1416.82 584.4H-1313.52M-1416.82 687.7V791M-1416.82 687.7H-1313.52M-1416.82 791V894.3M-1416.82 791H-1313.52M-1416.82 894.3V997.6M-1416.82 894.3H-1313.52M-1416.82 997.6V1100.9M-1416.82 997.6H-1313.52M-1416.82 1100.9V1204.2M-1416.82 1100.9H-1313.52M-1416.82 1204.2V1307.5M-1416.82 1204.2H-1313.52M-1416.82 1307.5V1410.8M-1416.82 1307.5H-1313.52M-1416.82 1410.8V1514.1M-1416.82 1410.8H-1313.52M-1416.82 1514.1V1617.4M-1416.82 1514.1H-1313.52M-1416.82 1617.4V1720.7M-1416.82 1617.4H-1313.52M-1416.82 1720.7V1824M-1416.82 1720.7H-1313.52M-1416.82 1824H-1313.52M-1313.52 -242V-138.7M-1313.52 -242H-1210.23M-1313.52 -138.7V-35.4M-1313.52 -138.7H-1210.23M-1313.52 -35.4V67.9M-1313.52 -35.4H-1210.23M-1313.52 67.9V171.2M-1313.52 67.9H-1210.23M-1313.52 171.2V274.5M-1313.52 171.2H-1210.23M-1313.52 274.5V377.8M-1313.52 274.5H-1210.23M-1313.52 377.8V481.1M-1313.52 377.8H-1210.23M-1313.52 481.1V584.4M-1313.52 481.1H-1210.23M-1313.52 584.4V687.7M-1313.52 584.4H-1210.23M-1313.52 687.7V791M-1313.52 687.7H-1210.23M-1313.52 791V894.3M-1313.52 791H-1210.23M-1313.52 894.3V997.6M-1313.52 894.3H-1210.23M-1313.52 997.6V1100.9M-1313.52 997.6H-1210.23M-1313.52 1100.9V1204.2M-1313.52 1100.9H-1210.23M-1313.52 1204.2V1307.5M-1313.52 1204.2H-1210.23M-1313.52 1307.5V1410.8M-1313.52 1307.5H-1210.23M-1313.52 1410.8V1514.1M-1313.52 1410.8H-1210.23M-1313.52 1514.1V1617.4M-1313.52 1514.1H-1210.23M-1313.52 1617.4V1720.7M-1313.52 1617.4H-1210.23M-1313.52 1720.7V1824M-1313.52 1720.7H-1210.23M-1313.52 1824H-1210.23M-1210.23 -242V-138.7M-1210.23 -242H-1106.93M-1210.23 -138.7V-35.4M-1210.23 -138.7H-1106.93M-1210.23 -35.4V67.9M-1210.23 -35.4H-1106.93M-1210.23 67.9V171.2M-1210.23 67.9H-1106.93M-1210.23 171.2V274.5M-1210.23 171.2H-1106.93M-1210.23 274.5V377.8M-1210.23 274.5H-1106.93M-1210.23 377.8V481.1M-1210.23 377.8H-1106.93M-1210.23 481.1V584.4M-1210.23 481.1H-1106.93M-1210.23 584.4V687.7M-1210.23 584.4H-1106.93M-1210.23 687.7V791M-1210.23 687.7H-1106.93M-1210.23 791V894.3M-1210.23 791H-1106.93M-1210.23 894.3V997.6M-1210.23 894.3H-1106.93M-1210.23 997.6V1100.9M-1210.23 997.6H-1106.93M-1210.23 1100.9V1204.2M-1210.23 1100.9H-1106.93M-1210.23 1204.2V1307.5M-1210.23 1204.2H-1106.93M-1210.23 1307.5V1410.8M-1210.23 1307.5H-1106.93M-1210.23 1410.8V1514.1M-1210.23 1410.8H-1106.93M-1210.23 1514.1V1617.4M-1210.23 1514.1H-1106.93M-1210.23 1617.4V1720.7M-1210.23 1617.4H-1106.93M-1210.23 1720.7V1824M-1210.23 1720.7H-1106.93M-1210.23 1824H-1106.93M-1106.93 -242V-138.7M-1106.93 -242H-1003.64M-1106.93 -138.7V-35.4M-1106.93 -138.7H-1003.64M-1106.93 -35.4V67.9M-1106.93 -35.4H-1003.64M-1106.93 67.9V171.2M-1106.93 67.9H-1003.64M-1106.93 171.2V274.5M-1106.93 171.2H-1003.64M-1106.93 274.5V377.8M-1106.93 274.5H-1003.64M-1106.93 377.8V481.1M-1106.93 377.8H-1003.64M-1106.93 481.1V584.4M-1106.93 481.1H-1003.64M-1106.93 584.4V687.7M-1106.93 584.4H-1003.64M-1106.93 687.7V791M-1106.93 687.7H-1003.64M-1106.93 791V894.3M-1106.93 791H-1003.64M-1106.93 894.3V997.6M-1106.93 894.3H-1003.64M-1106.93 997.6V1100.9M-1106.93 997.6H-1003.64M-1106.93 1100.9V1204.2M-1106.93 1100.9H-1003.64M-1106.93 1204.2V1307.5M-1106.93 1204.2H-1003.64M-1106.93 1307.5V1410.8M-1106.93 1307.5H-1003.64M-1106.93 1410.8V1514.1M-1106.93 1410.8H-1003.64M-1106.93 1514.1V1617.4M-1106.93 1514.1H-1003.64M-1106.93 1617.4V1720.7M-1106.93 1617.4H-1003.64M-1106.93 1720.7V1824M-1106.93 1720.7H-1003.64M-1106.93 1824H-1003.64M-1003.64 -242V-138.7M-1003.64 -242H-900.341M-1003.64 -138.7V-35.4M-1003.64 -138.7H-900.341M-1003.64 -35.4V67.9M-1003.64 -35.4H-900.341M-1003.64 67.9V171.2M-1003.64 67.9H-900.341M-1003.64 171.2V274.5M-1003.64 171.2H-900.341M-1003.64 274.5V377.8M-1003.64 274.5H-900.341M-1003.64 377.8V481.1M-1003.64 377.8H-900.341M-1003.64 481.1V584.4M-1003.64 481.1H-900.341M-1003.64 584.4V687.7M-1003.64 584.4H-900.341M-1003.64 687.7V791M-1003.64 687.7H-900.341M-1003.64 791V894.3M-1003.64 791H-900.341M-1003.64 894.3V997.6M-1003.64 894.3H-900.341M-1003.64 997.6V1100.9M-1003.64 997.6H-900.341M-1003.64 1100.9V1204.2M-1003.64 1100.9H-900.341M-1003.64 1204.2V1307.5M-1003.64 1204.2H-900.341M-1003.64 1307.5V1410.8M-1003.64 1307.5H-900.341M-1003.64 1410.8V1514.1M-1003.64 1410.8H-900.341M-1003.64 1514.1V1617.4M-1003.64 1514.1H-900.341M-1003.64 1617.4V1720.7M-1003.64 1617.4H-900.341M-1003.64 1720.7V1824M-1003.64 1720.7H-900.341M-1003.64 1824H-900.341M-900.341 -242V-138.7M-900.341 -242H-797.045M-900.341 -138.7V-35.4M-900.341 -138.7H-797.045M-900.341 -35.4V67.9M-900.341 -35.4H-797.045M-900.341 67.9V171.2M-900.341 67.9H-797.045M-900.341 171.2V274.5M-900.341 171.2H-797.045M-900.341 274.5V377.8M-900.341 274.5H-797.045M-900.341 377.8V481.1M-900.341 377.8H-797.045M-900.341 481.1V584.4M-900.341 481.1H-797.045M-900.341 584.4V687.7M-900.341 584.4H-797.045M-900.341 687.7V791M-900.341 687.7H-797.045M-900.341 791V894.3M-900.341 791H-797.045M-900.341 894.3V997.6M-900.341 894.3H-797.045M-900.341 997.6V1100.9M-900.341 997.6H-797.045M-900.341 1100.9V1204.2M-900.341 1100.9H-797.045M-900.341 1204.2V1307.5M-900.341 1204.2H-797.045M-900.341 1307.5V1410.8M-900.341 1307.5H-797.045M-900.341 1410.8V1514.1M-900.341 1410.8H-797.045M-900.341 1514.1V1617.4M-900.341 1514.1H-797.045M-900.341 1617.4V1720.7M-900.341 1617.4H-797.045M-900.341 1720.7V1824M-900.341 1720.7H-797.045M-900.341 1824H-797.045M-797.045 -242V-138.7M-797.045 -242H-693.75M-797.045 -138.7V-35.4M-797.045 -138.7H-693.75M-797.045 -35.4V67.9M-797.045 -35.4H-693.75M-797.045 67.9V171.2M-797.045 67.9H-693.75M-797.045 171.2V274.5M-797.045 171.2H-693.75M-797.045 274.5V377.8M-797.045 274.5H-693.75M-797.045 377.8V481.1M-797.045 377.8H-693.75M-797.045 481.1V584.4M-797.045 481.1H-693.75M-797.045 584.4V687.7M-797.045 584.4H-693.75M-797.045 687.7V791M-797.045 687.7H-693.75M-797.045 791V894.3M-797.045 791H-693.75M-797.045 894.3V997.6M-797.045 894.3H-693.75M-797.045 997.6V1100.9M-797.045 997.6H-693.75M-797.045 1100.9V1204.2M-797.045 1100.9H-693.75M-797.045 1204.2V1307.5M-797.045 1204.2H-693.75M-797.045 1307.5V1410.8M-797.045 1307.5H-693.75M-797.045 1410.8V1514.1M-797.045 1410.8H-693.75M-797.045 1514.1V1617.4M-797.045 1514.1H-693.75M-797.045 1617.4V1720.7M-797.045 1617.4H-693.75M-797.045 1720.7V1824M-797.045 1720.7H-693.75M-797.045 1824H-693.75M-693.75 -242V-138.7M-693.75 -242H-590.455M-693.75 -138.7V-35.4M-693.75 -138.7H-590.455M-693.75 -35.4V67.9M-693.75 -35.4H-590.455M-693.75 67.9V171.2M-693.75 67.9H-590.455M-693.75 171.2V274.5M-693.75 171.2H-590.455M-693.75 274.5V377.8M-693.75 274.5H-590.455M-693.75 377.8V481.1M-693.75 377.8H-590.455M-693.75 481.1V584.4M-693.75 481.1H-590.455M-693.75 584.4V687.7M-693.75 584.4H-590.455M-693.75 687.7V791M-693.75 687.7H-590.455M-693.75 791V894.3M-693.75 791H-590.455M-693.75 894.3V997.6M-693.75 894.3H-590.455M-693.75 997.6V1100.9M-693.75 997.6H-590.455M-693.75 1100.9V1204.2M-693.75 1100.9H-590.455M-693.75 1204.2V1307.5M-693.75 1204.2H-590.455M-693.75 1307.5V1410.8M-693.75 1307.5H-590.455M-693.75 1410.8V1514.1M-693.75 1410.8H-590.455M-693.75 1514.1V1617.4M-693.75 1514.1H-590.455M-693.75 1617.4V1720.7M-693.75 1617.4H-590.455M-693.75 1720.7V1824M-693.75 1720.7H-590.455M-693.75 1824H-590.455M-590.455 -242V-138.7M-590.455 -242H-487.159M-590.455 -138.7V-35.4M-590.455 -138.7H-487.159M-590.455 -35.4V67.9M-590.455 -35.4H-487.159M-590.455 67.9V171.2M-590.455 67.9H-487.159M-590.455 171.2V274.5M-590.455 171.2H-487.159M-590.455 274.5V377.8M-590.455 274.5H-487.159M-590.455 377.8V481.1M-590.455 377.8H-487.159M-590.455 481.1V584.4M-590.455 481.1H-487.159M-590.455 584.4V687.7M-590.455 584.4H-487.159M-590.455 687.7V791M-590.455 687.7H-487.159M-590.455 791V894.3M-590.455 791H-487.159M-590.455 894.3V997.6M-590.455 894.3H-487.159M-590.455 997.6V1100.9M-590.455 997.6H-487.159M-590.455 1100.9V1204.2M-590.455 1100.9H-487.159M-590.455 1204.2V1307.5M-590.455 1204.2H-487.159M-590.455 1307.5V1410.8M-590.455 1307.5H-487.159M-590.455 1410.8V1514.1M-590.455 1410.8H-487.159M-590.455 1514.1V1617.4M-590.455 1514.1H-487.159M-590.455 1617.4V1720.7M-590.455 1617.4H-487.159M-590.455 1720.7V1824M-590.455 1720.7H-487.159M-590.455 1824H-487.159M-487.159 -242V-138.7M-487.159 -242H-383.864M-487.159 -138.7V-35.4M-487.159 -138.7H-383.864M-487.159 -35.4V67.9M-487.159 -35.4H-383.864M-487.159 67.9V171.2M-487.159 67.9H-383.864M-487.159 171.2V274.5M-487.159 171.2H-383.864M-487.159 274.5V377.8M-487.159 274.5H-383.864M-487.159 377.8V481.1M-487.159 377.8H-383.864M-487.159 481.1V584.4M-487.159 481.1H-383.864M-487.159 584.4V687.7M-487.159 584.4H-383.864M-487.159 687.7V791M-487.159 687.7H-383.864M-487.159 791V894.3M-487.159 791H-383.864M-487.159 894.3V997.6M-487.159 894.3H-383.864M-487.159 997.6V1100.9M-487.159 997.6H-383.864M-487.159 1100.9V1204.2M-487.159 1100.9H-383.864M-487.159 1204.2V1307.5M-487.159 1204.2H-383.864M-487.159 1307.5V1410.8M-487.159 1307.5H-383.864M-487.159 1410.8V1514.1M-487.159 1410.8H-383.864M-487.159 1514.1V1617.4M-487.159 1514.1H-383.864M-487.159 1617.4V1720.7M-487.159 1617.4H-383.864M-487.159 1720.7V1824M-487.159 1720.7H-383.864M-487.159 1824H-383.864M-383.864 -242V-138.7M-383.864 -242H-280.568M-383.864 -138.7V-35.4M-383.864 -138.7H-280.568M-383.864 -35.4V67.9M-383.864 -35.4H-280.568M-383.864 67.9V171.2M-383.864 67.9H-280.568M-383.864 171.2V274.5M-383.864 171.2H-280.568M-383.864 274.5V377.8M-383.864 274.5H-280.568M-383.864 377.8V481.1M-383.864 377.8H-280.568M-383.864 481.1V584.4M-383.864 481.1H-280.568M-383.864 584.4V687.7M-383.864 584.4H-280.568M-383.864 687.7V791M-383.864 687.7H-280.568M-383.864 791V894.3M-383.864 791H-280.568M-383.864 894.3V997.6M-383.864 894.3H-280.568M-383.864 997.6V1100.9M-383.864 997.6H-280.568M-383.864 1100.9V1204.2M-383.864 1100.9H-280.568M-383.864 1204.2V1307.5M-383.864 1204.2H-280.568M-383.864 1307.5V1410.8M-383.864 1307.5H-280.568M-383.864 1410.8V1514.1M-383.864 1410.8H-280.568M-383.864 1514.1V1617.4M-383.864 1514.1H-280.568M-383.864 1617.4V1720.7M-383.864 1617.4H-280.568M-383.864 1720.7V1824M-383.864 1720.7H-280.568M-383.864 1824H-280.568M-280.568 -242V-138.7M-280.568 -242H-177.273M-280.568 -138.7V-35.4M-280.568 -138.7H-177.273M-280.568 -35.4V67.9M-280.568 -35.4H-177.273M-280.568 67.9V171.2M-280.568 67.9H-177.273M-280.568 171.2V274.5M-280.568 171.2H-177.273M-280.568 274.5V377.8M-280.568 274.5H-177.273M-280.568 377.8V481.1M-280.568 377.8H-177.273M-280.568 481.1V584.4M-280.568 481.1H-177.273M-280.568 584.4V687.7M-280.568 584.4H-177.273M-280.568 687.7V791M-280.568 687.7H-177.273M-280.568 791V894.3M-280.568 791H-177.273M-280.568 894.3V997.6M-280.568 894.3H-177.273M-280.568 997.6V1100.9M-280.568 997.6H-177.273M-280.568 1100.9V1204.2M-280.568 1100.9H-177.273M-280.568 1204.2V1307.5M-280.568 1204.2H-177.273M-280.568 1307.5V1410.8M-280.568 1307.5H-177.273M-280.568 1410.8V1514.1M-280.568 1410.8H-177.273M-280.568 1514.1V1617.4M-280.568 1514.1H-177.273M-280.568 1617.4V1720.7M-280.568 1617.4H-177.273M-280.568 1720.7V1824M-280.568 1720.7H-177.273M-280.568 1824H-177.273M-177.273 -242V-138.7M-177.273 -242H-73.9774M-177.273 -138.7V-35.4M-177.273 -138.7H-73.9774M-177.273 -35.4V67.9M-177.273 -35.4H-73.9774M-177.273 67.9V171.2M-177.273 67.9H-73.9774M-177.273 171.2V274.5M-177.273 171.2H-73.9774M-177.273 274.5V377.8M-177.273 274.5H-73.9774M-177.273 377.8V481.1M-177.273 377.8H-73.9774M-177.273 481.1V584.4M-177.273 481.1H-73.9774M-177.273 584.4V687.7M-177.273 584.4H-73.9774M-177.273 687.7V791M-177.273 687.7H-73.9774M-177.273 791V894.3M-177.273 791H-73.9774M-177.273 894.3V997.6M-177.273 894.3H-73.9774M-177.273 997.6V1100.9M-177.273 997.6H-73.9774M-177.273 1100.9V1204.2M-177.273 1100.9H-73.9774M-177.273 1204.2V1307.5M-177.273 1204.2H-73.9774M-177.273 1307.5V1410.8M-177.273 1307.5H-73.9774M-177.273 1410.8V1514.1M-177.273 1410.8H-73.9774M-177.273 1514.1V1617.4M-177.273 1514.1H-73.9774M-177.273 1617.4V1720.7M-177.273 1617.4H-73.9774M-177.273 1720.7V1824M-177.273 1720.7H-73.9774M-177.273 1824H-73.9774M-73.9774 -242V-138.7M-73.9774 -242H29.3181M-73.9774 -138.7V-35.4M-73.9774 -138.7H29.3181M-73.9774 -35.4V67.9M-73.9774 -35.4H29.3181M-73.9774 67.9V171.2M-73.9774 67.9H29.3181M-73.9774 171.2V274.5M-73.9774 171.2H29.3181M-73.9774 274.5V377.8M-73.9774 274.5H29.3181M-73.9774 377.8V481.1M-73.9774 377.8H29.3181M-73.9774 481.1V584.4M-73.9774 481.1H29.3181M-73.9774 584.4V687.7M-73.9774 584.4H29.3181M-73.9774 687.7V791M-73.9774 687.7H29.3181M-73.9774 791V894.3M-73.9774 791H29.3181M-73.9774 894.3V997.6M-73.9774 894.3H29.3181M-73.9774 997.6V1100.9M-73.9774 997.6H29.3181M-73.9774 1100.9V1204.2M-73.9774 1100.9H29.3181M-73.9774 1204.2V1307.5M-73.9774 1204.2H29.3181M-73.9774 1307.5V1410.8M-73.9774 1307.5H29.3181M-73.9774 1410.8V1514.1M-73.9774 1410.8H29.3181M-73.9774 1514.1V1617.4M-73.9774 1514.1H29.3181M-73.9774 1617.4V1720.7M-73.9774 1617.4H29.3181M-73.9774 1720.7V1824M-73.9774 1720.7H29.3181M-73.9774 1824H29.3181M29.3181 -242V-138.7M29.3181 -242H132.614M29.3181 -138.7V-35.4M29.3181 -138.7H132.614M29.3181 -35.4V67.9M29.3181 -35.4H132.614M29.3181 67.9V171.2M29.3181 67.9H132.614M29.3181 171.2V274.5M29.3181 171.2H132.614M29.3181 274.5V377.8M29.3181 274.5H132.614M29.3181 377.8V481.1M29.3181 377.8H132.614M29.3181 481.1V584.4M29.3181 481.1H132.614M29.3181 584.4V687.7M29.3181 584.4H132.614M29.3181 687.7V791M29.3181 687.7H132.614M29.3181 791V894.3M29.3181 791H132.614M29.3181 894.3V997.6M29.3181 894.3H132.614M29.3181 997.6V1100.9M29.3181 997.6H132.614M29.3181 1100.9V1204.2M29.3181 1100.9H132.614M29.3181 1204.2V1307.5M29.3181 1204.2H132.614M29.3181 1307.5V1410.8M29.3181 1307.5H132.614M29.3181 1410.8V1514.1M29.3181 1410.8H132.614M29.3181 1514.1V1617.4M29.3181 1514.1H132.614M29.3181 1617.4V1720.7M29.3181 1617.4H132.614M29.3181 1720.7V1824M29.3181 1720.7H132.614M29.3181 1824H132.614M132.614 -242V-138.7M132.614 -242H235.909M132.614 -138.7V-35.4M132.614 -138.7H235.909M132.614 -35.4V67.9M132.614 -35.4H235.909M132.614 67.9V171.2M132.614 67.9H235.909M132.614 171.2V274.5M132.614 171.2H235.909M132.614 274.5V377.8M132.614 274.5H235.909M132.614 377.8V481.1M132.614 377.8H235.909M132.614 481.1V584.4M132.614 481.1H235.909M132.614 584.4V687.7M132.614 584.4H235.909M132.614 687.7V791M132.614 687.7H235.909M132.614 791V894.3M132.614 791H235.909M132.614 894.3V997.6M132.614 894.3H235.909M132.614 997.6V1100.9M132.614 997.6H235.909M132.614 1100.9V1204.2M132.614 1100.9H235.909M132.614 1204.2V1307.5M132.614 1204.2H235.909M132.614 1307.5V1410.8M132.614 1307.5H235.909M132.614 1410.8V1514.1M132.614 1410.8H235.909M132.614 1514.1V1617.4M132.614 1514.1H235.909M132.614 1617.4V1720.7M132.614 1617.4H235.909M132.614 1720.7V1824M132.614 1720.7H235.909M132.614 1824H235.909M235.909 -242V-138.7M235.909 -242H339.205M235.909 -138.7V-35.4M235.909 -138.7H339.205M235.909 -35.4V67.9M235.909 -35.4H339.205M235.909 67.9V171.2M235.909 67.9H339.205M235.909 171.2V274.5M235.909 171.2H339.205M235.909 274.5V377.8M235.909 274.5H339.205M235.909 377.8V481.1M235.909 377.8H339.205M235.909 481.1V584.4M235.909 481.1H339.205M235.909 584.4V687.7M235.909 584.4H339.205M235.909 687.7V791M235.909 687.7H339.205M235.909 791V894.3M235.909 791H339.205M235.909 894.3V997.6M235.909 894.3H339.205M235.909 997.6V1100.9M235.909 997.6H339.205M235.909 1100.9V1204.2M235.909 1100.9H339.205M235.909 1204.2V1307.5M235.909 1204.2H339.205M235.909 1307.5V1410.8M235.909 1307.5H339.205M235.909 1410.8V1514.1M235.909 1410.8H339.205M235.909 1514.1V1617.4M235.909 1514.1H339.205M235.909 1617.4V1720.7M235.909 1617.4H339.205M235.909 1720.7V1824M235.909 1720.7H339.205M235.909 1824H339.205M339.205 -242V-138.7M339.205 -242H442.5M339.205 -138.7V-35.4M339.205 -138.7H442.5M339.205 -35.4V67.9M339.205 -35.4H442.5M339.205 67.9V171.2M339.205 67.9H442.5M339.205 171.2V274.5M339.205 171.2H442.5M339.205 274.5V377.8M339.205 274.5H442.5M339.205 377.8V481.1M339.205 377.8H442.5M339.205 481.1V584.4M339.205 481.1H442.5M339.205 584.4V687.7M339.205 584.4H442.5M339.205 687.7V791M339.205 687.7H442.5M339.205 791V894.3M339.205 791H442.5M339.205 894.3V997.6M339.205 894.3H442.5M339.205 997.6V1100.9M339.205 997.6H442.5M339.205 1100.9V1204.2M339.205 1100.9H442.5M339.205 1204.2V1307.5M339.205 1204.2H442.5M339.205 1307.5V1410.8M339.205 1307.5H442.5M339.205 1410.8V1514.1M339.205 1410.8H442.5M339.205 1514.1V1617.4M339.205 1514.1H442.5M339.205 1617.4V1720.7M339.205 1617.4H442.5M339.205 1720.7V1824M339.205 1720.7H442.5M339.205 1824H442.5M442.5 -242V-138.7M442.5 -242H545.795M442.5 -138.7V-35.4M442.5 -138.7H545.795M442.5 -35.4V67.9M442.5 -35.4H545.795M442.5 67.9V171.2M442.5 67.9H545.795M442.5 171.2V274.5M442.5 171.2H545.795M442.5 274.5V377.8M442.5 274.5H545.795M442.5 377.8V481.1M442.5 377.8H545.795M442.5 481.1V584.4M442.5 481.1H545.795M442.5 584.4V687.7M442.5 584.4H545.795M442.5 687.7V791M442.5 687.7H545.795M442.5 791V894.3M442.5 791H545.795M442.5 894.3V997.6M442.5 894.3H545.795M442.5 997.6V1100.9M442.5 997.6H545.795M442.5 1100.9V1204.2M442.5 1100.9H545.795M442.5 1204.2V1307.5M442.5 1204.2H545.795M442.5 1307.5V1410.8M442.5 1307.5H545.795M442.5 1410.8V1514.1M442.5 1410.8H545.795M442.5 1514.1V1617.4M442.5 1514.1H545.795M442.5 1617.4V1720.7M442.5 1617.4H545.795M442.5 1720.7V1824M442.5 1720.7H545.795M442.5 1824H545.795M545.795 -242V-138.7M545.795 -242H649.091M545.795 -138.7V-35.4M545.795 -138.7H649.091M545.795 -35.4V67.9M545.795 -35.4H649.091M545.795 67.9V171.2M545.795 67.9H649.091M545.795 171.2V274.5M545.795 171.2H649.091M545.795 274.5V377.8M545.795 274.5H649.091M545.795 377.8V481.1M545.795 377.8H649.091M545.795 481.1V584.4M545.795 481.1H649.091M545.795 584.4V687.7M545.795 584.4H649.091M545.795 687.7V791M545.795 687.7H649.091M545.795 791V894.3M545.795 791H649.091M545.795 894.3V997.6M545.795 894.3H649.091M545.795 997.6V1100.9M545.795 997.6H649.091M545.795 1100.9V1204.2M545.795 1100.9H649.091M545.795 1204.2V1307.5M545.795 1204.2H649.091M545.795 1307.5V1410.8M545.795 1307.5H649.091M545.795 1410.8V1514.1M545.795 1410.8H649.091M545.795 1514.1V1617.4M545.795 1514.1H649.091M545.795 1617.4V1720.7M545.795 1617.4H649.091M545.795 1720.7V1824M545.795 1720.7H649.091M545.795 1824H649.091M649.091 -242V-138.7M649.091 -242H752.386M649.091 -138.7V-35.4M649.091 -138.7H752.386M649.091 -35.4V67.9M649.091 -35.4H752.386M649.091 67.9V171.2M649.091 67.9H752.386M649.091 171.2V274.5M649.091 171.2H752.386M649.091 274.5V377.8M649.091 274.5H752.386M649.091 377.8V481.1M649.091 377.8H752.386M649.091 481.1V584.4M649.091 481.1H752.386M649.091 584.4V687.7M649.091 584.4H752.386M649.091 687.7V791M649.091 687.7H752.386M649.091 791V894.3M649.091 791H752.386M649.091 894.3V997.6M649.091 894.3H752.386M649.091 997.6V1100.9M649.091 997.6H752.386M649.091 1100.9V1204.2M649.091 1100.9H752.386M649.091 1204.2V1307.5M649.091 1204.2H752.386M649.091 1307.5V1410.8M649.091 1307.5H752.386M649.091 1410.8V1514.1M649.091 1410.8H752.386M649.091 1514.1V1617.4M649.091 1514.1H752.386M649.091 1617.4V1720.7M649.091 1617.4H752.386M649.091 1720.7V1824M649.091 1720.7H752.386M649.091 1824H752.386M752.386 -242V-138.7M752.386 -242H855.682M752.386 -138.7V-35.4M752.386 -138.7H855.682M752.386 -35.4V67.9M752.386 -35.4H855.682M752.386 67.9V171.2M752.386 67.9H855.682M752.386 171.2V274.5M752.386 171.2H855.682M752.386 274.5V377.8M752.386 274.5H855.682M752.386 377.8V481.1M752.386 377.8H855.682M752.386 481.1V584.4M752.386 481.1H855.682M752.386 584.4V687.7M752.386 584.4H855.682M752.386 687.7V791M752.386 687.7H855.682M752.386 791V894.3M752.386 791H855.682M752.386 894.3V997.6M752.386 894.3H855.682M752.386 997.6V1100.9M752.386 997.6H855.682M752.386 1100.9V1204.2M752.386 1100.9H855.682M752.386 1204.2V1307.5M752.386 1204.2H855.682M752.386 1307.5V1410.8M752.386 1307.5H855.682M752.386 1410.8V1514.1M752.386 1410.8H855.682M752.386 1514.1V1617.4M752.386 1514.1H855.682M752.386 1617.4V1720.7M752.386 1617.4H855.682M752.386 1720.7V1824M752.386 1720.7H855.682M752.386 1824H855.682M855.682 -242V-138.7M855.682 -242H958.977M855.682 -138.7V-35.4M855.682 -138.7H958.977M855.682 -35.4V67.9M855.682 -35.4H958.977M855.682 67.9V171.2M855.682 67.9H958.977M855.682 171.2V274.5M855.682 171.2H958.977M855.682 274.5V377.8M855.682 274.5H958.977M855.682 377.8V481.1M855.682 377.8H958.977M855.682 481.1V584.4M855.682 481.1H958.977M855.682 584.4V687.7M855.682 584.4H958.977M855.682 687.7V791M855.682 687.7H958.977M855.682 791V894.3M855.682 791H958.977M855.682 894.3V997.6M855.682 894.3H958.977M855.682 997.6V1100.9M855.682 997.6H958.977M855.682 1100.9V1204.2M855.682 1100.9H958.977M855.682 1204.2V1307.5M855.682 1204.2H958.977M855.682 1307.5V1410.8M855.682 1307.5H958.977M855.682 1410.8V1514.1M855.682 1410.8H958.977M855.682 1514.1V1617.4M855.682 1514.1H958.977M855.682 1617.4V1720.7M855.682 1617.4H958.977M855.682 1720.7V1824M855.682 1720.7H958.977M855.682 1824H958.977M958.977 -242V-138.7M958.977 -242H1062.27M958.977 -138.7V-35.4M958.977 -138.7H1062.27M958.977 -35.4V67.9M958.977 -35.4H1062.27M958.977 67.9V171.2M958.977 67.9H1062.27M958.977 171.2V274.5M958.977 171.2H1062.27M958.977 274.5V377.8M958.977 274.5H1062.27M958.977 377.8V481.1M958.977 377.8H1062.27M958.977 481.1V584.4M958.977 481.1H1062.27M958.977 584.4V687.7M958.977 584.4H1062.27M958.977 687.7V791M958.977 687.7H1062.27M958.977 791V894.3M958.977 791H1062.27M958.977 894.3V997.6M958.977 894.3H1062.27M958.977 997.6V1100.9M958.977 997.6H1062.27M958.977 1100.9V1204.2M958.977 1100.9H1062.27M958.977 1204.2V1307.5M958.977 1204.2H1062.27M958.977 1307.5V1410.8M958.977 1307.5H1062.27M958.977 1410.8V1514.1M958.977 1410.8H1062.27M958.977 1514.1V1617.4M958.977 1514.1H1062.27M958.977 1617.4V1720.7M958.977 1617.4H1062.27M958.977 1720.7V1824M958.977 1720.7H1062.27M958.977 1824H1062.27M1062.27 -242V-138.7M1062.27 -242H1165.57M1062.27 -138.7V-35.4M1062.27 -138.7H1165.57M1062.27 -35.4V67.9M1062.27 -35.4H1165.57M1062.27 67.9V171.2M1062.27 67.9H1165.57M1062.27 171.2V274.5M1062.27 171.2H1165.57M1062.27 274.5V377.8M1062.27 274.5H1165.57M1062.27 377.8V481.1M1062.27 377.8H1165.57M1062.27 481.1V584.4M1062.27 481.1H1165.57M1062.27 584.4V687.7M1062.27 584.4H1165.57M1062.27 687.7V791M1062.27 687.7H1165.57M1062.27 791V894.3M1062.27 791H1165.57M1062.27 894.3V997.6M1062.27 894.3H1165.57M1062.27 997.6V1100.9M1062.27 997.6H1165.57M1062.27 1100.9V1204.2M1062.27 1100.9H1165.57M1062.27 1204.2V1307.5M1062.27 1204.2H1165.57M1062.27 1307.5V1410.8M1062.27 1307.5H1165.57M1062.27 1410.8V1514.1M1062.27 1410.8H1165.57M1062.27 1514.1V1617.4M1062.27 1514.1H1165.57M1062.27 1617.4V1720.7M1062.27 1617.4H1165.57M1062.27 1720.7V1824M1062.27 1720.7H1165.57M1062.27 1824H1165.57M1165.57 -242V-138.7M1165.57 -242H1268.86M1165.57 -138.7V-35.4M1165.57 -138.7H1268.86M1165.57 -35.4V67.9M1165.57 -35.4H1268.86M1165.57 67.9V171.2M1165.57 67.9H1268.86M1165.57 171.2V274.5M1165.57 171.2H1268.86M1165.57 274.5V377.8M1165.57 274.5H1268.86M1165.57 377.8V481.1M1165.57 377.8H1268.86M1165.57 481.1V584.4M1165.57 481.1H1268.86M1165.57 584.4V687.7M1165.57 584.4H1268.86M1165.57 687.7V791M1165.57 687.7H1268.86M1165.57 791V894.3M1165.57 791H1268.86M1165.57 894.3V997.6M1165.57 894.3H1268.86M1165.57 997.6V1100.9M1165.57 997.6H1268.86M1165.57 1100.9V1204.2M1165.57 1100.9H1268.86M1165.57 1204.2V1307.5M1165.57 1204.2H1268.86M1165.57 1307.5V1410.8M1165.57 1307.5H1268.86M1165.57 1410.8V1514.1M1165.57 1410.8H1268.86M1165.57 1514.1V1617.4M1165.57 1514.1H1268.86M1165.57 1617.4V1720.7M1165.57 1617.4H1268.86M1165.57 1720.7V1824M1165.57 1720.7H1268.86M1165.57 1824H1268.86M1268.86 -242V-138.7M1268.86 -242H1372.16M1268.86 -138.7V-35.4M1268.86 -138.7H1372.16M1268.86 -35.4V67.9M1268.86 -35.4H1372.16M1268.86 67.9V171.2M1268.86 67.9H1372.16M1268.86 171.2V274.5M1268.86 171.2H1372.16M1268.86 274.5V377.8M1268.86 274.5H1372.16M1268.86 377.8V481.1M1268.86 377.8H1372.16M1268.86 481.1V584.4M1268.86 481.1H1372.16M1268.86 584.4V687.7M1268.86 584.4H1372.16M1268.86 687.7V791M1268.86 687.7H1372.16M1268.86 791V894.3M1268.86 791H1372.16M1268.86 894.3V997.6M1268.86 894.3H1372.16M1268.86 997.6V1100.9M1268.86 997.6H1372.16M1268.86 1100.9V1204.2M1268.86 1100.9H1372.16M1268.86 1204.2V1307.5M1268.86 1204.2H1372.16M1268.86 1307.5V1410.8M1268.86 1307.5H1372.16M1268.86 1410.8V1514.1M1268.86 1410.8H1372.16M1268.86 1514.1V1617.4M1268.86 1514.1H1372.16M1268.86 1617.4V1720.7M1268.86 1617.4H1372.16M1268.86 1720.7V1824M1268.86 1720.7H1372.16M1268.86 1824H1372.16M1372.16 -242V-138.7M1372.16 -242H1475.45M1372.16 -138.7V-35.4M1372.16 -138.7H1475.45M1372.16 -35.4V67.9M1372.16 -35.4H1475.45M1372.16 67.9V171.2M1372.16 67.9H1475.45M1372.16 171.2V274.5M1372.16 171.2H1475.45M1372.16 274.5V377.8M1372.16 274.5H1475.45M1372.16 377.8V481.1M1372.16 377.8H1475.45M1372.16 481.1V584.4M1372.16 481.1H1475.45M1372.16 584.4V687.7M1372.16 584.4H1475.45M1372.16 687.7V791M1372.16 687.7H1475.45M1372.16 791V894.3M1372.16 791H1475.45M1372.16 894.3V997.6M1372.16 894.3H1475.45M1372.16 997.6V1100.9M1372.16 997.6H1475.45M1372.16 1100.9V1204.2M1372.16 1100.9H1475.45M1372.16 1204.2V1307.5M1372.16 1204.2H1475.45M1372.16 1307.5V1410.8M1372.16 1307.5H1475.45M1372.16 1410.8V1514.1M1372.16 1410.8H1475.45M1372.16 1514.1V1617.4M1372.16 1514.1H1475.45M1372.16 1617.4V1720.7M1372.16 1617.4H1475.45M1372.16 1720.7V1824M1372.16 1720.7H1475.45M1372.16 1824H1475.45M1475.45 -242V-138.7M1475.45 -242H1578.75M1475.45 -138.7V-35.4M1475.45 -138.7H1578.75M1475.45 -35.4V67.9M1475.45 -35.4H1578.75M1475.45 67.9V171.2M1475.45 67.9H1578.75M1475.45 171.2V274.5M1475.45 171.2H1578.75M1475.45 274.5V377.8M1475.45 274.5H1578.75M1475.45 377.8V481.1M1475.45 377.8H1578.75M1475.45 481.1V584.4M1475.45 481.1H1578.75M1475.45 584.4V687.7M1475.45 584.4H1578.75M1475.45 687.7V791M1475.45 687.7H1578.75M1475.45 791V894.3M1475.45 791H1578.75M1475.45 894.3V997.6M1475.45 894.3H1578.75M1475.45 997.6V1100.9M1475.45 997.6H1578.75M1475.45 1100.9V1204.2M1475.45 1100.9H1578.75M1475.45 1204.2V1307.5M1475.45 1204.2H1578.75M1475.45 1307.5V1410.8M1475.45 1307.5H1578.75M1475.45 1410.8V1514.1M1475.45 1410.8H1578.75M1475.45 1514.1V1617.4M1475.45 1514.1H1578.75M1475.45 1617.4V1720.7M1475.45 1617.4H1578.75M1475.45 1720.7V1824M1475.45 1720.7H1578.75M1475.45 1824H1578.75M1578.75 -242V-138.7M1578.75 -242H1682.05M1578.75 -138.7V-35.4M1578.75 -138.7H1682.05M1578.75 -35.4V67.9M1578.75 -35.4H1682.05M1578.75 67.9V171.2M1578.75 67.9H1682.05M1578.75 171.2V274.5M1578.75 171.2H1682.05M1578.75 274.5V377.8M1578.75 274.5H1682.05M1578.75 377.8V481.1M1578.75 377.8H1682.05M1578.75 481.1V584.4M1578.75 481.1H1682.05M1578.75 584.4V687.7M1578.75 584.4H1682.05M1578.75 687.7V791M1578.75 687.7H1682.05M1578.75 791V894.3M1578.75 791H1682.05M1578.75 894.3V997.6M1578.75 894.3H1682.05M1578.75 997.6V1100.9M1578.75 997.6H1682.05M1578.75 1100.9V1204.2M1578.75 1100.9H1682.05M1578.75 1204.2V1307.5M1578.75 1204.2H1682.05M1578.75 1307.5V1410.8M1578.75 1307.5H1682.05M1578.75 1410.8V1514.1M1578.75 1410.8H1682.05M1578.75 1514.1V1617.4M1578.75 1514.1H1682.05M1578.75 1617.4V1720.7M1578.75 1617.4H1682.05M1578.75 1720.7V1824M1578.75 1720.7H1682.05M1578.75 1824H1682.05M1682.05 -242V-138.7M1682.05 -242H1785.34M1682.05 -138.7V-35.4M1682.05 -138.7H1785.34M1682.05 -35.4V67.9M1682.05 -35.4H1785.34M1682.05 67.9V171.2M1682.05 67.9H1785.34M1682.05 171.2V274.5M1682.05 171.2H1785.34M1682.05 274.5V377.8M1682.05 274.5H1785.34M1682.05 377.8V481.1M1682.05 377.8H1785.34M1682.05 481.1V584.4M1682.05 481.1H1785.34M1682.05 584.4V687.7M1682.05 584.4H1785.34M1682.05 687.7V791M1682.05 687.7H1785.34M1682.05 791V894.3M1682.05 791H1785.34M1682.05 894.3V997.6M1682.05 894.3H1785.34M1682.05 997.6V1100.9M1682.05 997.6H1785.34M1682.05 1100.9V1204.2M1682.05 1100.9H1785.34M1682.05 1204.2V1307.5M1682.05 1204.2H1785.34M1682.05 1307.5V1410.8M1682.05 1307.5H1785.34M1682.05 1410.8V1514.1M1682.05 1410.8H1785.34M1682.05 1514.1V1617.4M1682.05 1514.1H1785.34M1682.05 1617.4V1720.7M1682.05 1617.4H1785.34M1682.05 1720.7V1824M1682.05 1720.7H1785.34M1682.05 1824H1785.34M1785.34 -242V-138.7M1785.34 -242H1888.64M1785.34 -138.7V-35.4M1785.34 -138.7H1888.64M1785.34 -35.4V67.9M1785.34 -35.4H1888.64M1785.34 67.9V171.2M1785.34 67.9H1888.64M1785.34 171.2V274.5M1785.34 171.2H1888.64M1785.34 274.5V377.8M1785.34 274.5H1888.64M1785.34 377.8V481.1M1785.34 377.8H1888.64M1785.34 481.1V584.4M1785.34 481.1H1888.64M1785.34 584.4V687.7M1785.34 584.4H1888.64M1785.34 687.7V791M1785.34 687.7H1888.64M1785.34 791V894.3M1785.34 791H1888.64M1785.34 894.3V997.6M1785.34 894.3H1888.64M1785.34 997.6V1100.9M1785.34 997.6H1888.64M1785.34 1100.9V1204.2M1785.34 1100.9H1888.64M1785.34 1204.2V1307.5M1785.34 1204.2H1888.64M1785.34 1307.5V1410.8M1785.34 1307.5H1888.64M1785.34 1410.8V1514.1M1785.34 1410.8H1888.64M1785.34 1514.1V1617.4M1785.34 1514.1H1888.64M1785.34 1617.4V1720.7M1785.34 1617.4H1888.64M1785.34 1720.7V1824M1785.34 1720.7H1888.64M1785.34 1824H1888.64M1888.64 -242V-138.7M1888.64 -242H1991.93M1888.64 -138.7V-35.4M1888.64 -138.7H1991.93M1888.64 -35.4V67.9M1888.64 -35.4H1991.93M1888.64 67.9V171.2M1888.64 67.9H1991.93M1888.64 171.2V274.5M1888.64 171.2H1991.93M1888.64 274.5V377.8M1888.64 274.5H1991.93M1888.64 377.8V481.1M1888.64 377.8H1991.93M1888.64 481.1V584.4M1888.64 481.1H1991.93M1888.64 584.4V687.7M1888.64 584.4H1991.93M1888.64 687.7V791M1888.64 687.7H1991.93M1888.64 791V894.3M1888.64 791H1991.93M1888.64 894.3V997.6M1888.64 894.3H1991.93M1888.64 997.6V1100.9M1888.64 997.6H1991.93M1888.64 1100.9V1204.2M1888.64 1100.9H1991.93M1888.64 1204.2V1307.5M1888.64 1204.2H1991.93M1888.64 1307.5V1410.8M1888.64 1307.5H1991.93M1888.64 1410.8V1514.1M1888.64 1410.8H1991.93M1888.64 1514.1V1617.4M1888.64 1514.1H1991.93M1888.64 1617.4V1720.7M1888.64 1617.4H1991.93M1888.64 1720.7V1824M1888.64 1720.7H1991.93M1888.64 1824H1991.93M1991.93 -242V-138.7M1991.93 -242H2095.23M1991.93 -138.7V-35.4M1991.93 -138.7H2095.23M1991.93 -35.4V67.9M1991.93 -35.4H2095.23M1991.93 67.9V171.2M1991.93 67.9H2095.23M1991.93 171.2V274.5M1991.93 171.2H2095.23M1991.93 274.5V377.8M1991.93 274.5H2095.23M1991.93 377.8V481.1M1991.93 377.8H2095.23M1991.93 481.1V584.4M1991.93 481.1H2095.23M1991.93 584.4V687.7M1991.93 584.4H2095.23M1991.93 687.7V791M1991.93 687.7H2095.23M1991.93 791V894.3M1991.93 791H2095.23M1991.93 894.3V997.6M1991.93 894.3H2095.23M1991.93 997.6V1100.9M1991.93 997.6H2095.23M1991.93 1100.9V1204.2M1991.93 1100.9H2095.23M1991.93 1204.2V1307.5M1991.93 1204.2H2095.23M1991.93 1307.5V1410.8M1991.93 1307.5H2095.23M1991.93 1410.8V1514.1M1991.93 1410.8H2095.23M1991.93 1514.1V1617.4M1991.93 1514.1H2095.23M1991.93 1617.4V1720.7M1991.93 1617.4H2095.23M1991.93 1720.7V1824M1991.93 1720.7H2095.23M1991.93 1824H2095.23M2095.23 -242V-138.7M2095.23 -242H2198.52M2095.23 -138.7V-35.4M2095.23 -138.7H2198.52M2095.23 -35.4V67.9M2095.23 -35.4H2198.52M2095.23 67.9V171.2M2095.23 67.9H2198.52M2095.23 171.2V274.5M2095.23 171.2H2198.52M2095.23 274.5V377.8M2095.23 274.5H2198.52M2095.23 377.8V481.1M2095.23 377.8H2198.52M2095.23 481.1V584.4M2095.23 481.1H2198.52M2095.23 584.4V687.7M2095.23 584.4H2198.52M2095.23 687.7V791M2095.23 687.7H2198.52M2095.23 791V894.3M2095.23 791H2198.52M2095.23 894.3V997.6M2095.23 894.3H2198.52M2095.23 997.6V1100.9M2095.23 997.6H2198.52M2095.23 1100.9V1204.2M2095.23 1100.9H2198.52M2095.23 1204.2V1307.5M2095.23 1204.2H2198.52M2095.23 1307.5V1410.8M2095.23 1307.5H2198.52M2095.23 1410.8V1514.1M2095.23 1410.8H2198.52M2095.23 1514.1V1617.4M2095.23 1514.1H2198.52M2095.23 1617.4V1720.7M2095.23 1617.4H2198.52M2095.23 1720.7V1824M2095.23 1720.7H2198.52M2095.23 1824H2198.52M2198.52 -242V-138.7M2198.52 -242H2301.82M2198.52 -138.7V-35.4M2198.52 -138.7H2301.82M2198.52 -35.4V67.9M2198.52 -35.4H2301.82M2198.52 67.9V171.2M2198.52 67.9H2301.82M2198.52 171.2V274.5M2198.52 171.2H2301.82M2198.52 274.5V377.8M2198.52 274.5H2301.82M2198.52 377.8V481.1M2198.52 377.8H2301.82M2198.52 481.1V584.4M2198.52 481.1H2301.82M2198.52 584.4V687.7M2198.52 584.4H2301.82M2198.52 687.7V791M2198.52 687.7H2301.82M2198.52 791V894.3M2198.52 791H2301.82M2198.52 894.3V997.6M2198.52 894.3H2301.82M2198.52 997.6V1100.9M2198.52 997.6H2301.82M2198.52 1100.9V1204.2M2198.52 1100.9H2301.82M2198.52 1204.2V1307.5M2198.52 1204.2H2301.82M2198.52 1307.5V1410.8M2198.52 1307.5H2301.82M2198.52 1410.8V1514.1M2198.52 1410.8H2301.82M2198.52 1514.1V1617.4M2198.52 1514.1H2301.82M2198.52 1617.4V1720.7M2198.52 1617.4H2301.82M2198.52 1720.7V1824M2198.52 1720.7H2301.82M2198.52 1824H2301.82M2301.82 -242V-138.7M2301.82 -242H2405.11M2301.82 -138.7V-35.4M2301.82 -138.7H2405.11M2301.82 -35.4V67.9M2301.82 -35.4H2405.11M2301.82 67.9V171.2M2301.82 67.9H2405.11M2301.82 171.2V274.5M2301.82 171.2H2405.11M2301.82 274.5V377.8M2301.82 274.5H2405.11M2301.82 377.8V481.1M2301.82 377.8H2405.11M2301.82 481.1V584.4M2301.82 481.1H2405.11M2301.82 584.4V687.7M2301.82 584.4H2405.11M2301.82 687.7V791M2301.82 687.7H2405.11M2301.82 791V894.3M2301.82 791H2405.11M2301.82 894.3V997.6M2301.82 894.3H2405.11M2301.82 997.6V1100.9M2301.82 997.6H2405.11M2301.82 1100.9V1204.2M2301.82 1100.9H2405.11M2301.82 1204.2V1307.5M2301.82 1204.2H2405.11M2301.82 1307.5V1410.8M2301.82 1307.5H2405.11M2301.82 1410.8V1514.1M2301.82 1410.8H2405.11M2301.82 1514.1V1617.4M2301.82 1514.1H2405.11M2301.82 1617.4V1720.7M2301.82 1617.4H2405.11M2301.82 1720.7V1824M2301.82 1720.7H2405.11M2301.82 1824H2405.11M2405.11 -242V-138.7M2405.11 -242H2508.41M2405.11 -138.7V-35.4M2405.11 -138.7H2508.41M2405.11 -35.4V67.9M2405.11 -35.4H2508.41M2405.11 67.9V171.2M2405.11 67.9H2508.41M2405.11 171.2V274.5M2405.11 171.2H2508.41M2405.11 274.5V377.8M2405.11 274.5H2508.41M2405.11 377.8V481.1M2405.11 377.8H2508.41M2405.11 481.1V584.4M2405.11 481.1H2508.41M2405.11 584.4V687.7M2405.11 584.4H2508.41M2405.11 687.7V791M2405.11 687.7H2508.41M2405.11 791V894.3M2405.11 791H2508.41M2405.11 894.3V997.6M2405.11 894.3H2508.41M2405.11 997.6V1100.9M2405.11 997.6H2508.41M2405.11 1100.9V1204.2M2405.11 1100.9H2508.41M2405.11 1204.2V1307.5M2405.11 1204.2H2508.41M2405.11 1307.5V1410.8M2405.11 1307.5H2508.41M2405.11 1410.8V1514.1M2405.11 1410.8H2508.41M2405.11 1514.1V1617.4M2405.11 1514.1H2508.41M2405.11 1617.4V1720.7M2405.11 1617.4H2508.41M2405.11 1720.7V1824M2405.11 1720.7H2508.41M2405.11 1824H2508.41M2508.41 -242V-138.7M2508.41 -242H2611.7M2508.41 -138.7V-35.4M2508.41 -138.7H2611.7M2508.41 -35.4V67.9M2508.41 -35.4H2611.7M2508.41 67.9V171.2M2508.41 67.9H2611.7M2508.41 171.2V274.5M2508.41 171.2H2611.7M2508.41 274.5V377.8M2508.41 274.5H2611.7M2508.41 377.8V481.1M2508.41 377.8H2611.7M2508.41 481.1V584.4M2508.41 481.1H2611.7M2508.41 584.4V687.7M2508.41 584.4H2611.7M2508.41 687.7V791M2508.41 687.7H2611.7M2508.41 791V894.3M2508.41 791H2611.7M2508.41 894.3V997.6M2508.41 894.3H2611.7M2508.41 997.6V1100.9M2508.41 997.6H2611.7M2508.41 1100.9V1204.2M2508.41 1100.9H2611.7M2508.41 1204.2V1307.5M2508.41 1204.2H2611.7M2508.41 1307.5V1410.8M2508.41 1307.5H2611.7M2508.41 1410.8V1514.1M2508.41 1410.8H2611.7M2508.41 1514.1V1617.4M2508.41 1514.1H2611.7M2508.41 1617.4V1720.7M2508.41 1617.4H2611.7M2508.41 1720.7V1824M2508.41 1720.7H2611.7M2508.41 1824H2611.7M2611.7 -242V-138.7M2611.7 -242H2715V-138.7M2611.7 -138.7V-35.4M2611.7 -138.7H2715M2611.7 -35.4V67.9M2611.7 -35.4H2715M2611.7 67.9V171.2M2611.7 67.9H2715M2611.7 171.2V274.5M2611.7 171.2H2715M2611.7 274.5V377.8M2611.7 274.5H2715M2611.7 377.8V481.1M2611.7 377.8H2715M2611.7 481.1V584.4M2611.7 481.1H2715M2611.7 584.4V687.7M2611.7 584.4H2715M2611.7 687.7V791M2611.7 687.7H2715M2611.7 791V894.3M2611.7 791H2715M2611.7 894.3V997.6M2611.7 894.3H2715M2611.7 997.6V1100.9M2611.7 997.6H2715M2611.7 1100.9V1204.2M2611.7 1100.9H2715M2611.7 1204.2V1307.5M2611.7 1204.2H2715M2611.7 1307.5V1410.8M2611.7 1307.5H2715M2611.7 1410.8V1514.1M2611.7 1410.8H2715M2611.7 1514.1V1617.4M2611.7 1514.1H2715M2611.7 1617.4V1720.7M2611.7 1617.4H2715M2611.7 1720.7V1824M2611.7 1720.7H2715M2611.7 1824H2715V1720.7M2715 -138.7V-35.4M2715 -35.4V67.9M2715 67.9V171.2M2715 171.2V274.5M2715 274.5V377.8M2715 377.8V481.1M2715 481.1V584.4M2715 584.4V687.7M2715 687.7V791M2715 791V894.3M2715 894.3V997.6M2715 997.6V1100.9M2715 1100.9V1204.2M2715 1204.2V1307.5M2715 1307.5V1410.8M2715 1410.8V1514.1M2715 1514.1V1617.4M2715 1617.4V1720.7" stroke="url(#paint0_radial_675_69)" stroke-width="0.804612"/>
<g opacity="0.25" filter="url(#filter0_f_675_69)">
<rect x="-54" y="433" width="303" height="369" transform="rotate(180 -54 433)" fill="#0CBAFF"/>
</g>
<g opacity="0.2" filter="url(#filter1_f_675_69)">
<rect x="-552" y="542" width="485" height="365" fill="#84FFD3"/>
</g>
<g filter="url(#filter2_f_675_69)">
<rect width="716" height="326" transform="matrix(1 0 0 -1 -423 340)" fill="#200495"/>
</g>
<g filter="url(#filter3_f_675_69)">
<rect x="828" y="340" width="535" height="195" transform="rotate(180 828 340)" fill="#200495"/>
</g>
<g opacity="0.25" filter="url(#filter4_f_675_69)">
<rect x="951" y="340" width="677" height="466" transform="rotate(180 951 340)" fill="#0CBAFF"/>
</g>
</g>
<defs>
<filter id="filter0_f_675_69" x="-757" y="-336" width="1103" height="1169" filterUnits="userSpaceOnUse" color-interpolation-filters="sRGB">
<feFlood flood-opacity="0" result="BackgroundImageFix"/>
<feBlend mode="normal" in="SourceGraphic" in2="BackgroundImageFix" result="shape"/>
<feGaussianBlur stdDeviation="200" result="effect1_foregroundBlur_675_69"/>
</filter>
<filter id="filter1_f_675_69" x="-952" y="142" width="1285" height="1165" filterUnits="userSpaceOnUse" color-interpolation-filters="sRGB">
<feFlood flood-opacity="0" result="BackgroundImageFix"/>
<feBlend mode="normal" in="SourceGraphic" in2="BackgroundImageFix" result="shape"/>
<feGaussianBlur stdDeviation="200" result="effect1_foregroundBlur_675_69"/>
</filter>
<filter id="filter2_f_675_69" x="-823" y="-386" width="1516" height="1126" filterUnits="userSpaceOnUse" color-interpolation-filters="sRGB">
<feFlood flood-opacity="0" result="BackgroundImageFix"/>
<feBlend mode="normal" in="SourceGraphic" in2="BackgroundImageFix" result="shape"/>
<feGaussianBlur stdDeviation="200" result="effect1_foregroundBlur_675_69"/>
</filter>
<filter id="filter3_f_675_69" x="-107" y="-255" width="1335" height="995" filterUnits="userSpaceOnUse" color-interpolation-filters="sRGB">
<feFlood flood-opacity="0" result="BackgroundImageFix"/>
<feBlend mode="normal" in="SourceGraphic" in2="BackgroundImageFix" result="shape"/>
<feGaussianBlur stdDeviation="200" result="effect1_foregroundBlur_675_69"/>
</filter>
<filter id="filter4_f_675_69" x="-126" y="-526" width="1477" height="1266" filterUnits="userSpaceOnUse" color-interpolation-filters="sRGB">
<feFlood flood-opacity="0" result="BackgroundImageFix"/>
<feBlend mode="normal" in="SourceGraphic" in2="BackgroundImageFix" result="shape"/>
<feGaussianBlur stdDeviation="200" result="effect1_foregroundBlur_675_69"/>
</filter>
<radialGradient id="paint0_radial_675_69" cx="0" cy="0" r="1" gradientUnits="userSpaceOnUse" gradientTransform="translate(169 -8.99998) rotate(90) scale(398 875.561)">
<stop stop-color="#230394" stop-opacity="0.5"/>
<stop offset="0.368559" stop-color="#E3DFF1" stop-opacity="0.936629"/>
<stop offset="0.622977" stop-color="white"/>
<stop offset="1" stop-color="#230394" stop-opacity="0.5"/>
</radialGradient>
<clipPath id="clip0_675_69">
<rect width="375" height="300" fill="white"/>
</clipPath>
</defs>
</svg>
