<svg width="1440" height="850" viewBox="0 0 1440 850" fill="none" xmlns="http://www.w3.org/2000/svg">
<g clip-path="url(#clip0_2862_158300)">
<g opacity="0.4">
<mask id="mask0_2862_158300" style="mask-type:alpha" maskUnits="userSpaceOnUse" x="103" y="-334" width="1459" height="1168">
<mask id="mask1_2862_158300" style="mask-type:luminance" maskUnits="userSpaceOnUse" x="103" y="-334" width="1752" height="1168">
<path d="M1854.5 833.666H103V-334H1854.5V833.666Z" fill="white"/>
</mask>
<g mask="url(#mask1_2862_158300)">
<path d="M133.65 1062.09C176.416 1051.14 197.58 1001.66 199.624 957.582C201.521 913.356 190.72 868.839 197.872 825.198C215.095 720.4 320.185 665.957 416.372 652.529C459.429 646.545 491.248 645.231 534.306 652.529C584.078 660.995 634.287 668.001 684.935 669.46C757.476 671.65 831.331 662.308 897.304 632.095C999.767 585.242 1076.83 479.714 1079.9 365.721C1083.84 218.595 982.982 80.3727 1001.23 -65.7315C1014.95 -175.492 1096.68 -268.322 1195.06 -318.969C1293.43 -369.617 1406.55 -383.483 1517.19 -385.38" stroke="#FF5D40" stroke-miterlimit="10"/>
<path d="M122.704 1050.56C164.74 1038.59 185.904 989.548 188.823 945.761C191.742 901.973 182.401 857.894 190.575 814.836C206.192 731.64 276.982 680.408 354.34 656.763C373.023 651.071 392.143 646.984 410.972 644.357C453.883 638.518 485.994 637.497 528.906 644.941C578.678 653.552 628.741 660.412 679.243 663.039C755.579 666.98 832.791 663.331 903.435 634.723C911.609 631.366 919.636 627.718 927.664 623.631C966.051 603.926 1000.79 575.464 1027.35 540.872C1047.79 514.162 1063.26 483.949 1073.04 452.714C1082.96 421.332 1086.61 388.784 1086.03 355.651C1083.99 235.09 1017.14 120.804 1002.98 2.57831C1000.21 -20.921 999.621 -44.5662 1002.1 -68.5034C1012.61 -165.566 1076.1 -249.784 1157.84 -303.496C1167.33 -309.772 1177.11 -315.611 1187.18 -321.011C1282.78 -372.68 1394.73 -388.444 1504.2 -389.757" stroke="#FA5C44" stroke-miterlimit="10"/>
<path d="M111.903 1039.17C153.064 1026.18 174.373 977.577 178.168 934.082C181.963 890.586 174.373 846.945 183.423 804.471C200.792 722.442 271.582 671.649 348.939 648.296C367.768 642.603 386.743 638.662 405.571 636.181C448.337 630.489 480.74 629.759 523.506 637.203C573.131 645.814 623.195 652.82 673.551 656.469C753.682 662.162 834.251 664.059 909.419 637.057C918.177 633.846 926.788 630.343 935.254 626.402C976.268 607.135 1013.93 577.506 1041.07 540.432C1062.09 511.825 1076.69 479.422 1084.86 446.289C1093.18 413.157 1093.91 379.295 1091.87 345.14C1084.86 227.06 1020.35 114.672 1004.73 -1.80243C1001.66 -25.0098 1000.64 -48.2172 1002.83 -71.8624C1011.44 -167.611 1071.58 -251.537 1150.69 -305.979C1159.88 -312.256 1169.37 -318.24 1179.15 -323.787C1272.13 -376.477 1382.62 -394.138 1491.06 -394.722" stroke="#F55A49" stroke-miterlimit="10"/>
<path d="M100.956 1027.64C141.241 1013.63 162.696 965.464 167.513 922.407C172.33 879.203 166.199 835.999 176.27 794.109C195.537 713.248 266.181 662.893 343.685 639.977C362.513 634.431 381.634 630.49 400.316 628.009C442.936 622.462 475.631 622.025 518.251 629.468C567.876 638.226 617.794 645.232 668.004 649.757C751.93 657.346 835.856 664.79 915.549 639.394C924.745 636.474 933.94 632.971 942.989 629.177C986.777 610.348 1027.21 579.551 1055.09 539.996C1076.69 509.491 1090.41 474.753 1097.12 439.869C1103.84 404.985 1101.65 369.955 1098 334.633C1086.47 219.034 1024 108.543 1006.63 -6.17974C1003.27 -28.9492 1001.96 -52.0106 1003.56 -75.218C1010.28 -169.653 1067.05 -253.141 1143.68 -308.313C1152.59 -314.736 1161.78 -320.72 1171.27 -326.412C1261.47 -380.271 1370.79 -399.683 1478.07 -399.683" stroke="#F1594D" stroke-miterlimit="10"/>
<path d="M90.1553 1016.11C129.564 1000.93 151.166 953.349 156.858 910.584C162.551 867.818 158.026 825.052 169.119 783.6C190.137 703.907 260.78 653.989 338.284 631.365C357.113 625.819 376.233 622.024 394.916 619.689C437.536 614.434 470.377 613.996 512.704 621.586C562.33 630.49 612.102 637.642 662.166 643.042C749.887 652.529 837.17 665.52 921.388 641.582C931.167 638.809 940.8 635.452 950.433 631.657C996.848 613.267 1040.05 581.302 1068.66 539.266C1090.85 506.863 1103.69 469.79 1108.8 433.154C1113.91 396.519 1108.8 360.467 1103.69 323.831C1087.93 210.714 1027.06 102.121 1008.23 -10.8509C1004.58 -33.3285 1002.83 -55.952 1004 -78.8674C1008.82 -171.989 1062.38 -255.185 1136.24 -311.087C1144.85 -317.655 1153.75 -323.786 1162.95 -329.478C1250.52 -384.358 1358.53 -405.668 1464.64 -405.084" stroke="#EC5752" stroke-miterlimit="10"/>
<path d="M79.208 1004.73C117.887 988.525 139.489 941.381 146.203 899.053C152.917 856.579 149.998 814.251 161.966 773.383C184.882 695.003 255.38 645.377 333.029 623.192C351.858 617.791 370.979 613.996 389.807 611.807C432.281 606.698 465.414 606.553 507.595 614.142C557.075 623.046 606.993 630.49 656.765 636.766C748.427 648.297 838.921 666.687 927.809 644.356C938.026 641.728 948.389 638.663 958.46 634.868C1007.5 616.915 1053.63 583.783 1082.96 539.412C1105.59 505.112 1117.7 465.849 1121.2 427.316C1124.71 388.929 1116.83 351.855 1110.11 313.906C1090.55 203.416 1030.86 96.5744 1010.57 -14.6458C1006.63 -36.6855 1004.44 -59.0171 1005.31 -81.6406C1008.38 -173.448 1058.44 -256.207 1129.67 -312.839C1137.99 -319.407 1146.6 -325.683 1155.5 -331.521C1240.45 -387.423 1347 -410.485 1452.09 -409.317" stroke="#E75656" stroke-miterlimit="10"/>
<path d="M68.4082 993.195C106.211 975.972 127.959 929.266 135.549 887.23C143.285 845.048 141.825 803.304 154.815 763.019C179.628 685.807 249.98 636.765 327.776 614.726C346.605 609.325 365.725 605.676 384.554 603.487C426.882 598.524 460.306 598.67 502.342 606.26C551.822 615.309 601.594 622.899 651.365 630.051C746.822 643.625 840.673 667.271 934.087 646.544C944.887 644.063 955.688 641.144 966.343 637.495C1018.16 619.834 1067.05 585.68 1096.98 538.827C1120.18 502.63 1131.42 461.032 1133.32 420.747C1135.22 380.463 1124.56 342.513 1116.1 303.251C1093.04 195.534 1034.36 90.2976 1012.32 -19.171C1007.94 -40.9188 1005.61 -62.8127 1005.9 -85.1443C1007.07 -175.784 1053.92 -258.105 1122.37 -315.32C1130.4 -322.034 1138.72 -328.311 1147.33 -334.295C1229.51 -391.219 1334.89 -416.178 1438.66 -414.426" stroke="#E2555B" stroke-miterlimit="10"/>
<path d="M57.46 981.811C94.3874 963.566 116.281 917.443 124.893 875.699C133.504 833.955 133.65 792.503 147.662 752.802C174.227 676.758 244.578 628.154 322.374 606.406C341.349 601.151 360.323 597.502 379.152 595.459C421.334 590.642 455.05 591.08 496.94 598.67C546.274 607.866 596.046 615.747 645.672 623.483C744.923 639.101 842.132 668.146 940.07 649.026C951.454 646.836 962.693 643.917 973.932 640.414C1028.37 623.191 1080.04 587.869 1110.84 538.535C1134.63 500.44 1144.99 456.507 1145.29 414.617C1145.72 372.581 1132.3 333.61 1122.08 293.034C1095.81 187.944 1037.72 84.4593 1014.22 -23.112C1009.55 -44.4219 1006.77 -66.0237 1006.63 -87.9175C1005.9 -177.244 1049.39 -259.126 1115.22 -317.218C1122.96 -323.932 1130.98 -330.354 1139.16 -336.484C1218.7 -394.43 1322.77 -421.286 1425.38 -418.951" stroke="#DD535F" stroke-miterlimit="10"/>
<path d="M46.6592 970.281C82.7109 951.015 104.751 905.33 114.238 863.878C123.871 822.426 125.623 781.411 140.364 742.294C168.68 667.418 239.032 619.252 316.974 597.942C335.948 592.687 355.069 589.184 373.752 587.141C415.788 582.47 449.796 583.054 491.394 590.936C540.728 600.131 590.354 608.451 639.834 616.916C743.026 634.723 843.445 669.023 945.908 651.362C957.731 649.319 969.553 646.546 981.522 643.189C1038.59 626.404 1093.18 589.914 1124.71 538.245C1149.08 498.252 1158.57 451.983 1157.26 408.342C1156.09 364.554 1140.03 324.562 1128.06 282.672C1098.87 180.209 1041.07 78.4763 1016.11 -27.3434C1011.15 -48.3614 1008.09 -69.5254 1007.5 -91.1272C1004.88 -179.14 1045.01 -260.731 1108.36 -319.406C1115.8 -326.266 1123.39 -332.834 1131.42 -338.964C1208.19 -398.077 1310.95 -426.685 1412.54 -423.62" stroke="#D95264" stroke-miterlimit="10"/>
<path d="M35.7129 958.75C70.8888 938.462 93.0745 893.215 103.583 852.2C114.092 811.04 117.449 770.61 133.213 731.931C163.426 658.222 233.632 610.494 311.574 589.476C330.549 584.367 349.669 580.864 368.498 578.967C410.534 574.442 444.688 575.318 486.14 583.199C535.328 592.541 584.954 601.152 634.288 610.348C741.275 630.344 845.051 669.753 952.185 653.697C964.591 651.8 976.998 649.173 989.404 645.815C1049.1 629.468 1106.46 591.811 1138.72 537.66C1163.53 495.916 1172.29 447.312 1169.37 401.773C1166.6 356.234 1147.91 315.22 1134.05 272.016C1102.08 172.181 1044.58 72.1995 1017.87 -31.8687C1012.61 -52.4488 1009.11 -73.4668 1008.09 -94.6308C1003.71 -181.33 1040.49 -262.483 1101.06 -322.034C1108.07 -329.04 1115.51 -335.608 1123.25 -341.884C1197.39 -402.019 1298.84 -432.524 1399.25 -428.875" stroke="#D45168" stroke-miterlimit="10"/>
<path d="M24.9111 947.365C59.3573 926.055 81.543 881.246 92.9277 840.524C104.458 799.801 109.275 759.663 126.06 721.568C158.025 649.027 228.231 601.736 306.319 581.01C325.293 576.047 344.414 572.544 363.242 570.647C405.132 566.414 439.725 567.436 480.885 575.318C530.073 584.659 579.553 593.708 628.74 603.634C739.523 625.819 846.51 670.482 958.314 656.033C971.159 654.281 984.149 651.946 997.139 648.589C1059.61 632.679 1119.74 593.854 1152.73 537.223C1178.13 493.581 1186.01 442.642 1181.63 395.351C1177.25 348.061 1156.09 306.025 1140.32 261.507C1105.88 164.153 1048.22 66.0692 1020.05 -36.2475C1014.51 -56.5357 1010.71 -77.1158 1009.25 -97.9878C1002.98 -183.373 1036.4 -264.234 1094.35 -324.369C1101.06 -331.375 1108.21 -338.089 1115.66 -344.511C1187.18 -405.668 1287.3 -438.071 1386.56 -433.838" stroke="#CF4F6D" stroke-miterlimit="10"/>
<path d="M13.9648 935.834C47.5352 913.502 69.8669 869.131 82.1274 828.701C94.5338 788.27 101.102 748.57 118.763 711.058C152.479 639.685 222.685 592.832 300.773 572.544C319.747 567.581 338.868 564.224 357.697 562.473C399.441 558.386 434.325 559.7 475.339 567.581C524.527 577.069 573.861 586.41 623.049 596.919C737.772 621.44 847.97 671.212 964.299 658.221C977.727 656.762 991.155 654.426 1004.73 651.215C1069.83 635.744 1132.88 595.751 1166.45 536.784C1192.43 491.245 1199.44 437.97 1193.45 388.928C1187.47 339.886 1163.97 296.829 1146.16 250.998C1109.38 156.271 1051.44 59.9386 1021.81 -40.6267C1015.97 -60.477 1011.74 -80.7652 1009.84 -101.345C1001.66 -185.563 1031.88 -265.84 1087.05 -326.705C1093.47 -333.857 1100.33 -340.571 1107.48 -347.139C1176.23 -409.317 1275.04 -443.471 1373.27 -438.655" stroke="#CA4E71" stroke-miterlimit="10"/>
<path d="M3.16406 924.305C35.8587 900.951 58.1903 857.018 71.6184 817.025C85.0466 776.887 93.0743 737.77 111.757 700.843C147.225 630.637 217.431 584.222 295.664 564.226C314.785 559.409 333.759 556.198 352.588 554.446C394.186 550.506 429.362 552.111 470.23 559.993C519.272 569.626 568.606 579.405 617.648 590.498C736.166 617.354 849.722 672.089 970.721 660.85C984.733 659.536 998.745 657.347 1012.76 654.282C1080.48 639.248 1146.31 598.088 1180.76 536.64C1207.32 489.203 1213.3 433.739 1205.86 382.8C1198.27 332.006 1172.44 287.781 1152.59 240.782C1113.61 148.537 1055.38 54.1015 1024 -44.7122C1017.87 -64.2706 1013.34 -84.1209 1010.86 -104.409C1000.79 -187.313 1027.64 -267.153 1080.34 -328.893C1086.47 -336.045 1093.03 -343.051 1099.89 -349.619C1166.01 -412.819 1263.51 -448.871 1360.58 -443.47" stroke="#C54C76" stroke-miterlimit="10"/>
<path d="M-7.78223 912.92C24.0367 888.399 46.5142 845.049 60.8182 805.349C75.1221 765.648 84.7553 726.823 104.46 690.48C141.825 621.587 211.885 575.464 290.265 555.76C309.385 550.943 328.506 547.878 347.334 546.127C388.786 542.332 424.254 544.083 464.831 552.111C513.873 561.744 563.061 572.107 611.957 583.784C734.27 612.976 851.182 672.819 976.706 663.039C991.156 661.872 1005.75 659.828 1020.35 656.763C1090.7 642.021 1159.45 599.839 1194.48 535.91C1221.48 486.576 1226.73 428.776 1217.68 376.085C1208.49 323.394 1180.32 278.293 1158.28 229.981C1117.26 140.071 1058.44 47.6793 1025.6 -49.3829C1019.18 -68.5035 1014.22 -88.0618 1011.44 -108.058C999.476 -189.649 1022.97 -269.196 1073.04 -331.52C1078.88 -338.818 1085.15 -345.824 1091.72 -352.538C1155.07 -416.906 1251.4 -454.709 1347.29 -448.579" stroke="#C14B7A" stroke-miterlimit="10"/>
<path d="M-18.584 901.389C12.5051 875.846 34.9827 832.934 50.3083 793.671C65.634 754.263 76.7268 716.022 97.4528 680.116C136.424 612.391 206.484 566.706 284.863 547.44C303.984 542.769 323.104 539.704 341.933 538.099C383.385 534.45 418.999 536.493 459.429 544.521C508.325 554.3 557.513 565.101 606.263 577.361C732.371 609.034 852.641 673.84 982.69 665.666C997.724 664.644 1012.76 662.747 1027.94 659.828C1101.06 645.524 1172.58 602.174 1208.34 535.909C1235.93 484.678 1240.31 424.543 1229.65 370.101C1219 315.658 1188.49 269.389 1164.26 219.764C1121.2 132.189 1061.8 41.8405 1027.5 -53.3242C1020.78 -72.1529 1015.53 -91.2734 1012.17 -110.978C998.453 -191.255 1018.6 -270.364 1065.89 -333.564C1071.43 -340.862 1077.42 -348.014 1083.69 -354.874C1144.41 -420.263 1239.28 -459.964 1334.16 -453.25" stroke="#BC4A7E" stroke-miterlimit="10"/>
<path d="M-29.5303 889.857C0.683087 863.293 23.3066 820.819 39.508 781.848C55.8553 742.732 68.4077 704.928 90.1555 669.606C131.024 603.049 201.084 557.802 279.609 538.828C298.73 534.157 317.85 531.238 336.679 529.632C377.985 526.275 413.891 528.465 454.175 536.492C503.071 546.418 552.113 557.51 600.717 570.355C730.474 604.509 854.247 674.131 988.821 667.563C1004.29 666.833 1019.91 665.082 1035.67 662.163C1111.43 648.297 1185.72 603.779 1222.35 535.033C1250.52 481.904 1254.03 419.434 1241.77 363.386C1229.51 307.192 1196.96 259.756 1170.39 208.962C1125.58 123.577 1065.45 35.4178 1029.4 -57.9955C1022.39 -76.3863 1016.7 -95.2148 1012.9 -114.481C997.286 -193.445 1014.07 -272.262 1058.73 -336.046C1063.99 -343.49 1069.54 -350.642 1075.67 -357.648C1133.76 -424.059 1227.32 -465.657 1321.02 -458.359" stroke="#B74883" stroke-miterlimit="10"/>
<path d="M-40.3311 878.473C-10.9934 850.887 11.776 808.851 28.9991 770.318C46.2222 731.639 60.5261 694.127 83.1496 659.389C125.769 594 195.829 549.191 274.355 530.508C293.475 525.983 312.596 523.064 331.425 521.605C372.585 518.394 408.782 520.875 448.921 529.049C497.817 538.974 546.567 550.65 595.317 564.079C728.869 600.86 855.999 675.299 995.243 670.336C1011.3 669.752 1027.5 668.147 1043.7 665.374C1122.08 651.945 1199.29 606.26 1236.51 535.033C1265.27 480.007 1267.89 415.347 1254.03 357.402C1240.16 299.456 1205.57 250.706 1176.52 198.891C1129.96 115.695 1068.95 29.7253 1031.44 -61.9365C1024.14 -80.0353 1018.01 -98.572 1013.93 -117.401C996.41 -195.196 1009.98 -273.43 1051.87 -337.944C1056.84 -345.533 1062.09 -352.831 1067.93 -359.837C1123.25 -427.27 1215.64 -470.766 1308.18 -462.738" stroke="#B24787" stroke-miterlimit="10"/>
<path d="M-51.2783 866.943C-22.8165 838.336 0.0989468 796.737 18.1978 758.496C36.4425 720.109 52.2061 683.182 75.7054 649.028C120.077 584.806 190.137 540.435 268.808 522.19C288.075 517.665 307.195 514.892 325.878 513.578C366.892 510.513 403.382 513.141 443.228 521.46C491.978 531.531 540.728 543.792 589.332 557.658C726.679 597.067 857.166 676.322 1000.93 672.819C1017.43 672.381 1034.21 670.921 1051.14 668.294C1132.15 655.304 1212.28 608.451 1250.23 534.742C1279.57 477.965 1281.32 410.824 1265.85 351.127C1250.38 291.43 1213.89 241.366 1182.36 188.529C1134.05 107.523 1072.31 23.7424 1033.19 -66.1678C1025.6 -83.8288 1019.18 -102.073 1014.51 -120.61C995.096 -197.092 1005.31 -275.034 1044.72 -340.277C1049.25 -347.867 1054.36 -355.311 1059.9 -362.463C1112.59 -430.918 1203.52 -476.165 1295.04 -467.699" stroke="#AD458C" stroke-miterlimit="10"/>
<path d="M-62.0791 855.559C-34.347 825.929 -11.4316 784.769 7.543 746.966C26.6635 708.871 44.0326 672.381 68.5535 638.811C114.676 575.757 184.736 531.969 263.408 513.87C282.674 509.492 301.795 506.718 320.623 505.405C361.638 502.486 398.273 505.405 437.974 513.724C486.724 523.941 535.328 536.64 583.786 551.09C724.782 593.126 858.772 677.198 1007.07 675.154C1024.14 674.862 1041.37 673.549 1058.88 670.921C1142.66 658.369 1225.42 610.349 1264.1 534.304C1293.87 475.629 1294.89 406.153 1277.96 344.705C1260.89 283.256 1222.5 231.879 1188.49 178.02C1138.43 99.057 1075.81 17.6123 1035.09 -70.5465C1027.21 -87.9155 1020.35 -105.722 1015.24 -123.967C994.075 -199.136 1000.79 -276.64 1037.57 -342.613C1041.8 -350.348 1046.62 -357.792 1051.87 -364.944C1101.79 -434.566 1191.56 -481.565 1281.9 -472.516" stroke="#A84490" stroke-miterlimit="10"/>
<path d="M-73.0254 844.027C-46.1691 813.376 -23.1076 772.654 -3.11136 735.142C17.0309 697.485 35.8594 661.288 61.4021 628.301C109.276 566.415 179.336 523.065 258.154 505.258C277.42 500.879 296.541 498.252 315.369 497.085C356.238 494.311 393.165 497.522 432.72 505.842C481.324 516.059 529.928 529.341 578.24 544.229C722.885 588.892 860.378 677.635 1013.34 677.343C1031 677.343 1048.66 676.029 1066.76 673.548C1153.17 661.434 1238.85 612.392 1278.26 533.72C1308.62 473.147 1308.76 401.482 1290.22 338.136C1271.54 274.936 1231.26 222.099 1194.62 167.365C1142.95 90.2989 1079.31 11.3355 1037.13 -75.0718C1028.96 -92.003 1021.81 -109.518 1016.26 -127.471C993.2 -201.326 996.703 -278.538 1030.71 -345.241C1034.65 -352.976 1039.18 -360.566 1044.14 -367.864C1091.43 -438.508 1179.88 -487.404 1269.06 -477.625" stroke="#A44395" stroke-miterlimit="10"/>
<path d="M-83.8271 832.496C-57.8466 800.823 -34.6393 760.539 -13.7672 723.465C7.25076 686.1 27.685 650.486 54.2494 617.937C103.875 557.219 173.935 514.307 252.899 496.938C272.165 492.705 291.286 490.078 310.114 488.91C350.837 486.283 388.056 489.786 427.465 498.106C476.069 508.469 524.381 522.189 572.693 537.66C720.987 585.097 861.982 678.51 1019.47 679.678C1037.57 679.824 1055.96 678.802 1074.5 676.321C1163.53 664.644 1252.13 614.434 1292.12 533.282C1323.06 470.812 1322.33 396.811 1302.19 331.713C1281.9 266.616 1239.87 212.32 1200.61 156.855C1147.33 81.6869 1082.82 5.20468 1039.03 -79.3052C1030.56 -95.9444 1022.97 -113.021 1016.99 -130.682C992.031 -203.224 992.177 -279.998 1023.56 -347.43C1027.21 -355.312 1031.44 -362.902 1035.96 -370.346C1080.48 -442.011 1167.62 -492.805 1255.78 -482.442" stroke="#9F4199" stroke-miterlimit="10"/>
<path d="M-94.7744 821.111C-69.6696 788.417 -46.3163 748.57 -24.4226 711.789C-2.38286 674.715 19.5109 639.539 47.097 607.574C98.6202 548.023 168.534 505.55 247.498 488.472C266.764 484.24 285.885 481.758 304.713 480.737C345.29 478.401 382.801 482.05 422.064 490.37C470.522 500.879 518.834 515.183 567.146 531.092C719.089 581.302 863.442 679.386 1025.6 682.159C1044.28 682.451 1063.11 681.575 1082.23 679.24C1174.04 667.855 1265.26 616.624 1306.13 533.136C1337.66 468.768 1336.05 392.432 1314.31 325.583C1292.56 258.734 1248.63 202.832 1206.74 146.638C1151.86 73.2213 1086.32 -0.633674 1040.93 -83.392C1032.17 -99.5934 1024.29 -116.379 1017.87 -133.748C991.009 -204.975 987.944 -281.457 1016.55 -349.474C1019.91 -357.356 1023.85 -365.237 1028.08 -372.681C1069.97 -445.368 1155.8 -498.059 1242.79 -487.113" stroke="#9A409E" stroke-miterlimit="10"/>
<path d="M-105.575 809.582C-81.3461 775.72 -57.8469 736.603 -35.0774 699.967C-12.1619 663.332 11.3374 628.448 39.9452 597.067C93.074 538.538 163.134 496.648 242.243 479.862C261.656 475.776 280.776 473.294 299.605 472.272C340.035 470.083 377.838 473.878 416.809 482.344C465.267 492.853 513.288 507.74 561.6 524.234C717.191 577.362 865.047 679.825 1031.73 684.204C1050.85 684.642 1070.26 683.912 1089.97 681.723C1184.4 670.776 1278.55 618.377 1320 532.407C1351.96 466.142 1349.63 387.471 1326.28 319.016C1302.92 250.416 1257.38 192.908 1212.57 135.985C1156.09 64.1732 1089.53 -6.90849 1042.68 -87.9153C1033.48 -103.825 1025.31 -120.172 1018.45 -137.249C989.842 -207.309 983.273 -283.207 1009.4 -352.1C1012.46 -360.127 1015.97 -368.009 1020.05 -375.599C1059.32 -449.308 1143.83 -503.896 1229.65 -492.22" stroke="#953FA2" stroke-miterlimit="10"/>
<path d="M-116.521 798.051C-93.0222 763.167 -69.5229 724.488 -45.7317 688.29C-21.7946 651.947 3.16426 617.5 32.7938 586.849C87.6741 529.488 157.734 488.035 236.843 471.688C256.256 467.747 275.376 465.266 294.205 464.39C334.635 462.347 372.585 466.434 411.41 474.899C459.868 485.554 507.742 500.88 555.908 517.957C715.149 574.005 866.507 680.992 1037.86 686.977C1057.57 687.706 1077.56 686.977 1097.71 684.787C1194.77 674.278 1291.83 620.711 1334.01 532.261C1366.56 464.098 1363.35 383.237 1338.39 312.886C1313.43 242.534 1266.29 183.129 1218.7 125.767C1160.61 55.707 1093.18 -12.7473 1044.72 -92.0027C1035.24 -107.474 1026.77 -123.676 1019.33 -140.315C988.82 -209.061 978.895 -284.668 1002.39 -354.144C1005.17 -362.317 1008.38 -370.199 1012.17 -377.935C1048.66 -452.811 1131.86 -509.005 1216.66 -496.891" stroke="#903DA7" stroke-miterlimit="10"/>
<path d="M-127.322 786.666C-104.699 750.76 -81.0534 712.519 -56.3865 676.614C-31.4276 640.562 -5.00926 606.7 25.642 576.486C82.2738 520.292 152.334 479.278 231.589 463.223C251.002 459.282 270.122 456.946 288.951 456.217C329.235 454.319 367.476 458.698 406.155 467.309C454.467 478.11 502.196 494.02 550.362 511.389C713.105 570.356 868.113 681.868 1043.99 689.312C1064.28 690.188 1084.72 689.604 1105.44 687.56C1205.13 677.489 1304.97 622.755 1348.02 531.969C1381.16 461.909 1377.07 378.713 1350.51 306.609C1323.94 234.506 1275.19 173.349 1224.83 115.404C1164.99 46.8037 1096.68 -18.7316 1046.62 -96.2354C1036.84 -111.415 1027.94 -127.178 1020.2 -143.38C987.799 -210.813 974.663 -285.981 995.389 -356.333C997.87 -364.507 1000.79 -372.534 1004.29 -380.416C1038.15 -456.314 1120.04 -514.406 1203.67 -501.708" stroke="#8C3CAB" stroke-miterlimit="10"/>
<path d="M-138.27 775.135C-116.522 738.207 -92.7305 700.404 -67.0419 664.936C-41.2073 629.177 -13.0373 595.752 18.4897 566.123C76.873 511.096 146.933 470.52 226.188 454.756C245.601 450.962 264.721 448.772 283.55 447.896C323.688 446.145 362.221 450.816 400.754 459.427C449.067 470.228 496.649 486.721 544.669 504.674C710.916 566.56 869.572 682.451 1049.98 691.501C1070.7 692.522 1091.72 692.23 1113.03 690.187C1215.49 680.554 1318.1 624.652 1361.74 531.384C1395.46 459.573 1390.5 373.896 1362.47 300.041C1334.3 226.186 1284.09 163.132 1230.67 104.749C1169.22 37.6078 1099.89 -25.0083 1048.37 -100.761C1038.3 -115.502 1029.1 -130.974 1020.79 -146.883C986.485 -213.003 969.992 -287.879 988.09 -358.815C990.134 -367.134 992.907 -375.308 996.118 -383.19C1027.21 -460.11 1107.92 -520.099 1190.39 -506.67" stroke="#873AB0" stroke-miterlimit="10"/>
<path d="M-149.07 763.605C-68.0635 616.626 56.001 478.257 220.788 446.292C333.614 424.399 434.909 458.115 538.977 497.961C728.285 570.357 908.251 711.498 1120.77 692.962C1225.86 683.766 1331.38 626.697 1375.76 530.948C1409.91 457.239 1404.22 369.372 1374.59 293.62C1344.81 217.868 1293.14 152.916 1236.8 94.2409C1173.75 28.5597 1103.54 -31.1371 1050.41 -105.138C997.286 -179.139 961.964 -272.26 981.23 -361.295C1000.35 -450.329 1087.78 -527.249 1177.54 -511.778" stroke="#8239B4" stroke-miterlimit="10"/>
<path d="M-121.63 776.74C-39.4554 633.263 82.8576 496.063 242.39 460.887C308.509 446.437 370.103 451.399 430.53 465.411C469.939 474.607 508.91 487.597 548.173 501.609C591.668 517.08 634.58 536.201 677.784 556.197C757.769 593.125 838.629 632.533 924.599 656.033C985.026 672.526 1047.79 681.43 1113.61 675.445C1120.91 674.715 1128.36 673.84 1135.65 672.818C1231.99 658.076 1325.11 604.509 1367.58 518.832C1381.74 490.37 1389.62 459.573 1392.4 428.338C1396.48 381.631 1389.04 333.465 1373.13 289.386C1346.71 215.969 1298.84 152.477 1246.44 94.2395C1187.91 28.9961 1121.93 -32.4522 1069.68 -106.599C1065.45 -112.729 1061.22 -118.86 1057.13 -125.136C1025.46 -174.178 1001.23 -229.496 994.367 -285.836C991.448 -310.503 991.74 -335.462 996.41 -360.274C1002.25 -392.093 1016.84 -422.453 1037.28 -447.849C1073.77 -493.096 1129.96 -522.434 1187.32 -512.509" stroke="#853FB7" stroke-miterlimit="10"/>
<path d="M-94.3359 789.875C-11.1397 649.901 109.422 514.014 263.846 475.335C327.775 459.571 387.18 462.491 444.834 474.021C482.637 481.611 519.71 492.85 557.076 504.964C598.528 518.393 639.396 535.47 680.702 553.131C757.185 585.971 835.126 620.709 919.636 641.435C978.895 655.885 1041.07 663.913 1106.02 657.783C1113.32 657.053 1120.62 656.177 1127.77 655.156C1223.08 640.56 1315.33 589.036 1358.82 506.424C1373.27 478.984 1381.89 449.354 1385.39 419.141C1390.64 374.04 1384.95 327.479 1371.08 284.859C1348.02 213.632 1303.8 151.891 1255.63 94.092C1201.48 29.2865 1139.89 -33.7675 1088.51 -108.352C1084.28 -114.482 1080.19 -120.613 1076.1 -126.889C1044.72 -176.077 1019.62 -230.519 1011.44 -285.983C1007.94 -310.358 1007.5 -335.025 1011.44 -359.546C1016.26 -391.073 1029.69 -421.287 1049.25 -446.975C1084.13 -492.66 1139.89 -523.166 1197.1 -513.386" stroke="#8844BA" stroke-miterlimit="10"/>
<path d="M-66.8955 803.014C17.3224 666.543 136.132 531.531 285.448 489.933C347.188 472.71 404.258 473.586 459.43 482.781C495.482 488.766 530.804 498.253 566.417 508.616C605.826 520.001 644.651 534.888 684.06 550.36C757.039 578.968 832.207 609.327 915.112 627.134C973.349 639.686 1034.8 646.546 1099.02 640.416C1106.17 639.686 1113.32 638.811 1120.62 637.789C1214.91 623.339 1306.28 573.859 1350.94 494.458C1365.83 468.039 1374.88 439.578 1379.26 410.532C1385.83 367.036 1381.74 322.227 1369.92 280.775C1350.21 211.737 1309.64 151.602 1265.56 94.2404C1215.93 29.7268 1158.57 -34.9328 1108.07 -109.663C1103.98 -115.794 1099.89 -122.07 1095.95 -128.346C1064.86 -177.534 1038.74 -231.101 1029.25 -285.981C1025.16 -310.064 1024 -334.293 1027.06 -358.668C1030.86 -389.903 1043.12 -420.116 1061.65 -446.097C1094.79 -492.074 1150.1 -524.039 1207.32 -514.114" stroke="#8B4ABD" stroke-miterlimit="10"/>
<path d="M-39.4561 816.148C45.7836 683.035 162.842 549.337 307.049 504.528C366.6 485.991 421.334 484.823 473.879 491.391C508.179 495.77 541.604 503.506 575.466 512.117C612.831 521.459 649.613 534.157 687.124 547.439C756.6 571.96 828.85 597.649 910.294 612.537C967.364 623.046 1028.23 629.03 1091.72 622.754C1098.87 622.024 1105.88 621.148 1113.03 619.981C1206.3 605.677 1296.79 558.24 1342.62 481.904C1357.8 456.507 1367.58 429.213 1372.84 401.189C1380.57 359.445 1378.24 316.095 1368.31 276.103C1351.96 209.254 1315.18 150.725 1275.19 93.947C1230.09 29.8713 1176.96 -36.5397 1127.48 -111.562C1123.39 -117.692 1119.45 -123.969 1115.51 -130.245C1084.57 -179.433 1057.71 -232.27 1046.77 -286.274C1041.95 -309.919 1040.34 -334.003 1042.53 -358.086C1045.45 -389.029 1056.4 -419.242 1074.06 -445.369C1105.59 -491.783 1160.47 -525.062 1217.54 -515.137" stroke="#8F4FC0" stroke-miterlimit="10"/>
<path d="M-12.1611 829.285C74.1002 699.674 189.407 566.998 328.505 518.978C385.867 499.128 438.266 495.916 488.33 500.003C521.024 502.631 552.551 508.761 584.516 515.475C619.838 522.919 654.576 533.282 690.19 544.375C756.163 564.663 825.639 585.827 905.478 597.941C961.526 606.553 1021.66 611.515 1084.42 605.093C1091.43 604.363 1098.44 603.488 1105.44 602.32C1197.54 588.162 1287.31 542.623 1334.16 469.498C1349.78 445.123 1360.14 418.996 1366.12 392.14C1375.17 352.002 1374.44 310.404 1366.56 271.579C1353.42 206.919 1320.44 149.995 1284.53 93.6555C1243.81 29.8717 1195.06 -38.1448 1146.46 -113.459C1142.51 -119.59 1138.57 -125.866 1134.63 -132.142C1103.98 -181.33 1076.25 -233.291 1063.84 -286.566C1058.44 -309.919 1056.11 -333.564 1057.57 -357.355C1059.46 -388.153 1069.24 -418.22 1085.88 -444.638C1115.66 -491.491 1170.25 -526.083 1227.32 -516.158" stroke="#9255C2" stroke-miterlimit="10"/>
<path d="M15.2783 842.422C102.707 716.314 216.117 584.806 350.107 533.574C405.279 512.41 455.488 507.01 502.779 508.761C533.722 509.783 563.498 514.162 593.565 519.124C626.698 524.525 659.538 532.698 693.254 541.602C755.725 557.803 822.282 574.442 900.661 583.638C955.687 590.206 1015.09 594.293 1077.12 587.579C1084.13 586.849 1090.99 585.973 1098 584.806C1189.07 570.648 1277.82 527.298 1325.98 457.384C1341.89 434.177 1352.99 408.926 1359.85 383.237C1370.06 344.704 1371.08 304.712 1365.25 267.346C1355.47 204.876 1326.13 149.412 1294.31 93.656C1258.11 30.1642 1213.6 -39.312 1165.87 -114.918C1161.93 -121.049 1158.13 -127.325 1154.19 -133.747C1123.83 -182.935 1095.08 -234.166 1081.36 -286.565C1075.37 -309.481 1072.31 -332.98 1072.89 -356.479C1073.77 -386.985 1082.38 -416.906 1098.14 -443.616C1126.17 -490.907 1180.46 -526.812 1237.39 -516.887" stroke="#955AC5" stroke-miterlimit="10"/>
<path d="M42.7188 855.559C131.169 732.954 242.828 602.613 371.563 548.17C424.4 525.839 472.42 518.249 517.229 517.519C546.421 516.935 574.445 519.709 602.615 522.774C633.704 526.131 664.355 532.261 696.174 538.829C755.141 550.798 818.925 562.912 895.699 569.334C949.557 573.859 1008.38 576.924 1069.68 570.21C1076.54 569.48 1083.4 568.605 1090.26 567.437C1180.32 553.425 1268.18 512.119 1317.37 445.27C1333.72 423.084 1345.4 399.001 1352.99 374.334C1364.52 337.553 1367.14 299.166 1363.2 262.968C1356.78 202.687 1331.24 148.829 1303.51 93.6565C1271.69 30.3106 1231.55 -40.6251 1184.84 -116.523C1181.05 -122.8 1177.11 -129.076 1173.31 -135.352C1143.24 -184.54 1113.47 -234.896 1098.43 -286.565C1091.87 -309.188 1088.07 -332.25 1087.93 -355.603C1087.78 -385.816 1095.22 -415.738 1109.97 -442.74C1136.38 -490.468 1190.24 -527.688 1247.02 -517.617" stroke="#9860C8" stroke-miterlimit="10"/>
<path d="M70.0127 868.693C159.485 749.591 269.538 620.418 393.018 562.619C443.666 538.974 489.351 529.34 531.533 526.129C559.119 523.94 585.245 524.962 611.664 526.129C640.709 527.589 669.317 531.384 699.239 535.763C754.703 543.644 815.567 551.088 890.882 554.737C943.719 557.364 1001.81 559.408 1062.38 552.548C1069.24 551.818 1075.96 550.796 1082.67 549.775C1171.71 535.909 1258.7 496.5 1309.05 432.862C1325.69 411.698 1337.95 388.783 1346.56 365.283C1359.26 330.107 1363.64 293.326 1361.74 258.588C1358.68 200.496 1336.78 148.097 1313.14 93.5091C1285.7 30.3092 1249.94 -42.0861 1204.11 -118.13C1200.31 -124.407 1196.52 -130.683 1192.72 -136.959C1162.8 -186.293 1132.3 -235.773 1115.8 -286.712C1108.65 -308.898 1104.13 -331.813 1103.25 -354.875C1102.08 -384.942 1108.36 -414.718 1122.08 -441.866C1146.75 -489.886 1200.31 -528.565 1256.95 -518.494" stroke="#9B65CB" stroke-miterlimit="10"/>
<path d="M97.4531 881.832C187.947 766.233 296.248 638.228 414.62 577.217C463.079 552.258 506.574 540.436 545.983 534.743C571.817 530.948 596.193 530.219 620.714 529.635C647.716 529.051 674.28 530.802 702.304 532.846C754.265 536.641 812.357 539.56 886.066 540.144C937.735 540.728 995.388 541.895 1054.94 534.889C1061.65 534.159 1068.37 533.138 1075.08 532.116C1163.09 518.396 1249.21 481.031 1300.73 420.458C1317.81 400.316 1330.65 378.568 1340 356.09C1354.01 322.52 1360.14 287.344 1360.14 253.92C1360.43 198.018 1342.19 146.932 1322.77 93.0735C1299.86 29.8736 1268.33 -43.8353 1223.38 -120.171C1219.73 -126.448 1215.93 -132.724 1212.14 -139.146C1182.51 -188.48 1150.98 -237.084 1133.17 -287.294C1125.44 -309.187 1120.18 -331.665 1118.43 -354.58C1116.24 -384.356 1121.35 -414.131 1134.19 -441.572C1157.26 -490.03 1210.38 -530.022 1266.87 -519.951" stroke="#9E6BCE" stroke-miterlimit="10"/>
<path d="M124.893 894.967C216.408 782.871 322.958 656.033 436.222 591.665C482.49 565.393 523.651 551.527 560.578 543.353C584.661 537.953 607.285 535.472 629.908 533.136C654.867 530.509 679.388 530.071 705.515 529.925C753.973 529.633 809.145 527.882 881.394 525.692C932.042 524.233 988.966 524.379 1047.79 517.373C1054.35 516.643 1061.07 515.621 1067.64 514.6C1154.63 501.025 1239.87 465.704 1292.41 408.342C1309.93 389.221 1323.36 368.641 1333.43 347.331C1348.61 315.512 1356.49 281.942 1358.53 249.831C1362.03 196.119 1347.73 146.347 1332.26 93.3641C1313.87 30.3101 1286.57 -44.8585 1242.64 -121.487C1238.99 -127.763 1235.34 -134.039 1231.55 -140.461C1202.21 -189.795 1169.81 -237.669 1150.54 -287.003C1142.22 -308.459 1136.24 -330.791 1133.76 -353.414C1130.55 -382.898 1134.49 -412.527 1146.31 -440.259C1167.62 -489.155 1220.46 -530.462 1276.94 -520.39" stroke="#A270D1" stroke-miterlimit="10"/>
<path d="M152.188 908.102C244.871 799.509 349.523 673.839 457.678 606.26C501.757 578.674 540.582 562.764 574.883 552.109C597.36 545.103 618.086 540.871 638.812 536.638C661.874 532.113 684.205 529.34 708.434 527.005C753.39 522.48 805.789 516.204 876.432 511.241C925.912 507.884 982.252 507.008 1040.34 499.856C1046.91 498.981 1053.48 498.105 1059.9 497.083C1145.73 483.655 1230.24 450.23 1283.95 396.08C1301.75 378.127 1315.91 358.569 1326.86 338.281C1343.21 308.067 1352.84 276.102 1356.78 245.305C1363.64 193.782 1353.13 145.324 1341.6 93.0706C1327.74 29.8707 1304.67 -46.3194 1261.62 -123.239C1258.11 -129.516 1254.46 -135.938 1250.67 -142.214C1221.48 -191.548 1188.2 -238.547 1167.62 -287.151C1158.72 -308.315 1152 -330.208 1148.79 -352.686C1144.56 -381.877 1147.18 -411.507 1158.28 -439.531C1177.84 -488.865 1230.38 -531.485 1286.72 -521.268" stroke="#A576D4" stroke-miterlimit="10"/>
<path d="M179.627 921.24C273.332 816.004 376.233 691.648 479.279 620.858C521.169 591.958 557.805 574.006 589.478 560.869C610.204 552.258 629.178 546.273 648.007 540.289C669.025 533.721 689.313 528.758 711.645 524.234C753.097 515.622 802.723 504.821 871.761 496.94C920.219 491.539 975.829 489.788 1033.19 482.49C1039.61 481.614 1046.18 480.738 1052.6 479.716C1137.4 466.288 1220.89 435.053 1275.77 383.968C1294.02 367.037 1308.76 348.646 1320.44 329.525C1338.1 300.918 1349.34 270.704 1355.32 241.221C1365.54 191.887 1358.97 144.742 1351.38 93.3651C1342.04 30.1651 1323.21 -47.3388 1281.03 -124.551C1277.52 -130.827 1274.02 -137.249 1270.23 -143.525C1241.33 -192.859 1207.17 -239.128 1185.13 -287.002C1175.5 -307.728 1168.2 -329.476 1164.12 -351.662C1158.86 -380.707 1160.32 -410.191 1170.39 -438.361C1188.2 -488.133 1240.45 -531.92 1296.65 -521.849" stroke="#A87BD7" stroke-miterlimit="10"/>
<path d="M207.067 934.375C301.794 832.642 402.943 709.599 500.735 635.307C540.436 605.239 574.736 584.951 603.782 569.333C622.756 559.116 639.98 551.381 657.057 543.645C676.031 535.033 694.276 528.027 714.71 521.021C752.659 508.177 799.366 492.851 866.945 482.196C914.381 474.752 969.261 472.125 1025.89 464.535C1032.32 463.66 1038.74 462.784 1045.01 461.762C1128.79 448.48 1211.41 419.288 1267.45 371.414C1285.99 355.505 1301.32 338.282 1314.01 320.183C1332.84 293.326 1345.83 264.573 1353.86 236.403C1367.44 189.404 1364.81 143.281 1361.01 92.7798C1356.34 29.4339 1341.6 -49.2376 1300.29 -126.596C1296.94 -133.018 1293.43 -139.294 1289.64 -145.716C1261.03 -195.05 1226 -240.443 1202.5 -287.587C1192.29 -308.022 1184.26 -329.331 1179.44 -351.225C1173.17 -379.979 1173.46 -409.463 1182.65 -437.778C1198.85 -487.988 1250.52 -533.089 1306.72 -523.018" stroke="#AB80DA" stroke-miterlimit="10"/>
<path d="M234.361 947.512C330.11 849.282 429.508 727.407 522.191 649.903C559.702 618.522 591.667 596.19 618.232 578.091C635.601 566.269 650.926 556.636 666.106 547.148C683.037 536.493 699.238 527.298 717.775 518.103C752.221 501.171 796.155 481.175 862.128 467.601C908.396 458.26 962.693 454.465 1018.6 446.875C1024.87 445.999 1031.15 445.123 1037.57 444.102C1120.33 430.965 1202.06 403.671 1259.28 359.008C1278.25 344.12 1294.16 328.065 1307.59 311.134C1327.73 285.883 1342.33 258.735 1352.26 232.024C1369.19 187.215 1370.5 142.26 1370.65 92.6344C1370.79 29.1425 1359.99 -50.6967 1319.71 -128.346C1316.35 -134.769 1312.85 -141.045 1309.2 -147.467C1280.88 -196.947 1244.83 -241.464 1220.02 -287.733C1209.22 -307.729 1200.46 -328.893 1194.91 -350.495C1187.61 -378.957 1186.74 -408.294 1194.91 -437.048C1209.36 -487.696 1260.74 -534.11 1316.79 -524.039" stroke="#AE86DC" stroke-miterlimit="10"/>
<path d="M261.802 960.648C358.572 865.922 456.218 745.36 543.793 664.353C579.115 631.659 608.89 607.284 632.682 586.703C648.299 573.275 661.873 561.891 675.155 550.652C690.043 537.953 704.201 526.569 720.695 515.184C751.638 494.02 792.652 469.499 857.165 453.152C902.413 441.767 955.979 437.096 1011.01 429.36C1017.28 428.485 1023.41 427.609 1029.69 426.587C1111.42 413.597 1192.29 388.346 1250.52 346.748C1269.79 332.882 1286.43 317.848 1300.73 302.085C1322.04 278.44 1338.39 253.043 1350.36 227.5C1370.5 184.734 1376.05 141.239 1379.84 92.4887C1384.8 28.8509 1377.94 -52.0099 1338.54 -130.098C1335.32 -136.52 1331.82 -142.942 1328.32 -149.218C1300.15 -198.698 1263.37 -242.339 1237.09 -287.878C1225.71 -307.583 1216.22 -328.309 1209.8 -349.765C1201.48 -378.08 1199.44 -407.272 1206.74 -436.172C1219.43 -487.111 1270.52 -534.986 1326.57 -524.769" stroke="#B18BDF" stroke-miterlimit="10"/>
<path d="M289.241 973.785C387.179 882.561 482.928 763.167 565.394 678.949C598.527 645.087 625.967 618.377 647.277 595.461C661.143 580.282 672.965 567.291 684.35 554.301C697.195 539.559 709.309 525.985 723.905 512.411C751.345 487.16 789.586 458.115 852.64 438.848C896.719 425.566 949.702 419.874 1004 411.992C1010.13 411.116 1016.26 410.24 1022.39 409.219C1102.96 396.374 1183.09 373.167 1242.49 334.78C1262.2 322.082 1279.42 308.07 1294.46 293.474C1317.08 271.58 1335.03 247.643 1349.04 223.56C1372.54 183.129 1382.18 140.655 1389.62 92.7812C1399.55 28.9974 1396.48 -53.0311 1357.95 -131.265C1354.74 -137.687 1351.38 -144.109 1347.88 -150.531C1320 -200.011 1282.34 -242.923 1254.61 -287.586C1242.64 -306.998 1232.42 -327.433 1225.27 -348.597C1215.93 -376.621 1212.72 -405.812 1219 -435.004C1230.23 -486.381 1280.74 -535.569 1336.64 -525.352" stroke="#B491E2" stroke-miterlimit="10"/>
<path d="M316.536 986.92C415.496 899.199 509.639 781.119 586.851 693.544C617.794 658.368 642.899 629.614 661.581 604.217C673.696 587.432 683.767 572.544 693.254 557.803C704.055 541.017 713.98 525.254 726.825 509.49C750.762 480.007 786.084 446.437 847.678 424.397C890.736 409.071 943.135 402.357 996.556 394.475C1002.69 393.6 1008.67 392.578 1014.8 391.702C1094.35 378.858 1173.46 357.84 1234.03 322.518C1254.17 310.841 1271.98 297.997 1287.74 284.423C1311.53 264.135 1331.24 241.949 1347.15 219.034C1374 180.793 1387.87 139.486 1398.96 92.6338C1414 28.7041 1414.58 -54.4922 1377.07 -133.018C1374 -139.44 1370.65 -145.862 1367.14 -152.284C1339.56 -201.764 1300.88 -243.8 1271.83 -287.879C1259.28 -306.854 1248.33 -326.996 1240.45 -348.014C1230.09 -375.746 1225.71 -404.792 1231.11 -434.275C1240.6 -486.091 1290.81 -536.592 1346.56 -526.375" stroke="#B896E5" stroke-miterlimit="10"/>
<path d="M343.976 1000.05C443.957 915.837 536.349 799.07 608.452 707.992C637.206 671.649 659.975 640.705 676.031 612.681C686.54 594.291 694.713 577.651 702.303 561.158C711.061 542.184 718.942 524.377 729.889 506.424C750.323 472.707 782.872 434.612 842.861 409.8C884.751 392.43 936.566 384.841 989.257 376.813C995.241 375.937 1001.23 374.915 1007.21 374.04C1085.74 361.341 1163.97 342.221 1225.71 310.11C1246.14 299.455 1264.53 287.778 1281.32 275.372C1306.28 256.689 1327.73 236.109 1345.69 214.653C1375.9 178.602 1394.15 138.609 1408.6 92.4862C1428.74 28.5565 1432.97 -55.9533 1396.33 -134.771C1393.27 -141.193 1390.06 -147.761 1386.56 -154.037C1359.26 -203.517 1319.71 -244.823 1289.2 -288.027C1276.07 -306.71 1264.39 -326.56 1255.63 -347.286C1244.25 -374.726 1238.7 -403.772 1243.08 -433.547C1250.81 -485.8 1300.73 -537.616 1356.34 -527.398" stroke="#BB9CE8" stroke-miterlimit="10"/>
<path d="M371.417 1013.19C472.42 932.332 563.206 817.025 630.055 722.59C656.619 684.933 677.199 651.947 690.628 621.441C699.385 601.445 705.807 583.054 711.646 564.664C718.36 543.646 724.198 523.795 733.248 503.507C750.179 465.704 779.808 423.084 838.337 395.206C879.206 375.94 930.291 367.328 982.252 359.154C988.237 358.279 994.075 357.257 999.913 356.381C1077.42 343.829 1154.77 326.752 1217.68 297.852C1238.55 288.219 1257.53 277.71 1275.04 266.325C1301.32 249.394 1324.52 230.419 1344.37 210.131C1377.95 176.269 1400.42 137.59 1418.52 92.1968C1443.92 28.267 1451.65 -57.5563 1415.89 -136.52C1412.97 -143.088 1409.76 -149.51 1406.26 -155.932C1379.11 -205.412 1338.83 -245.842 1306.86 -288.316C1293.14 -306.561 1280.74 -326.12 1271.25 -346.7C1258.7 -373.994 1252.13 -402.894 1255.49 -432.815C1261.62 -485.506 1311.1 -538.635 1366.56 -528.272" stroke="#BEA1EB" stroke-miterlimit="10"/>
<path d="M398.71 1026.33C500.735 948.97 589.769 834.977 651.364 737.185C675.885 698.36 693.984 663.038 704.784 630.197C711.79 608.596 716.315 588.307 720.402 568.311C725.073 545.25 728.868 523.21 736.02 500.732C749.448 458.696 776.304 411.552 833.228 380.901C873.074 359.591 923.43 350.103 974.661 341.784C980.5 340.762 986.338 339.886 992.176 339.011C1068.66 326.604 1145.14 311.571 1209.07 285.736C1230.23 277.124 1249.94 267.783 1268.33 257.566C1295.77 242.24 1320.73 224.871 1342.48 206.043C1379.26 174.37 1406.26 137.15 1427.72 92.4871C1458.37 28.7034 1469.61 -58.4336 1434.87 -137.835C1431.95 -144.403 1428.88 -150.825 1425.38 -157.247C1398.52 -206.873 1357.36 -246.428 1323.94 -288.026C1309.64 -305.979 1296.5 -325.099 1286.28 -345.534C1272.71 -372.536 1264.97 -401.436 1267.45 -431.649C1271.83 -484.632 1321.02 -539.22 1376.48 -528.857" stroke="#C1A7EE" stroke-miterlimit="10"/>
<path d="M426.151 1039.47C529.344 965.612 616.627 852.786 672.967 751.637C695.298 711.499 711.062 674.133 719.382 638.811C724.782 615.604 727.409 593.564 729.599 571.817C732.08 546.712 733.831 522.483 739.232 497.816C749.011 451.547 773.094 399.878 828.558 366.453C867.237 343.1 917.009 332.591 967.511 324.125C973.203 323.104 979.041 322.228 984.734 321.352C1060.05 309.092 1135.8 295.955 1200.9 273.332C1222.5 265.888 1242.79 257.568 1261.91 248.373C1290.66 234.653 1317.23 218.89 1341.02 201.375C1381.16 171.891 1412.54 136.131 1437.35 92.0518C1473.26 28.5599 1488 -60.1827 1454.14 -139.73C1451.36 -146.298 1448.3 -152.72 1444.79 -159.142C1418.23 -208.768 1376.19 -247.593 1341.31 -288.461C1326.42 -306.122 1312.41 -324.951 1301.46 -345.093C1286.87 -371.804 1277.96 -400.557 1279.42 -431.063C1282.2 -484.483 1330.95 -540.239 1386.26 -530.022" stroke="#C4ACF1" stroke-miterlimit="10"/>
<path d="M453.592 1052.6C557.806 982.25 643.484 870.884 694.569 766.231C714.711 724.925 728.285 685.371 733.832 647.567C737.481 622.754 738.356 598.963 738.648 575.318C739.086 548.17 738.794 521.751 742.297 494.895C748.573 444.539 769.883 388.345 823.742 352.002C861.399 326.751 910.441 315.22 960.067 306.609C965.759 305.587 971.452 304.711 976.998 303.69C1051.29 291.575 1126.17 280.482 1192.29 261.07C1214.18 254.648 1235.2 247.496 1255.19 239.468C1285.12 227.5 1313.43 213.342 1339.27 197.14C1382.76 169.846 1418.52 135.692 1446.84 92.1962C1488 28.9963 1506.24 -61.3519 1473.26 -141.191C1470.48 -147.759 1467.42 -154.327 1464.06 -160.749C1437.64 -210.375 1394.73 -248.324 1358.53 -288.463C1343.06 -305.686 1328.32 -324.223 1316.64 -344.073C1301.03 -370.491 1290.95 -399.245 1291.54 -430.042C1292.56 -483.901 1341.02 -540.971 1396.19 -530.753" stroke="#C7B2F3" stroke-miterlimit="10"/>
<path d="M480.886 1065.74C586.122 998.889 670.194 888.691 716.024 780.682C734.123 738.062 745.216 696.318 748.281 656.033C750.179 629.615 749.157 604.072 747.697 578.676C746.092 549.484 743.756 520.876 745.362 491.83C748.135 437.242 766.526 376.523 818.925 337.407C855.415 310.112 903.873 297.706 952.769 288.949C958.315 287.927 964.008 287.051 969.554 286.029C1042.83 273.915 1116.68 265.011 1184.11 248.664C1206.44 243.264 1227.9 237.133 1248.77 230.273C1280.01 219.91 1309.93 207.358 1337.81 192.47C1384.66 167.365 1424.8 134.671 1456.47 91.7589C1503.03 28.8508 1524.63 -63.1029 1492.52 -143.234C1489.9 -149.802 1486.83 -156.37 1483.47 -162.792C1457.35 -212.418 1413.56 -249.637 1376.05 -288.9C1359.99 -305.831 1344.52 -324.076 1332.11 -343.635C1315.47 -369.761 1304.24 -398.515 1303.8 -429.458C1303.21 -483.755 1351.09 -542.138 1406.26 -531.775" stroke="#CBB7F6" stroke-miterlimit="10"/>
<path d="M508.326 1078.88C614.584 1015.53 697.05 906.644 737.627 795.278C753.536 751.491 762.294 707.557 762.731 664.791C763.023 636.767 760.104 609.473 756.893 582.325C753.098 551.236 748.865 520.439 748.428 489.058C747.698 430.383 763.315 364.993 814.109 322.957C849.577 293.62 897.305 280.192 945.471 271.434C951.018 270.412 956.564 269.537 961.964 268.515C1034.21 256.546 1107.19 249.54 1175.79 236.404C1198.42 232.025 1220.6 227.063 1242.2 221.37C1274.61 212.613 1306.28 201.812 1336.06 188.092C1386.27 165.176 1430.64 134.233 1465.96 91.6135C1517.77 29.1434 1542.88 -64.4159 1511.79 -144.839C1509.16 -151.407 1506.24 -157.975 1502.89 -164.397C1477.05 -214.023 1432.39 -250.367 1393.42 -288.9C1376.78 -305.393 1360.58 -323.346 1347.29 -342.758C1329.63 -368.739 1317.23 -397.201 1315.91 -428.582C1313.58 -483.316 1361.16 -543.013 1416.19 -532.65" stroke="#CEBDF9" stroke-miterlimit="10"/>
<path d="M535.766 1092.01C643.045 1032.17 724.198 924.598 759.228 809.874C773.094 764.773 779.516 718.796 777.327 673.549C775.867 643.92 771.05 614.874 766.088 585.828C760.249 552.696 753.973 519.709 751.638 486.139C747.405 423.231 760.103 353.463 809.437 308.508C843.738 277.273 891.028 262.823 938.319 253.919C943.719 252.898 949.119 251.876 954.666 251C1025.89 239.178 1098 234.215 1167.62 224.29C1190.68 220.933 1213.45 217.138 1235.93 212.467C1269.64 205.461 1302.92 196.12 1334.74 183.86C1388.16 163.279 1437.06 133.796 1475.74 91.7598C1532.81 29.8735 1561.41 -65.5832 1531.2 -146.298C1528.72 -153.012 1525.8 -159.434 1522.44 -165.857C1496.9 -215.482 1451.22 -251.096 1410.93 -288.899C1393.71 -305.101 1376.78 -322.616 1362.77 -341.882C1343.94 -367.571 1330.51 -396.033 1328.17 -427.56C1324.09 -482.586 1371.38 -543.742 1426.26 -533.379" stroke="#D1C2FC" stroke-miterlimit="10"/>
<path d="M563.206 1105.15C714.127 1026.62 808.708 851.471 791.631 682.159C784.917 615.019 762.293 550.213 754.557 483.218C746.822 416.224 756.747 341.785 804.475 294.057C841.548 256.983 895.115 242.095 946.93 233.484C1040.34 217.866 1135.65 217.866 1229.21 203.416C1322.77 188.967 1417.65 158.023 1485.08 91.6124C1552.51 25.2014 1584.62 -83.3916 1541.71 -167.61C1516.31 -217.381 1469.9 -251.973 1428.15 -289.047C1386.41 -325.974 1345.98 -371.221 1340.14 -426.831C1334.45 -482.295 1381.3 -544.766 1436.18 -534.403" stroke="#D4C8FF" stroke-miterlimit="10"/>
</g>
</mask>
<g mask="url(#mask0_2862_158300)">
<rect width="1751.5" height="1167.67" transform="matrix(1 0 0 -1 102.999 833.666)" fill="url(#paint0_linear_2862_158300)"/>
</g>
</g>
<g filter="url(#filter0_f_2862_158300)">
<ellipse cx="133.5" cy="278.5" rx="133.5" ry="278.5" transform="matrix(-4.37114e-08 1 1 4.37114e-08 860 -28)" fill="url(#paint1_linear_2862_158300)" fill-opacity="0.6"/>
</g>
<g filter="url(#filter1_f_2862_158300)">
<ellipse cx="95" cy="330.5" rx="95" ry="330.5" transform="matrix(-4.37114e-08 1 1 4.37114e-08 859 -55)" fill="url(#paint2_linear_2862_158300)" fill-opacity="0.6"/>
</g>
<g filter="url(#filter2_f_2862_158300)">
<ellipse cx="95" cy="330.5" rx="95" ry="330.5" transform="matrix(-4.37114e-08 1 1 4.37114e-08 859 -82)" fill="url(#paint3_linear_2862_158300)" fill-opacity="0.6"/>
</g>
<g filter="url(#filter3_f_2862_158300)">
<ellipse cx="345" cy="143.5" rx="345" ry="143.5" transform="matrix(-1 0 0 1 1065 633)" fill="url(#paint4_linear_2862_158300)" fill-opacity="0.6"/>
</g>
<g filter="url(#filter4_f_2862_158300)">
<circle cx="1063.5" cy="425" r="286.5" fill="#2C23AA"/>
</g>
</g>
<defs>
<filter id="filter0_f_2862_158300" x="800" y="-88" width="677" height="387" filterUnits="userSpaceOnUse" color-interpolation-filters="sRGB">
<feFlood flood-opacity="0" result="BackgroundImageFix"/>
<feBlend mode="normal" in="SourceGraphic" in2="BackgroundImageFix" result="shape"/>
<feGaussianBlur stdDeviation="30" result="effect1_foregroundBlur_2862_158300"/>
</filter>
<filter id="filter1_f_2862_158300" x="799" y="-115" width="781" height="310" filterUnits="userSpaceOnUse" color-interpolation-filters="sRGB">
<feFlood flood-opacity="0" result="BackgroundImageFix"/>
<feBlend mode="normal" in="SourceGraphic" in2="BackgroundImageFix" result="shape"/>
<feGaussianBlur stdDeviation="30" result="effect1_foregroundBlur_2862_158300"/>
</filter>
<filter id="filter2_f_2862_158300" x="799" y="-142" width="781" height="310" filterUnits="userSpaceOnUse" color-interpolation-filters="sRGB">
<feFlood flood-opacity="0" result="BackgroundImageFix"/>
<feBlend mode="normal" in="SourceGraphic" in2="BackgroundImageFix" result="shape"/>
<feGaussianBlur stdDeviation="30" result="effect1_foregroundBlur_2862_158300"/>
</filter>
<filter id="filter3_f_2862_158300" x="315" y="573" width="810" height="407" filterUnits="userSpaceOnUse" color-interpolation-filters="sRGB">
<feFlood flood-opacity="0" result="BackgroundImageFix"/>
<feBlend mode="normal" in="SourceGraphic" in2="BackgroundImageFix" result="shape"/>
<feGaussianBlur stdDeviation="30" result="effect1_foregroundBlur_2862_158300"/>
</filter>
<filter id="filter4_f_2862_158300" x="477" y="-161.5" width="1173" height="1173" filterUnits="userSpaceOnUse" color-interpolation-filters="sRGB">
<feFlood flood-opacity="0" result="BackgroundImageFix"/>
<feBlend mode="normal" in="SourceGraphic" in2="BackgroundImageFix" result="shape"/>
<feGaussianBlur stdDeviation="150" result="effect1_foregroundBlur_2862_158300"/>
</filter>
<linearGradient id="paint0_linear_2862_158300" x1="348.84" y1="132.092" x2="1353.03" y2="1167.67" gradientUnits="userSpaceOnUse">
<stop stop-color="white" stop-opacity="0"/>
<stop offset="0.5" stop-color="white"/>
<stop offset="1" stop-color="white" stop-opacity="0"/>
</linearGradient>
<linearGradient id="paint1_linear_2862_158300" x1="100.609" y1="-23.7318" x2="133.457" y2="511.38" gradientUnits="userSpaceOnUse">
<stop stop-color="#3303A7"/>
<stop offset="0.860324" stop-color="#2F0EBE"/>
</linearGradient>
<linearGradient id="paint2_linear_2862_158300" x1="71.5942" y1="-28.1629" x2="136.17" y2="602.644" gradientUnits="userSpaceOnUse">
<stop stop-color="#3303A7"/>
<stop offset="0.860324" stop-color="#2F0EBE"/>
</linearGradient>
<linearGradient id="paint3_linear_2862_158300" x1="71.5942" y1="-28.1629" x2="136.17" y2="602.644" gradientUnits="userSpaceOnUse">
<stop stop-color="#3303A7"/>
<stop offset="0.860324" stop-color="#2F0EBE"/>
</linearGradient>
<linearGradient id="paint4_linear_2862_158300" x1="0" y1="143.5" x2="690" y2="143.5" gradientUnits="userSpaceOnUse">
<stop stop-color="#2722EB"/>
<stop offset="1" stop-color="#2724EF"/>
</linearGradient>
<clipPath id="clip0_2862_158300">
<rect width="1440" height="850" fill="white"/>
</clipPath>
</defs>
</svg>
