<svg width="1024" height="764" viewBox="0 0 1024 764" fill="none" xmlns="http://www.w3.org/2000/svg">
<g clip-path="url(#clip0_641_7)">
<path opacity="0.2" d="M-1448.7 0H-1552V103.3M-1448.7 0V103.3M-1448.7 0H-1345.41M-1448.7 103.3H-1552M-1448.7 103.3V206.6M-1448.7 103.3H-1345.41M-1552 103.3V206.6M-1448.7 206.6H-1552M-1448.7 206.6V309.9M-1448.7 206.6H-1345.41M-1552 206.6V309.9M-1448.7 309.9H-1552M-1448.7 309.9V413.2M-1448.7 309.9H-1345.41M-1552 309.9V413.2M-1448.7 413.2H-1552M-1448.7 413.2V516.5M-1448.7 413.2H-1345.41M-1552 413.2V516.5M-1448.7 516.5H-1552M-1448.7 516.5V619.8M-1448.7 516.5H-1345.41M-1552 516.5V619.8M-1448.7 619.8H-1552M-1448.7 619.8V723.1M-1448.7 619.8H-1345.41M-1552 619.8V723.1M-1448.7 723.1H-1552M-1448.7 723.1V826.4M-1448.7 723.1H-1345.41M-1552 723.1V826.4M-1448.7 826.4H-1552M-1448.7 826.4V929.7M-1448.7 826.4H-1345.41M-1552 826.4V929.7M-1448.7 929.7H-1552M-1448.7 929.7V1033M-1448.7 929.7H-1345.41M-1552 929.7V1033M-1448.7 1033H-1552M-1448.7 1033V1136.3M-1448.7 1033H-1345.41M-1552 1033V1136.3M-1448.7 1136.3H-1552M-1448.7 1136.3V1239.6M-1448.7 1136.3H-1345.41M-1552 1136.3V1239.6M-1448.7 1239.6H-1552M-1448.7 1239.6V1342.9M-1448.7 1239.6H-1345.41M-1552 1239.6V1342.9M-1448.7 1342.9H-1552M-1448.7 1342.9V1446.2M-1448.7 1342.9H-1345.41M-1552 1342.9V1446.2M-1448.7 1446.2H-1552M-1448.7 1446.2V1549.5M-1448.7 1446.2H-1345.41M-1552 1446.2V1549.5M-1448.7 1549.5H-1552M-1448.7 1549.5V1652.8M-1448.7 1549.5H-1345.41M-1552 1549.5V1652.8M-1448.7 1652.8H-1552M-1448.7 1652.8V1756.1M-1448.7 1652.8H-1345.41M-1552 1652.8V1756.1M-1448.7 1756.1H-1552M-1448.7 1756.1V1859.4M-1448.7 1756.1H-1345.41M-1552 1756.1V1859.4M-1448.7 1859.4H-1552M-1448.7 1859.4V1962.7M-1448.7 1859.4H-1345.41M-1552 1859.4V1962.7M-1448.7 1962.7H-1552M-1448.7 1962.7V2066M-1448.7 1962.7H-1345.41M-1552 1962.7V2066H-1448.7M-1448.7 2066H-1345.41M-1345.41 0V103.3M-1345.41 0H-1242.11M-1345.41 103.3V206.6M-1345.41 103.3H-1242.11M-1345.41 206.6V309.9M-1345.41 206.6H-1242.11M-1345.41 309.9V413.2M-1345.41 309.9H-1242.11M-1345.41 413.2V516.5M-1345.41 413.2H-1242.11M-1345.41 516.5V619.8M-1345.41 516.5H-1242.11M-1345.41 619.8V723.1M-1345.41 619.8H-1242.11M-1345.41 723.1V826.4M-1345.41 723.1H-1242.11M-1345.41 826.4V929.7M-1345.41 826.4H-1242.11M-1345.41 929.7V1033M-1345.41 929.7H-1242.11M-1345.41 1033V1136.3M-1345.41 1033H-1242.11M-1345.41 1136.3V1239.6M-1345.41 1136.3H-1242.11M-1345.41 1239.6V1342.9M-1345.41 1239.6H-1242.11M-1345.41 1342.9V1446.2M-1345.41 1342.9H-1242.11M-1345.41 1446.2V1549.5M-1345.41 1446.2H-1242.11M-1345.41 1549.5V1652.8M-1345.41 1549.5H-1242.11M-1345.41 1652.8V1756.1M-1345.41 1652.8H-1242.11M-1345.41 1756.1V1859.4M-1345.41 1756.1H-1242.11M-1345.41 1859.4V1962.7M-1345.41 1859.4H-1242.11M-1345.41 1962.7V2066M-1345.41 1962.7H-1242.11M-1345.41 2066H-1242.11M-1242.11 0V103.3M-1242.11 0H-1138.82M-1242.11 103.3V206.6M-1242.11 103.3H-1138.82M-1242.11 206.6V309.9M-1242.11 206.6H-1138.82M-1242.11 309.9V413.2M-1242.11 309.9H-1138.82M-1242.11 413.2V516.5M-1242.11 413.2H-1138.82M-1242.11 516.5V619.8M-1242.11 516.5H-1138.82M-1242.11 619.8V723.1M-1242.11 619.8H-1138.82M-1242.11 723.1V826.4M-1242.11 723.1H-1138.82M-1242.11 826.4V929.7M-1242.11 826.4H-1138.82M-1242.11 929.7V1033M-1242.11 929.7H-1138.82M-1242.11 1033V1136.3M-1242.11 1033H-1138.82M-1242.11 1136.3V1239.6M-1242.11 1136.3H-1138.82M-1242.11 1239.6V1342.9M-1242.11 1239.6H-1138.82M-1242.11 1342.9V1446.2M-1242.11 1342.9H-1138.82M-1242.11 1446.2V1549.5M-1242.11 1446.2H-1138.82M-1242.11 1549.5V1652.8M-1242.11 1549.5H-1138.82M-1242.11 1652.8V1756.1M-1242.11 1652.8H-1138.82M-1242.11 1756.1V1859.4M-1242.11 1756.1H-1138.82M-1242.11 1859.4V1962.7M-1242.11 1859.4H-1138.82M-1242.11 1962.7V2066M-1242.11 1962.7H-1138.82M-1242.11 2066H-1138.82M-1138.82 0V103.3M-1138.82 0H-1035.52M-1138.82 103.3V206.6M-1138.82 103.3H-1035.52M-1138.82 206.6V309.9M-1138.82 206.6H-1035.52M-1138.82 309.9V413.2M-1138.82 309.9H-1035.52M-1138.82 413.2V516.5M-1138.82 413.2H-1035.52M-1138.82 516.5V619.8M-1138.82 516.5H-1035.52M-1138.82 619.8V723.1M-1138.82 619.8H-1035.52M-1138.82 723.1V826.4M-1138.82 723.1H-1035.52M-1138.82 826.4V929.7M-1138.82 826.4H-1035.52M-1138.82 929.7V1033M-1138.82 929.7H-1035.52M-1138.82 1033V1136.3M-1138.82 1033H-1035.52M-1138.82 1136.3V1239.6M-1138.82 1136.3H-1035.52M-1138.82 1239.6V1342.9M-1138.82 1239.6H-1035.52M-1138.82 1342.9V1446.2M-1138.82 1342.9H-1035.52M-1138.82 1446.2V1549.5M-1138.82 1446.2H-1035.52M-1138.82 1549.5V1652.8M-1138.82 1549.5H-1035.52M-1138.82 1652.8V1756.1M-1138.82 1652.8H-1035.52M-1138.82 1756.1V1859.4M-1138.82 1756.1H-1035.52M-1138.82 1859.4V1962.7M-1138.82 1859.4H-1035.52M-1138.82 1962.7V2066M-1138.82 1962.7H-1035.52M-1138.82 2066H-1035.52M-1035.52 0V103.3M-1035.52 0H-932.227M-1035.52 103.3V206.6M-1035.52 103.3H-932.227M-1035.52 206.6V309.9M-1035.52 206.6H-932.227M-1035.52 309.9V413.2M-1035.52 309.9H-932.227M-1035.52 413.2V516.5M-1035.52 413.2H-932.227M-1035.52 516.5V619.8M-1035.52 516.5H-932.227M-1035.52 619.8V723.1M-1035.52 619.8H-932.227M-1035.52 723.1V826.4M-1035.52 723.1H-932.227M-1035.52 826.4V929.7M-1035.52 826.4H-932.227M-1035.52 929.7V1033M-1035.52 929.7H-932.227M-1035.52 1033V1136.3M-1035.52 1033H-932.227M-1035.52 1136.3V1239.6M-1035.52 1136.3H-932.227M-1035.52 1239.6V1342.9M-1035.52 1239.6H-932.227M-1035.52 1342.9V1446.2M-1035.52 1342.9H-932.227M-1035.52 1446.2V1549.5M-1035.52 1446.2H-932.227M-1035.52 1549.5V1652.8M-1035.52 1549.5H-932.227M-1035.52 1652.8V1756.1M-1035.52 1652.8H-932.227M-1035.52 1756.1V1859.4M-1035.52 1756.1H-932.227M-1035.52 1859.4V1962.7M-1035.52 1859.4H-932.227M-1035.52 1962.7V2066M-1035.52 1962.7H-932.227M-1035.52 2066H-932.227M-932.227 0V103.3M-932.227 0H-828.932M-932.227 103.3V206.6M-932.227 103.3H-828.932M-932.227 206.6V309.9M-932.227 206.6H-828.932M-932.227 309.9V413.2M-932.227 309.9H-828.932M-932.227 413.2V516.5M-932.227 413.2H-828.932M-932.227 516.5V619.8M-932.227 516.5H-828.932M-932.227 619.8V723.1M-932.227 619.8H-828.932M-932.227 723.1V826.4M-932.227 723.1H-828.932M-932.227 826.4V929.7M-932.227 826.4H-828.932M-932.227 929.7V1033M-932.227 929.7H-828.932M-932.227 1033V1136.3M-932.227 1033H-828.932M-932.227 1136.3V1239.6M-932.227 1136.3H-828.932M-932.227 1239.6V1342.9M-932.227 1239.6H-828.932M-932.227 1342.9V1446.2M-932.227 1342.9H-828.932M-932.227 1446.2V1549.5M-932.227 1446.2H-828.932M-932.227 1549.5V1652.8M-932.227 1549.5H-828.932M-932.227 1652.8V1756.1M-932.227 1652.8H-828.932M-932.227 1756.1V1859.4M-932.227 1756.1H-828.932M-932.227 1859.4V1962.7M-932.227 1859.4H-828.932M-932.227 1962.7V2066M-932.227 1962.7H-828.932M-932.227 2066H-828.932M-828.932 0V103.3M-828.932 0H-725.636M-828.932 103.3V206.6M-828.932 103.3H-725.636M-828.932 206.6V309.9M-828.932 206.6H-725.636M-828.932 309.9V413.2M-828.932 309.9H-725.636M-828.932 413.2V516.5M-828.932 413.2H-725.636M-828.932 516.5V619.8M-828.932 516.5H-725.636M-828.932 619.8V723.1M-828.932 619.8H-725.636M-828.932 723.1V826.4M-828.932 723.1H-725.636M-828.932 826.4V929.7M-828.932 826.4H-725.636M-828.932 929.7V1033M-828.932 929.7H-725.636M-828.932 1033V1136.3M-828.932 1033H-725.636M-828.932 1136.3V1239.6M-828.932 1136.3H-725.636M-828.932 1239.6V1342.9M-828.932 1239.6H-725.636M-828.932 1342.9V1446.2M-828.932 1342.9H-725.636M-828.932 1446.2V1549.5M-828.932 1446.2H-725.636M-828.932 1549.5V1652.8M-828.932 1549.5H-725.636M-828.932 1652.8V1756.1M-828.932 1652.8H-725.636M-828.932 1756.1V1859.4M-828.932 1756.1H-725.636M-828.932 1859.4V1962.7M-828.932 1859.4H-725.636M-828.932 1962.7V2066M-828.932 1962.7H-725.636M-828.932 2066H-725.636M-725.636 0V103.3M-725.636 0H-622.341M-725.636 103.3V206.6M-725.636 103.3H-622.341M-725.636 206.6V309.9M-725.636 206.6H-622.341M-725.636 309.9V413.2M-725.636 309.9H-622.341M-725.636 413.2V516.5M-725.636 413.2H-622.341M-725.636 516.5V619.8M-725.636 516.5H-622.341M-725.636 619.8V723.1M-725.636 619.8H-622.341M-725.636 723.1V826.4M-725.636 723.1H-622.341M-725.636 826.4V929.7M-725.636 826.4H-622.341M-725.636 929.7V1033M-725.636 929.7H-622.341M-725.636 1033V1136.3M-725.636 1033H-622.341M-725.636 1136.3V1239.6M-725.636 1136.3H-622.341M-725.636 1239.6V1342.9M-725.636 1239.6H-622.341M-725.636 1342.9V1446.2M-725.636 1342.9H-622.341M-725.636 1446.2V1549.5M-725.636 1446.2H-622.341M-725.636 1549.5V1652.8M-725.636 1549.5H-622.341M-725.636 1652.8V1756.1M-725.636 1652.8H-622.341M-725.636 1756.1V1859.4M-725.636 1756.1H-622.341M-725.636 1859.4V1962.7M-725.636 1859.4H-622.341M-725.636 1962.7V2066M-725.636 1962.7H-622.341M-725.636 2066H-622.341M-622.341 0V103.3M-622.341 0H-519.045M-622.341 103.3V206.6M-622.341 103.3H-519.045M-622.341 206.6V309.9M-622.341 206.6H-519.045M-622.341 309.9V413.2M-622.341 309.9H-519.045M-622.341 413.2V516.5M-622.341 413.2H-519.045M-622.341 516.5V619.8M-622.341 516.5H-519.045M-622.341 619.8V723.1M-622.341 619.8H-519.045M-622.341 723.1V826.4M-622.341 723.1H-519.045M-622.341 826.4V929.7M-622.341 826.4H-519.045M-622.341 929.7V1033M-622.341 929.7H-519.045M-622.341 1033V1136.3M-622.341 1033H-519.045M-622.341 1136.3V1239.6M-622.341 1136.3H-519.045M-622.341 1239.6V1342.9M-622.341 1239.6H-519.045M-622.341 1342.9V1446.2M-622.341 1342.9H-519.045M-622.341 1446.2V1549.5M-622.341 1446.2H-519.045M-622.341 1549.5V1652.8M-622.341 1549.5H-519.045M-622.341 1652.8V1756.1M-622.341 1652.8H-519.045M-622.341 1756.1V1859.4M-622.341 1756.1H-519.045M-622.341 1859.4V1962.7M-622.341 1859.4H-519.045M-622.341 1962.7V2066M-622.341 1962.7H-519.045M-622.341 2066H-519.045M-519.045 0V103.3M-519.045 0H-415.75M-519.045 103.3V206.6M-519.045 103.3H-415.75M-519.045 206.6V309.9M-519.045 206.6H-415.75M-519.045 309.9V413.2M-519.045 309.9H-415.75M-519.045 413.2V516.5M-519.045 413.2H-415.75M-519.045 516.5V619.8M-519.045 516.5H-415.75M-519.045 619.8V723.1M-519.045 619.8H-415.75M-519.045 723.1V826.4M-519.045 723.1H-415.75M-519.045 826.4V929.7M-519.045 826.4H-415.75M-519.045 929.7V1033M-519.045 929.7H-415.75M-519.045 1033V1136.3M-519.045 1033H-415.75M-519.045 1136.3V1239.6M-519.045 1136.3H-415.75M-519.045 1239.6V1342.9M-519.045 1239.6H-415.75M-519.045 1342.9V1446.2M-519.045 1342.9H-415.75M-519.045 1446.2V1549.5M-519.045 1446.2H-415.75M-519.045 1549.5V1652.8M-519.045 1549.5H-415.75M-519.045 1652.8V1756.1M-519.045 1652.8H-415.75M-519.045 1756.1V1859.4M-519.045 1756.1H-415.75M-519.045 1859.4V1962.7M-519.045 1859.4H-415.75M-519.045 1962.7V2066M-519.045 1962.7H-415.75M-519.045 2066H-415.75M-415.75 0V103.3M-415.75 0H-312.455M-415.75 103.3V206.6M-415.75 103.3H-312.455M-415.75 206.6V309.9M-415.75 206.6H-312.455M-415.75 309.9V413.2M-415.75 309.9H-312.455M-415.75 413.2V516.5M-415.75 413.2H-312.455M-415.75 516.5V619.8M-415.75 516.5H-312.455M-415.75 619.8V723.1M-415.75 619.8H-312.455M-415.75 723.1V826.4M-415.75 723.1H-312.455M-415.75 826.4V929.7M-415.75 826.4H-312.455M-415.75 929.7V1033M-415.75 929.7H-312.455M-415.75 1033V1136.3M-415.75 1033H-312.455M-415.75 1136.3V1239.6M-415.75 1136.3H-312.455M-415.75 1239.6V1342.9M-415.75 1239.6H-312.455M-415.75 1342.9V1446.2M-415.75 1342.9H-312.455M-415.75 1446.2V1549.5M-415.75 1446.2H-312.455M-415.75 1549.5V1652.8M-415.75 1549.5H-312.455M-415.75 1652.8V1756.1M-415.75 1652.8H-312.455M-415.75 1756.1V1859.4M-415.75 1756.1H-312.455M-415.75 1859.4V1962.7M-415.75 1859.4H-312.455M-415.75 1962.7V2066M-415.75 1962.7H-312.455M-415.75 2066H-312.455M-312.455 0V103.3M-312.455 0H-209.159M-312.455 103.3V206.6M-312.455 103.3H-209.159M-312.455 206.6V309.9M-312.455 206.6H-209.159M-312.455 309.9V413.2M-312.455 309.9H-209.159M-312.455 413.2V516.5M-312.455 413.2H-209.159M-312.455 516.5V619.8M-312.455 516.5H-209.159M-312.455 619.8V723.1M-312.455 619.8H-209.159M-312.455 723.1V826.4M-312.455 723.1H-209.159M-312.455 826.4V929.7M-312.455 826.4H-209.159M-312.455 929.7V1033M-312.455 929.7H-209.159M-312.455 1033V1136.3M-312.455 1033H-209.159M-312.455 1136.3V1239.6M-312.455 1136.3H-209.159M-312.455 1239.6V1342.9M-312.455 1239.6H-209.159M-312.455 1342.9V1446.2M-312.455 1342.9H-209.159M-312.455 1446.2V1549.5M-312.455 1446.2H-209.159M-312.455 1549.5V1652.8M-312.455 1549.5H-209.159M-312.455 1652.8V1756.1M-312.455 1652.8H-209.159M-312.455 1756.1V1859.4M-312.455 1756.1H-209.159M-312.455 1859.4V1962.7M-312.455 1859.4H-209.159M-312.455 1962.7V2066M-312.455 1962.7H-209.159M-312.455 2066H-209.159M-209.159 0V103.3M-209.159 0H-105.864M-209.159 103.3V206.6M-209.159 103.3H-105.864M-209.159 206.6V309.9M-209.159 206.6H-105.864M-209.159 309.9V413.2M-209.159 309.9H-105.864M-209.159 413.2V516.5M-209.159 413.2H-105.864M-209.159 516.5V619.8M-209.159 516.5H-105.864M-209.159 619.8V723.1M-209.159 619.8H-105.864M-209.159 723.1V826.4M-209.159 723.1H-105.864M-209.159 826.4V929.7M-209.159 826.4H-105.864M-209.159 929.7V1033M-209.159 929.7H-105.864M-209.159 1033V1136.3M-209.159 1033H-105.864M-209.159 1136.3V1239.6M-209.159 1136.3H-105.864M-209.159 1239.6V1342.9M-209.159 1239.6H-105.864M-209.159 1342.9V1446.2M-209.159 1342.9H-105.864M-209.159 1446.2V1549.5M-209.159 1446.2H-105.864M-209.159 1549.5V1652.8M-209.159 1549.5H-105.864M-209.159 1652.8V1756.1M-209.159 1652.8H-105.864M-209.159 1756.1V1859.4M-209.159 1756.1H-105.864M-209.159 1859.4V1962.7M-209.159 1859.4H-105.864M-209.159 1962.7V2066M-209.159 1962.7H-105.864M-209.159 2066H-105.864M-105.864 0V103.3M-105.864 0H-2.56824M-105.864 103.3V206.6M-105.864 103.3H-2.56824M-105.864 206.6V309.9M-105.864 206.6H-2.56824M-105.864 309.9V413.2M-105.864 309.9H-2.56824M-105.864 413.2V516.5M-105.864 413.2H-2.56824M-105.864 516.5V619.8M-105.864 516.5H-2.56824M-105.864 619.8V723.1M-105.864 619.8H-2.56824M-105.864 723.1V826.4M-105.864 723.1H-2.56824M-105.864 826.4V929.7M-105.864 826.4H-2.56824M-105.864 929.7V1033M-105.864 929.7H-2.56824M-105.864 1033V1136.3M-105.864 1033H-2.56824M-105.864 1136.3V1239.6M-105.864 1136.3H-2.56824M-105.864 1239.6V1342.9M-105.864 1239.6H-2.56824M-105.864 1342.9V1446.2M-105.864 1342.9H-2.56824M-105.864 1446.2V1549.5M-105.864 1446.2H-2.56824M-105.864 1549.5V1652.8M-105.864 1549.5H-2.56824M-105.864 1652.8V1756.1M-105.864 1652.8H-2.56824M-105.864 1756.1V1859.4M-105.864 1756.1H-2.56824M-105.864 1859.4V1962.7M-105.864 1859.4H-2.56824M-105.864 1962.7V2066M-105.864 1962.7H-2.56824M-105.864 2066H-2.56824M-2.56824 0V103.3M-2.56824 0H100.727M-2.56824 103.3V206.6M-2.56824 103.3H100.727M-2.56824 206.6V309.9M-2.56824 206.6H100.727M-2.56824 309.9V413.2M-2.56824 309.9H100.727M-2.56824 413.2V516.5M-2.56824 413.2H100.727M-2.56824 516.5V619.8M-2.56824 516.5H100.727M-2.56824 619.8V723.1M-2.56824 619.8H100.727M-2.56824 723.1V826.4M-2.56824 723.1H100.727M-2.56824 826.4V929.7M-2.56824 826.4H100.727M-2.56824 929.7V1033M-2.56824 929.7H100.727M-2.56824 1033V1136.3M-2.56824 1033H100.727M-2.56824 1136.3V1239.6M-2.56824 1136.3H100.727M-2.56824 1239.6V1342.9M-2.56824 1239.6H100.727M-2.56824 1342.9V1446.2M-2.56824 1342.9H100.727M-2.56824 1446.2V1549.5M-2.56824 1446.2H100.727M-2.56824 1549.5V1652.8M-2.56824 1549.5H100.727M-2.56824 1652.8V1756.1M-2.56824 1652.8H100.727M-2.56824 1756.1V1859.4M-2.56824 1756.1H100.727M-2.56824 1859.4V1962.7M-2.56824 1859.4H100.727M-2.56824 1962.7V2066M-2.56824 1962.7H100.727M-2.56824 2066H100.727M100.727 0V103.3M100.727 0H204.023M100.727 103.3V206.6M100.727 103.3H204.023M100.727 206.6V309.9M100.727 206.6H204.023M100.727 309.9V413.2M100.727 309.9H204.023M100.727 413.2V516.5M100.727 413.2H204.023M100.727 516.5V619.8M100.727 516.5H204.023M100.727 619.8V723.1M100.727 619.8H204.023M100.727 723.1V826.4M100.727 723.1H204.023M100.727 826.4V929.7M100.727 826.4H204.023M100.727 929.7V1033M100.727 929.7H204.023M100.727 1033V1136.3M100.727 1033H204.023M100.727 1136.3V1239.6M100.727 1136.3H204.023M100.727 1239.6V1342.9M100.727 1239.6H204.023M100.727 1342.9V1446.2M100.727 1342.9H204.023M100.727 1446.2V1549.5M100.727 1446.2H204.023M100.727 1549.5V1652.8M100.727 1549.5H204.023M100.727 1652.8V1756.1M100.727 1652.8H204.023M100.727 1756.1V1859.4M100.727 1756.1H204.023M100.727 1859.4V1962.7M100.727 1859.4H204.023M100.727 1962.7V2066M100.727 1962.7H204.023M100.727 2066H204.023M204.023 0V103.3M204.023 0H307.318M204.023 103.3V206.6M204.023 103.3H307.318M204.023 206.6V309.9M204.023 206.6H307.318M204.023 309.9V413.2M204.023 309.9H307.318M204.023 413.2V516.5M204.023 413.2H307.318M204.023 516.5V619.8M204.023 516.5H307.318M204.023 619.8V723.1M204.023 619.8H307.318M204.023 723.1V826.4M204.023 723.1H307.318M204.023 826.4V929.7M204.023 826.4H307.318M204.023 929.7V1033M204.023 929.7H307.318M204.023 1033V1136.3M204.023 1033H307.318M204.023 1136.3V1239.6M204.023 1136.3H307.318M204.023 1239.6V1342.9M204.023 1239.6H307.318M204.023 1342.9V1446.2M204.023 1342.9H307.318M204.023 1446.2V1549.5M204.023 1446.2H307.318M204.023 1549.5V1652.8M204.023 1549.5H307.318M204.023 1652.8V1756.1M204.023 1652.8H307.318M204.023 1756.1V1859.4M204.023 1756.1H307.318M204.023 1859.4V1962.7M204.023 1859.4H307.318M204.023 1962.7V2066M204.023 1962.7H307.318M204.023 2066H307.318M307.318 0V103.3M307.318 0H410.614M307.318 103.3V206.6M307.318 103.3H410.614M307.318 206.6V309.9M307.318 206.6H410.614M307.318 309.9V413.2M307.318 309.9H410.614M307.318 413.2V516.5M307.318 413.2H410.614M307.318 516.5V619.8M307.318 516.5H410.614M307.318 619.8V723.1M307.318 619.8H410.614M307.318 723.1V826.4M307.318 723.1H410.614M307.318 826.4V929.7M307.318 826.4H410.614M307.318 929.7V1033M307.318 929.7H410.614M307.318 1033V1136.3M307.318 1033H410.614M307.318 1136.3V1239.6M307.318 1136.3H410.614M307.318 1239.6V1342.9M307.318 1239.6H410.614M307.318 1342.9V1446.2M307.318 1342.9H410.614M307.318 1446.2V1549.5M307.318 1446.2H410.614M307.318 1549.5V1652.8M307.318 1549.5H410.614M307.318 1652.8V1756.1M307.318 1652.8H410.614M307.318 1756.1V1859.4M307.318 1756.1H410.614M307.318 1859.4V1962.7M307.318 1859.4H410.614M307.318 1962.7V2066M307.318 1962.7H410.614M307.318 2066H410.614M410.614 0V103.3M410.614 0H513.909M410.614 103.3V206.6M410.614 103.3H513.909M410.614 206.6V309.9M410.614 206.6H513.909M410.614 309.9V413.2M410.614 309.9H513.909M410.614 413.2V516.5M410.614 413.2H513.909M410.614 516.5V619.8M410.614 516.5H513.909M410.614 619.8V723.1M410.614 619.8H513.909M410.614 723.1V826.4M410.614 723.1H513.909M410.614 826.4V929.7M410.614 826.4H513.909M410.614 929.7V1033M410.614 929.7H513.909M410.614 1033V1136.3M410.614 1033H513.909M410.614 1136.3V1239.6M410.614 1136.3H513.909M410.614 1239.6V1342.9M410.614 1239.6H513.909M410.614 1342.9V1446.2M410.614 1342.9H513.909M410.614 1446.2V1549.5M410.614 1446.2H513.909M410.614 1549.5V1652.8M410.614 1549.5H513.909M410.614 1652.8V1756.1M410.614 1652.8H513.909M410.614 1756.1V1859.4M410.614 1756.1H513.909M410.614 1859.4V1962.7M410.614 1859.4H513.909M410.614 1962.7V2066M410.614 1962.7H513.909M410.614 2066H513.909M513.909 0V103.3M513.909 0H617.205M513.909 103.3V206.6M513.909 103.3H617.205M513.909 206.6V309.9M513.909 206.6H617.205M513.909 309.9V413.2M513.909 309.9H617.205M513.909 413.2V516.5M513.909 413.2H617.205M513.909 516.5V619.8M513.909 516.5H617.205M513.909 619.8V723.1M513.909 619.8H617.205M513.909 723.1V826.4M513.909 723.1H617.205M513.909 826.4V929.7M513.909 826.4H617.205M513.909 929.7V1033M513.909 929.7H617.205M513.909 1033V1136.3M513.909 1033H617.205M513.909 1136.3V1239.6M513.909 1136.3H617.205M513.909 1239.6V1342.9M513.909 1239.6H617.205M513.909 1342.9V1446.2M513.909 1342.9H617.205M513.909 1446.2V1549.5M513.909 1446.2H617.205M513.909 1549.5V1652.8M513.909 1549.5H617.205M513.909 1652.8V1756.1M513.909 1652.8H617.205M513.909 1756.1V1859.4M513.909 1756.1H617.205M513.909 1859.4V1962.7M513.909 1859.4H617.205M513.909 1962.7V2066M513.909 1962.7H617.205M513.909 2066H617.205M617.205 0V103.3M617.205 0H720.5M617.205 103.3V206.6M617.205 103.3H720.5M617.205 206.6V309.9M617.205 206.6H720.5M617.205 309.9V413.2M617.205 309.9H720.5M617.205 413.2V516.5M617.205 413.2H720.5M617.205 516.5V619.8M617.205 516.5H720.5M617.205 619.8V723.1M617.205 619.8H720.5M617.205 723.1V826.4M617.205 723.1H720.5M617.205 826.4V929.7M617.205 826.4H720.5M617.205 929.7V1033M617.205 929.7H720.5M617.205 1033V1136.3M617.205 1033H720.5M617.205 1136.3V1239.6M617.205 1136.3H720.5M617.205 1239.6V1342.9M617.205 1239.6H720.5M617.205 1342.9V1446.2M617.205 1342.9H720.5M617.205 1446.2V1549.5M617.205 1446.2H720.5M617.205 1549.5V1652.8M617.205 1549.5H720.5M617.205 1652.8V1756.1M617.205 1652.8H720.5M617.205 1756.1V1859.4M617.205 1756.1H720.5M617.205 1859.4V1962.7M617.205 1859.4H720.5M617.205 1962.7V2066M617.205 1962.7H720.5M617.205 2066H720.5M720.5 0V103.3M720.5 0H823.795M720.5 103.3V206.6M720.5 103.3H823.795M720.5 206.6V309.9M720.5 206.6H823.795M720.5 309.9V413.2M720.5 309.9H823.795M720.5 413.2V516.5M720.5 413.2H823.795M720.5 516.5V619.8M720.5 516.5H823.795M720.5 619.8V723.1M720.5 619.8H823.795M720.5 723.1V826.4M720.5 723.1H823.795M720.5 826.4V929.7M720.5 826.4H823.795M720.5 929.7V1033M720.5 929.7H823.795M720.5 1033V1136.3M720.5 1033H823.795M720.5 1136.3V1239.6M720.5 1136.3H823.795M720.5 1239.6V1342.9M720.5 1239.6H823.795M720.5 1342.9V1446.2M720.5 1342.9H823.795M720.5 1446.2V1549.5M720.5 1446.2H823.795M720.5 1549.5V1652.8M720.5 1549.5H823.795M720.5 1652.8V1756.1M720.5 1652.8H823.795M720.5 1756.1V1859.4M720.5 1756.1H823.795M720.5 1859.4V1962.7M720.5 1859.4H823.795M720.5 1962.7V2066M720.5 1962.7H823.795M720.5 2066H823.795M823.795 0V103.3M823.795 0H927.091M823.795 103.3V206.6M823.795 103.3H927.091M823.795 206.6V309.9M823.795 206.6H927.091M823.795 309.9V413.2M823.795 309.9H927.091M823.795 413.2V516.5M823.795 413.2H927.091M823.795 516.5V619.8M823.795 516.5H927.091M823.795 619.8V723.1M823.795 619.8H927.091M823.795 723.1V826.4M823.795 723.1H927.091M823.795 826.4V929.7M823.795 826.4H927.091M823.795 929.7V1033M823.795 929.7H927.091M823.795 1033V1136.3M823.795 1033H927.091M823.795 1136.3V1239.6M823.795 1136.3H927.091M823.795 1239.6V1342.9M823.795 1239.6H927.091M823.795 1342.9V1446.2M823.795 1342.9H927.091M823.795 1446.2V1549.5M823.795 1446.2H927.091M823.795 1549.5V1652.8M823.795 1549.5H927.091M823.795 1652.8V1756.1M823.795 1652.8H927.091M823.795 1756.1V1859.4M823.795 1756.1H927.091M823.795 1859.4V1962.7M823.795 1859.4H927.091M823.795 1962.7V2066M823.795 1962.7H927.091M823.795 2066H927.091M927.091 0V103.3M927.091 0H1030.39M927.091 103.3V206.6M927.091 103.3H1030.39M927.091 206.6V309.9M927.091 206.6H1030.39M927.091 309.9V413.2M927.091 309.9H1030.39M927.091 413.2V516.5M927.091 413.2H1030.39M927.091 516.5V619.8M927.091 516.5H1030.39M927.091 619.8V723.1M927.091 619.8H1030.39M927.091 723.1V826.4M927.091 723.1H1030.39M927.091 826.4V929.7M927.091 826.4H1030.39M927.091 929.7V1033M927.091 929.7H1030.39M927.091 1033V1136.3M927.091 1033H1030.39M927.091 1136.3V1239.6M927.091 1136.3H1030.39M927.091 1239.6V1342.9M927.091 1239.6H1030.39M927.091 1342.9V1446.2M927.091 1342.9H1030.39M927.091 1446.2V1549.5M927.091 1446.2H1030.39M927.091 1549.5V1652.8M927.091 1549.5H1030.39M927.091 1652.8V1756.1M927.091 1652.8H1030.39M927.091 1756.1V1859.4M927.091 1756.1H1030.39M927.091 1859.4V1962.7M927.091 1859.4H1030.39M927.091 1962.7V2066M927.091 1962.7H1030.39M927.091 2066H1030.39M1030.39 0V103.3M1030.39 0H1133.68M1030.39 103.3V206.6M1030.39 103.3H1133.68M1030.39 206.6V309.9M1030.39 206.6H1133.68M1030.39 309.9V413.2M1030.39 309.9H1133.68M1030.39 413.2V516.5M1030.39 413.2H1133.68M1030.39 516.5V619.8M1030.39 516.5H1133.68M1030.39 619.8V723.1M1030.39 619.8H1133.68M1030.39 723.1V826.4M1030.39 723.1H1133.68M1030.39 826.4V929.7M1030.39 826.4H1133.68M1030.39 929.7V1033M1030.39 929.7H1133.68M1030.39 1033V1136.3M1030.39 1033H1133.68M1030.39 1136.3V1239.6M1030.39 1136.3H1133.68M1030.39 1239.6V1342.9M1030.39 1239.6H1133.68M1030.39 1342.9V1446.2M1030.39 1342.9H1133.68M1030.39 1446.2V1549.5M1030.39 1446.2H1133.68M1030.39 1549.5V1652.8M1030.39 1549.5H1133.68M1030.39 1652.8V1756.1M1030.39 1652.8H1133.68M1030.39 1756.1V1859.4M1030.39 1756.1H1133.68M1030.39 1859.4V1962.7M1030.39 1859.4H1133.68M1030.39 1962.7V2066M1030.39 1962.7H1133.68M1030.39 2066H1133.68M1133.68 0V103.3M1133.68 0H1236.98M1133.68 103.3V206.6M1133.68 103.3H1236.98M1133.68 206.6V309.9M1133.68 206.6H1236.98M1133.68 309.9V413.2M1133.68 309.9H1236.98M1133.68 413.2V516.5M1133.68 413.2H1236.98M1133.68 516.5V619.8M1133.68 516.5H1236.98M1133.68 619.8V723.1M1133.68 619.8H1236.98M1133.68 723.1V826.4M1133.68 723.1H1236.98M1133.68 826.4V929.7M1133.68 826.4H1236.98M1133.68 929.7V1033M1133.68 929.7H1236.98M1133.68 1033V1136.3M1133.68 1033H1236.98M1133.68 1136.3V1239.6M1133.68 1136.3H1236.98M1133.68 1239.6V1342.9M1133.68 1239.6H1236.98M1133.68 1342.9V1446.2M1133.68 1342.9H1236.98M1133.68 1446.2V1549.5M1133.68 1446.2H1236.98M1133.68 1549.5V1652.8M1133.68 1549.5H1236.98M1133.68 1652.8V1756.1M1133.68 1652.8H1236.98M1133.68 1756.1V1859.4M1133.68 1756.1H1236.98M1133.68 1859.4V1962.7M1133.68 1859.4H1236.98M1133.68 1962.7V2066M1133.68 1962.7H1236.98M1133.68 2066H1236.98M1236.98 0V103.3M1236.98 0H1340.27M1236.98 103.3V206.6M1236.98 103.3H1340.27M1236.98 206.6V309.9M1236.98 206.6H1340.27M1236.98 309.9V413.2M1236.98 309.9H1340.27M1236.98 413.2V516.5M1236.98 413.2H1340.27M1236.98 516.5V619.8M1236.98 516.5H1340.27M1236.98 619.8V723.1M1236.98 619.8H1340.27M1236.98 723.1V826.4M1236.98 723.1H1340.27M1236.98 826.4V929.7M1236.98 826.4H1340.27M1236.98 929.7V1033M1236.98 929.7H1340.27M1236.98 1033V1136.3M1236.98 1033H1340.27M1236.98 1136.3V1239.6M1236.98 1136.3H1340.27M1236.98 1239.6V1342.9M1236.98 1239.6H1340.27M1236.98 1342.9V1446.2M1236.98 1342.9H1340.27M1236.98 1446.2V1549.5M1236.98 1446.2H1340.27M1236.98 1549.5V1652.8M1236.98 1549.5H1340.27M1236.98 1652.8V1756.1M1236.98 1652.8H1340.27M1236.98 1756.1V1859.4M1236.98 1756.1H1340.27M1236.98 1859.4V1962.7M1236.98 1859.4H1340.27M1236.98 1962.7V2066M1236.98 1962.7H1340.27M1236.98 2066H1340.27M1340.27 0V103.3M1340.27 0H1443.57M1340.27 103.3V206.6M1340.27 103.3H1443.57M1340.27 206.6V309.9M1340.27 206.6H1443.57M1340.27 309.9V413.2M1340.27 309.9H1443.57M1340.27 413.2V516.5M1340.27 413.2H1443.57M1340.27 516.5V619.8M1340.27 516.5H1443.57M1340.27 619.8V723.1M1340.27 619.8H1443.57M1340.27 723.1V826.4M1340.27 723.1H1443.57M1340.27 826.4V929.7M1340.27 826.4H1443.57M1340.27 929.7V1033M1340.27 929.7H1443.57M1340.27 1033V1136.3M1340.27 1033H1443.57M1340.27 1136.3V1239.6M1340.27 1136.3H1443.57M1340.27 1239.6V1342.9M1340.27 1239.6H1443.57M1340.27 1342.9V1446.2M1340.27 1342.9H1443.57M1340.27 1446.2V1549.5M1340.27 1446.2H1443.57M1340.27 1549.5V1652.8M1340.27 1549.5H1443.57M1340.27 1652.8V1756.1M1340.27 1652.8H1443.57M1340.27 1756.1V1859.4M1340.27 1756.1H1443.57M1340.27 1859.4V1962.7M1340.27 1859.4H1443.57M1340.27 1962.7V2066M1340.27 1962.7H1443.57M1340.27 2066H1443.57M1443.57 0V103.3M1443.57 0H1546.86M1443.57 103.3V206.6M1443.57 103.3H1546.86M1443.57 206.6V309.9M1443.57 206.6H1546.86M1443.57 309.9V413.2M1443.57 309.9H1546.86M1443.57 413.2V516.5M1443.57 413.2H1546.86M1443.57 516.5V619.8M1443.57 516.5H1546.86M1443.57 619.8V723.1M1443.57 619.8H1546.86M1443.57 723.1V826.4M1443.57 723.1H1546.86M1443.57 826.4V929.7M1443.57 826.4H1546.86M1443.57 929.7V1033M1443.57 929.7H1546.86M1443.57 1033V1136.3M1443.57 1033H1546.86M1443.57 1136.3V1239.6M1443.57 1136.3H1546.86M1443.57 1239.6V1342.9M1443.57 1239.6H1546.86M1443.57 1342.9V1446.2M1443.57 1342.9H1546.86M1443.57 1446.2V1549.5M1443.57 1446.2H1546.86M1443.57 1549.5V1652.8M1443.57 1549.5H1546.86M1443.57 1652.8V1756.1M1443.57 1652.8H1546.86M1443.57 1756.1V1859.4M1443.57 1756.1H1546.86M1443.57 1859.4V1962.7M1443.57 1859.4H1546.86M1443.57 1962.7V2066M1443.57 1962.7H1546.86M1443.57 2066H1546.86M1546.86 0V103.3M1546.86 0H1650.16M1546.86 103.3V206.6M1546.86 103.3H1650.16M1546.86 206.6V309.9M1546.86 206.6H1650.16M1546.86 309.9V413.2M1546.86 309.9H1650.16M1546.86 413.2V516.5M1546.86 413.2H1650.16M1546.86 516.5V619.8M1546.86 516.5H1650.16M1546.86 619.8V723.1M1546.86 619.8H1650.16M1546.86 723.1V826.4M1546.86 723.1H1650.16M1546.86 826.4V929.7M1546.86 826.4H1650.16M1546.86 929.7V1033M1546.86 929.7H1650.16M1546.86 1033V1136.3M1546.86 1033H1650.16M1546.86 1136.3V1239.6M1546.86 1136.3H1650.16M1546.86 1239.6V1342.9M1546.86 1239.6H1650.16M1546.86 1342.9V1446.2M1546.86 1342.9H1650.16M1546.86 1446.2V1549.5M1546.86 1446.2H1650.16M1546.86 1549.5V1652.8M1546.86 1549.5H1650.16M1546.86 1652.8V1756.1M1546.86 1652.8H1650.16M1546.86 1756.1V1859.4M1546.86 1756.1H1650.16M1546.86 1859.4V1962.7M1546.86 1859.4H1650.16M1546.86 1962.7V2066M1546.86 1962.7H1650.16M1546.86 2066H1650.16M1650.16 0V103.3M1650.16 0H1753.45M1650.16 103.3V206.6M1650.16 103.3H1753.45M1650.16 206.6V309.9M1650.16 206.6H1753.45M1650.16 309.9V413.2M1650.16 309.9H1753.45M1650.16 413.2V516.5M1650.16 413.2H1753.45M1650.16 516.5V619.8M1650.16 516.5H1753.45M1650.16 619.8V723.1M1650.16 619.8H1753.45M1650.16 723.1V826.4M1650.16 723.1H1753.45M1650.16 826.4V929.7M1650.16 826.4H1753.45M1650.16 929.7V1033M1650.16 929.7H1753.45M1650.16 1033V1136.3M1650.16 1033H1753.45M1650.16 1136.3V1239.6M1650.16 1136.3H1753.45M1650.16 1239.6V1342.9M1650.16 1239.6H1753.45M1650.16 1342.9V1446.2M1650.16 1342.9H1753.45M1650.16 1446.2V1549.5M1650.16 1446.2H1753.45M1650.16 1549.5V1652.8M1650.16 1549.5H1753.45M1650.16 1652.8V1756.1M1650.16 1652.8H1753.45M1650.16 1756.1V1859.4M1650.16 1756.1H1753.45M1650.16 1859.4V1962.7M1650.16 1859.4H1753.45M1650.16 1962.7V2066M1650.16 1962.7H1753.45M1650.16 2066H1753.45M1753.45 0V103.3M1753.45 0H1856.75M1753.45 103.3V206.6M1753.45 103.3H1856.75M1753.45 206.6V309.9M1753.45 206.6H1856.75M1753.45 309.9V413.2M1753.45 309.9H1856.75M1753.45 413.2V516.5M1753.45 413.2H1856.75M1753.45 516.5V619.8M1753.45 516.5H1856.75M1753.45 619.8V723.1M1753.45 619.8H1856.75M1753.45 723.1V826.4M1753.45 723.1H1856.75M1753.45 826.4V929.7M1753.45 826.4H1856.75M1753.45 929.7V1033M1753.45 929.7H1856.75M1753.45 1033V1136.3M1753.45 1033H1856.75M1753.45 1136.3V1239.6M1753.45 1136.3H1856.75M1753.45 1239.6V1342.9M1753.45 1239.6H1856.75M1753.45 1342.9V1446.2M1753.45 1342.9H1856.75M1753.45 1446.2V1549.5M1753.45 1446.2H1856.75M1753.45 1549.5V1652.8M1753.45 1549.5H1856.75M1753.45 1652.8V1756.1M1753.45 1652.8H1856.75M1753.45 1756.1V1859.4M1753.45 1756.1H1856.75M1753.45 1859.4V1962.7M1753.45 1859.4H1856.75M1753.45 1962.7V2066M1753.45 1962.7H1856.75M1753.45 2066H1856.75M1856.75 0V103.3M1856.75 0H1960.05M1856.75 103.3V206.6M1856.75 103.3H1960.05M1856.75 206.6V309.9M1856.75 206.6H1960.05M1856.75 309.9V413.2M1856.75 309.9H1960.05M1856.75 413.2V516.5M1856.75 413.2H1960.05M1856.75 516.5V619.8M1856.75 516.5H1960.05M1856.75 619.8V723.1M1856.75 619.8H1960.05M1856.75 723.1V826.4M1856.75 723.1H1960.05M1856.75 826.4V929.7M1856.75 826.4H1960.05M1856.75 929.7V1033M1856.75 929.7H1960.05M1856.75 1033V1136.3M1856.75 1033H1960.05M1856.75 1136.3V1239.6M1856.75 1136.3H1960.05M1856.75 1239.6V1342.9M1856.75 1239.6H1960.05M1856.75 1342.9V1446.2M1856.75 1342.9H1960.05M1856.75 1446.2V1549.5M1856.75 1446.2H1960.05M1856.75 1549.5V1652.8M1856.75 1549.5H1960.05M1856.75 1652.8V1756.1M1856.75 1652.8H1960.05M1856.75 1756.1V1859.4M1856.75 1756.1H1960.05M1856.75 1859.4V1962.7M1856.75 1859.4H1960.05M1856.75 1962.7V2066M1856.75 1962.7H1960.05M1856.75 2066H1960.05M1960.05 0V103.3M1960.05 0H2063.34M1960.05 103.3V206.6M1960.05 103.3H2063.34M1960.05 206.6V309.9M1960.05 206.6H2063.34M1960.05 309.9V413.2M1960.05 309.9H2063.34M1960.05 413.2V516.5M1960.05 413.2H2063.34M1960.05 516.5V619.8M1960.05 516.5H2063.34M1960.05 619.8V723.1M1960.05 619.8H2063.34M1960.05 723.1V826.4M1960.05 723.1H2063.34M1960.05 826.4V929.7M1960.05 826.4H2063.34M1960.05 929.7V1033M1960.05 929.7H2063.34M1960.05 1033V1136.3M1960.05 1033H2063.34M1960.05 1136.3V1239.6M1960.05 1136.3H2063.34M1960.05 1239.6V1342.9M1960.05 1239.6H2063.34M1960.05 1342.9V1446.2M1960.05 1342.9H2063.34M1960.05 1446.2V1549.5M1960.05 1446.2H2063.34M1960.05 1549.5V1652.8M1960.05 1549.5H2063.34M1960.05 1652.8V1756.1M1960.05 1652.8H2063.34M1960.05 1756.1V1859.4M1960.05 1756.1H2063.34M1960.05 1859.4V1962.7M1960.05 1859.4H2063.34M1960.05 1962.7V2066M1960.05 1962.7H2063.34M1960.05 2066H2063.34M2063.34 0V103.3M2063.34 0H2166.64M2063.34 103.3V206.6M2063.34 103.3H2166.64M2063.34 206.6V309.9M2063.34 206.6H2166.64M2063.34 309.9V413.2M2063.34 309.9H2166.64M2063.34 413.2V516.5M2063.34 413.2H2166.64M2063.34 516.5V619.8M2063.34 516.5H2166.64M2063.34 619.8V723.1M2063.34 619.8H2166.64M2063.34 723.1V826.4M2063.34 723.1H2166.64M2063.34 826.4V929.7M2063.34 826.4H2166.64M2063.34 929.7V1033M2063.34 929.7H2166.64M2063.34 1033V1136.3M2063.34 1033H2166.64M2063.34 1136.3V1239.6M2063.34 1136.3H2166.64M2063.34 1239.6V1342.9M2063.34 1239.6H2166.64M2063.34 1342.9V1446.2M2063.34 1342.9H2166.64M2063.34 1446.2V1549.5M2063.34 1446.2H2166.64M2063.34 1549.5V1652.8M2063.34 1549.5H2166.64M2063.34 1652.8V1756.1M2063.34 1652.8H2166.64M2063.34 1756.1V1859.4M2063.34 1756.1H2166.64M2063.34 1859.4V1962.7M2063.34 1859.4H2166.64M2063.34 1962.7V2066M2063.34 1962.7H2166.64M2063.34 2066H2166.64M2166.64 0V103.3M2166.64 0H2269.93M2166.64 103.3V206.6M2166.64 103.3H2269.93M2166.64 206.6V309.9M2166.64 206.6H2269.93M2166.64 309.9V413.2M2166.64 309.9H2269.93M2166.64 413.2V516.5M2166.64 413.2H2269.93M2166.64 516.5V619.8M2166.64 516.5H2269.93M2166.64 619.8V723.1M2166.64 619.8H2269.93M2166.64 723.1V826.4M2166.64 723.1H2269.93M2166.64 826.4V929.7M2166.64 826.4H2269.93M2166.64 929.7V1033M2166.64 929.7H2269.93M2166.64 1033V1136.3M2166.64 1033H2269.93M2166.64 1136.3V1239.6M2166.64 1136.3H2269.93M2166.64 1239.6V1342.9M2166.64 1239.6H2269.93M2166.64 1342.9V1446.2M2166.64 1342.9H2269.93M2166.64 1446.2V1549.5M2166.64 1446.2H2269.93M2166.64 1549.5V1652.8M2166.64 1549.5H2269.93M2166.64 1652.8V1756.1M2166.64 1652.8H2269.93M2166.64 1756.1V1859.4M2166.64 1756.1H2269.93M2166.64 1859.4V1962.7M2166.64 1859.4H2269.93M2166.64 1962.7V2066M2166.64 1962.7H2269.93M2166.64 2066H2269.93M2269.93 0V103.3M2269.93 0H2373.23M2269.93 103.3V206.6M2269.93 103.3H2373.23M2269.93 206.6V309.9M2269.93 206.6H2373.23M2269.93 309.9V413.2M2269.93 309.9H2373.23M2269.93 413.2V516.5M2269.93 413.2H2373.23M2269.93 516.5V619.8M2269.93 516.5H2373.23M2269.93 619.8V723.1M2269.93 619.8H2373.23M2269.93 723.1V826.4M2269.93 723.1H2373.23M2269.93 826.4V929.7M2269.93 826.4H2373.23M2269.93 929.7V1033M2269.93 929.7H2373.23M2269.93 1033V1136.3M2269.93 1033H2373.23M2269.93 1136.3V1239.6M2269.93 1136.3H2373.23M2269.93 1239.6V1342.9M2269.93 1239.6H2373.23M2269.93 1342.9V1446.2M2269.93 1342.9H2373.23M2269.93 1446.2V1549.5M2269.93 1446.2H2373.23M2269.93 1549.5V1652.8M2269.93 1549.5H2373.23M2269.93 1652.8V1756.1M2269.93 1652.8H2373.23M2269.93 1756.1V1859.4M2269.93 1756.1H2373.23M2269.93 1859.4V1962.7M2269.93 1859.4H2373.23M2269.93 1962.7V2066M2269.93 1962.7H2373.23M2269.93 2066H2373.23M2373.23 0V103.3M2373.23 0H2476.52M2373.23 103.3V206.6M2373.23 103.3H2476.52M2373.23 206.6V309.9M2373.23 206.6H2476.52M2373.23 309.9V413.2M2373.23 309.9H2476.52M2373.23 413.2V516.5M2373.23 413.2H2476.52M2373.23 516.5V619.8M2373.23 516.5H2476.52M2373.23 619.8V723.1M2373.23 619.8H2476.52M2373.23 723.1V826.4M2373.23 723.1H2476.52M2373.23 826.4V929.7M2373.23 826.4H2476.52M2373.23 929.7V1033M2373.23 929.7H2476.52M2373.23 1033V1136.3M2373.23 1033H2476.52M2373.23 1136.3V1239.6M2373.23 1136.3H2476.52M2373.23 1239.6V1342.9M2373.23 1239.6H2476.52M2373.23 1342.9V1446.2M2373.23 1342.9H2476.52M2373.23 1446.2V1549.5M2373.23 1446.2H2476.52M2373.23 1549.5V1652.8M2373.23 1549.5H2476.52M2373.23 1652.8V1756.1M2373.23 1652.8H2476.52M2373.23 1756.1V1859.4M2373.23 1756.1H2476.52M2373.23 1859.4V1962.7M2373.23 1859.4H2476.52M2373.23 1962.7V2066M2373.23 1962.7H2476.52M2373.23 2066H2476.52M2476.52 0V103.3M2476.52 0H2579.82M2476.52 103.3V206.6M2476.52 103.3H2579.82M2476.52 206.6V309.9M2476.52 206.6H2579.82M2476.52 309.9V413.2M2476.52 309.9H2579.82M2476.52 413.2V516.5M2476.52 413.2H2579.82M2476.52 516.5V619.8M2476.52 516.5H2579.82M2476.52 619.8V723.1M2476.52 619.8H2579.82M2476.52 723.1V826.4M2476.52 723.1H2579.82M2476.52 826.4V929.7M2476.52 826.4H2579.82M2476.52 929.7V1033M2476.52 929.7H2579.82M2476.52 1033V1136.3M2476.52 1033H2579.82M2476.52 1136.3V1239.6M2476.52 1136.3H2579.82M2476.52 1239.6V1342.9M2476.52 1239.6H2579.82M2476.52 1342.9V1446.2M2476.52 1342.9H2579.82M2476.52 1446.2V1549.5M2476.52 1446.2H2579.82M2476.52 1549.5V1652.8M2476.52 1549.5H2579.82M2476.52 1652.8V1756.1M2476.52 1652.8H2579.82M2476.52 1756.1V1859.4M2476.52 1756.1H2579.82M2476.52 1859.4V1962.7M2476.52 1859.4H2579.82M2476.52 1962.7V2066M2476.52 1962.7H2579.82M2476.52 2066H2579.82M2579.82 0V103.3M2579.82 0H2683.11M2579.82 103.3V206.6M2579.82 103.3H2683.11M2579.82 206.6V309.9M2579.82 206.6H2683.11M2579.82 309.9V413.2M2579.82 309.9H2683.11M2579.82 413.2V516.5M2579.82 413.2H2683.11M2579.82 516.5V619.8M2579.82 516.5H2683.11M2579.82 619.8V723.1M2579.82 619.8H2683.11M2579.82 723.1V826.4M2579.82 723.1H2683.11M2579.82 826.4V929.7M2579.82 826.4H2683.11M2579.82 929.7V1033M2579.82 929.7H2683.11M2579.82 1033V1136.3M2579.82 1033H2683.11M2579.82 1136.3V1239.6M2579.82 1136.3H2683.11M2579.82 1239.6V1342.9M2579.82 1239.6H2683.11M2579.82 1342.9V1446.2M2579.82 1342.9H2683.11M2579.82 1446.2V1549.5M2579.82 1446.2H2683.11M2579.82 1549.5V1652.8M2579.82 1549.5H2683.11M2579.82 1652.8V1756.1M2579.82 1652.8H2683.11M2579.82 1756.1V1859.4M2579.82 1756.1H2683.11M2579.82 1859.4V1962.7M2579.82 1859.4H2683.11M2579.82 1962.7V2066M2579.82 1962.7H2683.11M2579.82 2066H2683.11M2683.11 0V103.3M2683.11 0H2786.41M2683.11 103.3V206.6M2683.11 103.3H2786.41M2683.11 206.6V309.9M2683.11 206.6H2786.41M2683.11 309.9V413.2M2683.11 309.9H2786.41M2683.11 413.2V516.5M2683.11 413.2H2786.41M2683.11 516.5V619.8M2683.11 516.5H2786.41M2683.11 619.8V723.1M2683.11 619.8H2786.41M2683.11 723.1V826.4M2683.11 723.1H2786.41M2683.11 826.4V929.7M2683.11 826.4H2786.41M2683.11 929.7V1033M2683.11 929.7H2786.41M2683.11 1033V1136.3M2683.11 1033H2786.41M2683.11 1136.3V1239.6M2683.11 1136.3H2786.41M2683.11 1239.6V1342.9M2683.11 1239.6H2786.41M2683.11 1342.9V1446.2M2683.11 1342.9H2786.41M2683.11 1446.2V1549.5M2683.11 1446.2H2786.41M2683.11 1549.5V1652.8M2683.11 1549.5H2786.41M2683.11 1652.8V1756.1M2683.11 1652.8H2786.41M2683.11 1756.1V1859.4M2683.11 1756.1H2786.41M2683.11 1859.4V1962.7M2683.11 1859.4H2786.41M2683.11 1962.7V2066M2683.11 1962.7H2786.41M2683.11 2066H2786.41M2786.41 0V103.3M2786.41 0H2889.7M2786.41 103.3V206.6M2786.41 103.3H2889.7M2786.41 206.6V309.9M2786.41 206.6H2889.7M2786.41 309.9V413.2M2786.41 309.9H2889.7M2786.41 413.2V516.5M2786.41 413.2H2889.7M2786.41 516.5V619.8M2786.41 516.5H2889.7M2786.41 619.8V723.1M2786.41 619.8H2889.7M2786.41 723.1V826.4M2786.41 723.1H2889.7M2786.41 826.4V929.7M2786.41 826.4H2889.7M2786.41 929.7V1033M2786.41 929.7H2889.7M2786.41 1033V1136.3M2786.41 1033H2889.7M2786.41 1136.3V1239.6M2786.41 1136.3H2889.7M2786.41 1239.6V1342.9M2786.41 1239.6H2889.7M2786.41 1342.9V1446.2M2786.41 1342.9H2889.7M2786.41 1446.2V1549.5M2786.41 1446.2H2889.7M2786.41 1549.5V1652.8M2786.41 1549.5H2889.7M2786.41 1652.8V1756.1M2786.41 1652.8H2889.7M2786.41 1756.1V1859.4M2786.41 1756.1H2889.7M2786.41 1859.4V1962.7M2786.41 1859.4H2889.7M2786.41 1962.7V2066M2786.41 1962.7H2889.7M2786.41 2066H2889.7M2889.7 0V103.3M2889.7 0H2993V103.3M2889.7 103.3V206.6M2889.7 103.3H2993M2889.7 206.6V309.9M2889.7 206.6H2993M2889.7 309.9V413.2M2889.7 309.9H2993M2889.7 413.2V516.5M2889.7 413.2H2993M2889.7 516.5V619.8M2889.7 516.5H2993M2889.7 619.8V723.1M2889.7 619.8H2993M2889.7 723.1V826.4M2889.7 723.1H2993M2889.7 826.4V929.7M2889.7 826.4H2993M2889.7 929.7V1033M2889.7 929.7H2993M2889.7 1033V1136.3M2889.7 1033H2993M2889.7 1136.3V1239.6M2889.7 1136.3H2993M2889.7 1239.6V1342.9M2889.7 1239.6H2993M2889.7 1342.9V1446.2M2889.7 1342.9H2993M2889.7 1446.2V1549.5M2889.7 1446.2H2993M2889.7 1549.5V1652.8M2889.7 1549.5H2993M2889.7 1652.8V1756.1M2889.7 1652.8H2993M2889.7 1756.1V1859.4M2889.7 1756.1H2993M2889.7 1859.4V1962.7M2889.7 1859.4H2993M2889.7 1962.7V2066M2889.7 1962.7H2993M2889.7 2066H2993V1962.7M2993 103.3V206.6M2993 206.6V309.9M2993 309.9V413.2M2993 413.2V516.5M2993 516.5V619.8M2993 619.8V723.1M2993 723.1V826.4M2993 826.4V929.7M2993 929.7V1033M2993 1033V1136.3M2993 1136.3V1239.6M2993 1239.6V1342.9M2993 1342.9V1446.2M2993 1446.2V1549.5M2993 1549.5V1652.8M2993 1652.8V1756.1M2993 1756.1V1859.4M2993 1859.4V1962.7" stroke="url(#paint0_radial_641_7)" stroke-width="0.804612"/>
<g opacity="0.25" filter="url(#filter0_f_641_7)">
<rect x="1848" y="291" width="848" height="495" transform="rotate(180 1848 291)" fill="#0C9AFF"/>
</g>
<g opacity="0.5" filter="url(#filter1_f_641_7)">
<rect x="-20" y="-30" width="477" height="572" fill="#230595"/>
</g>
<g opacity="0.5" filter="url(#filter2_f_641_7)">
<rect x="626" y="775" width="238" height="329" transform="rotate(180 626 775)" fill="#230595"/>
</g>
<g opacity="0.5" filter="url(#filter3_f_641_7)">
<rect x="2015" y="687" width="979" height="311" transform="rotate(180 2015 687)" fill="#230595"/>
</g>
<g opacity="0.1" filter="url(#filter4_f_641_7)">
<rect x="-100" y="542" width="485" height="365" fill="#84FFD3"/>
</g>
<g opacity="0.15" filter="url(#filter5_f_641_7)">
<rect x="-68" y="566" width="356" height="334" fill="white"/>
</g>
<g opacity="0.15" filter="url(#filter6_f_641_7)">
<rect x="-68" y="-9" width="388" height="129" fill="white"/>
</g>
</g>
<defs>
<filter id="filter0_f_641_7" x="600" y="-604" width="1648" height="1295" filterUnits="userSpaceOnUse" color-interpolation-filters="sRGB">
<feFlood flood-opacity="0" result="BackgroundImageFix"/>
<feBlend mode="normal" in="SourceGraphic" in2="BackgroundImageFix" result="shape"/>
<feGaussianBlur stdDeviation="200" result="effect1_foregroundBlur_641_7"/>
</filter>
<filter id="filter1_f_641_7" x="-120" y="-130" width="677" height="772" filterUnits="userSpaceOnUse" color-interpolation-filters="sRGB">
<feFlood flood-opacity="0" result="BackgroundImageFix"/>
<feBlend mode="normal" in="SourceGraphic" in2="BackgroundImageFix" result="shape"/>
<feGaussianBlur stdDeviation="50" result="effect1_foregroundBlur_641_7"/>
</filter>
<filter id="filter2_f_641_7" x="288" y="346" width="438" height="529" filterUnits="userSpaceOnUse" color-interpolation-filters="sRGB">
<feFlood flood-opacity="0" result="BackgroundImageFix"/>
<feBlend mode="normal" in="SourceGraphic" in2="BackgroundImageFix" result="shape"/>
<feGaussianBlur stdDeviation="50" result="effect1_foregroundBlur_641_7"/>
</filter>
<filter id="filter3_f_641_7" x="936" y="276" width="1179" height="511" filterUnits="userSpaceOnUse" color-interpolation-filters="sRGB">
<feFlood flood-opacity="0" result="BackgroundImageFix"/>
<feBlend mode="normal" in="SourceGraphic" in2="BackgroundImageFix" result="shape"/>
<feGaussianBlur stdDeviation="50" result="effect1_foregroundBlur_641_7"/>
</filter>
<filter id="filter4_f_641_7" x="-500" y="142" width="1285" height="1165" filterUnits="userSpaceOnUse" color-interpolation-filters="sRGB">
<feFlood flood-opacity="0" result="BackgroundImageFix"/>
<feBlend mode="normal" in="SourceGraphic" in2="BackgroundImageFix" result="shape"/>
<feGaussianBlur stdDeviation="200" result="effect1_foregroundBlur_641_7"/>
</filter>
<filter id="filter5_f_641_7" x="-468" y="166" width="1156" height="1134" filterUnits="userSpaceOnUse" color-interpolation-filters="sRGB">
<feFlood flood-opacity="0" result="BackgroundImageFix"/>
<feBlend mode="normal" in="SourceGraphic" in2="BackgroundImageFix" result="shape"/>
<feGaussianBlur stdDeviation="200" result="effect1_foregroundBlur_641_7"/>
</filter>
<filter id="filter6_f_641_7" x="-468" y="-409" width="1188" height="929" filterUnits="userSpaceOnUse" color-interpolation-filters="sRGB">
<feFlood flood-opacity="0" result="BackgroundImageFix"/>
<feBlend mode="normal" in="SourceGraphic" in2="BackgroundImageFix" result="shape"/>
<feGaussianBlur stdDeviation="200" result="effect1_foregroundBlur_641_7"/>
</filter>
<radialGradient id="paint0_radial_641_7" cx="0" cy="0" r="1" gradientUnits="userSpaceOnUse" gradientTransform="translate(720 -2.12431e-05) rotate(90) scale(844 1856.72)">
<stop stop-color="#230394" stop-opacity="0.5"/>
<stop offset="0.515" stop-color="white"/>
<stop offset="1" stop-color="#230394" stop-opacity="0.5"/>
</radialGradient>
<clipPath id="clip0_641_7">
<rect width="1024" height="764" fill="white"/>
</clipPath>
</defs>
</svg>
