<svg width="36" height="36" viewBox="0 0 36 36" fill="none" xmlns="http://www.w3.org/2000/svg">
<g filter="url(#filter0_b_524_9)">
<path d="M29.3333 11.8451L18 18.1413M18 18.1413L6.66662 11.8451M18 18.1413L18 30.8081M30 23.5528V12.73C30 12.2731 30 12.0447 29.9327 11.841C29.8731 11.6607 29.7758 11.4953 29.6472 11.3557C29.5018 11.1979 29.3021 11.087 28.9027 10.8651L19.036 5.38363C18.6579 5.17355 18.4688 5.06852 18.2686 5.02734C18.0914 4.99089 17.9086 4.99089 17.7314 5.02734C17.5312 5.06852 17.3421 5.17355 16.964 5.38363L7.09729 10.8651C6.69793 11.087 6.49825 11.1979 6.35284 11.3557C6.22421 11.4953 6.12686 11.6607 6.06731 11.841C6 12.0447 6 12.2731 6 12.73V23.5528C6 24.0097 6 24.2381 6.06731 24.4418C6.12686 24.622 6.22421 24.7875 6.35284 24.9271C6.49825 25.0849 6.69793 25.1958 7.0973 25.4177L16.964 30.8991C17.3421 31.1092 17.5312 31.2143 17.7314 31.2554C17.9086 31.2919 18.0914 31.2919 18.2686 31.2554C18.4688 31.2143 18.6579 31.1092 19.036 30.8991L28.9027 25.4177C29.3021 25.1958 29.5018 25.0849 29.6472 24.9271C29.7758 24.7875 29.8731 24.622 29.9327 24.4418C30 24.2381 30 24.0097 30 23.5528Z" stroke="white" stroke-width="2" stroke-linecap="round" stroke-linejoin="round"/>
</g>
<defs>
<filter id="filter0_b_524_9" x="-28.6198" y="-28.6198" width="93.2397" height="93.2397" filterUnits="userSpaceOnUse" color-interpolation-filters="sRGB">
<feFlood flood-opacity="0" result="BackgroundImageFix"/>
<feGaussianBlur in="BackgroundImageFix" stdDeviation="14.3099"/>
<feComposite in2="SourceAlpha" operator="in" result="effect1_backgroundBlur_524_9"/>
<feBlend mode="normal" in="SourceGraphic" in2="effect1_backgroundBlur_524_9" result="shape"/>
</filter>
</defs>
</svg>
