<svg width="36" height="36" viewBox="0 0 36 36" fill="none" xmlns="http://www.w3.org/2000/svg">
<g filter="url(#filter0_b_1904_94299)">
<path d="M24.3333 27L23.8841 28.5721C23.5672 29.6814 23.4088 30.236 23.0852 30.6477C22.7997 31.011 22.4246 31.294 21.9968 31.4687C21.5121 31.6667 20.9353 31.6667 19.7816 31.6667H15.5517C14.398 31.6667 13.8212 31.6667 13.3365 31.4687C12.9087 31.294 12.5336 31.011 12.2481 30.6477C11.9246 30.236 11.7661 29.6814 11.4492 28.5721L11 27M24.3333 9.66667L23.8841 8.09452C23.5672 6.98528 23.4088 6.43065 23.0852 6.01898C22.7997 5.65562 22.4246 5.3727 21.9968 5.19797C21.5121 5 20.9353 5 19.7816 5H15.5517C14.398 5 13.8212 5 13.3365 5.19797C12.9087 5.3727 12.5336 5.65562 12.2481 6.01898C11.9246 6.43065 11.7661 6.98527 11.4492 8.09452L11 9.66667M17.6667 14.3333V18.3333L19.6667 20.3333M13.2667 27H22.0667C23.5601 27 24.3069 27 24.8773 26.7093C25.3791 26.4537 25.787 26.0457 26.0427 25.544C26.3333 24.9735 26.3333 24.2268 26.3333 22.7333V13.9333C26.3333 12.4399 26.3333 11.6931 26.0427 11.1227C25.787 10.6209 25.3791 10.213 24.8773 9.95732C24.3069 9.66667 23.5601 9.66667 22.0667 9.66667H13.2667C11.7732 9.66667 11.0265 9.66667 10.456 9.95732C9.95426 10.213 9.54631 10.6209 9.29065 11.1227C9 11.6931 9 12.4399 9 13.9333V22.7333C9 24.2268 9 24.9735 9.29065 25.544C9.54631 26.0457 9.95426 26.4537 10.456 26.7093C11.0265 27 11.7732 27 13.2667 27Z" stroke="url(#paint0_linear_1904_94299)" stroke-width="2" stroke-linecap="round" stroke-linejoin="round"/>
</g>
<defs>
<filter id="filter0_b_1904_94299" x="-28.6198" y="-28.6198" width="93.2397" height="93.2397" filterUnits="userSpaceOnUse" color-interpolation-filters="sRGB">
<feFlood flood-opacity="0" result="BackgroundImageFix"/>
<feGaussianBlur in="BackgroundImageFix" stdDeviation="14.3099"/>
<feComposite in2="SourceAlpha" operator="in" result="effect1_backgroundBlur_1904_94299"/>
<feBlend mode="normal" in="SourceGraphic" in2="effect1_backgroundBlur_1904_94299" result="shape"/>
</filter>
<linearGradient id="paint0_linear_1904_94299" x1="26.3333" y1="31.6667" x2="4.10335" y2="10.0312" gradientUnits="userSpaceOnUse">
<stop offset="0.222951" stop-color="#3A40FF"/>
<stop offset="0.376393" stop-color="#2D2EF2"/>
<stop offset="1" stop-color="#2F0092"/>
</linearGradient>
</defs>
</svg>
