<svg width="164" height="30" viewBox="0 0 164 30" fill="none" xmlns="http://www.w3.org/2000/svg">
<path d="M0 9.79248H14.9079C17.6257 9.79248 19.8289 11.9957 19.8289 14.7135V29.6214H4.92101C2.20321 29.6214 0 27.4182 0 24.7004V9.79248Z" fill="url(#paint0_linear_1643_13984)"/>
<path d="M9.41284 0.378418H24.3208C27.0386 0.378418 29.2418 2.58163 29.2418 5.29943V20.2074H14.3338C11.6161 20.2074 9.41284 18.0041 9.41284 15.2863V0.378418Z" fill="url(#paint1_linear_1643_13984)"/>
<path d="M19.8277 20.2073H14.3338C11.6161 20.2073 9.41284 18.0041 9.41284 15.2863V9.79297H14.9067C17.6245 9.79297 19.8277 11.9962 19.8277 14.714V20.2073Z" fill="url(#paint2_linear_1643_13984)"/>
<path d="M36.665 22.7314V8.21216H39.2049V12.932C39.9033 12.2759 41.0462 11.8526 42.0833 11.8526C44.9829 11.8526 46.909 13.5669 46.909 16.1491V22.7314H44.3692V16.4454C44.3692 15.0273 43.3321 14.0961 41.787 14.0961C40.2419 14.0961 39.2049 15.0273 39.2049 16.4454V22.7314H36.665Z" fill="#0B0B13"/>
<path d="M48.8598 22.7314V12.1489H51.3996V13.3976C51.9499 12.5298 52.987 11.9372 53.9606 11.9372C54.3416 11.9372 54.786 12.0219 55.0824 12.1489V14.0961H54.2146C52.5214 14.0961 51.3996 15.0485 51.3996 16.4666V22.7314H48.8598Z" fill="#0B0B13"/>
<path d="M59.8057 22.7314L56.1441 12.1489H58.8109L61.0332 19.853L63.0016 12.1489H65.3721L67.3404 19.853L69.5628 12.1489H72.2296L68.5892 22.7314H66.007L64.1868 15.8951L62.3878 22.7314H59.8057Z" fill="#0B0B13"/>
<path d="M77.921 23.0278C74.4711 23.0278 72.1853 20.7843 72.1853 17.4402C72.1853 14.0961 74.4711 11.8526 77.921 11.8526C81.3709 11.8526 83.6568 14.0961 83.6568 17.4402C83.6568 20.7843 81.3709 23.0278 77.921 23.0278ZM77.921 20.7843C79.8471 20.7843 81.117 19.4509 81.117 17.4402C81.117 15.4295 79.8471 14.0961 77.921 14.0961C75.995 14.0961 74.7251 15.4295 74.7251 17.4402C74.7251 19.4509 75.995 20.7843 77.921 20.7843Z" fill="#0B0B13"/>
<path d="M84.9687 22.7314V12.1489H87.5085V13.3976C88.0588 12.5298 89.0959 11.9372 90.0695 11.9372C90.4505 11.9372 90.8949 12.0219 91.1912 12.1489V14.0961H90.3235C88.6303 14.0961 87.5085 15.0485 87.5085 16.4666V22.7314H84.9687Z" fill="#0B0B13"/>
<path d="M92.7609 22.7314V8.21216H95.3008V15.747L98.8777 12.1489H102.433L97.9464 16.5512L102.941 22.7314H99.6819L96.1262 18.3291L95.3008 19.1545V22.7314H92.7609Z" fill="#0B0B13"/>
<path d="M108.429 23.0278C104.979 23.0278 102.693 20.7843 102.693 17.4402C102.693 14.0961 104.979 11.8526 108.429 11.8526C111.286 11.8526 113.487 13.6516 113.953 16.3396H111.519C111.18 14.985 109.952 14.0961 108.429 14.0961C106.503 14.0961 105.233 15.4295 105.233 17.4402C105.233 19.4509 106.503 20.7843 108.429 20.7843C109.974 20.7843 111.222 19.853 111.54 18.4349H113.974C113.529 21.1864 111.307 23.0278 108.429 23.0278Z" fill="#0B0B13"/>
<path d="M116.571 26.6682L118.391 22.0542L114.348 12.1489H117.057L119.682 18.7947L122.285 12.1489H125.015L119.301 26.6682H116.571Z" fill="#0B0B13"/>
<path d="M131.123 23.0278C127.673 23.0278 125.388 20.7843 125.388 17.4402C125.388 14.0961 127.673 11.8526 131.123 11.8526C133.981 11.8526 136.182 13.6516 136.647 16.3396H134.213C133.875 14.985 132.647 14.0961 131.123 14.0961C129.197 14.0961 127.927 15.4295 127.927 17.4402C127.927 19.4509 129.197 20.7843 131.123 20.7843C132.668 20.7843 133.917 19.853 134.235 18.4349H136.669C136.224 21.1864 134.002 23.0278 131.123 23.0278Z" fill="#0B0B13"/>
<path d="M138.192 22.7314V8.21216H140.731V22.7314H138.192Z" fill="#0B0B13"/>
<path d="M147.989 23.0278C144.539 23.0278 142.253 20.7843 142.253 17.4402C142.253 14.0961 144.539 11.8526 147.989 11.8526C151.439 11.8526 153.725 14.0961 153.725 17.4402V17.927L153.513 18.1386H144.836C145.068 19.8107 146.338 20.9112 147.989 20.9112C149.238 20.9112 150.402 20.1916 150.889 19.1334H153.471C152.773 21.4615 150.571 23.0278 147.989 23.0278ZM145.005 16.0221H150.974C150.487 14.7099 149.407 13.9691 147.989 13.9691C146.571 13.9691 145.492 14.7099 145.005 16.0221Z" fill="#0B0B13"/>
<path d="M159.09 23.0278C156.233 23.0278 154.264 21.4615 154.18 19.1334H156.571C156.656 20.1916 157.672 20.9112 159.09 20.9112C160.508 20.9112 161.46 20.361 161.46 19.5355C161.46 19.0275 160.825 18.6677 158.857 18.2868C155.788 17.5883 154.815 16.8899 154.815 15.1332C154.815 13.1648 156.529 11.8526 159.09 11.8526C161.122 11.8526 162.9 12.9532 163.513 14.604L161.185 15.1755C160.868 14.4559 160.021 13.9691 159.09 13.9691C158.053 13.9691 157.354 14.3924 157.354 15.0062C157.354 15.4506 157.841 15.7258 159.344 16.0644C162.878 16.8052 164 17.6095 164 19.5355C164 21.6309 162.032 23.0278 159.09 23.0278Z" fill="#0B0B13"/>
<defs>
<linearGradient id="paint0_linear_1643_13984" x1="19.8289" y1="28.6484" x2="-1.37489" y2="23.7687" gradientUnits="userSpaceOnUse">
<stop stop-color="#2A33FF"/>
<stop offset="1" stop-color="#5D41FD"/>
</linearGradient>
<linearGradient id="paint1_linear_1643_13984" x1="12.6384" y1="18.0615" x2="23.5616" y2="10.1305" gradientUnits="userSpaceOnUse">
<stop stop-color="#7DA9FF"/>
<stop offset="1" stop-color="#A6D0FF"/>
</linearGradient>
<linearGradient id="paint2_linear_1643_13984" x1="19.1881" y1="18.2748" x2="14.8799" y2="7.15874" gradientUnits="userSpaceOnUse">
<stop stop-color="#2D34FF"/>
<stop offset="1" stop-color="#2F0092"/>
</linearGradient>
</defs>
</svg>
