<svg width="207" height="30" viewBox="0 0 207 30" fill="none" xmlns="http://www.w3.org/2000/svg">
<path d="M21.1277 9.52988C21.1277 16.3821 15.5881 21.9369 8.75461 21.9369C5.33507 21.9369 2.23953 20.5459 0 18.2975V0.985352H17.7259C19.8341 3.21025 21.1277 6.21858 21.1277 9.52988Z" fill="url(#paint0_linear_2621_68046)"/>
<path d="M6.49023 20.4654C6.49023 13.6093 12.033 8.05127 18.8704 8.05127C22.2919 8.05127 25.3893 9.44305 27.6301 11.6928V29.0148L9.894 29.0148C7.78463 26.7887 6.49023 23.7786 6.49023 20.4654Z" fill="url(#paint1_linear_2621_68046)"/>
<path d="M8.7548 21.9367C15.5883 21.9367 21.1279 16.3819 21.1279 9.5297C21.1279 9.09582 21.1057 8.66714 21.0624 8.24475C20.3509 8.1173 19.6184 8.05078 18.8704 8.05078C12.033 8.05078 6.49023 13.6088 6.49023 20.4649C6.49023 20.8958 6.51213 21.3216 6.55486 21.7412C7.2688 21.8697 8.00399 21.9367 8.7548 21.9367Z" fill="url(#paint2_linear_2621_68046)"/>
<path d="M39.8334 22.3984C37.8297 22.3984 36.5072 21.2563 36.5072 19.5532V14.1031H34.9043V12.0994H36.5072V8.37256H38.9117V12.0994H41.4363V14.1031H38.9117V19.5532C38.9117 20.0541 39.2723 20.3947 39.7933 20.3947H41.5365V22.1179C41.1758 22.2782 40.4946 22.3984 39.8334 22.3984Z" fill="white"/>
<path d="M47.4311 22.3984C44.3054 22.3984 42.2215 20.2745 42.2215 17.1086C42.2215 13.9428 44.3054 11.8189 47.4311 11.8189C48.6133 11.8189 49.9157 12.3599 50.6771 13.1814V12.0994H53.0815V22.1179H50.6771V21.0359C49.9157 21.8574 48.6133 22.3984 47.4311 22.3984ZM47.6716 20.2745C49.4749 20.2745 50.6771 19.0122 50.6771 17.1086C50.6771 15.2051 49.4749 13.9428 47.6716 13.9428C45.8482 13.9428 44.626 15.2051 44.626 17.1086C44.626 19.0122 45.8482 20.2745 47.6716 20.2745Z" fill="white"/>
<path d="M54.4492 22.1179L58.3364 16.8281L54.8299 12.0994H57.7553L59.7389 15.105L61.6825 12.0994H64.6279L61.1215 16.8281L65.0086 22.1179H62.0632L59.7389 18.5713L57.3946 22.1179H54.4492Z" fill="white"/>
<path d="M76.0241 22.3984C72.7581 22.3984 70.5941 20.2745 70.5941 17.1086C70.5941 13.9428 72.7581 11.8189 76.0241 11.8189C78.7291 11.8189 80.8129 13.522 81.2537 16.0667H78.9495C78.6289 14.7844 77.4667 13.9428 76.0241 13.9428C74.2007 13.9428 72.9985 15.2051 72.9985 17.1086C72.9985 19.0122 74.2007 20.2745 76.0241 20.2745C77.4868 20.2745 78.669 19.3929 78.9695 18.0504H81.2738C80.853 20.6552 78.7491 22.3984 76.0241 22.3984Z" fill="white"/>
<path d="M82.7156 22.1179V12.0994H85.1201V13.2816C85.641 12.4601 86.6228 11.8991 87.5445 11.8991C87.9052 11.8991 88.326 11.9792 88.6065 12.0994V13.9428H87.785C86.182 13.9428 85.1201 14.8445 85.1201 16.187V22.1179H82.7156Z" fill="white"/>
<path d="M94.1238 22.3984C90.8578 22.3984 88.6938 20.2745 88.6938 17.1086C88.6938 13.9428 90.8578 11.8189 94.1238 11.8189C97.3898 11.8189 99.5538 13.9428 99.5538 17.1086V17.5695L99.3535 17.7699H91.1383C91.3587 19.3528 92.561 20.3947 94.1238 20.3947C95.306 20.3947 96.408 19.7134 96.8689 18.7116H99.3134C98.6522 20.9157 96.5683 22.3984 94.1238 22.3984ZM91.2986 15.7662H96.949C96.4882 14.5239 95.4663 13.8226 94.1238 13.8226C92.7814 13.8226 91.7595 14.5239 91.2986 15.7662Z" fill="white"/>
<path d="M105.88 22.3984C102.715 22.3984 100.591 20.2745 100.591 17.1086C100.591 13.9428 102.715 11.8189 105.88 11.8189C107.103 11.8189 108.445 12.3799 109.207 13.2015V8.37256H111.611V22.1179H109.207V21.0158C108.445 21.8374 107.103 22.3984 105.88 22.3984ZM106.121 20.2745C107.964 20.2745 109.207 19.0122 109.207 17.1086C109.207 15.2051 107.964 13.9428 106.121 13.9428C104.237 13.9428 102.995 15.2051 102.995 17.1086C102.995 19.0122 104.237 20.2745 106.121 20.2745Z" fill="white"/>
<path d="M113.847 10.5766V8.37256H116.252V10.5766H113.847ZM113.847 22.1179V12.0994H116.252V22.1179H113.847Z" fill="white"/>
<path d="M122.662 22.3984C120.658 22.3984 119.336 21.2563 119.336 19.5532V14.1031H117.733V12.0994H119.336V8.37256H121.74V12.0994H124.265V14.1031H121.74V19.5532C121.74 20.0541 122.101 20.3947 122.622 20.3947H124.365V22.1179C124.004 22.2782 123.323 22.3984 122.662 22.3984Z" fill="white"/>
<path d="M134.316 22.3984C131.611 22.3984 129.748 20.9157 129.668 18.7116H131.932C132.012 19.7134 132.974 20.3947 134.316 20.3947C135.659 20.3947 136.56 19.8737 136.56 19.0923C136.56 18.6114 135.959 18.2708 134.096 17.9101C131.191 17.2489 130.269 16.5877 130.269 14.9246C130.269 13.0612 131.892 11.8189 134.316 11.8189C136.24 11.8189 137.923 12.8608 138.504 14.4237L136.3 14.9647C135.999 14.2834 135.198 13.8226 134.316 13.8226C133.334 13.8226 132.673 14.2233 132.673 14.8044C132.673 15.2252 133.134 15.4857 134.557 15.8062C137.903 16.5075 138.965 17.2689 138.965 19.0923C138.965 21.076 137.101 22.3984 134.316 22.3984Z" fill="white"/>
<path d="M145.429 22.3984C142.163 22.3984 139.999 20.2745 139.999 17.1086C139.999 13.9428 142.163 11.8189 145.429 11.8189C148.695 11.8189 150.859 13.9428 150.859 17.1086V17.5695L150.659 17.7699H142.444C142.664 19.3528 143.866 20.3947 145.429 20.3947C146.611 20.3947 147.713 19.7134 148.174 18.7116H150.619C149.958 20.9157 147.874 22.3984 145.429 22.3984ZM142.604 15.7662H148.254C147.794 14.5239 146.772 13.8226 145.429 13.8226C144.087 13.8226 143.065 14.5239 142.604 15.7662Z" fill="white"/>
<path d="M152.297 22.1179V12.0994H154.701V13.2816C155.222 12.4601 156.204 11.8991 157.126 11.8991C157.486 11.8991 157.907 11.9792 158.188 12.0994V13.9428H157.366C155.763 13.9428 154.701 14.8445 154.701 16.187V22.1179H152.297Z" fill="white"/>
<path d="M163.2 22.1179L159.193 12.0994H161.778L164.423 19.5932L167.087 12.0994H169.672L165.645 22.1179H163.2Z" fill="white"/>
<path d="M170.847 10.5766V8.37256H173.251V10.5766H170.847ZM170.847 22.1179V12.0994H173.251V22.1179H170.847Z" fill="white"/>
<path d="M180.122 22.3984C176.856 22.3984 174.692 20.2745 174.692 17.1086C174.692 13.9428 176.856 11.8189 180.122 11.8189C182.827 11.8189 184.911 13.522 185.352 16.0667H183.047C182.727 14.7844 181.565 13.9428 180.122 13.9428C178.299 13.9428 177.096 15.2051 177.096 17.1086C177.096 19.0122 178.299 20.2745 180.122 20.2745C181.585 20.2745 182.767 19.3929 183.067 18.0504H185.372C184.951 20.6552 182.847 22.3984 180.122 22.3984Z" fill="white"/>
<path d="M191.843 22.3984C188.577 22.3984 186.413 20.2745 186.413 17.1086C186.413 13.9428 188.577 11.8189 191.843 11.8189C195.109 11.8189 197.273 13.9428 197.273 17.1086V17.5695L197.072 17.7699H188.857C189.078 19.3528 190.28 20.3947 191.843 20.3947C193.025 20.3947 194.127 19.7134 194.588 18.7116H197.032C196.371 20.9157 194.287 22.3984 191.843 22.3984ZM189.018 15.7662H194.668C194.207 14.5239 193.185 13.8226 191.843 13.8226C190.5 13.8226 189.479 14.5239 189.018 15.7662Z" fill="white"/>
<path d="M202.352 22.3984C199.647 22.3984 197.783 20.9157 197.703 18.7116H199.967C200.048 19.7134 201.009 20.3947 202.352 20.3947C203.694 20.3947 204.596 19.8737 204.596 19.0923C204.596 18.6114 203.995 18.2708 202.131 17.9101C199.226 17.2489 198.304 16.5877 198.304 14.9246C198.304 13.0612 199.927 11.8189 202.352 11.8189C204.275 11.8189 205.958 12.8608 206.539 14.4237L204.335 14.9647C204.035 14.2834 203.233 13.8226 202.352 13.8226C201.37 13.8226 200.709 14.2233 200.709 14.8044C200.709 15.2252 201.17 15.4857 202.592 15.8062C205.938 16.5075 207 17.2689 207 19.0923C207 21.076 205.137 22.3984 202.352 22.3984Z" fill="white"/>
<defs>
<linearGradient id="paint0_linear_2621_68046" x1="15.3074" y1="21.9369" x2="16.7241" y2="5.84001" gradientUnits="userSpaceOnUse">
<stop stop-color="#7DA9FF"/>
<stop offset="1" stop-color="#A6D0FF"/>
</linearGradient>
<linearGradient id="paint1_linear_2621_68046" x1="23.9606" y1="10.6282" x2="20.8772" y2="30.1622" gradientUnits="userSpaceOnUse">
<stop stop-color="#2A33FF"/>
<stop offset="1" stop-color="#5D41FD"/>
</linearGradient>
<linearGradient id="paint2_linear_2621_68046" x1="20.2142" y1="11.397" x2="8.02392" y2="23.7248" gradientUnits="userSpaceOnUse">
<stop stop-color="#2D34FF"/>
<stop offset="1" stop-color="#2F0092"/>
</linearGradient>
</defs>
</svg>
